<svg width="115" height="24" viewBox="0 0 115 24" fill="none" xmlns="http://www.w3.org/2000/svg">
<path d="M4.06566 18H2.08566V5.4H4.06566V18ZM9.09301 18H7.11301V5.4H9.09301V18ZM14.1204 18H12.1404V5.4H14.1204V18ZM21.1228 18V5.4H26.3428C28.5568 5.4 30.2488 7.092 30.2488 9.252C30.2488 11.412 28.5568 13.086 26.3428 13.086H23.1028V18H21.1228ZM26.1808 7.128H23.1028V11.43H26.1808C27.4228 11.43 28.2688 10.494 28.2688 9.288C28.2688 8.064 27.4228 7.128 26.1808 7.128ZM30.84 15.318C30.84 13.608 32.01 12.654 33.918 12.528L36.726 12.348V11.736C36.726 10.656 36.06 10.026 34.908 10.026C34.008 10.026 33.216 10.314 32.406 10.962L31.542 9.558C32.55 8.73 33.756 8.28 35.178 8.28C37.248 8.28 38.598 9.54 38.598 11.502V15.768C38.598 16.128 38.796 16.326 39.174 16.326H39.642V18H38.688C37.68 18 36.996 17.46 36.834 16.614C36.276 17.568 35.268 18.18 34.062 18.18C32.208 18.18 30.84 16.974 30.84 15.318ZM32.694 15.282C32.694 16.092 33.414 16.65 34.44 16.65C35.7 16.65 36.726 15.75 36.726 14.652V13.788L34.17 13.986C33.234 14.058 32.694 14.49 32.694 15.282ZM44.7877 18C43.2757 18 42.4297 17.1 42.4297 15.84V10.134H40.5037V8.478H42.4297V5.67H44.3377V8.478H46.8757V10.134H44.3377V15.57C44.3377 16.074 44.6977 16.344 45.2737 16.344H46.8757V18H44.7877ZM49.7598 6.912C49.1478 6.912 48.6078 6.39 48.6078 5.76C48.6078 5.112 49.1478 4.608 49.7598 4.608C50.3898 4.608 50.9118 5.112 50.9118 5.76C50.9118 6.39 50.3898 6.912 49.7598 6.912ZM50.7138 8.478V18H48.8058V8.478H50.7138ZM56.8639 18C55.3519 18 54.5059 17.1 54.5059 15.84V10.134H52.5799V8.478H54.5059V5.67H56.4139V8.478H58.9519V10.134H56.4139V15.57C56.4139 16.074 56.7739 16.344 57.3499 16.344H58.9519V18H56.8639ZM68.8062 13.824C68.8062 16.488 67.0242 18.198 64.5222 18.198C62.0562 18.198 60.2562 16.488 60.2562 13.824V12.636C60.2562 9.99 62.0382 8.262 64.5222 8.262C67.0242 8.262 68.8062 9.972 68.8062 12.636V13.824ZM66.9162 12.726C66.9162 11.034 66.0162 9.936 64.5222 9.936C63.0462 9.936 62.1462 11.034 62.1462 12.726V13.752C62.1462 15.444 63.0462 16.524 64.5222 16.524C66.0162 16.524 66.9162 15.444 66.9162 13.752V12.726ZM74.5843 18.198C72.3703 18.198 70.7863 16.938 70.4443 15.048H72.2623C72.4783 16.02 73.3243 16.686 74.6023 16.686C75.5743 16.686 76.2223 16.182 76.2223 15.48C76.2223 14.868 75.7363 14.472 74.9623 14.274L73.1623 13.824C71.4703 13.41 70.6063 12.51 70.6063 11.142C70.6063 9.414 71.9563 8.262 73.9543 8.262C76.0423 8.262 77.6443 9.522 77.9323 11.43H76.0963C75.8803 10.476 75.0163 9.792 73.9543 9.792C73.0363 9.792 72.4783 10.278 72.4783 10.962C72.4783 11.556 72.9463 11.97 73.7923 12.186L75.4843 12.6C77.1943 13.032 78.0943 13.95 78.0943 15.318C78.0943 17.028 76.6723 18.198 74.5843 18.198ZM83.5593 14.148H85.5033C85.7193 15.624 86.8173 16.524 88.5273 16.524C90.1113 16.524 91.0113 15.768 91.0113 14.688C91.0113 13.806 90.3633 13.176 89.1393 12.852L86.8713 12.294C84.7473 11.79 83.6853 10.602 83.6853 8.856C83.6853 6.642 85.5033 5.202 87.9333 5.202C90.5253 5.202 92.3613 6.804 92.6673 9.18H90.7233C90.4533 7.74 89.4813 6.876 87.9153 6.876C86.6193 6.876 85.6473 7.578 85.6473 8.694C85.6473 9.594 86.2773 10.188 87.4113 10.476L89.6973 11.052C91.9653 11.628 92.9733 12.726 92.9733 14.508C92.9733 16.614 91.2273 18.18 88.5273 18.18C85.7913 18.18 83.7933 16.56 83.5593 14.148ZM95.6152 15.822C96.2632 15.822 96.7852 16.344 96.7852 16.992C96.7852 17.64 96.2632 18.162 95.6152 18.162C94.9852 18.162 94.4632 17.64 94.4632 16.992C94.4632 16.344 94.9852 15.822 95.6152 15.822ZM105.174 5.4L109.98 18H107.856L106.65 14.724H101.196L99.9905 18H97.9565L102.78 5.4H105.174ZM101.826 12.996H106.002L103.914 7.308L101.826 12.996ZM112.297 15.822C112.945 15.822 113.467 16.344 113.467 16.992C113.467 17.64 112.945 18.162 112.297 18.162C111.667 18.162 111.145 17.64 111.145 16.992C111.145 16.344 111.667 15.822 112.297 15.822Z" fill="white"/>
</svg>
