<svg width="343" height="56" viewBox="0 0 343 56" fill="none" xmlns="http://www.w3.org/2000/svg">
<g clip-path="url(#clip0_21149_269256)">
<rect width="343" height="56" fill="black"/>
<path d="M109.555 34H107.665V21.4H110.689L114.343 31.48L117.979 21.4H120.985V34H119.077L119.095 23.344L115.225 34H113.407L109.537 23.38L109.555 34ZM123.113 31.318C123.113 29.608 124.283 28.654 126.191 28.528L128.999 28.348V27.736C128.999 26.656 128.333 26.026 127.181 26.026C126.281 26.026 125.489 26.314 124.679 26.962L123.815 25.558C124.823 24.73 126.029 24.28 127.451 24.28C129.521 24.28 130.871 25.54 130.871 27.502V31.768C130.871 32.128 131.069 32.326 131.447 32.326H131.915V34H130.961C129.953 34 129.269 33.46 129.107 32.614C128.549 33.568 127.541 34.18 126.335 34.18C124.481 34.18 123.113 32.974 123.113 31.318ZM124.967 31.282C124.967 32.092 125.687 32.65 126.713 32.65C127.973 32.65 128.999 31.75 128.999 30.652V29.788L126.443 29.986C125.507 30.058 124.967 30.49 124.967 31.282ZM142.133 27.79V34H140.225V28.204C140.225 26.962 139.379 25.99 138.083 25.99C136.769 25.99 135.833 26.962 135.833 28.276V34H133.925V24.478H135.833V26.17C136.373 25 137.471 24.28 138.767 24.28C140.783 24.28 142.133 25.81 142.133 27.79ZM148.294 34C146.782 34 145.936 33.1 145.936 31.84V26.134H144.01V24.478H145.936V21.67H147.844V24.478H150.382V26.134H147.844V31.57C147.844 32.074 148.204 32.344 148.78 32.344H150.382V34H148.294ZM151.686 29.806V28.672C151.686 26.044 153.414 24.262 155.88 24.262C158.166 24.262 159.786 26.062 159.786 28.618V29.842H153.558C153.576 31.516 154.53 32.542 156.024 32.542C156.96 32.542 157.716 32.182 158.4 31.426L159.606 32.542C158.706 33.604 157.536 34.198 155.97 34.198C153.45 34.198 151.686 32.434 151.686 29.806ZM155.808 25.936C154.53 25.936 153.666 26.836 153.576 28.348H157.968C157.914 26.854 157.068 25.936 155.808 25.936ZM170.311 27.79V34H168.403V28.204C168.403 26.962 167.557 25.99 166.261 25.99C164.947 25.99 164.011 26.962 164.011 28.276V34H162.103V24.478H164.011V26.17C164.551 25 165.649 24.28 166.945 24.28C168.961 24.28 170.311 25.81 170.311 27.79ZM174.113 22.912C173.501 22.912 172.961 22.39 172.961 21.76C172.961 21.112 173.501 20.608 174.113 20.608C174.743 20.608 175.265 21.112 175.265 21.76C175.265 22.39 174.743 22.912 174.113 22.912ZM175.067 24.478V34H173.159V24.478H175.067ZM179.813 28.294V34H177.905V24.478H179.813V26.17C180.335 25 181.397 24.28 182.621 24.28C184.115 24.28 185.249 25.18 185.681 26.512C186.131 25.162 187.265 24.28 188.687 24.28C190.667 24.28 191.981 25.828 191.981 27.808V34H190.073V28.24C190.073 26.962 189.245 25.99 188.021 25.99C186.779 25.99 185.897 26.98 185.897 28.294V34H183.989V28.24C183.989 26.962 183.161 25.99 181.955 25.99C180.695 25.99 179.813 26.98 179.813 28.294ZM195.787 22.912C195.175 22.912 194.635 22.39 194.635 21.76C194.635 21.112 195.175 20.608 195.787 20.608C196.417 20.608 196.939 21.112 196.939 21.76C196.939 22.39 196.417 22.912 195.787 22.912ZM196.741 24.478V34H194.833V24.478H196.741ZM199.129 29.806V28.672C199.129 26.044 200.857 24.262 203.323 24.262C205.609 24.262 207.229 26.062 207.229 28.618V29.842H201.001C201.019 31.516 201.973 32.542 203.467 32.542C204.403 32.542 205.159 32.182 205.843 31.426L207.049 32.542C206.149 33.604 204.979 34.198 203.413 34.198C200.893 34.198 199.129 32.434 199.129 29.806ZM203.251 25.936C201.973 25.936 201.109 26.836 201.019 28.348H205.411C205.357 26.854 204.511 25.936 203.251 25.936ZM217.754 27.79V34H215.846V28.204C215.846 26.962 215 25.99 213.704 25.99C212.39 25.99 211.454 26.962 211.454 28.276V34H209.546V24.478H211.454V26.17C211.994 25 213.092 24.28 214.388 24.28C216.404 24.28 217.754 25.81 217.754 27.79ZM223.915 34C222.403 34 221.557 33.1 221.557 31.84V26.134H219.631V24.478H221.557V21.67H223.465V24.478H226.003V26.134H223.465V31.57C223.465 32.074 223.825 32.344 224.401 32.344H226.003V34H223.915ZM235.857 29.824C235.857 32.488 234.075 34.198 231.573 34.198C229.107 34.198 227.307 32.488 227.307 29.824V28.636C227.307 25.99 229.089 24.262 231.573 24.262C234.075 24.262 235.857 25.972 235.857 28.636V29.824ZM233.967 28.726C233.967 27.034 233.067 25.936 231.573 25.936C230.097 25.936 229.197 27.034 229.197 28.726V29.752C229.197 31.444 230.097 32.524 231.573 32.524C233.067 32.524 233.967 31.444 233.967 29.752V28.726Z" fill="white"/>
</g>
<defs>
<clipPath id="clip0_21149_269256">
<rect width="343" height="56" rx="8" fill="white"/>
</clipPath>
</defs>
</svg>
