<svg width="343" height="56" viewBox="0 0 343 56" fill="none" xmlns="http://www.w3.org/2000/svg">
<g clip-path="url(#clip0_21149_269256)">
<rect width="343" height="56" fill="black"/>
<path d="M135.13 34L130.324 21.4H132.448L136.372 32.002L140.314 21.4H142.348L137.524 34H135.13ZM142.668 29.806V28.672C142.668 26.044 144.396 24.262 146.862 24.262C149.148 24.262 150.768 26.062 150.768 28.618V29.842H144.54C144.558 31.516 145.512 32.542 147.006 32.542C147.942 32.542 148.698 32.182 149.382 31.426L150.588 32.542C149.688 33.604 148.518 34.198 146.952 34.198C144.432 34.198 142.668 32.434 142.668 29.806ZM146.79 25.936C145.512 25.936 144.648 26.836 144.558 28.348H148.95C148.896 26.854 148.05 25.936 146.79 25.936ZM161.293 27.79V34H159.385V28.204C159.385 26.962 158.539 25.99 157.243 25.99C155.929 25.99 154.993 26.962 154.993 28.276V34H153.085V20.734H154.993V26.17C155.533 25 156.631 24.28 157.927 24.28C159.943 24.28 161.293 25.81 161.293 27.79ZM166.05 24.478V34H164.142V24.478H166.05ZM165.87 20.518H168.048L165.618 23.002H163.782L165.87 20.518ZM172.65 34.198C170.202 34.198 168.438 32.488 168.438 29.824V28.636C168.438 25.99 170.184 24.262 172.65 24.262C174.774 24.262 176.322 25.594 176.682 27.718H174.81C174.522 26.62 173.748 25.936 172.65 25.936C171.192 25.936 170.328 27.034 170.328 28.726V29.752C170.328 31.444 171.192 32.524 172.65 32.524C173.766 32.524 174.54 31.858 174.828 30.76H176.682C176.322 32.848 174.72 34.198 172.65 34.198ZM178.732 30.67V24.478H180.64V30.256C180.64 31.516 181.504 32.488 182.782 32.488C184.096 32.488 185.032 31.498 185.032 30.202V24.478H186.94V34H185.032V32.326C184.474 33.496 183.376 34.198 182.116 34.198C180.1 34.198 178.732 32.65 178.732 30.67ZM191.696 34H189.788V20.734H191.696V34ZM202.634 29.824C202.634 32.488 200.852 34.198 198.35 34.198C195.884 34.198 194.084 32.488 194.084 29.824V28.636C194.084 25.99 195.866 24.262 198.35 24.262C200.852 24.262 202.634 25.972 202.634 28.636V29.824ZM200.744 28.726C200.744 27.034 199.844 25.936 198.35 25.936C196.874 25.936 195.974 27.034 195.974 28.726V29.752C195.974 31.444 196.874 32.524 198.35 32.524C199.844 32.524 200.744 31.444 200.744 29.752V28.726ZM208.412 34.198C206.198 34.198 204.614 32.938 204.272 31.048H206.09C206.306 32.02 207.152 32.686 208.43 32.686C209.402 32.686 210.05 32.182 210.05 31.48C210.05 30.868 209.564 30.472 208.79 30.274L206.99 29.824C205.298 29.41 204.434 28.51 204.434 27.142C204.434 25.414 205.784 24.262 207.782 24.262C209.87 24.262 211.472 25.522 211.76 27.43H209.924C209.708 26.476 208.844 25.792 207.782 25.792C206.864 25.792 206.306 26.278 206.306 26.962C206.306 27.556 206.774 27.97 207.62 28.186L209.312 28.6C211.022 29.032 211.922 29.95 211.922 31.318C211.922 33.028 210.5 34.198 208.412 34.198Z" fill="white"/>
</g>
<defs>
<clipPath id="clip0_21149_269256">
<rect width="343" height="56" rx="8" fill="white"/>
</clipPath>
</defs>
</svg>
