<svg width="343" height="56" viewBox="0 0 343 56" fill="none" xmlns="http://www.w3.org/2000/svg">
<g clip-path="url(#clip0_21149_269256)">
<rect width="343" height="56" fill="black"/>
<path d="M120.704 28.384C120.704 31.768 118.508 34 115.106 34H110.39V21.4H115.106C118.49 21.4 120.704 23.632 120.704 27.016V28.384ZM114.98 23.128H112.37V32.272H114.962C117.248 32.272 118.706 30.814 118.706 28.33V27.07C118.706 24.604 117.266 23.128 114.98 23.128ZM124.121 22.912C123.509 22.912 122.969 22.39 122.969 21.76C122.969 21.112 123.509 20.608 124.121 20.608C124.751 20.608 125.273 21.112 125.273 21.76C125.273 22.39 124.751 22.912 124.121 22.912ZM125.075 24.478V34H123.167V24.478H125.075ZM131.297 34.198C129.083 34.198 127.499 32.938 127.157 31.048H128.975C129.191 32.02 130.037 32.686 131.315 32.686C132.287 32.686 132.935 32.182 132.935 31.48C132.935 30.868 132.449 30.472 131.675 30.274L129.875 29.824C128.183 29.41 127.319 28.51 127.319 27.142C127.319 25.414 128.669 24.262 130.667 24.262C132.755 24.262 134.357 25.522 134.645 27.43H132.809C132.593 26.476 131.729 25.792 130.667 25.792C129.749 25.792 129.191 26.278 129.191 26.962C129.191 27.556 129.659 27.97 130.505 28.186L132.197 28.6C133.907 29.032 134.807 29.95 134.807 31.318C134.807 33.028 133.385 34.198 131.297 34.198ZM137.001 24.478H138.909V25.9C139.539 24.874 140.547 24.262 141.825 24.262C144.057 24.262 145.695 25.972 145.695 28.582V29.896C145.695 32.506 144.057 34.198 141.825 34.198C140.583 34.198 139.557 33.622 138.909 32.632V37.924H137.001V24.478ZM138.909 29.752C138.909 31.426 139.827 32.524 141.357 32.524C142.887 32.524 143.805 31.426 143.805 29.752V28.726C143.805 27.034 142.887 25.936 141.357 25.936C139.827 25.936 138.909 27.034 138.909 28.726V29.752ZM147.643 29.806V28.672C147.643 26.044 149.371 24.262 151.837 24.262C154.123 24.262 155.743 26.062 155.743 28.618V29.842H149.515C149.533 31.516 150.487 32.542 151.981 32.542C152.917 32.542 153.673 32.182 154.357 31.426L155.563 32.542C154.663 33.604 153.493 34.198 151.927 34.198C149.407 34.198 147.643 32.434 147.643 29.806ZM151.765 25.936C150.487 25.936 149.623 26.836 149.533 28.348H153.925C153.871 26.854 153.025 25.936 151.765 25.936ZM166.268 27.79V34H164.36V28.204C164.36 26.962 163.514 25.99 162.218 25.99C160.904 25.99 159.968 26.962 159.968 28.276V34H158.06V24.478H159.968V26.17C160.508 25 161.606 24.28 162.902 24.28C164.918 24.28 166.268 25.81 166.268 27.79ZM172.5 34.198C170.286 34.198 168.702 32.938 168.36 31.048H170.178C170.394 32.02 171.24 32.686 172.518 32.686C173.49 32.686 174.138 32.182 174.138 31.48C174.138 30.868 173.652 30.472 172.878 30.274L171.078 29.824C169.386 29.41 168.522 28.51 168.522 27.142C168.522 25.414 169.872 24.262 171.87 24.262C173.958 24.262 175.56 25.522 175.848 27.43H174.012C173.796 26.476 172.932 25.792 171.87 25.792C170.952 25.792 170.394 26.278 170.394 26.962C170.394 27.556 170.862 27.97 171.708 28.186L173.4 28.6C175.11 29.032 176.01 29.95 176.01 31.318C176.01 33.028 174.588 34.198 172.5 34.198ZM177.412 31.318C177.412 29.608 178.582 28.654 180.49 28.528L183.298 28.348V27.736C183.298 26.656 182.632 26.026 181.48 26.026C180.58 26.026 179.788 26.314 178.978 26.962L178.114 25.558C179.122 24.73 180.328 24.28 181.75 24.28C183.82 24.28 185.17 25.54 185.17 27.502V31.768C185.17 32.128 185.368 32.326 185.746 32.326H186.214V34H185.26C184.252 34 183.568 33.46 183.406 32.614C182.848 33.568 181.84 34.18 180.634 34.18C178.78 34.18 177.412 32.974 177.412 31.318ZM179.266 31.282C179.266 32.092 179.986 32.65 181.012 32.65C182.272 32.65 183.298 31.75 183.298 30.652V29.788L180.742 29.986C179.806 30.058 179.266 30.49 179.266 31.282ZM196.468 34H194.56V32.56C193.948 33.604 192.904 34.198 191.626 34.198C189.412 34.198 187.774 32.506 187.774 29.896V28.582C187.774 25.972 189.412 24.262 191.626 24.262C192.886 24.262 193.912 24.838 194.56 25.846V20.734H196.468V34ZM194.56 28.726C194.56 27.034 193.624 25.936 192.112 25.936C190.582 25.936 189.664 27.034 189.664 28.726V29.752C189.664 31.444 190.582 32.524 192.112 32.524C193.624 32.524 194.56 31.444 194.56 29.752V28.726ZM207.398 29.824C207.398 32.488 205.616 34.198 203.114 34.198C200.648 34.198 198.848 32.488 198.848 29.824V28.636C198.848 25.99 200.63 24.262 203.114 24.262C205.616 24.262 207.398 25.972 207.398 28.636V29.824ZM205.508 28.726C205.508 27.034 204.608 25.936 203.114 25.936C201.638 25.936 200.738 27.034 200.738 28.726V29.752C200.738 31.444 201.638 32.524 203.114 32.524C204.608 32.524 205.508 31.444 205.508 29.752V28.726ZM214.958 26.26H213.968C212.744 26.26 211.7 27.232 211.7 28.726V34H209.792V24.478H211.7V26.332C212.096 25.18 212.96 24.388 214.184 24.388H214.958V26.26ZM216.057 29.806V28.672C216.057 26.044 217.785 24.262 220.251 24.262C222.537 24.262 224.157 26.062 224.157 28.618V29.842H217.929C217.947 31.516 218.901 32.542 220.395 32.542C221.331 32.542 222.087 32.182 222.771 31.426L223.977 32.542C223.077 33.604 221.907 34.198 220.341 34.198C217.821 34.198 216.057 32.434 216.057 29.806ZM220.179 25.936C218.901 25.936 218.037 26.836 217.947 28.348H222.339C222.285 26.854 221.439 25.936 220.179 25.936ZM229.858 34.198C227.644 34.198 226.06 32.938 225.718 31.048H227.536C227.752 32.02 228.598 32.686 229.876 32.686C230.848 32.686 231.496 32.182 231.496 31.48C231.496 30.868 231.01 30.472 230.236 30.274L228.436 29.824C226.744 29.41 225.88 28.51 225.88 27.142C225.88 25.414 227.23 24.262 229.228 24.262C231.316 24.262 232.918 25.522 233.206 27.43H231.37C231.154 26.476 230.29 25.792 229.228 25.792C228.31 25.792 227.752 26.278 227.752 26.962C227.752 27.556 228.22 27.97 229.066 28.186L230.758 28.6C232.468 29.032 233.368 29.95 233.368 31.318C233.368 33.028 231.946 34.198 229.858 34.198Z" fill="white"/>
</g>
<defs>
<clipPath id="clip0_21149_269256">
<rect width="343" height="56" rx="8" fill="white"/>
</clipPath>
</defs>
</svg>
