<svg width="343" height="56" viewBox="0 0 343 56" fill="none" xmlns="http://www.w3.org/2000/svg">
<g clip-path="url(#clip0_21149_269256)">
<rect width="343" height="56" fill="black"/>
<path d="M137.415 29.158C137.415 31.192 138.729 32.452 140.439 32.452C142.167 32.452 143.499 31.12 143.499 29.158V21.4H145.479V34H143.517V32.362C142.761 33.46 141.537 34.198 140.061 34.198C137.433 34.198 135.435 32.254 135.435 29.302V21.4H137.415V29.158ZM152.162 34.198C149.948 34.198 148.364 32.938 148.022 31.048H149.84C150.056 32.02 150.902 32.686 152.18 32.686C153.152 32.686 153.8 32.182 153.8 31.48C153.8 30.868 153.314 30.472 152.54 30.274L150.74 29.824C149.048 29.41 148.184 28.51 148.184 27.142C148.184 25.414 149.534 24.262 151.532 24.262C153.62 24.262 155.222 25.522 155.51 27.43H153.674C153.458 26.476 152.594 25.792 151.532 25.792C150.614 25.792 150.056 26.278 150.056 26.962C150.056 27.556 150.524 27.97 151.37 28.186L153.062 28.6C154.772 29.032 155.672 29.95 155.672 31.318C155.672 33.028 154.25 34.198 152.162 34.198ZM157.866 30.67V24.478H159.774V30.256C159.774 31.516 160.638 32.488 161.916 32.488C163.23 32.488 164.166 31.498 164.166 30.202V24.478H166.074V34H164.166V32.326C163.608 33.496 162.51 34.198 161.25 34.198C159.234 34.198 157.866 32.65 157.866 30.67ZM168.131 31.318C168.131 29.608 169.301 28.654 171.209 28.528L174.017 28.348V27.736C174.017 26.656 173.351 26.026 172.199 26.026C171.299 26.026 170.507 26.314 169.697 26.962L168.833 25.558C169.841 24.73 171.047 24.28 172.469 24.28C174.539 24.28 175.889 25.54 175.889 27.502V31.768C175.889 32.128 176.087 32.326 176.465 32.326H176.933V34H175.979C174.971 34 174.287 33.46 174.125 32.614C173.567 33.568 172.559 34.18 171.353 34.18C169.499 34.18 168.131 32.974 168.131 31.318ZM169.985 31.282C169.985 32.092 170.705 32.65 171.731 32.65C172.991 32.65 174.017 31.75 174.017 30.652V29.788L171.461 29.986C170.525 30.058 169.985 30.49 169.985 31.282ZM184.109 26.26H183.119C181.895 26.26 180.851 27.232 180.851 28.726V34H178.943V24.478H180.851V26.332C181.247 25.18 182.111 24.388 183.335 24.388H184.109V26.26ZM186.963 22.912C186.351 22.912 185.811 22.39 185.811 21.76C185.811 21.112 186.351 20.608 186.963 20.608C187.593 20.608 188.115 21.112 188.115 21.76C188.115 22.39 187.593 22.912 186.963 22.912ZM187.917 24.478V34H186.009V24.478H187.917ZM198.855 29.824C198.855 32.488 197.073 34.198 194.571 34.198C192.105 34.198 190.305 32.488 190.305 29.824V28.636C190.305 25.99 192.087 24.262 194.571 24.262C197.073 24.262 198.855 25.972 198.855 28.636V29.824ZM196.965 28.726C196.965 27.034 196.065 25.936 194.571 25.936C193.095 25.936 192.195 27.034 192.195 28.726V29.752C192.195 31.444 193.095 32.524 194.571 32.524C196.065 32.524 196.965 31.444 196.965 29.752V28.726ZM204.633 34.198C202.419 34.198 200.835 32.938 200.493 31.048H202.311C202.527 32.02 203.373 32.686 204.651 32.686C205.623 32.686 206.271 32.182 206.271 31.48C206.271 30.868 205.785 30.472 205.011 30.274L203.211 29.824C201.519 29.41 200.655 28.51 200.655 27.142C200.655 25.414 202.005 24.262 204.003 24.262C206.091 24.262 207.693 25.522 207.981 27.43H206.145C205.929 26.476 205.065 25.792 204.003 25.792C203.085 25.792 202.527 26.278 202.527 26.962C202.527 27.556 202.995 27.97 203.841 28.186L205.533 28.6C207.243 29.032 208.143 29.95 208.143 31.318C208.143 33.028 206.721 34.198 204.633 34.198Z" fill="white"/>
</g>
<defs>
<clipPath id="clip0_21149_269256">
<rect width="343" height="56" rx="8" fill="white"/>
</clipPath>
</defs>
</svg>
