<svg width="343" height="56" viewBox="0 0 343 56" fill="none" xmlns="http://www.w3.org/2000/svg">
<rect width="343" height="56" fill="black"/>
<path d="M102.384 34V21.4H107.604C109.818 21.4 111.51 23.092 111.51 25.252C111.51 27.412 109.818 29.086 107.604 29.086H104.364V34H102.384ZM107.442 23.128H104.364V27.43H107.442C108.684 27.43 109.53 26.494 109.53 25.288C109.53 24.064 108.684 23.128 107.442 23.128ZM112.101 31.318C112.101 29.608 113.271 28.654 115.179 28.528L117.987 28.348V27.736C117.987 26.656 117.321 26.026 116.169 26.026C115.269 26.026 114.477 26.314 113.667 26.962L112.803 25.558C113.811 24.73 115.017 24.28 116.439 24.28C118.509 24.28 119.859 25.54 119.859 27.502V31.768C119.859 32.128 120.057 32.326 120.435 32.326H120.903V34H119.949C118.941 34 118.257 33.46 118.095 32.614C117.537 33.568 116.529 34.18 115.323 34.18C113.469 34.18 112.101 32.974 112.101 31.318ZM113.955 31.282C113.955 32.092 114.675 32.65 115.701 32.65C116.961 32.65 117.987 31.75 117.987 30.652V29.788L115.431 29.986C114.495 30.058 113.955 30.49 113.955 31.282ZM128.078 26.26H127.088C125.864 26.26 124.82 27.232 124.82 28.726V34H122.912V24.478H124.82V26.332C125.216 25.18 126.08 24.388 127.304 24.388H128.078V26.26ZM133.291 34C131.779 34 130.933 33.1 130.933 31.84V26.134H129.007V24.478H130.933V21.67H132.841V24.478H135.379V26.134H132.841V31.57C132.841 32.074 133.201 32.344 133.777 32.344H135.379V34H133.291ZM136.683 29.806V28.672C136.683 26.044 138.411 24.262 140.877 24.262C143.163 24.262 144.783 26.062 144.783 28.618V29.842H138.555C138.573 31.516 139.527 32.542 141.021 32.542C141.957 32.542 142.713 32.182 143.397 31.426L144.603 32.542C143.703 33.604 142.533 34.198 140.967 34.198C138.447 34.198 136.683 32.434 136.683 29.806ZM140.805 25.936C139.527 25.936 138.663 26.836 138.573 28.348H142.965C142.911 26.854 142.065 25.936 140.805 25.936ZM150.484 34.198C148.27 34.198 146.686 32.938 146.344 31.048H148.162C148.378 32.02 149.224 32.686 150.502 32.686C151.474 32.686 152.122 32.182 152.122 31.48C152.122 30.868 151.636 30.472 150.862 30.274L149.062 29.824C147.37 29.41 146.506 28.51 146.506 27.142C146.506 25.414 147.856 24.262 149.854 24.262C151.942 24.262 153.544 25.522 153.832 27.43H151.996C151.78 26.476 150.916 25.792 149.854 25.792C148.936 25.792 148.378 26.278 148.378 26.962C148.378 27.556 148.846 27.97 149.692 28.186L151.384 28.6C153.094 29.032 153.994 29.95 153.994 31.318C153.994 33.028 152.572 34.198 150.484 34.198ZM168.387 34H166.479V32.56C165.867 33.604 164.823 34.198 163.545 34.198C161.331 34.198 159.693 32.506 159.693 29.896V28.582C159.693 25.972 161.331 24.262 163.545 24.262C164.805 24.262 165.831 24.838 166.479 25.846V20.734H168.387V34ZM166.479 28.726C166.479 27.034 165.543 25.936 164.031 25.936C162.501 25.936 161.583 27.034 161.583 28.726V29.752C161.583 31.444 162.501 32.524 164.031 32.524C165.543 32.524 166.479 31.444 166.479 29.752V28.726ZM170.767 29.806V28.672C170.767 26.044 172.495 24.262 174.961 24.262C177.247 24.262 178.867 26.062 178.867 28.618V29.842H172.639C172.657 31.516 173.611 32.542 175.105 32.542C176.041 32.542 176.797 32.182 177.481 31.426L178.687 32.542C177.787 33.604 176.617 34.198 175.051 34.198C172.531 34.198 170.767 32.434 170.767 29.806ZM174.889 25.936C173.611 25.936 172.747 26.836 172.657 28.348H177.049C176.995 26.854 176.149 25.936 174.889 25.936ZM184.689 29.806V28.672C184.689 26.044 186.417 24.262 188.883 24.262C191.169 24.262 192.789 26.062 192.789 28.618V29.842H186.561C186.579 31.516 187.533 32.542 189.027 32.542C189.963 32.542 190.719 32.182 191.403 31.426L192.609 32.542C191.709 33.604 190.539 34.198 188.973 34.198C186.453 34.198 184.689 32.434 184.689 29.806ZM188.811 25.936C187.533 25.936 186.669 26.836 186.579 28.348H190.971C190.917 26.854 190.071 25.936 188.811 25.936ZM203.35 24.478V37.924H201.442V32.56C200.83 33.604 199.786 34.198 198.508 34.198C196.294 34.198 194.656 32.506 194.656 29.896V28.582C194.656 25.972 196.294 24.262 198.508 24.262C199.768 24.262 200.794 24.838 201.442 25.846V24.478H203.35ZM201.442 28.726C201.442 27.034 200.506 25.936 198.994 25.936C197.464 25.936 196.546 27.034 196.546 28.726V29.752C196.546 31.444 197.464 32.524 198.994 32.524C200.506 32.524 201.442 31.444 201.442 29.752V28.726ZM206.18 30.67V24.478H208.088V30.256C208.088 31.516 208.952 32.488 210.23 32.488C211.544 32.488 212.48 31.498 212.48 30.202V24.478H214.388V34H212.48V32.326C211.922 33.496 210.824 34.198 209.564 34.198C207.548 34.198 206.18 32.65 206.18 30.67ZM218.19 22.912C217.578 22.912 217.038 22.39 217.038 21.76C217.038 21.112 217.578 20.608 218.19 20.608C218.82 20.608 219.342 21.112 219.342 21.76C219.342 22.39 218.82 22.912 218.19 22.912ZM219.144 24.478V34H217.236V24.478H219.144ZM221.983 24.478H223.891V25.9C224.521 24.874 225.529 24.262 226.807 24.262C229.039 24.262 230.677 25.972 230.677 28.582V29.896C230.677 32.506 229.039 34.198 226.807 34.198C225.565 34.198 224.539 33.622 223.891 32.632V37.924H221.983V24.478ZM223.891 29.752C223.891 31.426 224.809 32.524 226.339 32.524C227.869 32.524 228.787 31.426 228.787 29.752V28.726C228.787 27.034 227.869 25.936 226.339 25.936C224.809 25.936 223.891 27.034 223.891 28.726V29.752ZM241.174 29.824C241.174 32.488 239.392 34.198 236.89 34.198C234.424 34.198 232.624 32.488 232.624 29.824V28.636C232.624 25.99 234.406 24.262 236.89 24.262C239.392 24.262 241.174 25.972 241.174 28.636V29.824ZM239.284 28.726C239.284 27.034 238.384 25.936 236.89 25.936C235.414 25.936 234.514 27.034 234.514 28.726V29.752C234.514 31.444 235.414 32.524 236.89 32.524C238.384 32.524 239.284 31.444 239.284 29.752V28.726Z" fill="white"/>
</svg>
