<svg width="343" height="56" viewBox="0 0 343 56" fill="none" xmlns="http://www.w3.org/2000/svg">
<g clip-path="url(#clip0_21149_269256)">
<rect width="343" height="56" fill="black"/>
<path d="M124.422 25.882H122.496C122.136 24.028 120.84 22.984 119.148 22.984C117.114 22.984 115.638 24.46 115.638 27.052V28.33C115.638 30.94 117.114 32.416 119.148 32.416C120.84 32.416 122.136 31.372 122.496 29.518H124.422C124.026 32.434 121.848 34.216 119.148 34.216C115.962 34.216 113.64 31.948 113.64 28.384V26.998C113.64 23.452 115.962 21.184 119.148 21.184C121.92 21.184 124.026 22.984 124.422 25.882ZM134.686 29.824C134.686 32.488 132.904 34.198 130.402 34.198C127.936 34.198 126.136 32.488 126.136 29.824V28.636C126.136 25.99 127.918 24.262 130.402 24.262C132.904 24.262 134.686 25.972 134.686 28.636V29.824ZM132.796 28.726C132.796 27.034 131.896 25.936 130.402 25.936C128.926 25.936 128.026 27.034 128.026 28.726V29.752C128.026 31.444 128.926 32.524 130.402 32.524C131.896 32.524 132.796 31.444 132.796 29.752V28.726ZM138.988 28.294V34H137.08V24.478H138.988V26.17C139.51 25 140.572 24.28 141.796 24.28C143.29 24.28 144.424 25.18 144.856 26.512C145.306 25.162 146.44 24.28 147.862 24.28C149.842 24.28 151.156 25.828 151.156 27.808V34H149.248V28.24C149.248 26.962 148.42 25.99 147.196 25.99C145.954 25.99 145.072 26.98 145.072 28.294V34H143.164V28.24C143.164 26.962 142.336 25.99 141.13 25.99C139.87 25.99 138.988 26.98 138.988 28.294ZM154.008 34V20.734H155.916V25.864C156.564 24.856 157.59 24.262 158.85 24.262C161.082 24.262 162.702 25.972 162.702 28.582V29.896C162.702 32.506 161.064 34.198 158.85 34.198C157.572 34.198 156.546 33.586 155.916 32.542V34H154.008ZM155.916 28.726V29.752C155.916 31.444 156.852 32.524 158.364 32.524C159.894 32.524 160.812 31.444 160.812 29.752V28.726C160.812 27.034 159.894 25.936 158.364 25.936C156.852 25.936 155.916 27.034 155.916 28.726ZM165.082 30.67V24.478H166.99V30.256C166.99 31.516 167.854 32.488 169.132 32.488C170.446 32.488 171.382 31.498 171.382 30.202V24.478H173.29V34H171.382V32.326C170.824 33.496 169.726 34.198 168.466 34.198C166.45 34.198 165.082 32.65 165.082 30.67ZM179.523 34.198C177.309 34.198 175.725 32.938 175.383 31.048H177.201C177.417 32.02 178.263 32.686 179.541 32.686C180.513 32.686 181.161 32.182 181.161 31.48C181.161 30.868 180.675 30.472 179.901 30.274L178.101 29.824C176.409 29.41 175.545 28.51 175.545 27.142C175.545 25.414 176.895 24.262 178.893 24.262C180.981 24.262 182.583 25.522 182.871 27.43H181.035C180.819 26.476 179.955 25.792 178.893 25.792C177.975 25.792 177.417 26.278 177.417 26.962C177.417 27.556 177.885 27.97 178.731 28.186L180.423 28.6C182.133 29.032 183.033 29.95 183.033 31.318C183.033 33.028 181.611 34.198 179.523 34.198ZM188.187 34C186.675 34 185.829 33.1 185.829 31.84V26.134H183.903V24.478H185.829V21.67H187.737V24.478H190.275V26.134H187.737V31.57C187.737 32.074 188.097 32.344 188.673 32.344H190.275V34H188.187ZM193.159 22.912C192.547 22.912 192.007 22.39 192.007 21.76C192.007 21.112 192.547 20.608 193.159 20.608C193.789 20.608 194.311 21.112 194.311 21.76C194.311 22.39 193.789 22.912 193.159 22.912ZM194.113 24.478V34H192.205V24.478H194.113ZM196.951 34V20.734H198.859V25.864C199.507 24.856 200.533 24.262 201.793 24.262C204.025 24.262 205.645 25.972 205.645 28.582V29.896C205.645 32.506 204.007 34.198 201.793 34.198C200.515 34.198 199.489 33.586 198.859 32.542V34H196.951ZM198.859 28.726V29.752C198.859 31.444 199.795 32.524 201.307 32.524C202.837 32.524 203.755 31.444 203.755 29.752V28.726C203.755 27.034 202.837 25.936 201.307 25.936C199.795 25.936 198.859 27.034 198.859 28.726ZM209.934 34H208.026V20.734H209.934V34ZM212.322 29.806V28.672C212.322 26.044 214.05 24.262 216.516 24.262C218.802 24.262 220.422 26.062 220.422 28.618V29.842H214.194C214.212 31.516 215.166 32.542 216.66 32.542C217.596 32.542 218.352 32.182 219.036 31.426L220.242 32.542C219.342 33.604 218.172 34.198 216.606 34.198C214.086 34.198 212.322 32.434 212.322 29.806ZM216.444 25.936C215.166 25.936 214.302 26.836 214.212 28.348H218.604C218.55 26.854 217.704 25.936 216.444 25.936ZM226.122 34.198C223.908 34.198 222.324 32.938 221.982 31.048H223.8C224.016 32.02 224.862 32.686 226.14 32.686C227.112 32.686 227.76 32.182 227.76 31.48C227.76 30.868 227.274 30.472 226.5 30.274L224.7 29.824C223.008 29.41 222.144 28.51 222.144 27.142C222.144 25.414 223.494 24.262 225.492 24.262C227.58 24.262 229.182 25.522 229.47 27.43H227.634C227.418 26.476 226.554 25.792 225.492 25.792C224.574 25.792 224.016 26.278 224.016 26.962C224.016 27.556 224.484 27.97 225.33 28.186L227.022 28.6C228.732 29.032 229.632 29.95 229.632 31.318C229.632 33.028 228.21 34.198 226.122 34.198Z" fill="white"/>
</g>
<defs>
<clipPath id="clip0_21149_269256">
<rect width="343" height="56" rx="8" fill="white"/>
</clipPath>
</defs>
</svg>
