<svg width="115" height="24" viewBox="0 0 115 24" fill="none" xmlns="http://www.w3.org/2000/svg">
<path d="M12.4608 9.882H10.5348C10.1748 8.028 8.87877 6.984 7.18677 6.984C5.15277 6.984 3.67677 8.46 3.67677 11.052V12.33C3.67677 14.94 5.15277 16.416 7.18677 16.416C8.87877 16.416 10.1748 15.372 10.5348 13.518H12.4608C12.0648 16.434 9.88677 18.216 7.18677 18.216C4.00077 18.216 1.67877 15.948 1.67877 12.384V10.998C1.67877 7.452 4.00077 5.184 7.18677 5.184C9.95877 5.184 12.0648 6.984 12.4608 9.882ZM14.1751 13.806V12.672C14.1751 10.044 15.9031 8.262 18.3691 8.262C20.6551 8.262 22.2751 10.062 22.2751 12.618V13.842H16.0471C16.0651 15.516 17.0191 16.542 18.5131 16.542C19.4491 16.542 20.2051 16.182 20.8891 15.426L22.0951 16.542C21.1951 17.604 20.0251 18.198 18.4591 18.198C15.9391 18.198 14.1751 16.434 14.1751 13.806ZM18.2971 9.936C17.0191 9.936 16.1551 10.836 16.0651 12.348H20.4571C20.4031 10.854 19.5571 9.936 18.2971 9.936ZM29.7579 10.26H28.7679C27.5439 10.26 26.4999 11.232 26.4999 12.726V18H24.5919V8.478H26.4999V10.332C26.8959 9.18 27.7599 8.388 28.9839 8.388H29.7579V10.26ZM36.8243 10.26H35.8343C34.6103 10.26 33.5663 11.232 33.5663 12.726V18H31.6583V8.478H33.5663V10.332C33.9623 9.18 34.8263 8.388 36.0503 8.388H36.8243V10.26ZM37.5812 15.318C37.5812 13.608 38.7512 12.654 40.6592 12.528L43.4672 12.348V11.736C43.4672 10.656 42.8012 10.026 41.6492 10.026C40.7492 10.026 39.9572 10.314 39.1472 10.962L38.2832 9.558C39.2912 8.73 40.4972 8.28 41.9192 8.28C43.9892 8.28 45.3392 9.54 45.3392 11.502V15.768C45.3392 16.128 45.5372 16.326 45.9152 16.326H46.3832V18H45.4292C44.4212 18 43.7372 17.46 43.5752 16.614C43.0172 17.568 42.0092 18.18 40.8032 18.18C38.9492 18.18 37.5812 16.974 37.5812 15.318ZM39.4352 15.282C39.4352 16.092 40.1552 16.65 41.1812 16.65C42.4412 16.65 43.4672 15.75 43.4672 14.652V13.788L40.9112 13.986C39.9752 14.058 39.4352 14.49 39.4352 15.282ZM53.5587 10.26H52.5687C51.3447 10.26 50.3007 11.232 50.3007 12.726V18H48.3927V8.478H50.3007V10.332C50.6967 9.18 51.5607 8.388 52.7847 8.388H53.5587V10.26ZM58.7302 14.148H60.6742C60.8902 15.624 61.9882 16.524 63.6982 16.524C65.2822 16.524 66.1822 15.768 66.1822 14.688C66.1822 13.806 65.5342 13.176 64.3102 12.852L62.0422 12.294C59.9182 11.79 58.8562 10.602 58.8562 8.856C58.8562 6.642 60.6742 5.202 63.1042 5.202C65.6962 5.202 67.5322 6.804 67.8382 9.18H65.8942C65.6242 7.74 64.6522 6.876 63.0862 6.876C61.7902 6.876 60.8182 7.578 60.8182 8.694C60.8182 9.594 61.4482 10.188 62.5822 10.476L64.8682 11.052C67.1362 11.628 68.1442 12.726 68.1442 14.508C68.1442 16.614 66.3982 18.18 63.6982 18.18C60.9622 18.18 58.9642 16.56 58.7302 14.148ZM69.9857 13.806V12.672C69.9857 10.044 71.7137 8.262 74.1797 8.262C76.4657 8.262 78.0857 10.062 78.0857 12.618V13.842H71.8577C71.8757 15.516 72.8297 16.542 74.3237 16.542C75.2597 16.542 76.0157 16.182 76.6997 15.426L77.9057 16.542C77.0057 17.604 75.8357 18.198 74.2697 18.198C71.7497 18.198 69.9857 16.434 69.9857 13.806ZM74.1077 9.936C72.8297 9.936 71.9657 10.836 71.8757 12.348H76.2677C76.2137 10.854 75.3677 9.936 74.1077 9.936ZM83.7865 18.198C81.5725 18.198 79.9885 16.938 79.6465 15.048H81.4645C81.6805 16.02 82.5265 16.686 83.8045 16.686C84.7765 16.686 85.4245 16.182 85.4245 15.48C85.4245 14.868 84.9385 14.472 84.1645 14.274L82.3645 13.824C80.6725 13.41 79.8085 12.51 79.8085 11.142C79.8085 9.414 81.1585 8.262 83.1565 8.262C85.2445 8.262 86.8465 9.522 87.1345 11.43H85.2985C85.0825 10.476 84.2185 9.792 83.1565 9.792C82.2385 9.792 81.6805 10.278 81.6805 10.962C81.6805 11.556 82.1485 11.97 82.9945 12.186L84.6865 12.6C86.3965 13.032 87.2965 13.95 87.2965 15.318C87.2965 17.028 85.8745 18.198 83.7865 18.198ZM90.4444 6.912C89.8324 6.912 89.2924 6.39 89.2924 5.76C89.2924 5.112 89.8324 4.608 90.4444 4.608C91.0744 4.608 91.5964 5.112 91.5964 5.76C91.5964 6.39 91.0744 6.912 90.4444 6.912ZM91.3984 8.478V18H89.4904V8.478H91.3984ZM102.336 13.824C102.336 16.488 100.554 18.198 98.0525 18.198C95.5865 18.198 93.7865 16.488 93.7865 13.824V12.636C93.7865 9.99 95.5685 8.262 98.0525 8.262C100.554 8.262 102.336 9.972 102.336 12.636V13.824ZM100.446 12.726C100.446 11.034 99.5465 9.936 98.0525 9.936C96.5765 9.936 95.6765 11.034 95.6765 12.726V13.752C95.6765 15.444 96.5765 16.524 98.0525 16.524C99.5465 16.524 100.446 15.444 100.446 13.752V12.726ZM98.8265 4.536H101.004L98.5745 7.02H96.7385L98.8265 4.536ZM112.939 11.79V18H111.031V12.204C111.031 10.962 110.185 9.99 108.889 9.99C107.575 9.99 106.639 10.962 106.639 12.276V18H104.731V8.478H106.639V10.17C107.179 9 108.277 8.28 109.573 8.28C111.589 8.28 112.939 9.81 112.939 11.79Z" fill="white"/>
</svg>
