<svg width="343" height="56" viewBox="0 0 343 56" fill="none" xmlns="http://www.w3.org/2000/svg">
<rect width="343" height="56" fill="black"/>
<path d="M135.703 23.128V21.4H146.305V23.128H142.003V34H140.023V23.128H135.703ZM146.062 31.318C146.062 29.608 147.232 28.654 149.14 28.528L151.948 28.348V27.736C151.948 26.656 151.282 26.026 150.13 26.026C149.23 26.026 148.438 26.314 147.628 26.962L146.764 25.558C147.772 24.73 148.978 24.28 150.4 24.28C152.47 24.28 153.82 25.54 153.82 27.502V31.768C153.82 32.128 154.018 32.326 154.396 32.326H154.864V34H153.91C152.902 34 152.218 33.46 152.056 32.614C151.498 33.568 150.49 34.18 149.284 34.18C147.43 34.18 146.062 32.974 146.062 31.318ZM147.916 31.282C147.916 32.092 148.636 32.65 149.662 32.65C150.922 32.65 151.948 31.75 151.948 30.652V29.788L149.392 29.986C148.456 30.058 147.916 30.49 147.916 31.282ZM165.081 27.79V34H163.173V28.204C163.173 26.962 162.327 25.99 161.031 25.99C159.717 25.99 158.781 26.962 158.781 28.276V34H156.873V24.478H158.781V26.17C159.321 25 160.419 24.28 161.715 24.28C163.731 24.28 165.081 25.81 165.081 27.79ZM176.174 24.478V37.924H174.266V32.56C173.654 33.604 172.61 34.198 171.332 34.198C169.118 34.198 167.48 32.506 167.48 29.896V28.582C167.48 25.972 169.118 24.262 171.332 24.262C172.592 24.262 173.618 24.838 174.266 25.846V24.478H176.174ZM174.266 28.726C174.266 27.034 173.33 25.936 171.818 25.936C170.288 25.936 169.37 27.034 169.37 28.726V29.752C169.37 31.444 170.288 32.524 171.818 32.524C173.33 32.524 174.266 31.444 174.266 29.752V28.726ZM179.004 30.67V24.478H180.912V30.256C180.912 31.516 181.776 32.488 183.054 32.488C184.368 32.488 185.304 31.498 185.304 30.202V24.478H187.212V34H185.304V32.326C184.746 33.496 183.648 34.198 182.388 34.198C180.372 34.198 179.004 32.65 179.004 30.67ZM189.611 29.806V28.672C189.611 26.044 191.339 24.262 193.805 24.262C196.091 24.262 197.711 26.062 197.711 28.618V29.842H191.483C191.501 31.516 192.455 32.542 193.949 32.542C194.885 32.542 195.641 32.182 196.325 31.426L197.531 32.542C196.631 33.604 195.461 34.198 193.895 34.198C191.375 34.198 189.611 32.434 189.611 29.806ZM193.733 25.936C192.455 25.936 191.591 26.836 191.501 28.348H195.893C195.839 26.854 194.993 25.936 193.733 25.936ZM203.411 34.198C201.197 34.198 199.613 32.938 199.271 31.048H201.089C201.305 32.02 202.151 32.686 203.429 32.686C204.401 32.686 205.049 32.182 205.049 31.48C205.049 30.868 204.563 30.472 203.789 30.274L201.989 29.824C200.297 29.41 199.433 28.51 199.433 27.142C199.433 25.414 200.783 24.262 202.781 24.262C204.869 24.262 206.471 25.522 206.759 27.43H204.923C204.707 26.476 203.843 25.792 202.781 25.792C201.863 25.792 201.305 26.278 201.305 26.962C201.305 27.556 201.773 27.97 202.619 28.186L204.311 28.6C206.021 29.032 206.921 29.95 206.921 31.318C206.921 33.028 205.499 34.198 203.411 34.198Z" fill="white"/>
</svg>
