<svg width="343" height="56" viewBox="0 0 343 56" fill="none" xmlns="http://www.w3.org/2000/svg">
<g clip-path="url(#clip0_21149_269256)">
<rect width="343" height="56" fill="black"/>
<path d="M137.219 28.384C137.219 31.768 135.023 34 131.621 34H126.905V21.4H131.621C135.005 21.4 137.219 23.632 137.219 27.016V28.384ZM131.495 23.128H128.885V32.272H131.477C133.763 32.272 135.221 30.814 135.221 28.33V27.07C135.221 24.604 133.781 23.128 131.495 23.128ZM138.714 31.318C138.714 29.608 139.884 28.654 141.792 28.528L144.6 28.348V27.736C144.6 26.656 143.934 26.026 142.782 26.026C141.882 26.026 141.09 26.314 140.28 26.962L139.416 25.558C140.424 24.73 141.63 24.28 143.052 24.28C145.122 24.28 146.472 25.54 146.472 27.502V31.768C146.472 32.128 146.67 32.326 147.048 32.326H147.516V34H146.562C145.554 34 144.87 33.46 144.708 32.614C144.15 33.568 143.142 34.18 141.936 34.18C140.082 34.18 138.714 32.974 138.714 31.318ZM140.568 31.282C140.568 32.092 141.288 32.65 142.314 32.65C143.574 32.65 144.6 31.75 144.6 30.652V29.788L142.044 29.986C141.108 30.058 140.568 30.49 140.568 31.282ZM152.91 34.198C150.696 34.198 149.112 32.938 148.77 31.048H150.588C150.804 32.02 151.65 32.686 152.928 32.686C153.9 32.686 154.548 32.182 154.548 31.48C154.548 30.868 154.062 30.472 153.288 30.274L151.488 29.824C149.796 29.41 148.932 28.51 148.932 27.142C148.932 25.414 150.282 24.262 152.28 24.262C154.368 24.262 155.97 25.522 156.258 27.43H154.422C154.206 26.476 153.342 25.792 152.28 25.792C151.362 25.792 150.804 26.278 150.804 26.962C150.804 27.556 151.272 27.97 152.118 28.186L153.81 28.6C155.52 29.032 156.42 29.95 156.42 31.318C156.42 33.028 154.998 34.198 152.91 34.198ZM166.821 27.79V34H164.913V28.204C164.913 26.962 164.067 25.99 162.771 25.99C161.457 25.99 160.521 26.962 160.521 28.276V34H158.613V20.734H160.521V26.17C161.061 25 162.159 24.28 163.455 24.28C165.471 24.28 166.821 25.81 166.821 27.79ZM169.67 34V20.734H171.578V25.864C172.226 24.856 173.252 24.262 174.512 24.262C176.744 24.262 178.364 25.972 178.364 28.582V29.896C178.364 32.506 176.726 34.198 174.512 34.198C173.234 34.198 172.208 33.586 171.578 32.542V34H169.67ZM171.578 28.726V29.752C171.578 31.444 172.514 32.524 174.026 32.524C175.556 32.524 176.474 31.444 176.474 29.752V28.726C176.474 27.034 175.556 25.936 174.026 25.936C172.514 25.936 171.578 27.034 171.578 28.726ZM188.844 29.824C188.844 32.488 187.062 34.198 184.56 34.198C182.094 34.198 180.294 32.488 180.294 29.824V28.636C180.294 25.99 182.076 24.262 184.56 24.262C187.062 24.262 188.844 25.972 188.844 28.636V29.824ZM186.954 28.726C186.954 27.034 186.054 25.936 184.56 25.936C183.084 25.936 182.184 27.034 182.184 28.726V29.752C182.184 31.444 183.084 32.524 184.56 32.524C186.054 32.524 186.954 31.444 186.954 29.752V28.726ZM190.446 31.318C190.446 29.608 191.616 28.654 193.524 28.528L196.332 28.348V27.736C196.332 26.656 195.666 26.026 194.514 26.026C193.614 26.026 192.822 26.314 192.012 26.962L191.148 25.558C192.156 24.73 193.362 24.28 194.784 24.28C196.854 24.28 198.204 25.54 198.204 27.502V31.768C198.204 32.128 198.402 32.326 198.78 32.326H199.248V34H198.294C197.286 34 196.602 33.46 196.44 32.614C195.882 33.568 194.874 34.18 193.668 34.18C191.814 34.18 190.446 32.974 190.446 31.318ZM192.3 31.282C192.3 32.092 193.02 32.65 194.046 32.65C195.306 32.65 196.332 31.75 196.332 30.652V29.788L193.776 29.986C192.84 30.058 192.3 30.49 192.3 31.282ZM206.424 26.26H205.434C204.21 26.26 203.166 27.232 203.166 28.726V34H201.258V24.478H203.166V26.332C203.562 25.18 204.426 24.388 205.65 24.388H206.424V26.26ZM216.217 34H214.309V32.56C213.697 33.604 212.653 34.198 211.375 34.198C209.161 34.198 207.523 32.506 207.523 29.896V28.582C207.523 25.972 209.161 24.262 211.375 24.262C212.635 24.262 213.661 24.838 214.309 25.846V20.734H216.217V34ZM214.309 28.726C214.309 27.034 213.373 25.936 211.861 25.936C210.331 25.936 209.413 27.034 209.413 28.726V29.752C209.413 31.444 210.331 32.524 211.861 32.524C213.373 32.524 214.309 31.444 214.309 29.752V28.726Z" fill="white"/>
</g>
<defs>
<clipPath id="clip0_21149_269256">
<rect width="343" height="56" rx="8" fill="white"/>
</clipPath>
</defs>
</svg>
