<svg width="359" height="94" viewBox="0 0 359 94" fill="none" xmlns="http://www.w3.org/2000/svg">
<path d="M17.36 14V2.8H24.736V4.336H19.12V7.632H24.576V9.152H19.12V12.464H24.736V14H17.36ZM29.8814 14.176C27.9134 14.176 26.5054 13.056 26.2014 11.376H27.8174C28.0094 12.24 28.7614 12.832 29.8974 12.832C30.7614 12.832 31.3374 12.384 31.3374 11.76C31.3374 11.216 30.9054 10.864 30.2174 10.688L28.6174 10.288C27.1134 9.92 26.3454 9.12 26.3454 7.904C26.3454 6.368 27.5454 5.344 29.3214 5.344C31.1774 5.344 32.6014 6.464 32.8574 8.16H31.2254C31.0334 7.312 30.2654 6.704 29.3214 6.704C28.5054 6.704 28.0094 7.136 28.0094 7.744C28.0094 8.272 28.4254 8.64 29.1774 8.832L30.6814 9.2C32.2014 9.584 33.0014 10.4 33.0014 11.616C33.0014 13.136 31.7374 14.176 29.8814 14.176ZM37.583 14C36.239 14 35.487 13.2 35.487 12.08V7.008H33.775V5.536H35.487V3.04H37.183V5.536H39.439V7.008H37.183V11.84C37.183 12.288 37.503 12.528 38.015 12.528H39.439V14H37.583ZM40.4506 11.616C40.4506 10.096 41.4906 9.248 43.1866 9.136L45.6826 8.976V8.432C45.6826 7.472 45.0906 6.912 44.0666 6.912C43.2666 6.912 42.5626 7.168 41.8426 7.744L41.0746 6.496C41.9706 5.76 43.0426 5.36 44.3066 5.36C46.1466 5.36 47.3466 6.48 47.3466 8.224V12.016C47.3466 12.336 47.5226 12.512 47.8586 12.512H48.2746V14H47.4266C46.5306 14 45.9226 13.52 45.7786 12.768C45.2826 13.616 44.3866 14.16 43.3146 14.16C41.6666 14.16 40.4506 13.088 40.4506 11.616ZM42.0986 11.584C42.0986 12.304 42.7386 12.8 43.6506 12.8C44.7706 12.8 45.6826 12 45.6826 11.024V10.256L43.4106 10.432C42.5786 10.496 42.0986 10.88 42.0986 11.584ZM57.3889 14H55.6929V12.72C55.1489 13.648 54.2209 14.176 53.0849 14.176C51.1169 14.176 49.6609 12.672 49.6609 10.352V9.184C49.6609 6.864 51.1169 5.344 53.0849 5.344C54.2049 5.344 55.1169 5.856 55.6929 6.752V2.208H57.3889V14ZM55.6929 9.312C55.6929 7.808 54.8609 6.832 53.5169 6.832C52.1569 6.832 51.3409 7.808 51.3409 9.312V10.224C51.3409 11.728 52.1569 12.688 53.5169 12.688C54.8609 12.688 55.6929 11.728 55.6929 10.224V9.312ZM67.1046 10.288C67.1046 12.656 65.5206 14.176 63.2966 14.176C61.1046 14.176 59.5046 12.656 59.5046 10.288V9.232C59.5046 6.88 61.0886 5.344 63.2966 5.344C65.5206 5.344 67.1046 6.864 67.1046 9.232V10.288ZM65.4246 9.312C65.4246 7.808 64.6246 6.832 63.2966 6.832C61.9846 6.832 61.1846 7.808 61.1846 9.312V10.224C61.1846 11.728 61.9846 12.688 63.2966 12.688C64.6246 12.688 65.4246 11.728 65.4246 10.224V9.312Z" fill="black"/>
<rect x="16" y="24" width="327" height="42" rx="8" fill="#E8E8E8"/>
<path d="M17.26 89V79.2H23.14V80.348H18.59V83.33H22.51V84.45H18.59V87.852H23.14V89H17.26ZM26.7089 89.168C26.1582 89.168 25.6589 89.098 25.2109 88.958C24.7722 88.818 24.4082 88.636 24.1189 88.412L24.6509 87.362C24.8936 87.5673 25.1969 87.74 25.5609 87.88C25.9342 88.0107 26.3309 88.076 26.7509 88.076C27.2736 88.076 27.6656 87.992 27.9269 87.824C28.1976 87.6467 28.3329 87.4227 28.3329 87.152C28.3329 86.956 28.2816 86.7833 28.1789 86.634C28.0856 86.4847 27.9082 86.34 27.6469 86.2C27.3856 86.0507 27.0076 85.892 26.5129 85.724C25.8316 85.4907 25.3182 85.2153 24.9729 84.898C24.6369 84.5713 24.4689 84.1233 24.4689 83.554C24.4689 82.994 24.7116 82.5227 25.1969 82.14C25.6916 81.748 26.3729 81.552 27.2409 81.552C27.7076 81.552 28.1229 81.6033 28.4869 81.706C28.8509 81.7993 29.1776 81.9207 29.4669 82.07L29.1169 83.106C28.8649 82.9567 28.5756 82.8353 28.2489 82.742C27.9316 82.6487 27.5769 82.602 27.1849 82.602C26.6996 82.602 26.3309 82.7 26.0789 82.896C25.8269 83.092 25.7009 83.3067 25.7009 83.54C25.7009 83.764 25.7989 83.9553 25.9949 84.114C26.1909 84.2727 26.5736 84.4453 27.1429 84.632C28.0669 84.94 28.7109 85.2807 29.0749 85.654C29.4389 86.0273 29.6209 86.494 29.6209 87.054C29.6209 87.7073 29.3549 88.2253 28.8229 88.608C28.3002 88.9813 27.5956 89.168 26.7089 89.168ZM34.2377 89.168C33.5471 89.168 32.9404 89.0093 32.4177 88.692C31.9044 88.3653 31.5077 87.9173 31.2277 87.348C30.9477 86.7693 30.8077 86.1067 30.8077 85.36C30.8077 84.66 30.9477 84.0207 31.2277 83.442C31.5171 82.8633 31.9277 82.406 32.4597 82.07C32.9917 81.7247 33.6171 81.552 34.3357 81.552C34.7464 81.552 35.1057 81.5893 35.4137 81.664C35.7311 81.7387 36.0344 81.846 36.3237 81.986L35.9457 83.05C35.6844 82.9193 35.4324 82.826 35.1897 82.77C34.9564 82.7047 34.6951 82.672 34.4057 82.672C33.7524 82.672 33.2017 82.91 32.7537 83.386C32.3151 83.8527 32.0957 84.5013 32.0957 85.332C32.0957 85.836 32.1891 86.2933 32.3757 86.704C32.5624 87.1147 32.8191 87.4413 33.1457 87.684C33.4817 87.9267 33.8737 88.048 34.3217 88.048C34.6764 88.048 34.9797 88.0107 35.2317 87.936C35.4837 87.852 35.7544 87.7353 36.0437 87.586L36.4357 88.65C36.1464 88.8087 35.8197 88.9347 35.4557 89.028C35.1011 89.1213 34.6951 89.168 34.2377 89.168ZM40.8305 89.168C40.1399 89.168 39.5192 89.0093 38.9685 88.692C38.4179 88.3653 37.9839 87.9173 37.6665 87.348C37.3585 86.7693 37.2045 86.1067 37.2045 85.36C37.2045 84.576 37.3632 83.8993 37.6805 83.33C37.9979 82.7607 38.4319 82.322 38.9825 82.014C39.5332 81.706 40.1492 81.552 40.8305 81.552C41.5119 81.552 42.1232 81.706 42.6645 82.014C43.2152 82.322 43.6492 82.7607 43.9665 83.33C44.2932 83.89 44.4565 84.5573 44.4565 85.332C44.4565 86.1067 44.2979 86.7833 43.9805 87.362C43.6632 87.9313 43.2292 88.3747 42.6785 88.692C42.1372 89.0093 41.5212 89.168 40.8305 89.168ZM40.8305 88.048C41.5679 88.048 42.1419 87.8007 42.5525 87.306C42.9632 86.802 43.1685 86.1533 43.1685 85.36C43.1685 84.8747 43.0659 84.4313 42.8605 84.03C42.6552 83.6193 42.3752 83.2927 42.0205 83.05C41.6752 82.798 41.2785 82.672 40.8305 82.672C40.0932 82.672 39.5192 82.9147 39.1085 83.4C38.6979 83.8853 38.4925 84.5293 38.4925 85.332C38.4925 85.8173 38.5952 86.27 38.8005 86.69C39.0059 87.1007 39.2812 87.432 39.6265 87.684C39.9812 87.9267 40.3825 88.048 40.8305 88.048ZM48.8057 92.248C48.3764 92.248 47.9564 92.1967 47.5457 92.094C47.1444 91.9913 46.7851 91.8373 46.4677 91.632L46.9297 90.54C47.1537 90.7173 47.4151 90.862 47.7137 90.974C48.0124 91.0953 48.3764 91.156 48.8057 91.156C49.4684 91.156 49.9864 90.9787 50.3597 90.624C50.7424 90.2787 50.9337 89.7233 50.9337 88.958V88.062C50.7471 88.286 50.4764 88.5007 50.1217 88.706C49.7764 88.902 49.3611 89 48.8757 89C48.3251 89 47.8024 88.86 47.3077 88.58C46.8131 88.2907 46.4117 87.8707 46.1037 87.32C45.7957 86.7693 45.6417 86.1067 45.6417 85.332C45.6417 84.604 45.7911 83.9553 46.0897 83.386C46.3977 82.8167 46.8084 82.3687 47.3217 82.042C47.8351 81.7153 48.3997 81.552 49.0157 81.552C49.4264 81.552 49.7997 81.622 50.1357 81.762C50.4717 81.902 50.7611 82.0747 51.0037 82.28V81.72H52.1517V88.832C52.1517 89.6347 52.0117 90.288 51.7317 90.792C51.4517 91.296 51.0597 91.6647 50.5557 91.898C50.0611 92.1313 49.4777 92.248 48.8057 92.248ZM49.1557 87.88C49.5291 87.88 49.8651 87.796 50.1637 87.628C50.4624 87.46 50.7051 87.264 50.8917 87.04V83.232C50.6864 83.0827 50.4391 82.9473 50.1497 82.826C49.8604 82.7047 49.5244 82.644 49.1417 82.644C48.7591 82.644 48.3997 82.7467 48.0637 82.952C47.7277 83.1573 47.4524 83.456 47.2377 83.848C47.0324 84.2307 46.9297 84.702 46.9297 85.262C46.9297 85.794 47.0324 86.256 47.2377 86.648C47.4524 87.04 47.7277 87.3433 48.0637 87.558C48.3997 87.7727 48.7637 87.88 49.1557 87.88ZM57.2332 89.168C56.1878 89.168 55.3572 88.8367 54.7412 88.174C54.1345 87.502 53.8312 86.564 53.8312 85.36C53.8312 84.632 53.9665 83.9833 54.2372 83.414C54.5172 82.8353 54.9045 82.3827 55.3992 82.056C55.8938 81.72 56.4678 81.552 57.1212 81.552C57.8212 81.552 58.3998 81.706 58.8572 82.014C59.3238 82.3127 59.6738 82.7187 59.9072 83.232C60.1405 83.7453 60.2572 84.31 60.2572 84.926C60.2572 85.2527 60.2432 85.57 60.2152 85.878H55.1192C55.2032 86.5593 55.4412 87.0913 55.8332 87.474C56.2252 87.8567 56.7432 88.048 57.3872 88.048C57.8072 88.048 58.1852 88.006 58.5212 87.922C58.8572 87.8287 59.1792 87.712 59.4872 87.572L59.7812 88.65C59.4452 88.7993 59.0672 88.9207 58.6472 89.014C58.2272 89.1167 57.7558 89.168 57.2332 89.168ZM55.1052 84.856H59.0952C59.0952 84.1467 58.9178 83.6007 58.5632 83.218C58.2085 82.8353 57.7185 82.644 57.0932 82.644C56.5518 82.644 56.1038 82.8353 55.7492 83.218C55.3945 83.5913 55.1798 84.1373 55.1052 84.856ZM69.0457 89.168C68.0003 89.168 67.1697 88.8367 66.5537 88.174C65.947 87.502 65.6437 86.564 65.6437 85.36C65.6437 84.632 65.779 83.9833 66.0497 83.414C66.3297 82.8353 66.717 82.3827 67.2117 82.056C67.7063 81.72 68.2803 81.552 68.9337 81.552C69.6337 81.552 70.2123 81.706 70.6697 82.014C71.1363 82.3127 71.4863 82.7187 71.7197 83.232C71.953 83.7453 72.0697 84.31 72.0697 84.926C72.0697 85.2527 72.0557 85.57 72.0277 85.878H66.9317C67.0157 86.5593 67.2537 87.0913 67.6457 87.474C68.0377 87.8567 68.5557 88.048 69.1997 88.048C69.6197 88.048 69.9977 88.006 70.3337 87.922C70.6697 87.8287 70.9917 87.712 71.2997 87.572L71.5937 88.65C71.2577 88.7993 70.8797 88.9207 70.4597 89.014C70.0397 89.1167 69.5683 89.168 69.0457 89.168ZM66.9177 84.856H70.9077C70.9077 84.1467 70.7303 83.6007 70.3757 83.218C70.021 82.8353 69.531 82.644 68.9057 82.644C68.3643 82.644 67.9163 82.8353 67.5617 83.218C67.207 83.5913 66.9923 84.1373 66.9177 84.856ZM75.9609 89.168C75.5316 89.168 75.1442 89.0887 74.7989 88.93C74.4536 88.762 74.1782 88.496 73.9729 88.132C73.7769 87.768 73.6789 87.2967 73.6789 86.718V78.64H74.9389V86.592C74.9389 87.096 75.0416 87.4693 75.2469 87.712C75.4616 87.9547 75.7556 88.076 76.1289 88.076C76.3062 88.076 76.4789 88.0573 76.6469 88.02C76.8242 87.9733 76.9736 87.922 77.0949 87.866L77.4029 88.888C77.2349 88.9627 77.0249 89.028 76.7729 89.084C76.5302 89.14 76.2596 89.168 75.9609 89.168ZM85.698 89.168C84.6527 89.168 83.822 88.8367 83.206 88.174C82.5993 87.502 82.296 86.564 82.296 85.36C82.296 84.632 82.4313 83.9833 82.702 83.414C82.982 82.8353 83.3693 82.3827 83.864 82.056C84.3587 81.72 84.9327 81.552 85.586 81.552C86.286 81.552 86.8647 81.706 87.322 82.014C87.7887 82.3127 88.1387 82.7187 88.372 83.232C88.6053 83.7453 88.722 84.31 88.722 84.926C88.722 85.2527 88.708 85.57 88.68 85.878H83.584C83.668 86.5593 83.906 87.0913 84.298 87.474C84.69 87.8567 85.208 88.048 85.852 88.048C86.272 88.048 86.65 88.006 86.986 87.922C87.322 87.8287 87.644 87.712 87.952 87.572L88.246 88.65C87.91 88.7993 87.532 88.9207 87.112 89.014C86.692 89.1167 86.2207 89.168 85.698 89.168ZM83.57 84.856H87.56C87.56 84.1467 87.3827 83.6007 87.028 83.218C86.6733 82.8353 86.1833 82.644 85.558 82.644C85.0167 82.644 84.5687 82.8353 84.214 83.218C83.8593 83.5913 83.6447 84.1373 83.57 84.856ZM92.3613 89.168C91.8106 89.168 91.3113 89.098 90.8633 88.958C90.4246 88.818 90.0606 88.636 89.7713 88.412L90.3033 87.362C90.5459 87.5673 90.8493 87.74 91.2133 87.88C91.5866 88.0107 91.9833 88.076 92.4033 88.076C92.9259 88.076 93.3179 87.992 93.5793 87.824C93.8499 87.6467 93.9853 87.4227 93.9853 87.152C93.9853 86.956 93.9339 86.7833 93.8313 86.634C93.7379 86.4847 93.5606 86.34 93.2993 86.2C93.0379 86.0507 92.6599 85.892 92.1653 85.724C91.4839 85.4907 90.9706 85.2153 90.6253 84.898C90.2893 84.5713 90.1213 84.1233 90.1213 83.554C90.1213 82.994 90.3639 82.5227 90.8493 82.14C91.3439 81.748 92.0253 81.552 92.8933 81.552C93.3599 81.552 93.7753 81.6033 94.1393 81.706C94.5033 81.7993 94.8299 81.9207 95.1193 82.07L94.7693 83.106C94.5173 82.9567 94.2279 82.8353 93.9013 82.742C93.5839 82.6487 93.2293 82.602 92.8373 82.602C92.3519 82.602 91.9833 82.7 91.7313 82.896C91.4793 83.092 91.3533 83.3067 91.3533 83.54C91.3533 83.764 91.4513 83.9553 91.6473 84.114C91.8433 84.2727 92.2259 84.4453 92.7953 84.632C93.7193 84.94 94.3633 85.2807 94.7273 85.654C95.0913 86.0273 95.2733 86.494 95.2733 87.054C95.2733 87.7073 95.0073 88.2253 94.4753 88.608C93.9526 88.9813 93.2479 89.168 92.3613 89.168ZM99.4981 89.168C98.7981 89.168 98.2427 88.9393 97.8321 88.482C97.4307 88.0153 97.2301 87.3527 97.2301 86.494V83.078H95.9701V81.986H97.2581L97.5241 79.69H98.4901V81.986H100.506V83.078H98.4901V86.592C98.4901 87.1333 98.6021 87.5113 98.8261 87.726C99.0594 87.9407 99.3347 88.048 99.6521 88.048C99.8854 88.048 100.105 88.0107 100.31 87.936C100.525 87.8613 100.721 87.7727 100.898 87.67L101.248 88.678C101.061 88.79 100.809 88.8973 100.492 89C100.175 89.112 99.8434 89.168 99.4981 89.168ZM105.027 89.168C104.42 89.168 103.87 89.014 103.375 88.706C102.88 88.398 102.484 87.964 102.185 87.404C101.896 86.8347 101.751 86.1673 101.751 85.402C101.751 84.674 101.896 84.0207 102.185 83.442C102.484 82.8633 102.89 82.406 103.403 82.07C103.926 81.7247 104.523 81.552 105.195 81.552C105.615 81.552 105.993 81.6267 106.329 81.776C106.674 81.916 106.973 82.0933 107.225 82.308V81.72H108.373V87.236C108.373 87.5907 108.457 87.824 108.625 87.936C108.802 88.0387 108.994 88.09 109.199 88.09L108.933 89.07C108.037 89.07 107.496 88.706 107.309 87.978C107.094 88.2767 106.8 88.552 106.427 88.804C106.063 89.0467 105.596 89.168 105.027 89.168ZM105.307 88.048C105.662 88.048 105.998 87.964 106.315 87.796C106.632 87.6187 106.898 87.3993 107.113 87.138V83.232C106.861 83.0547 106.581 82.9147 106.273 82.812C105.974 82.7 105.657 82.644 105.321 82.644C104.873 82.644 104.476 82.7607 104.131 82.994C103.795 83.218 103.529 83.5353 103.333 83.946C103.137 84.3473 103.039 84.8187 103.039 85.36C103.039 85.8827 103.137 86.3493 103.333 86.76C103.529 87.1613 103.8 87.4787 104.145 87.712C104.49 87.936 104.878 88.048 105.307 88.048ZM113.503 89.168C112.906 89.168 112.36 89.014 111.865 88.706C111.37 88.398 110.978 87.964 110.689 87.404C110.4 86.8347 110.255 86.1673 110.255 85.402C110.255 84.6647 110.4 84.0067 110.689 83.428C110.988 82.8493 111.38 82.392 111.865 82.056C112.36 81.72 112.901 81.552 113.489 81.552C113.974 81.552 114.39 81.65 114.735 81.846C115.09 82.042 115.365 82.2427 115.561 82.448V78.64H116.821V87.236C116.821 87.5907 116.905 87.824 117.073 87.936C117.25 88.0387 117.442 88.09 117.647 88.09L117.381 89.07C116.494 89.07 115.953 88.7153 115.757 88.006C115.552 88.2953 115.262 88.5613 114.889 88.804C114.525 89.0467 114.063 89.168 113.503 89.168ZM113.783 88.048C114.128 88.048 114.455 87.9687 114.763 87.81C115.08 87.642 115.346 87.4273 115.561 87.166V83.554C115.384 83.33 115.136 83.1247 114.819 82.938C114.502 82.742 114.152 82.644 113.769 82.644C113.321 82.644 112.929 82.7653 112.593 83.008C112.257 83.2507 111.996 83.5773 111.809 83.988C111.632 84.3893 111.543 84.8467 111.543 85.36C111.543 85.8733 111.641 86.3353 111.837 86.746C112.033 87.1473 112.299 87.4647 112.635 87.698C112.98 87.9313 113.363 88.048 113.783 88.048ZM122.26 89.168C121.57 89.168 120.949 89.0093 120.398 88.692C119.848 88.3653 119.414 87.9173 119.096 87.348C118.788 86.7693 118.634 86.1067 118.634 85.36C118.634 84.576 118.793 83.8993 119.11 83.33C119.428 82.7607 119.862 82.322 120.412 82.014C120.963 81.706 121.579 81.552 122.26 81.552C122.942 81.552 123.553 81.706 124.094 82.014C124.645 82.322 125.079 82.7607 125.396 83.33C125.723 83.89 125.886 84.5573 125.886 85.332C125.886 86.1067 125.728 86.7833 125.41 87.362C125.093 87.9313 124.659 88.3747 124.108 88.692C123.567 89.0093 122.951 89.168 122.26 89.168ZM122.26 88.048C122.998 88.048 123.572 87.8007 123.982 87.306C124.393 86.802 124.598 86.1533 124.598 85.36C124.598 84.8747 124.496 84.4313 124.29 84.03C124.085 83.6193 123.805 83.2927 123.45 83.05C123.105 82.798 122.708 82.672 122.26 82.672C121.523 82.672 120.949 82.9147 120.538 83.4C120.128 83.8853 119.922 84.5293 119.922 85.332C119.922 85.8173 120.025 86.27 120.23 86.69C120.436 87.1007 120.711 87.432 121.056 87.684C121.411 87.9267 121.812 88.048 122.26 88.048ZM134.517 89.168C133.919 89.168 133.373 89.014 132.879 88.706C132.384 88.398 131.992 87.964 131.703 87.404C131.413 86.8347 131.269 86.1673 131.269 85.402C131.269 84.6647 131.413 84.0067 131.703 83.428C132.001 82.8493 132.393 82.392 132.879 82.056C133.373 81.72 133.915 81.552 134.503 81.552C134.988 81.552 135.403 81.65 135.749 81.846C136.103 82.042 136.379 82.2427 136.575 82.448V78.64H137.835V87.236C137.835 87.5907 137.919 87.824 138.087 87.936C138.264 88.0387 138.455 88.09 138.661 88.09L138.395 89.07C137.508 89.07 136.967 88.7153 136.771 88.006C136.565 88.2953 136.276 88.5613 135.903 88.804C135.539 89.0467 135.077 89.168 134.517 89.168ZM134.797 88.048C135.142 88.048 135.469 87.9687 135.777 87.81C136.094 87.642 136.36 87.4273 136.575 87.166V83.554C136.397 83.33 136.15 83.1247 135.833 82.938C135.515 82.742 135.165 82.644 134.783 82.644C134.335 82.644 133.943 82.7653 133.607 83.008C133.271 83.2507 133.009 83.5773 132.823 83.988C132.645 84.3893 132.557 84.8467 132.557 85.36C132.557 85.8733 132.655 86.3353 132.851 86.746C133.047 87.1473 133.313 87.4647 133.649 87.698C133.994 87.9313 134.377 88.048 134.797 88.048ZM143.12 89.168C142.075 89.168 141.244 88.8367 140.628 88.174C140.021 87.502 139.718 86.564 139.718 85.36C139.718 84.632 139.853 83.9833 140.124 83.414C140.404 82.8353 140.791 82.3827 141.286 82.056C141.781 81.72 142.355 81.552 143.008 81.552C143.708 81.552 144.287 81.706 144.744 82.014C145.211 82.3127 145.561 82.7187 145.794 83.232C146.027 83.7453 146.144 84.31 146.144 84.926C146.144 85.2527 146.13 85.57 146.102 85.878H141.006C141.09 86.5593 141.328 87.0913 141.72 87.474C142.112 87.8567 142.63 88.048 143.274 88.048C143.694 88.048 144.072 88.006 144.408 87.922C144.744 87.8287 145.066 87.712 145.374 87.572L145.668 88.65C145.332 88.7993 144.954 88.9207 144.534 89.014C144.114 89.1167 143.643 89.168 143.12 89.168ZM140.992 84.856H144.982C144.982 84.1467 144.805 83.6007 144.45 83.218C144.095 82.8353 143.605 82.644 142.98 82.644C142.439 82.644 141.991 82.8353 141.636 83.218C141.281 83.5913 141.067 84.1373 140.992 84.856ZM150.035 89.168C149.606 89.168 149.218 89.0887 148.873 88.93C148.528 88.762 148.252 88.496 148.047 88.132C147.851 87.768 147.753 87.2967 147.753 86.718V78.64H149.013V86.592C149.013 87.096 149.116 87.4693 149.321 87.712C149.536 87.9547 149.83 88.076 150.203 88.076C150.38 88.076 150.553 88.0573 150.721 88.02C150.898 87.9733 151.048 87.922 151.169 87.866L151.477 88.888C151.309 88.9627 151.099 89.028 150.847 89.084C150.604 89.14 150.334 89.168 150.035 89.168ZM159.8 89.168C159.11 89.168 158.503 89.0093 157.98 88.692C157.467 88.3653 157.07 87.9173 156.79 87.348C156.51 86.7693 156.37 86.1067 156.37 85.36C156.37 84.66 156.51 84.0207 156.79 83.442C157.08 82.8633 157.49 82.406 158.022 82.07C158.554 81.7247 159.18 81.552 159.898 81.552C160.309 81.552 160.668 81.5893 160.976 81.664C161.294 81.7387 161.597 81.846 161.886 81.986L161.508 83.05C161.247 82.9193 160.995 82.826 160.752 82.77C160.519 82.7047 160.258 82.672 159.968 82.672C159.315 82.672 158.764 82.91 158.316 83.386C157.878 83.8527 157.658 84.5013 157.658 85.332C157.658 85.836 157.752 86.2933 157.938 86.704C158.125 87.1147 158.382 87.4413 158.708 87.684C159.044 87.9267 159.436 88.048 159.884 88.048C160.239 88.048 160.542 88.0107 160.794 87.936C161.046 87.852 161.317 87.7353 161.606 87.586L161.998 88.65C161.709 88.8087 161.382 88.9347 161.018 89.028C160.664 89.1213 160.258 89.168 159.8 89.168ZM166.393 89.168C165.702 89.168 165.082 89.0093 164.531 88.692C163.98 88.3653 163.546 87.9173 163.229 87.348C162.921 86.7693 162.767 86.1067 162.767 85.36C162.767 84.576 162.926 83.8993 163.243 83.33C163.56 82.7607 163.994 82.322 164.545 82.014C165.096 81.706 165.712 81.552 166.393 81.552C167.074 81.552 167.686 81.706 168.227 82.014C168.778 82.322 169.212 82.7607 169.529 83.33C169.856 83.89 170.019 84.5573 170.019 85.332C170.019 86.1067 169.86 86.7833 169.543 87.362C169.226 87.9313 168.792 88.3747 168.241 88.692C167.7 89.0093 167.084 89.168 166.393 89.168ZM166.393 88.048C167.13 88.048 167.704 87.8007 168.115 87.306C168.526 86.802 168.731 86.1533 168.731 85.36C168.731 84.8747 168.628 84.4313 168.423 84.03C168.218 83.6193 167.938 83.2927 167.583 83.05C167.238 82.798 166.841 82.672 166.393 82.672C165.656 82.672 165.082 82.9147 164.671 83.4C164.26 83.8853 164.055 84.5293 164.055 85.332C164.055 85.8173 164.158 86.27 164.363 86.69C164.568 87.1007 164.844 87.432 165.189 87.684C165.544 87.9267 165.945 88.048 166.393 88.048ZM171.694 89V81.72H172.912V82.938C173.174 82.546 173.505 82.2193 173.906 81.958C174.308 81.6873 174.765 81.552 175.278 81.552C175.857 81.552 176.328 81.692 176.692 81.972C177.066 82.252 177.327 82.6253 177.476 83.092C177.766 82.6627 178.106 82.2987 178.498 82C178.9 81.7013 179.394 81.552 179.982 81.552C180.776 81.552 181.364 81.804 181.746 82.308C182.138 82.8027 182.334 83.4513 182.334 84.254V89H181.074V84.352C181.074 83.848 180.958 83.442 180.724 83.134C180.491 82.8167 180.169 82.658 179.758 82.658C179.338 82.658 178.946 82.8167 178.582 83.134C178.228 83.442 177.915 83.806 177.644 84.226V89H176.384V84.352C176.384 83.848 176.268 83.442 176.034 83.134C175.801 82.8167 175.479 82.658 175.068 82.658C174.658 82.658 174.27 82.812 173.906 83.12C173.542 83.4187 173.225 83.7733 172.954 84.184V89H171.694ZM187.781 89.168C187.361 89.168 186.964 89.0933 186.591 88.944C186.227 88.7853 185.923 88.6033 185.681 88.398V89H184.505V78.64H185.765V82.476C185.951 82.2613 186.222 82.056 186.577 81.86C186.941 81.6547 187.37 81.552 187.865 81.552C188.425 81.552 188.947 81.7013 189.433 82C189.927 82.2893 190.324 82.714 190.623 83.274C190.921 83.8247 191.071 84.4967 191.071 85.29C191.071 85.8687 190.977 86.396 190.791 86.872C190.604 87.348 190.352 87.7587 190.035 88.104C189.727 88.44 189.377 88.7013 188.985 88.888C188.593 89.0747 188.191 89.168 187.781 89.168ZM187.445 88.048C187.902 88.048 188.303 87.936 188.649 87.712C189.003 87.488 189.279 87.1707 189.475 86.76C189.68 86.3493 189.783 85.8733 189.783 85.332C189.783 84.772 189.68 84.2913 189.475 83.89C189.279 83.4887 189.013 83.1807 188.677 82.966C188.35 82.7513 187.986 82.644 187.585 82.644C187.183 82.644 186.819 82.7467 186.493 82.952C186.175 83.148 185.933 83.3627 185.765 83.596V87.488C185.979 87.656 186.231 87.7913 186.521 87.894C186.81 87.9967 187.118 88.048 187.445 88.048ZM195.197 89.168C194.777 89.168 194.381 89.0793 194.007 88.902C193.634 88.7247 193.331 88.44 193.097 88.048C192.864 87.6467 192.747 87.1147 192.747 86.452V81.72H194.007V86.284C194.007 86.8533 194.129 87.292 194.371 87.6C194.614 87.8987 194.969 88.048 195.435 88.048C195.818 88.048 196.187 87.9733 196.541 87.824C196.905 87.6653 197.227 87.4553 197.507 87.194V81.72H198.767V87.11C198.767 87.5113 198.851 87.7773 199.019 87.908C199.197 88.0293 199.388 88.09 199.593 88.09L199.327 89.07C198.459 89.07 197.923 88.7247 197.717 88.034C197.391 88.37 197.013 88.6453 196.583 88.86C196.154 89.0653 195.692 89.168 195.197 89.168ZM203.226 89.168C202.676 89.168 202.176 89.098 201.728 88.958C201.29 88.818 200.926 88.636 200.636 88.412L201.168 87.362C201.411 87.5673 201.714 87.74 202.078 87.88C202.452 88.0107 202.848 88.076 203.268 88.076C203.791 88.076 204.183 87.992 204.444 87.824C204.715 87.6467 204.85 87.4227 204.85 87.152C204.85 86.956 204.799 86.7833 204.696 86.634C204.603 86.4847 204.426 86.34 204.164 86.2C203.903 86.0507 203.525 85.892 203.03 85.724C202.349 85.4907 201.836 85.2153 201.49 84.898C201.154 84.5713 200.986 84.1233 200.986 83.554C200.986 82.994 201.229 82.5227 201.714 82.14C202.209 81.748 202.89 81.552 203.758 81.552C204.225 81.552 204.64 81.6033 205.004 81.706C205.368 81.7993 205.695 81.9207 205.984 82.07L205.634 83.106C205.382 82.9567 205.093 82.8353 204.766 82.742C204.449 82.6487 204.094 82.602 203.702 82.602C203.217 82.602 202.848 82.7 202.596 82.896C202.344 83.092 202.218 83.3067 202.218 83.54C202.218 83.764 202.316 83.9553 202.512 84.114C202.708 84.2727 203.091 84.4453 203.66 84.632C204.584 84.94 205.228 85.2807 205.592 85.654C205.956 86.0273 206.138 86.494 206.138 87.054C206.138 87.7073 205.872 88.2253 205.34 88.608C204.818 88.9813 204.113 89.168 203.226 89.168ZM210.363 89.168C209.663 89.168 209.108 88.9393 208.697 88.482C208.296 88.0153 208.095 87.3527 208.095 86.494V83.078H206.835V81.986H208.123L208.389 79.69H209.355V81.986H211.371V83.078H209.355V86.592C209.355 87.1333 209.467 87.5113 209.691 87.726C209.925 87.9407 210.2 88.048 210.517 88.048C210.751 88.048 210.97 88.0107 211.175 87.936C211.39 87.8613 211.586 87.7727 211.763 87.67L212.113 88.678C211.927 88.79 211.675 88.8973 211.357 89C211.04 89.112 210.709 89.168 210.363 89.168ZM213.38 89V81.72H214.64V89H213.38ZM214.01 80.474C213.767 80.474 213.557 80.3853 213.38 80.208C213.212 80.0307 213.128 79.8253 213.128 79.592C213.128 79.3213 213.207 79.1067 213.366 78.948C213.524 78.7893 213.739 78.71 214.01 78.71C214.252 78.71 214.458 78.7987 214.626 78.976C214.803 79.144 214.892 79.3493 214.892 79.592C214.892 79.8533 214.812 80.068 214.654 80.236C214.495 80.3947 214.28 80.474 214.01 80.474ZM220.156 89.168C219.736 89.168 219.339 89.0933 218.966 88.944C218.602 88.7853 218.298 88.6033 218.056 88.398V89H216.88V78.64H218.14V82.476C218.326 82.2613 218.597 82.056 218.952 81.86C219.316 81.6547 219.745 81.552 220.24 81.552C220.8 81.552 221.322 81.7013 221.808 82C222.302 82.2893 222.699 82.714 222.998 83.274C223.296 83.8247 223.446 84.4967 223.446 85.29C223.446 85.8687 223.352 86.396 223.166 86.872C222.979 87.348 222.727 87.7587 222.41 88.104C222.102 88.44 221.752 88.7013 221.36 88.888C220.968 89.0747 220.566 89.168 220.156 89.168ZM219.82 88.048C220.277 88.048 220.678 87.936 221.024 87.712C221.378 87.488 221.654 87.1707 221.85 86.76C222.055 86.3493 222.158 85.8733 222.158 85.332C222.158 84.772 222.055 84.2913 221.85 83.89C221.654 83.4887 221.388 83.1807 221.052 82.966C220.725 82.7513 220.361 82.644 219.96 82.644C219.558 82.644 219.194 82.7467 218.868 82.952C218.55 83.148 218.308 83.3627 218.14 83.596V87.488C218.354 87.656 218.606 87.7913 218.896 87.894C219.185 87.9967 219.493 88.048 219.82 88.048ZM227.404 89.168C226.975 89.168 226.588 89.0887 226.242 88.93C225.897 88.762 225.622 88.496 225.416 88.132C225.22 87.768 225.122 87.2967 225.122 86.718V78.64H226.382V86.592C226.382 87.096 226.485 87.4693 226.69 87.712C226.905 87.9547 227.199 88.076 227.572 88.076C227.75 88.076 227.922 88.0573 228.09 88.02C228.268 87.9733 228.417 87.922 228.538 87.866L228.846 88.888C228.678 88.9627 228.468 89.028 228.216 89.084C227.974 89.14 227.703 89.168 227.404 89.168ZM232.739 89.168C231.694 89.168 230.863 88.8367 230.247 88.174C229.64 87.502 229.337 86.564 229.337 85.36C229.337 84.632 229.472 83.9833 229.743 83.414C230.023 82.8353 230.41 82.3827 230.905 82.056C231.4 81.72 231.974 81.552 232.627 81.552C233.327 81.552 233.906 81.706 234.363 82.014C234.83 82.3127 235.18 82.7187 235.413 83.232C235.646 83.7453 235.763 84.31 235.763 84.926C235.763 85.2527 235.749 85.57 235.721 85.878H230.625C230.709 86.5593 230.947 87.0913 231.339 87.474C231.731 87.8567 232.249 88.048 232.893 88.048C233.313 88.048 233.691 88.006 234.027 87.922C234.363 87.8287 234.685 87.712 234.993 87.572L235.287 88.65C234.951 88.7993 234.573 88.9207 234.153 89.014C233.733 89.1167 233.262 89.168 232.739 89.168ZM230.611 84.856H234.601C234.601 84.1467 234.424 83.6007 234.069 83.218C233.714 82.8353 233.224 82.644 232.599 82.644C232.058 82.644 231.61 82.8353 231.255 83.218C230.9 83.5913 230.686 84.1373 230.611 84.856Z" fill="#5E5E5E"/>
</svg>
