<svg width="359" height="94" viewBox="0 0 359 94" fill="none" xmlns="http://www.w3.org/2000/svg">
<path d="M26.512 6.784H24.8C24.48 5.136 23.328 4.208 21.824 4.208C20.016 4.208 18.704 5.52 18.704 7.824V8.96C18.704 11.28 20.016 12.592 21.824 12.592C23.328 12.592 24.48 11.664 24.8 10.016H26.512C26.16 12.608 24.224 14.192 21.824 14.192C18.992 14.192 16.928 12.176 16.928 9.008V7.776C16.928 4.624 18.992 2.608 21.824 2.608C24.288 2.608 26.16 4.208 26.512 6.784ZM35.6359 10.288C35.6359 12.656 34.0519 14.176 31.8279 14.176C29.6359 14.176 28.0359 12.656 28.0359 10.288V9.232C28.0359 6.88 29.6199 5.344 31.8279 5.344C34.0519 5.344 35.6359 6.864 35.6359 9.232V10.288ZM33.9559 9.312C33.9559 7.808 33.1559 6.832 31.8279 6.832C30.5159 6.832 29.7159 7.808 29.7159 9.312V10.224C29.7159 11.728 30.5159 12.688 31.8279 12.688C33.1559 12.688 33.9559 11.728 33.9559 10.224V9.312ZM39.46 8.928V14H37.764V5.536H39.46V7.04C39.924 6 40.868 5.36 41.956 5.36C43.284 5.36 44.292 6.16 44.676 7.344C45.076 6.144 46.084 5.36 47.348 5.36C49.108 5.36 50.276 6.736 50.276 8.496V14H48.58V8.88C48.58 7.744 47.844 6.88 46.756 6.88C45.652 6.88 44.868 7.76 44.868 8.928V14H43.172V8.88C43.172 7.744 42.436 6.88 41.364 6.88C40.244 6.88 39.46 7.76 39.46 8.928ZM52.8109 14V2.208H54.5069V6.768C55.0829 5.872 55.9949 5.344 57.1149 5.344C59.0989 5.344 60.5389 6.864 60.5389 9.184V10.352C60.5389 12.672 59.0829 14.176 57.1149 14.176C55.9789 14.176 55.0669 13.632 54.5069 12.704V14H52.8109ZM54.5069 9.312V10.224C54.5069 11.728 55.3389 12.688 56.6829 12.688C58.0429 12.688 58.8589 11.728 58.8589 10.224V9.312C58.8589 7.808 58.0429 6.832 56.6829 6.832C55.3389 6.832 54.5069 7.808 54.5069 9.312ZM62.6546 11.04V5.536H64.3506V10.672C64.3506 11.792 65.1186 12.656 66.2546 12.656C67.4226 12.656 68.2546 11.776 68.2546 10.624V5.536H69.9506V14H68.2546V12.512C67.7586 13.552 66.7826 14.176 65.6626 14.176C63.8706 14.176 62.6546 12.8 62.6546 11.04ZM75.4908 14.176C73.5228 14.176 72.1148 13.056 71.8108 11.376H73.4268C73.6188 12.24 74.3708 12.832 75.5068 12.832C76.3708 12.832 76.9468 12.384 76.9468 11.76C76.9468 11.216 76.5148 10.864 75.8268 10.688L74.2268 10.288C72.7228 9.92 71.9548 9.12 71.9548 7.904C71.9548 6.368 73.1548 5.344 74.9308 5.344C76.7868 5.344 78.2108 6.464 78.4668 8.16H76.8348C76.6428 7.312 75.8748 6.704 74.9308 6.704C74.1148 6.704 73.6188 7.136 73.6188 7.744C73.6188 8.272 74.0348 8.64 74.7868 8.832L76.2908 9.2C77.8108 9.584 78.6108 10.4 78.6108 11.616C78.6108 13.136 77.3468 14.176 75.4908 14.176ZM83.1924 14C81.8484 14 81.0964 13.2 81.0964 12.08V7.008H79.3844V5.536H81.0964V3.04H82.7924V5.536H85.0484V7.008H82.7924V11.84C82.7924 12.288 83.1124 12.528 83.6244 12.528H85.0484V14H83.1924ZM87.612 4.144C87.068 4.144 86.588 3.68 86.588 3.12C86.588 2.544 87.068 2.096 87.612 2.096C88.172 2.096 88.636 2.544 88.636 3.12C88.636 3.68 88.172 4.144 87.612 4.144ZM88.46 5.536V14H86.764V5.536H88.46ZM90.9828 14V2.208H92.6788V6.768C93.2548 5.872 94.1668 5.344 95.2868 5.344C97.2708 5.344 98.7108 6.864 98.7108 9.184V10.352C98.7108 12.672 97.2548 14.176 95.2868 14.176C94.1508 14.176 93.2388 13.632 92.6788 12.704V14H90.9828ZM92.6788 9.312V10.224C92.6788 11.728 93.5108 12.688 94.8548 12.688C96.2148 12.688 97.0308 11.728 97.0308 10.224V9.312C97.0308 7.808 96.2148 6.832 94.8548 6.832C93.5108 6.832 92.6788 7.808 92.6788 9.312ZM102.523 14H100.827V2.208H102.523V14ZM104.645 10.272V9.264C104.645 6.928 106.181 5.344 108.373 5.344C110.405 5.344 111.845 6.944 111.845 9.216V10.304H106.309C106.325 11.792 107.173 12.704 108.501 12.704C109.333 12.704 110.005 12.384 110.613 11.712L111.685 12.704C110.885 13.648 109.845 14.176 108.453 14.176C106.213 14.176 104.645 12.608 104.645 10.272ZM108.309 6.832C107.173 6.832 106.405 7.632 106.325 8.976H110.229C110.181 7.648 109.429 6.832 108.309 6.832Z" fill="black"/>
<rect x="16" y="24" width="327" height="42" rx="8" fill="#E8E8E8"/>
<path d="M19.836 89.112C19.304 89.112 18.8373 89.098 18.436 89.07C18.044 89.042 17.652 89.0093 17.26 88.972V79.228C17.6987 79.1813 18.128 79.1487 18.548 79.13C18.968 79.102 19.4487 79.088 19.99 79.088C20.83 79.088 21.5533 79.2187 22.16 79.48C22.776 79.7413 23.28 80.1007 23.672 80.558C24.0733 81.0153 24.3673 81.5473 24.554 82.154C24.75 82.7513 24.848 83.3953 24.848 84.086C24.848 84.7673 24.75 85.4113 24.554 86.018C24.358 86.6247 24.0547 87.1613 23.644 87.628C23.2427 88.0853 22.7247 88.4493 22.09 88.72C21.4647 88.9813 20.7133 89.112 19.836 89.112ZM19.878 87.95C20.718 87.95 21.404 87.7867 21.936 87.46C22.468 87.1333 22.86 86.6807 23.112 86.102C23.364 85.514 23.49 84.842 23.49 84.086C23.49 83.414 23.364 82.784 23.112 82.196C22.86 81.608 22.4727 81.1367 21.95 80.782C21.4273 80.418 20.76 80.236 19.948 80.236C19.6773 80.236 19.43 80.2453 19.206 80.264C18.982 80.2733 18.7767 80.2873 18.59 80.306V87.88C18.786 87.908 18.9913 87.9267 19.206 87.936C19.4207 87.9453 19.6447 87.95 19.878 87.95ZM26.663 89V81.72H27.923V89H26.663ZM27.293 80.474C27.0503 80.474 26.8403 80.3853 26.663 80.208C26.495 80.0307 26.411 79.8253 26.411 79.592C26.411 79.3213 26.4903 79.1067 26.649 78.948C26.8076 78.7893 27.0223 78.71 27.293 78.71C27.5356 78.71 27.741 78.7987 27.909 78.976C28.0863 79.144 28.175 79.3493 28.175 79.592C28.175 79.8533 28.0956 80.068 27.937 80.236C27.7783 80.3947 27.5636 80.474 27.293 80.474ZM32.837 92.248C32.4076 92.248 31.9876 92.1967 31.577 92.094C31.1756 91.9913 30.8163 91.8373 30.499 91.632L30.961 90.54C31.185 90.7173 31.4463 90.862 31.745 90.974C32.0436 91.0953 32.4076 91.156 32.837 91.156C33.4996 91.156 34.0176 90.9787 34.391 90.624C34.7736 90.2787 34.965 89.7233 34.965 88.958V88.062C34.7783 88.286 34.5076 88.5007 34.153 88.706C33.8076 88.902 33.3923 89 32.907 89C32.3563 89 31.8336 88.86 31.339 88.58C30.8443 88.2907 30.443 87.8707 30.135 87.32C29.827 86.7693 29.673 86.1067 29.673 85.332C29.673 84.604 29.8223 83.9553 30.121 83.386C30.429 82.8167 30.8396 82.3687 31.353 82.042C31.8663 81.7153 32.431 81.552 33.047 81.552C33.4576 81.552 33.831 81.622 34.167 81.762C34.503 81.902 34.7923 82.0747 35.035 82.28V81.72H36.183V88.832C36.183 89.6347 36.043 90.288 35.763 90.792C35.483 91.296 35.091 91.6647 34.587 91.898C34.0923 92.1313 33.509 92.248 32.837 92.248ZM33.187 87.88C33.5603 87.88 33.8963 87.796 34.195 87.628C34.4936 87.46 34.7363 87.264 34.923 87.04V83.232C34.7176 83.0827 34.4703 82.9473 34.181 82.826C33.8916 82.7047 33.5556 82.644 33.173 82.644C32.7903 82.644 32.431 82.7467 32.095 82.952C31.759 83.1573 31.4836 83.456 31.269 83.848C31.0636 84.2307 30.961 84.702 30.961 85.262C30.961 85.794 31.0636 86.256 31.269 86.648C31.4836 87.04 31.759 87.3433 32.095 87.558C32.431 87.7727 32.795 87.88 33.187 87.88ZM38.3524 89V81.72H39.6124V89H38.3524ZM38.9824 80.474C38.7398 80.474 38.5298 80.3853 38.3524 80.208C38.1844 80.0307 38.1004 79.8253 38.1004 79.592C38.1004 79.3213 38.1798 79.1067 38.3384 78.948C38.4971 78.7893 38.7118 78.71 38.9824 78.71C39.2251 78.71 39.4304 78.7987 39.5984 78.976C39.7758 79.144 39.8644 79.3493 39.8644 79.592C39.8644 79.8533 39.7851 80.068 39.6264 80.236C39.4678 80.3947 39.2531 80.474 38.9824 80.474ZM44.4004 89.168C43.7004 89.168 43.1451 88.9393 42.7344 88.482C42.3331 88.0153 42.1324 87.3527 42.1324 86.494V83.078H40.8724V81.986H42.1604L42.4264 79.69H43.3924V81.986H45.4084V83.078H43.3924V86.592C43.3924 87.1333 43.5044 87.5113 43.7284 87.726C43.9618 87.9407 44.2371 88.048 44.5544 88.048C44.7878 88.048 45.0071 88.0107 45.2124 87.936C45.4271 87.8613 45.6231 87.7727 45.8004 87.67L46.1504 88.678C45.9638 88.79 45.7118 88.8973 45.3944 89C45.0771 89.112 44.7458 89.168 44.4004 89.168ZM50.0554 89.168C49.0101 89.168 48.1794 88.8367 47.5634 88.174C46.9568 87.502 46.6534 86.564 46.6534 85.36C46.6534 84.632 46.7888 83.9833 47.0594 83.414C47.3394 82.8353 47.7268 82.3827 48.2214 82.056C48.7161 81.72 49.2901 81.552 49.9434 81.552C50.6434 81.552 51.2221 81.706 51.6794 82.014C52.1461 82.3127 52.4961 82.7187 52.7294 83.232C52.9628 83.7453 53.0794 84.31 53.0794 84.926C53.0794 85.2527 53.0654 85.57 53.0374 85.878H47.9414C48.0254 86.5593 48.2634 87.0913 48.6554 87.474C49.0474 87.8567 49.5654 88.048 50.2094 88.048C50.6294 88.048 51.0074 88.006 51.3434 87.922C51.6794 87.8287 52.0014 87.712 52.3094 87.572L52.6034 88.65C52.2674 88.7993 51.8894 88.9207 51.4694 89.014C51.0494 89.1167 50.5781 89.168 50.0554 89.168ZM47.9274 84.856H51.9174C51.9174 84.1467 51.7401 83.6007 51.3854 83.218C51.0308 82.8353 50.5408 82.644 49.9154 82.644C49.3741 82.644 48.9261 82.8353 48.5714 83.218C48.2168 83.5913 48.0021 84.1373 47.9274 84.856ZM61.8679 89.168C60.8226 89.168 59.9919 88.8367 59.3759 88.174C58.7693 87.502 58.4659 86.564 58.4659 85.36C58.4659 84.632 58.6013 83.9833 58.8719 83.414C59.1519 82.8353 59.5393 82.3827 60.0339 82.056C60.5286 81.72 61.1026 81.552 61.7559 81.552C62.4559 81.552 63.0346 81.706 63.4919 82.014C63.9586 82.3127 64.3086 82.7187 64.5419 83.232C64.7753 83.7453 64.8919 84.31 64.8919 84.926C64.8919 85.2527 64.8779 85.57 64.8499 85.878H59.7539C59.8379 86.5593 60.0759 87.0913 60.4679 87.474C60.8599 87.8567 61.3779 88.048 62.0219 88.048C62.4419 88.048 62.8199 88.006 63.1559 87.922C63.4919 87.8287 63.8139 87.712 64.1219 87.572L64.4159 88.65C64.0799 88.7993 63.7019 88.9207 63.2819 89.014C62.8619 89.1167 62.3906 89.168 61.8679 89.168ZM59.7399 84.856H63.7299C63.7299 84.1467 63.5526 83.6007 63.1979 83.218C62.8433 82.8353 62.3533 82.644 61.7279 82.644C61.1866 82.644 60.7386 82.8353 60.3839 83.218C60.0293 83.5913 59.8146 84.1373 59.7399 84.856ZM68.7832 89.168C68.3538 89.168 67.9665 89.0887 67.6212 88.93C67.2758 88.762 67.0005 88.496 66.7952 88.132C66.5992 87.768 66.5012 87.2967 66.5012 86.718V78.64H67.7612V86.592C67.7612 87.096 67.8638 87.4693 68.0692 87.712C68.2838 87.9547 68.5778 88.076 68.9512 88.076C69.1285 88.076 69.3012 88.0573 69.4692 88.02C69.6465 87.9733 69.7958 87.922 69.9172 87.866L70.2252 88.888C70.0572 88.9627 69.8472 89.028 69.5952 89.084C69.3525 89.14 69.0818 89.168 68.7832 89.168ZM75.6083 89V81.72H76.8263V82.938C77.0876 82.546 77.4189 82.2193 77.8203 81.958C78.2309 81.6873 78.7163 81.552 79.2763 81.552C80.0976 81.552 80.7089 81.7993 81.1103 82.294C81.5209 82.7887 81.7263 83.442 81.7263 84.254V89H80.4663V84.394C80.4663 83.8713 80.3403 83.4513 80.0883 83.134C79.8456 82.8167 79.5049 82.658 79.0663 82.658C78.6369 82.658 78.2309 82.812 77.8483 83.12C77.4656 83.4187 77.1389 83.7733 76.8683 84.184V89H75.6083ZM86.9594 89.168C86.2688 89.168 85.6481 89.0093 85.0974 88.692C84.5468 88.3653 84.1128 87.9173 83.7954 87.348C83.4874 86.7693 83.3334 86.1067 83.3334 85.36C83.3334 84.576 83.4921 83.8993 83.8094 83.33C84.1268 82.7607 84.5608 82.322 85.1114 82.014C85.6621 81.706 86.2781 81.552 86.9594 81.552C87.6408 81.552 88.2521 81.706 88.7934 82.014C89.3441 82.322 89.7781 82.7607 90.0954 83.33C90.4221 83.89 90.5854 84.5573 90.5854 85.332C90.5854 86.1067 90.4268 86.7833 90.1094 87.362C89.7921 87.9313 89.3581 88.3747 88.8074 88.692C88.2661 89.0093 87.6501 89.168 86.9594 89.168ZM86.9594 88.048C87.6968 88.048 88.2708 87.8007 88.6814 87.306C89.0921 86.802 89.2974 86.1533 89.2974 85.36C89.2974 84.8747 89.1948 84.4313 88.9894 84.03C88.7841 83.6193 88.5041 83.2927 88.1494 83.05C87.8041 82.798 87.4074 82.672 86.9594 82.672C86.2221 82.672 85.6481 82.9147 85.2374 83.4C84.8268 83.8853 84.6214 84.5293 84.6214 85.332C84.6214 85.8173 84.7241 86.27 84.9294 86.69C85.1348 87.1007 85.4101 87.432 85.7554 87.684C86.1101 87.9267 86.5114 88.048 86.9594 88.048ZM92.2606 89V81.72H93.4786V82.938C93.74 82.546 94.0713 82.2193 94.4726 81.958C94.874 81.6873 95.3313 81.552 95.8446 81.552C96.4233 81.552 96.8946 81.692 97.2586 81.972C97.632 82.252 97.8933 82.6253 98.0426 83.092C98.332 82.6627 98.6726 82.2987 99.0646 82C99.466 81.7013 99.9606 81.552 100.549 81.552C101.342 81.552 101.93 81.804 102.313 82.308C102.705 82.8027 102.901 83.4513 102.901 84.254V89H101.641V84.352C101.641 83.848 101.524 83.442 101.291 83.134C101.057 82.8167 100.735 82.658 100.325 82.658C99.9046 82.658 99.5126 82.8167 99.1486 83.134C98.794 83.442 98.4813 83.806 98.2106 84.226V89H96.9506V84.352C96.9506 83.848 96.834 83.442 96.6006 83.134C96.3673 82.8167 96.0453 82.658 95.6346 82.658C95.224 82.658 94.8366 82.812 94.4726 83.12C94.1086 83.4187 93.7913 83.7733 93.5206 84.184V89H92.2606ZM108.347 89.168C107.927 89.168 107.531 89.0933 107.157 88.944C106.793 88.7853 106.49 88.6033 106.247 88.398V89H105.071V78.64H106.331V82.476C106.518 82.2613 106.789 82.056 107.143 81.86C107.507 81.6547 107.937 81.552 108.431 81.552C108.991 81.552 109.514 81.7013 109.999 82C110.494 82.2893 110.891 82.714 111.189 83.274C111.488 83.8247 111.637 84.4967 111.637 85.29C111.637 85.8687 111.544 86.396 111.357 86.872C111.171 87.348 110.919 87.7587 110.601 88.104C110.293 88.44 109.943 88.7013 109.551 88.888C109.159 89.0747 108.758 89.168 108.347 89.168ZM108.011 88.048C108.469 88.048 108.87 87.936 109.215 87.712C109.57 87.488 109.845 87.1707 110.041 86.76C110.247 86.3493 110.349 85.8733 110.349 85.332C110.349 84.772 110.247 84.2913 110.041 83.89C109.845 83.4887 109.579 83.1807 109.243 82.966C108.917 82.7513 108.553 82.644 108.151 82.644C107.75 82.644 107.386 82.7467 107.059 82.952C106.742 83.148 106.499 83.3627 106.331 83.596V87.488C106.546 87.656 106.798 87.7913 107.087 87.894C107.377 87.9967 107.685 88.048 108.011 88.048ZM113.384 89V81.72H114.602V83.302C114.723 82.994 114.886 82.7093 115.092 82.448C115.297 82.1773 115.554 81.9627 115.862 81.804C116.17 81.636 116.529 81.552 116.94 81.552C117.08 81.552 117.22 81.5613 117.36 81.58C117.5 81.5893 117.616 81.608 117.71 81.636L117.332 82.938C117.154 82.8633 116.944 82.826 116.702 82.826C116.356 82.826 116.025 82.924 115.708 83.12C115.4 83.316 115.143 83.6193 114.938 84.03C114.742 84.4407 114.644 84.9633 114.644 85.598V89H113.384ZM121.464 89.168C120.418 89.168 119.588 88.8367 118.972 88.174C118.365 87.502 118.062 86.564 118.062 85.36C118.062 84.632 118.197 83.9833 118.468 83.414C118.748 82.8353 119.135 82.3827 119.63 82.056C120.124 81.72 120.698 81.552 121.352 81.552C122.052 81.552 122.63 81.706 123.088 82.014C123.554 82.3127 123.904 82.7187 124.138 83.232C124.371 83.7453 124.488 84.31 124.488 84.926C124.488 85.2527 124.474 85.57 124.446 85.878H119.35C119.434 86.5593 119.672 87.0913 120.064 87.474C120.456 87.8567 120.974 88.048 121.618 88.048C122.038 88.048 122.416 88.006 122.752 87.922C123.088 87.8287 123.41 87.712 123.718 87.572L124.012 88.65C123.676 88.7993 123.298 88.9207 122.878 89.014C122.458 89.1167 121.986 89.168 121.464 89.168ZM119.336 84.856H123.326C123.326 84.1467 123.148 83.6007 122.794 83.218C122.439 82.8353 121.949 82.644 121.324 82.644C120.782 82.644 120.334 82.8353 119.98 83.218C119.625 83.5913 119.41 84.1373 119.336 84.856ZM133.122 89.168C132.525 89.168 131.979 89.014 131.484 88.706C130.989 88.398 130.597 87.964 130.308 87.404C130.019 86.8347 129.874 86.1673 129.874 85.402C129.874 84.6647 130.019 84.0067 130.308 83.428C130.607 82.8493 130.999 82.392 131.484 82.056C131.979 81.72 132.52 81.552 133.108 81.552C133.593 81.552 134.009 81.65 134.354 81.846C134.709 82.042 134.984 82.2427 135.18 82.448V78.64H136.44V87.236C136.44 87.5907 136.524 87.824 136.692 87.936C136.869 88.0387 137.061 88.09 137.266 88.09L137 89.07C136.113 89.07 135.572 88.7153 135.376 88.006C135.171 88.2953 134.881 88.5613 134.508 88.804C134.144 89.0467 133.682 89.168 133.122 89.168ZM133.402 88.048C133.747 88.048 134.074 87.9687 134.382 87.81C134.699 87.642 134.965 87.4273 135.18 87.166V83.554C135.003 83.33 134.755 83.1247 134.438 82.938C134.121 82.742 133.771 82.644 133.388 82.644C132.94 82.644 132.548 82.7653 132.212 83.008C131.876 83.2507 131.615 83.5773 131.428 83.988C131.251 84.3893 131.162 84.8467 131.162 85.36C131.162 85.8733 131.26 86.3353 131.456 86.746C131.652 87.1473 131.918 87.4647 132.254 87.698C132.599 87.9313 132.982 88.048 133.402 88.048ZM141.725 89.168C140.68 89.168 139.849 88.8367 139.233 88.174C138.627 87.502 138.323 86.564 138.323 85.36C138.323 84.632 138.459 83.9833 138.729 83.414C139.009 82.8353 139.397 82.3827 139.891 82.056C140.386 81.72 140.96 81.552 141.613 81.552C142.313 81.552 142.892 81.706 143.349 82.014C143.816 82.3127 144.166 82.7187 144.399 83.232C144.633 83.7453 144.749 84.31 144.749 84.926C144.749 85.2527 144.735 85.57 144.707 85.878H139.611C139.695 86.5593 139.933 87.0913 140.325 87.474C140.717 87.8567 141.235 88.048 141.879 88.048C142.299 88.048 142.677 88.006 143.013 87.922C143.349 87.8287 143.671 87.712 143.979 87.572L144.273 88.65C143.937 88.7993 143.559 88.9207 143.139 89.014C142.719 89.1167 142.248 89.168 141.725 89.168ZM139.597 84.856H143.587C143.587 84.1467 143.41 83.6007 143.055 83.218C142.701 82.8353 142.211 82.644 141.585 82.644C141.044 82.644 140.596 82.8353 140.241 83.218C139.887 83.5913 139.672 84.1373 139.597 84.856ZM148.641 89.168C148.211 89.168 147.824 89.0887 147.479 88.93C147.133 88.762 146.858 88.496 146.653 88.132C146.457 87.768 146.359 87.2967 146.359 86.718V78.64H147.619V86.592C147.619 87.096 147.721 87.4693 147.927 87.712C148.141 87.9547 148.435 88.076 148.809 88.076C148.986 88.076 149.159 88.0573 149.327 88.02C149.504 87.9733 149.653 87.922 149.775 87.866L150.083 88.888C149.915 88.9627 149.705 89.028 149.453 89.084C149.21 89.14 148.939 89.168 148.641 89.168ZM158.406 89.168C157.715 89.168 157.108 89.0093 156.586 88.692C156.072 88.3653 155.676 87.9173 155.396 87.348C155.116 86.7693 154.976 86.1067 154.976 85.36C154.976 84.66 155.116 84.0207 155.396 83.442C155.685 82.8633 156.096 82.406 156.628 82.07C157.16 81.7247 157.785 81.552 158.504 81.552C158.914 81.552 159.274 81.5893 159.582 81.664C159.899 81.7387 160.202 81.846 160.492 81.986L160.114 83.05C159.852 82.9193 159.6 82.826 159.358 82.77C159.124 82.7047 158.863 82.672 158.574 82.672C157.92 82.672 157.37 82.91 156.922 83.386C156.483 83.8527 156.264 84.5013 156.264 85.332C156.264 85.836 156.357 86.2933 156.544 86.704C156.73 87.1147 156.987 87.4413 157.314 87.684C157.65 87.9267 158.042 88.048 158.49 88.048C158.844 88.048 159.148 88.0107 159.4 87.936C159.652 87.852 159.922 87.7353 160.212 87.586L160.604 88.65C160.314 88.8087 159.988 88.9347 159.624 89.028C159.269 89.1213 158.863 89.168 158.406 89.168ZM164.999 89.168C164.308 89.168 163.687 89.0093 163.137 88.692C162.586 88.3653 162.152 87.9173 161.835 87.348C161.527 86.7693 161.373 86.1067 161.373 85.36C161.373 84.576 161.531 83.8993 161.849 83.33C162.166 82.7607 162.6 82.322 163.151 82.014C163.701 81.706 164.317 81.552 164.999 81.552C165.68 81.552 166.291 81.706 166.833 82.014C167.383 82.322 167.817 82.7607 168.135 83.33C168.461 83.89 168.625 84.5573 168.625 85.332C168.625 86.1067 168.466 86.7833 168.149 87.362C167.831 87.9313 167.397 88.3747 166.847 88.692C166.305 89.0093 165.689 89.168 164.999 89.168ZM164.999 88.048C165.736 88.048 166.31 87.8007 166.721 87.306C167.131 86.802 167.337 86.1533 167.337 85.36C167.337 84.8747 167.234 84.4313 167.029 84.03C166.823 83.6193 166.543 83.2927 166.189 83.05C165.843 82.798 165.447 82.672 164.999 82.672C164.261 82.672 163.687 82.9147 163.277 83.4C162.866 83.8853 162.66 84.5293 162.66 85.332C162.66 85.8173 162.763 86.27 162.969 86.69C163.174 87.1007 163.449 87.432 163.795 87.684C164.149 87.9267 164.551 88.048 164.999 88.048ZM170.3 89V81.72H171.518V82.938C171.779 82.546 172.11 82.2193 172.512 81.958C172.913 81.6873 173.37 81.552 173.884 81.552C174.462 81.552 174.934 81.692 175.298 81.972C175.671 82.252 175.932 82.6253 176.082 83.092C176.371 82.6627 176.712 82.2987 177.104 82C177.505 81.7013 178 81.552 178.588 81.552C179.381 81.552 179.969 81.804 180.352 82.308C180.744 82.8027 180.94 83.4513 180.94 84.254V89H179.68V84.352C179.68 83.848 179.563 83.442 179.33 83.134C179.096 82.8167 178.774 82.658 178.364 82.658C177.944 82.658 177.552 82.8167 177.188 83.134C176.833 83.442 176.52 83.806 176.25 84.226V89H174.99V84.352C174.99 83.848 174.873 83.442 174.64 83.134C174.406 82.8167 174.084 82.658 173.674 82.658C173.263 82.658 172.876 82.812 172.512 83.12C172.148 83.4187 171.83 83.7733 171.56 84.184V89H170.3ZM186.386 89.168C185.966 89.168 185.57 89.0933 185.196 88.944C184.832 88.7853 184.529 88.6033 184.286 88.398V89H183.11V78.64H184.37V82.476C184.557 82.2613 184.828 82.056 185.182 81.86C185.546 81.6547 185.976 81.552 186.47 81.552C187.03 81.552 187.553 81.7013 188.038 82C188.533 82.2893 188.93 82.714 189.228 83.274C189.527 83.8247 189.676 84.4967 189.676 85.29C189.676 85.8687 189.583 86.396 189.396 86.872C189.21 87.348 188.958 87.7587 188.64 88.104C188.332 88.44 187.982 88.7013 187.59 88.888C187.198 89.0747 186.797 89.168 186.386 89.168ZM186.05 88.048C186.508 88.048 186.909 87.936 187.254 87.712C187.609 87.488 187.884 87.1707 188.08 86.76C188.286 86.3493 188.388 85.8733 188.388 85.332C188.388 84.772 188.286 84.2913 188.08 83.89C187.884 83.4887 187.618 83.1807 187.282 82.966C186.956 82.7513 186.592 82.644 186.19 82.644C185.789 82.644 185.425 82.7467 185.098 82.952C184.781 83.148 184.538 83.3627 184.37 83.596V87.488C184.585 87.656 184.837 87.7913 185.126 87.894C185.416 87.9967 185.724 88.048 186.05 88.048ZM193.803 89.168C193.383 89.168 192.986 89.0793 192.613 88.902C192.239 88.7247 191.936 88.44 191.703 88.048C191.469 87.6467 191.353 87.1147 191.353 86.452V81.72H192.613V86.284C192.613 86.8533 192.734 87.292 192.977 87.6C193.219 87.8987 193.574 88.048 194.041 88.048C194.423 88.048 194.792 87.9733 195.147 87.824C195.511 87.6653 195.833 87.4553 196.113 87.194V81.72H197.373V87.11C197.373 87.5113 197.457 87.7773 197.625 87.908C197.802 88.0293 197.993 88.09 198.199 88.09L197.933 89.07C197.065 89.07 196.528 88.7247 196.323 88.034C195.996 88.37 195.618 88.6453 195.189 88.86C194.759 89.0653 194.297 89.168 193.803 89.168ZM201.832 89.168C201.281 89.168 200.782 89.098 200.334 88.958C199.895 88.818 199.531 88.636 199.242 88.412L199.774 87.362C200.017 87.5673 200.32 87.74 200.684 87.88C201.057 88.0107 201.454 88.076 201.874 88.076C202.397 88.076 202.789 87.992 203.05 87.824C203.321 87.6467 203.456 87.4227 203.456 87.152C203.456 86.956 203.405 86.7833 203.302 86.634C203.209 86.4847 203.031 86.34 202.77 86.2C202.509 86.0507 202.131 85.892 201.636 85.724C200.955 85.4907 200.441 85.2153 200.096 84.898C199.76 84.5713 199.592 84.1233 199.592 83.554C199.592 82.994 199.835 82.5227 200.32 82.14C200.815 81.748 201.496 81.552 202.364 81.552C202.831 81.552 203.246 81.6033 203.61 81.706C203.974 81.7993 204.301 81.9207 204.59 82.07L204.24 83.106C203.988 82.9567 203.699 82.8353 203.372 82.742C203.055 82.6487 202.7 82.602 202.308 82.602C201.823 82.602 201.454 82.7 201.202 82.896C200.95 83.092 200.824 83.3067 200.824 83.54C200.824 83.764 200.922 83.9553 201.118 84.114C201.314 84.2727 201.697 84.4453 202.266 84.632C203.19 84.94 203.834 85.2807 204.198 85.654C204.562 86.0273 204.744 86.494 204.744 87.054C204.744 87.7073 204.478 88.2253 203.946 88.608C203.423 88.9813 202.719 89.168 201.832 89.168ZM208.969 89.168C208.269 89.168 207.713 88.9393 207.303 88.482C206.901 88.0153 206.701 87.3527 206.701 86.494V83.078H205.441V81.986H206.729L206.995 79.69H207.961V81.986H209.977V83.078H207.961V86.592C207.961 87.1333 208.073 87.5113 208.297 87.726C208.53 87.9407 208.805 88.048 209.123 88.048C209.356 88.048 209.575 88.0107 209.781 87.936C209.995 87.8613 210.191 87.7727 210.369 87.67L210.719 88.678C210.532 88.79 210.28 88.8973 209.963 89C209.645 89.112 209.314 89.168 208.969 89.168ZM211.985 89V81.72H213.245V89H211.985ZM212.615 80.474C212.373 80.474 212.163 80.3853 211.985 80.208C211.817 80.0307 211.733 79.8253 211.733 79.592C211.733 79.3213 211.813 79.1067 211.971 78.948C212.13 78.7893 212.345 78.71 212.615 78.71C212.858 78.71 213.063 78.7987 213.231 78.976C213.409 79.144 213.497 79.3493 213.497 79.592C213.497 79.8533 213.418 80.068 213.259 80.236C213.101 80.3947 212.886 80.474 212.615 80.474ZM218.761 89.168C218.341 89.168 217.945 89.0933 217.571 88.944C217.207 88.7853 216.904 88.6033 216.661 88.398V89H215.485V78.64H216.745V82.476C216.932 82.2613 217.203 82.056 217.557 81.86C217.921 81.6547 218.351 81.552 218.845 81.552C219.405 81.552 219.928 81.7013 220.413 82C220.908 82.2893 221.305 82.714 221.603 83.274C221.902 83.8247 222.051 84.4967 222.051 85.29C222.051 85.8687 221.958 86.396 221.771 86.872C221.585 87.348 221.333 87.7587 221.015 88.104C220.707 88.44 220.357 88.7013 219.965 88.888C219.573 89.0747 219.172 89.168 218.761 89.168ZM218.425 88.048C218.883 88.048 219.284 87.936 219.629 87.712C219.984 87.488 220.259 87.1707 220.455 86.76C220.661 86.3493 220.763 85.8733 220.763 85.332C220.763 84.772 220.661 84.2913 220.455 83.89C220.259 83.4887 219.993 83.1807 219.657 82.966C219.331 82.7513 218.967 82.644 218.565 82.644C218.164 82.644 217.8 82.7467 217.473 82.952C217.156 83.148 216.913 83.3627 216.745 83.596V87.488C216.96 87.656 217.212 87.7913 217.501 87.894C217.791 87.9967 218.099 88.048 218.425 88.048ZM226.01 89.168C225.58 89.168 225.193 89.0887 224.848 88.93C224.502 88.762 224.227 88.496 224.022 88.132C223.826 87.768 223.728 87.2967 223.728 86.718V78.64H224.988V86.592C224.988 87.096 225.09 87.4693 225.296 87.712C225.51 87.9547 225.804 88.076 226.178 88.076C226.355 88.076 226.528 88.0573 226.696 88.02C226.873 87.9733 227.022 87.922 227.144 87.866L227.452 88.888C227.284 88.9627 227.074 89.028 226.822 89.084C226.579 89.14 226.308 89.168 226.01 89.168ZM231.345 89.168C230.299 89.168 229.469 88.8367 228.853 88.174C228.246 87.502 227.943 86.564 227.943 85.36C227.943 84.632 228.078 83.9833 228.349 83.414C228.629 82.8353 229.016 82.3827 229.511 82.056C230.005 81.72 230.579 81.552 231.233 81.552C231.933 81.552 232.511 81.706 232.969 82.014C233.435 82.3127 233.785 82.7187 234.019 83.232C234.252 83.7453 234.369 84.31 234.369 84.926C234.369 85.2527 234.355 85.57 234.327 85.878H229.231C229.315 86.5593 229.553 87.0913 229.945 87.474C230.337 87.8567 230.855 88.048 231.499 88.048C231.919 88.048 232.297 88.006 232.633 87.922C232.969 87.8287 233.291 87.712 233.599 87.572L233.893 88.65C233.557 88.7993 233.179 88.9207 232.759 89.014C232.339 89.1167 231.867 89.168 231.345 89.168ZM229.217 84.856H233.207C233.207 84.1467 233.029 83.6007 232.675 83.218C232.32 82.8353 231.83 82.644 231.205 82.644C230.663 82.644 230.215 82.8353 229.861 83.218C229.506 83.5913 229.291 84.1373 229.217 84.856Z" fill="#5E5E5E"/>
</svg>
