<svg width="134" height="40" viewBox="0 0 134 40" fill="none" xmlns="http://www.w3.org/2000/svg">
<rect width="134" height="40" rx="8" fill="#E8E8E8"/>
<path d="M17.44 25V13.8H19.568L22.672 20.888L25.728 13.8H27.904V25H26.384V15.736L23.392 22.472H21.888L18.88 15.736V25H17.44ZM30.7838 25V13.8H32.9118L36.0158 20.888L39.0718 13.8H41.2478V25H39.7278V15.736L36.7358 22.472H35.2318L32.2238 15.736V25H30.7838ZM44.6235 26.136L43.4395 25.736L47.9515 12.632L49.1355 13.032L44.6235 26.136ZM54.2746 25.128C53.6666 25.128 53.1333 25.112 52.6746 25.08C52.2266 25.048 51.7786 25.0107 51.3306 24.968V13.832C51.832 13.7787 52.3226 13.7413 52.8026 13.72C53.2826 13.688 53.832 13.672 54.4506 13.672C55.4106 13.672 56.2373 13.8213 56.9306 14.12C57.6346 14.4187 58.2106 14.8293 58.6586 15.352C59.1173 15.8747 59.4533 16.4827 59.6666 17.176C59.8906 17.8587 60.0026 18.5947 60.0026 19.384C60.0026 20.1627 59.8906 20.8987 59.6666 21.592C59.4426 22.2853 59.096 22.8987 58.6266 23.432C58.168 23.9547 57.576 24.3707 56.8506 24.68C56.136 24.9787 55.2773 25.128 54.2746 25.128ZM54.3226 23.8C55.2826 23.8 56.0666 23.6133 56.6746 23.24C57.2826 22.8667 57.7306 22.3493 58.0186 21.688C58.3066 21.016 58.4506 20.248 58.4506 19.384C58.4506 18.616 58.3066 17.896 58.0186 17.224C57.7306 16.552 57.288 16.0133 56.6906 15.608C56.0933 15.192 55.3306 14.984 54.4026 14.984C54.0933 14.984 53.8106 14.9947 53.5546 15.016C53.2986 15.0267 53.064 15.0427 52.8506 15.064V23.72C53.0746 23.752 53.3093 23.7733 53.5546 23.784C53.8 23.7947 54.056 23.8 54.3226 23.8ZM65.1809 25.128C64.5729 25.128 64.0395 25.112 63.5809 25.08C63.1329 25.048 62.6849 25.0107 62.2369 24.968V13.832C62.7382 13.7787 63.2289 13.7413 63.7089 13.72C64.1889 13.688 64.7382 13.672 65.3569 13.672C66.3169 13.672 67.1435 13.8213 67.8369 14.12C68.5409 14.4187 69.1169 14.8293 69.5649 15.352C70.0235 15.8747 70.3595 16.4827 70.5729 17.176C70.7969 17.8587 70.9089 18.5947 70.9089 19.384C70.9089 20.1627 70.7969 20.8987 70.5729 21.592C70.3489 22.2853 70.0022 22.8987 69.5329 23.432C69.0742 23.9547 68.4822 24.3707 67.7569 24.68C67.0422 24.9787 66.1835 25.128 65.1809 25.128ZM65.2289 23.8C66.1889 23.8 66.9729 23.6133 67.5809 23.24C68.1889 22.8667 68.6369 22.3493 68.9249 21.688C69.2129 21.016 69.3569 20.248 69.3569 19.384C69.3569 18.616 69.2129 17.896 68.9249 17.224C68.6369 16.552 68.1942 16.0133 67.5969 15.608C66.9995 15.192 66.2369 14.984 65.3089 14.984C64.9995 14.984 64.7169 14.9947 64.4609 15.016C64.2049 15.0267 63.9702 15.0427 63.7569 15.064V23.72C63.9809 23.752 64.2155 23.7733 64.4609 23.784C64.7062 23.7947 64.9622 23.8 65.2289 23.8ZM73.6391 26.136L72.4551 25.736L76.9671 12.632L78.1511 13.032L73.6391 26.136ZM82.9543 25V20.744L79.0663 14.424L80.3463 13.656L83.7703 19.336L87.1302 13.72L88.3303 14.424L84.4743 20.744V25H82.9543ZM92.5324 25V20.744L88.6444 14.424L89.9244 13.656L93.3484 19.336L96.7084 13.72L97.9084 14.424L94.0524 20.744V25H92.5324ZM102.111 25V20.744L98.2225 14.424L99.5025 13.656L102.927 19.336L106.286 13.72L107.487 14.424L103.631 20.744V25H102.111ZM111.689 25V20.744L107.801 14.424L109.081 13.656L112.505 19.336L115.865 13.72L117.065 14.424L113.209 20.744V25H111.689Z" fill="#5E5E5E"/>
</svg>
