<svg width="88" height="18" viewBox="0 0 88 18" fill="none" xmlns="http://www.w3.org/2000/svg">
<path d="M29.15 14V5.376H26.14V4.2H33.49V5.376H30.48V14H29.15ZM36.6255 14.168C35.9348 14.168 35.3141 14.0093 34.7635 13.692C34.2128 13.3653 33.7788 12.9173 33.4615 12.348C33.1535 11.7693 32.9995 11.1067 32.9995 10.36C32.9995 9.576 33.1581 8.89933 33.4755 8.33C33.7928 7.76067 34.2268 7.322 34.7775 7.014C35.3281 6.706 35.9441 6.552 36.6255 6.552C37.3068 6.552 37.9181 6.706 38.4595 7.014C39.0101 7.322 39.4441 7.76067 39.7615 8.33C40.0881 8.89 40.2515 9.55733 40.2515 10.332C40.2515 11.1067 40.0928 11.7833 39.7755 12.362C39.4581 12.9313 39.0241 13.3747 38.4735 13.692C37.9321 14.0093 37.3161 14.168 36.6255 14.168ZM36.6255 13.048C37.3628 13.048 37.9368 12.8007 38.3475 12.306C38.7581 11.802 38.9635 11.1533 38.9635 10.36C38.9635 9.87467 38.8608 9.43133 38.6555 9.03C38.4501 8.61933 38.1701 8.29267 37.8155 8.05C37.4701 7.798 37.0735 7.672 36.6255 7.672C35.8881 7.672 35.3141 7.91467 34.9035 8.4C34.4928 8.88533 34.2875 9.52933 34.2875 10.332C34.2875 10.8173 34.3901 11.27 34.5955 11.69C34.8008 12.1007 35.0761 12.432 35.4215 12.684C35.7761 12.9267 36.1775 13.048 36.6255 13.048ZM44.6846 14.168C44.0873 14.168 43.5413 14.014 43.0466 13.706C42.552 13.398 42.16 12.964 41.8706 12.404C41.5813 11.8347 41.4366 11.1673 41.4366 10.402C41.4366 9.66467 41.5813 9.00667 41.8706 8.428C42.1693 7.84933 42.5613 7.392 43.0466 7.056C43.5413 6.72 44.0826 6.552 44.6706 6.552C45.156 6.552 45.5713 6.65 45.9166 6.846C46.2713 7.042 46.5466 7.24267 46.7426 7.448V3.64H48.0026V12.236C48.0026 12.5907 48.0866 12.824 48.2546 12.936C48.432 13.0387 48.6233 13.09 48.8286 13.09L48.5626 14.07C47.676 14.07 47.1346 13.7153 46.9386 13.006C46.7333 13.2953 46.444 13.5613 46.0706 13.804C45.7066 14.0467 45.2446 14.168 44.6846 14.168ZM44.9646 13.048C45.31 13.048 45.6366 12.9687 45.9446 12.81C46.262 12.642 46.528 12.4273 46.7426 12.166V8.554C46.5653 8.33 46.318 8.12467 46.0006 7.938C45.6833 7.742 45.3333 7.644 44.9506 7.644C44.5026 7.644 44.1106 7.76533 43.7746 8.008C43.4386 8.25067 43.1773 8.57733 42.9906 8.988C42.8133 9.38933 42.7246 9.84667 42.7246 10.36C42.7246 10.8733 42.8226 11.3353 43.0186 11.746C43.2146 12.1473 43.4806 12.4647 43.8166 12.698C44.162 12.9313 44.5446 13.048 44.9646 13.048ZM53.4419 14.168C52.7512 14.168 52.1305 14.0093 51.5799 13.692C51.0292 13.3653 50.5952 12.9173 50.2779 12.348C49.9699 11.7693 49.8159 11.1067 49.8159 10.36C49.8159 9.576 49.9745 8.89933 50.2919 8.33C50.6092 7.76067 51.0432 7.322 51.5939 7.014C52.1445 6.706 52.7605 6.552 53.4419 6.552C54.1232 6.552 54.7345 6.706 55.2759 7.014C55.8265 7.322 56.2605 7.76067 56.5779 8.33C56.9045 8.89 57.0679 9.55733 57.0679 10.332C57.0679 11.1067 56.9092 11.7833 56.5919 12.362C56.2745 12.9313 55.8405 13.3747 55.2899 13.692C54.7485 14.0093 54.1325 14.168 53.4419 14.168ZM53.4419 13.048C54.1792 13.048 54.7532 12.8007 55.1639 12.306C55.5745 11.802 55.7799 11.1533 55.7799 10.36C55.7799 9.87467 55.6772 9.43133 55.4719 9.03C55.2665 8.61933 54.9865 8.29267 54.6319 8.05C54.2865 7.798 53.8899 7.672 53.4419 7.672C52.7045 7.672 52.1305 7.91467 51.7199 8.4C51.3092 8.88533 51.1039 9.52933 51.1039 10.332C51.1039 10.8173 51.2065 11.27 51.4119 11.69C51.6172 12.1007 51.8925 12.432 52.2379 12.684C52.5925 12.9267 52.9939 13.048 53.4419 13.048ZM60.703 14.168C60.1524 14.168 59.653 14.098 59.205 13.958C58.7664 13.818 58.4024 13.636 58.113 13.412L58.645 12.362C58.8877 12.5673 59.191 12.74 59.555 12.88C59.9284 13.0107 60.325 13.076 60.745 13.076C61.2677 13.076 61.6597 12.992 61.921 12.824C62.1917 12.6467 62.327 12.4227 62.327 12.152C62.327 11.956 62.2757 11.7833 62.173 11.634C62.0797 11.4847 61.9024 11.34 61.641 11.2C61.3797 11.0507 61.0017 10.892 60.507 10.724C59.8257 10.4907 59.3124 10.2153 58.967 9.898C58.631 9.57133 58.463 9.12333 58.463 8.554C58.463 7.994 58.7057 7.52267 59.191 7.14C59.6857 6.748 60.367 6.552 61.235 6.552C61.7017 6.552 62.117 6.60333 62.481 6.706C62.845 6.79933 63.1717 6.92067 63.461 7.07L63.111 8.106C62.859 7.95667 62.5697 7.83533 62.243 7.742C61.9257 7.64867 61.571 7.602 61.179 7.602C60.6937 7.602 60.325 7.7 60.073 7.896C59.821 8.092 59.695 8.30667 59.695 8.54C59.695 8.764 59.793 8.95533 59.989 9.114C60.185 9.27267 60.5677 9.44533 61.137 9.632C62.061 9.94 62.705 10.2807 63.069 10.654C63.433 11.0273 63.615 11.494 63.615 12.054C63.615 12.7073 63.349 13.2253 62.817 13.608C62.2944 13.9813 61.5897 14.168 60.703 14.168Z" fill="#5E5E5E"/>
<rect x="0.5" y="1.5" width="15" height="15" rx="7.5" fill="#FAFAFA"/>
<rect x="0.5" y="1.5" width="15" height="15" rx="7.5" stroke="#D6D6D6"/>
</svg>
