<svg width="88" height="18" viewBox="0 0 88 18" fill="none" xmlns="http://www.w3.org/2000/svg">
<path d="M27.26 14V4.2H28.59V14H27.26ZM30.9755 14V6.72H32.1935V7.938C32.4548 7.546 32.7861 7.21933 33.1875 6.958C33.5981 6.68733 34.0835 6.552 34.6435 6.552C35.4648 6.552 36.0761 6.79933 36.4775 7.294C36.8881 7.78867 37.0935 8.442 37.0935 9.254V14H35.8335V9.394C35.8335 8.87133 35.7075 8.45133 35.4555 8.134C35.2128 7.81667 34.8721 7.658 34.4335 7.658C34.0041 7.658 33.5981 7.812 33.2155 8.12C32.8328 8.41867 32.5061 8.77333 32.2355 9.184V14H30.9755ZM42.0466 14.168C41.44 14.168 40.8893 14.014 40.3946 13.706C39.9 13.398 39.5033 12.964 39.2046 12.404C38.9153 11.8347 38.7706 11.1673 38.7706 10.402C38.7706 9.674 38.9153 9.02067 39.2046 8.442C39.5033 7.86333 39.9093 7.406 40.4226 7.07C40.9453 6.72467 41.5426 6.552 42.2146 6.552C42.6346 6.552 43.0126 6.62667 43.3486 6.776C43.694 6.916 43.9926 7.09333 44.2446 7.308V6.72H45.3926V12.236C45.3926 12.5907 45.4766 12.824 45.6446 12.936C45.822 13.0387 46.0133 13.09 46.2186 13.09L45.9526 14.07C45.0566 14.07 44.5153 13.706 44.3286 12.978C44.114 13.2767 43.82 13.552 43.4466 13.804C43.0826 14.0467 42.616 14.168 42.0466 14.168ZM42.3266 13.048C42.6813 13.048 43.0173 12.964 43.3346 12.796C43.652 12.6187 43.918 12.3993 44.1326 12.138V8.232C43.8806 8.05467 43.6006 7.91467 43.2926 7.812C42.994 7.7 42.6766 7.644 42.3406 7.644C41.8926 7.644 41.496 7.76067 41.1506 7.994C40.8146 8.218 40.5486 8.53533 40.3526 8.946C40.1566 9.34733 40.0586 9.81867 40.0586 10.36C40.0586 10.8827 40.1566 11.3493 40.3526 11.76C40.5486 12.1613 40.8193 12.4787 41.1646 12.712C41.51 12.936 41.8973 13.048 42.3266 13.048ZM50.7045 14.168C50.0139 14.168 49.4072 14.0093 48.8845 13.692C48.3712 13.3653 47.9745 12.9173 47.6945 12.348C47.4145 11.7693 47.2745 11.1067 47.2745 10.36C47.2745 9.66 47.4145 9.02067 47.6945 8.442C47.9839 7.86333 48.3945 7.406 48.9265 7.07C49.4585 6.72467 50.0839 6.552 50.8025 6.552C51.2132 6.552 51.5725 6.58933 51.8805 6.664C52.1979 6.73867 52.5012 6.846 52.7905 6.986L52.4125 8.05C52.1512 7.91933 51.8992 7.826 51.6565 7.77C51.4232 7.70467 51.1619 7.672 50.8725 7.672C50.2192 7.672 49.6685 7.91 49.2205 8.386C48.7819 8.85267 48.5625 9.50133 48.5625 10.332C48.5625 10.836 48.6559 11.2933 48.8425 11.704C49.0292 12.1147 49.2859 12.4413 49.6125 12.684C49.9485 12.9267 50.3405 13.048 50.7885 13.048C51.1432 13.048 51.4465 13.0107 51.6985 12.936C51.9505 12.852 52.2212 12.7353 52.5105 12.586L52.9025 13.65C52.6132 13.8087 52.2865 13.9347 51.9225 14.028C51.5679 14.1213 51.1619 14.168 50.7045 14.168ZM56.916 14.168C56.216 14.168 55.6607 13.9393 55.25 13.482C54.8487 13.0153 54.648 12.3527 54.648 11.494V8.078H53.388V6.986H54.676L54.942 4.69H55.908V6.986H57.924V8.078H55.908V11.592C55.908 12.1333 56.02 12.5113 56.244 12.726C56.4774 12.9407 56.7527 13.048 57.07 13.048C57.3034 13.048 57.5227 13.0107 57.728 12.936C57.9427 12.8613 58.1387 12.7727 58.316 12.67L58.666 13.678C58.4794 13.79 58.2274 13.8973 57.91 14C57.5927 14.112 57.2614 14.168 56.916 14.168ZM59.9325 14V6.72H61.1925V14H59.9325ZM60.5625 5.474C60.3198 5.474 60.1098 5.38533 59.9325 5.208C59.7645 5.03067 59.6805 4.82533 59.6805 4.592C59.6805 4.32133 59.7598 4.10667 59.9185 3.948C60.0772 3.78933 60.2918 3.71 60.5625 3.71C60.8052 3.71 61.0105 3.79867 61.1785 3.976C61.3558 4.144 61.4445 4.34933 61.4445 4.592C61.4445 4.85333 61.3652 5.068 61.2065 5.236C61.0478 5.39467 60.8332 5.474 60.5625 5.474ZM65.3785 14L62.4525 7.056L63.6005 6.58L66.0785 12.572L68.5565 6.58L69.6345 7.056L66.6945 14H65.3785ZM73.6899 14.168C72.9992 14.168 72.3786 14.0093 71.8279 13.692C71.2772 13.3653 70.8432 12.9173 70.5259 12.348C70.2179 11.7693 70.0639 11.1067 70.0639 10.36C70.0639 9.576 70.2226 8.89933 70.5399 8.33C70.8572 7.76067 71.2912 7.322 71.8419 7.014C72.3926 6.706 73.0086 6.552 73.6899 6.552C74.3712 6.552 74.9826 6.706 75.5239 7.014C76.0746 7.322 76.5086 7.76067 76.8259 8.33C77.1526 8.89 77.3159 9.55733 77.3159 10.332C77.3159 11.1067 77.1572 11.7833 76.8399 12.362C76.5226 12.9313 76.0886 13.3747 75.5379 13.692C74.9966 14.0093 74.3806 14.168 73.6899 14.168ZM73.6899 13.048C74.4272 13.048 75.0012 12.8007 75.4119 12.306C75.8226 11.802 76.0279 11.1533 76.0279 10.36C76.0279 9.87467 75.9252 9.43133 75.7199 9.03C75.5146 8.61933 75.2346 8.29267 74.8799 8.05C74.5346 7.798 74.1379 7.672 73.6899 7.672C72.9526 7.672 72.3786 7.91467 71.9679 8.4C71.5572 8.88533 71.3519 9.52933 71.3519 10.332C71.3519 10.8173 71.4546 11.27 71.6599 11.69C71.8652 12.1007 72.1406 12.432 72.4859 12.684C72.8406 12.9267 73.2419 13.048 73.6899 13.048ZM80.9511 14.168C80.4004 14.168 79.9011 14.098 79.4531 13.958C79.0144 13.818 78.6504 13.636 78.3611 13.412L78.8931 12.362C79.1358 12.5673 79.4391 12.74 79.8031 12.88C80.1764 13.0107 80.5731 13.076 80.9931 13.076C81.5158 13.076 81.9078 12.992 82.1691 12.824C82.4398 12.6467 82.5751 12.4227 82.5751 12.152C82.5751 11.956 82.5238 11.7833 82.4211 11.634C82.3278 11.4847 82.1504 11.34 81.8891 11.2C81.6278 11.0507 81.2498 10.892 80.7551 10.724C80.0738 10.4907 79.5604 10.2153 79.2151 9.898C78.8791 9.57133 78.7111 9.12333 78.7111 8.554C78.7111 7.994 78.9538 7.52267 79.4391 7.14C79.9338 6.748 80.6151 6.552 81.4831 6.552C81.9498 6.552 82.3651 6.60333 82.7291 6.706C83.0931 6.79933 83.4198 6.92067 83.7091 7.07L83.3591 8.106C83.1071 7.95667 82.8178 7.83533 82.4911 7.742C82.1738 7.64867 81.8191 7.602 81.4271 7.602C80.9418 7.602 80.5731 7.7 80.3211 7.896C80.0691 8.092 79.9431 8.30667 79.9431 8.54C79.9431 8.764 80.0411 8.95533 80.2371 9.114C80.4331 9.27267 80.8158 9.44533 81.3851 9.632C82.3091 9.94 82.9531 10.2807 83.3171 10.654C83.6811 11.0273 83.8631 11.494 83.8631 12.054C83.8631 12.7073 83.5971 13.2253 83.0651 13.608C82.5424 13.9813 81.8378 14.168 80.9511 14.168Z" fill="#5E5E5E"/>
<rect x="0.5" y="1.5" width="15" height="15" rx="7.5" fill="#FAFAFA"/>
<rect x="0.5" y="1.5" width="15" height="15" rx="7.5" stroke="#D6D6D6"/>
</svg>
