<svg width="88" height="18" viewBox="0 0 88 18" fill="none" xmlns="http://www.w3.org/2000/svg">
<path d="M33.994 14.14L32.902 11.34H28.366L27.274 14.112L26.14 13.65L29.976 4.2H31.432L35.212 13.65L33.994 14.14ZM28.786 10.22H32.468L30.634 5.516L28.786 10.22ZM39.4116 14.168C38.7209 14.168 38.1142 14.0093 37.5916 13.692C37.0782 13.3653 36.6816 12.9173 36.4016 12.348C36.1216 11.7693 35.9816 11.1067 35.9816 10.36C35.9816 9.66 36.1216 9.02067 36.4016 8.442C36.6909 7.86333 37.1016 7.406 37.6336 7.07C38.1656 6.72467 38.7909 6.552 39.5096 6.552C39.9202 6.552 40.2796 6.58933 40.5876 6.664C40.9049 6.73867 41.2082 6.846 41.4976 6.986L41.1196 8.05C40.8582 7.91933 40.6062 7.826 40.3636 7.77C40.1302 7.70467 39.8689 7.672 39.5796 7.672C38.9262 7.672 38.3756 7.91 37.9276 8.386C37.4889 8.85267 37.2696 9.50133 37.2696 10.332C37.2696 10.836 37.3629 11.2933 37.5496 11.704C37.7362 12.1147 37.9929 12.4413 38.3196 12.684C38.6556 12.9267 39.0476 13.048 39.4956 13.048C39.8502 13.048 40.1536 13.0107 40.4056 12.936C40.6576 12.852 40.9282 12.7353 41.2176 12.586L41.6096 13.65C41.3202 13.8087 40.9936 13.9347 40.6296 14.028C40.2749 14.1213 39.8689 14.168 39.4116 14.168ZM45.6231 14.168C44.9231 14.168 44.3677 13.9393 43.9571 13.482C43.5557 13.0153 43.3551 12.3527 43.3551 11.494V8.078H42.0951V6.986H43.3831L43.6491 4.69H44.6151V6.986H46.6311V8.078H44.6151V11.592C44.6151 12.1333 44.7271 12.5113 44.9511 12.726C45.1844 12.9407 45.4597 13.048 45.7771 13.048C46.0104 13.048 46.2297 13.0107 46.4351 12.936C46.6497 12.8613 46.8457 12.7727 47.0231 12.67L47.3731 13.678C47.1864 13.79 46.9344 13.8973 46.6171 14C46.2997 14.112 45.9684 14.168 45.6231 14.168ZM48.6395 14V6.72H49.8995V14H48.6395ZM49.2695 5.474C49.0269 5.474 48.8169 5.38533 48.6395 5.208C48.4715 5.03067 48.3875 4.82533 48.3875 4.592C48.3875 4.32133 48.4669 4.10667 48.6255 3.948C48.7842 3.78933 48.9989 3.71 49.2695 3.71C49.5122 3.71 49.7175 3.79867 49.8855 3.976C50.0629 4.144 50.1515 4.34933 50.1515 4.592C50.1515 4.85333 50.0722 5.068 49.9135 5.236C49.7549 5.39467 49.5402 5.474 49.2695 5.474ZM54.0855 14L51.1595 7.056L52.3075 6.58L54.7855 12.572L57.2635 6.58L58.3415 7.056L55.4015 14H54.0855ZM62.3969 14.168C61.7063 14.168 61.0856 14.0093 60.5349 13.692C59.9843 13.3653 59.5503 12.9173 59.2329 12.348C58.9249 11.7693 58.7709 11.1067 58.7709 10.36C58.7709 9.576 58.9296 8.89933 59.2469 8.33C59.5643 7.76067 59.9983 7.322 60.5489 7.014C61.0996 6.706 61.7156 6.552 62.3969 6.552C63.0783 6.552 63.6896 6.706 64.2309 7.014C64.7816 7.322 65.2156 7.76067 65.5329 8.33C65.8596 8.89 66.0229 9.55733 66.0229 10.332C66.0229 11.1067 65.8643 11.7833 65.5469 12.362C65.2296 12.9313 64.7956 13.3747 64.2449 13.692C63.7036 14.0093 63.0876 14.168 62.3969 14.168ZM62.3969 13.048C63.1343 13.048 63.7083 12.8007 64.1189 12.306C64.5296 11.802 64.7349 11.1533 64.7349 10.36C64.7349 9.87467 64.6323 9.43133 64.4269 9.03C64.2216 8.61933 63.9416 8.29267 63.5869 8.05C63.2416 7.798 62.8449 7.672 62.3969 7.672C61.6596 7.672 61.0856 7.91467 60.6749 8.4C60.2643 8.88533 60.0589 9.52933 60.0589 10.332C60.0589 10.8173 60.1616 11.27 60.3669 11.69C60.5723 12.1007 60.8476 12.432 61.1929 12.684C61.5476 12.9267 61.9489 13.048 62.3969 13.048ZM69.6581 14.168C69.1075 14.168 68.6081 14.098 68.1601 13.958C67.7215 13.818 67.3575 13.636 67.0681 13.412L67.6001 12.362C67.8428 12.5673 68.1461 12.74 68.5101 12.88C68.8835 13.0107 69.2801 13.076 69.7001 13.076C70.2228 13.076 70.6148 12.992 70.8761 12.824C71.1468 12.6467 71.2821 12.4227 71.2821 12.152C71.2821 11.956 71.2308 11.7833 71.1281 11.634C71.0348 11.4847 70.8575 11.34 70.5961 11.2C70.3348 11.0507 69.9568 10.892 69.4621 10.724C68.7808 10.4907 68.2675 10.2153 67.9221 9.898C67.5861 9.57133 67.4181 9.12333 67.4181 8.554C67.4181 7.994 67.6608 7.52267 68.1461 7.14C68.6408 6.748 69.3221 6.552 70.1901 6.552C70.6568 6.552 71.0721 6.60333 71.4361 6.706C71.8001 6.79933 72.1268 6.92067 72.4161 7.07L72.0661 8.106C71.8141 7.95667 71.5248 7.83533 71.1981 7.742C70.8808 7.64867 70.5261 7.602 70.1341 7.602C69.6488 7.602 69.2801 7.7 69.0281 7.896C68.7761 8.092 68.6501 8.30667 68.6501 8.54C68.6501 8.764 68.7481 8.95533 68.9441 9.114C69.1401 9.27267 69.5228 9.44533 70.0921 9.632C71.0161 9.94 71.6601 10.2807 72.0241 10.654C72.3881 11.0273 72.5701 11.494 72.5701 12.054C72.5701 12.7073 72.3041 13.2253 71.7721 13.608C71.2495 13.9813 70.5448 14.168 69.6581 14.168Z" fill="#5E5E5E"/>
<rect x="0.5" y="1.5" width="15" height="15" rx="7.5" fill="#FAFAFA"/>
<rect x="0.5" y="1.5" width="15" height="15" rx="7.5" stroke="#D6D6D6"/>
</svg>
