<svg width="660" height="536" viewBox="0 0 660 536" fill="none" xmlns="http://www.w3.org/2000/svg">
<g filter="url(#filter0_d_310_1918)">
<path d="M97.852 88.892H104.292V92H93.932V72.456H97.852V88.892ZM113.672 92.252C112.178 92.252 110.834 91.9253 109.64 91.272C108.445 90.6 107.502 89.6573 106.812 88.444C106.14 87.2307 105.804 85.8307 105.804 84.244C105.804 82.6573 106.149 81.2573 106.84 80.044C107.549 78.8307 108.51 77.8973 109.724 77.244C110.937 76.572 112.29 76.236 113.784 76.236C115.277 76.236 116.63 76.572 117.844 77.244C119.057 77.8973 120.009 78.8307 120.7 80.044C121.409 81.2573 121.764 82.6573 121.764 84.244C121.764 85.8307 121.4 87.2307 120.672 88.444C119.962 89.6573 118.992 90.6 117.76 91.272C116.546 91.9253 115.184 92.252 113.672 92.252ZM113.672 88.836C114.381 88.836 115.044 88.668 115.66 88.332C116.294 87.9773 116.798 87.4547 117.172 86.764C117.545 86.0733 117.732 85.2333 117.732 84.244C117.732 82.7693 117.34 81.64 116.556 80.856C115.79 80.0533 114.848 79.652 113.728 79.652C112.608 79.652 111.665 80.0533 110.9 80.856C110.153 81.64 109.78 82.7693 109.78 84.244C109.78 85.7187 110.144 86.8573 110.872 87.66C111.618 88.444 112.552 88.836 113.672 88.836ZM130.715 76.236C131.872 76.236 132.89 76.4693 133.767 76.936C134.644 77.384 135.335 77.972 135.839 78.7V76.488H139.787V92.112C139.787 93.5493 139.498 94.828 138.919 95.948C138.34 97.0867 137.472 97.9827 136.315 98.636C135.158 99.308 133.758 99.644 132.115 99.644C129.912 99.644 128.102 99.1307 126.683 98.104C125.283 97.0773 124.49 95.6773 124.303 93.904H128.195C128.4 94.6133 128.839 95.1733 129.511 95.584C130.202 96.0133 131.032 96.228 132.003 96.228C133.142 96.228 134.066 95.8827 134.775 95.192C135.484 94.52 135.839 93.4933 135.839 92.112V89.704C135.335 90.432 134.635 91.0387 133.739 91.524C132.862 92.0093 131.854 92.252 130.715 92.252C129.408 92.252 128.214 91.916 127.131 91.244C126.048 90.572 125.19 89.6293 124.555 88.416C123.939 87.184 123.631 85.7747 123.631 84.188C123.631 82.62 123.939 81.2293 124.555 80.016C125.19 78.8027 126.039 77.8693 127.103 77.216C128.186 76.5627 129.39 76.236 130.715 76.236ZM135.839 84.244C135.839 83.292 135.652 82.48 135.279 81.808C134.906 81.1173 134.402 80.5947 133.767 80.24C133.132 79.8667 132.451 79.68 131.723 79.68C130.995 79.68 130.323 79.8573 129.707 80.212C129.091 80.5667 128.587 81.0893 128.195 81.78C127.822 82.452 127.635 83.2547 127.635 84.188C127.635 85.1213 127.822 85.9427 128.195 86.652C128.587 87.3427 129.091 87.8747 129.707 88.248C130.342 88.6213 131.014 88.808 131.723 88.808C132.451 88.808 133.132 88.6307 133.767 88.276C134.402 87.9027 134.906 87.38 135.279 86.708C135.652 86.0173 135.839 85.196 135.839 84.244ZM145.604 74.64C144.913 74.64 144.334 74.4253 143.868 73.996C143.42 73.548 143.196 72.9973 143.196 72.344C143.196 71.6907 143.42 71.1493 143.868 70.72C144.334 70.272 144.913 70.048 145.604 70.048C146.294 70.048 146.864 70.272 147.312 70.72C147.778 71.1493 148.012 71.6907 148.012 72.344C148.012 72.9973 147.778 73.548 147.312 73.996C146.864 74.4253 146.294 74.64 145.604 74.64ZM147.536 76.488V92H143.616V76.488H147.536ZM160.005 76.264C161.853 76.264 163.346 76.852 164.485 78.028C165.623 79.1853 166.193 80.8093 166.193 82.9V92H162.273V83.432C162.273 82.2 161.965 81.2573 161.349 80.604C160.733 79.932 159.893 79.596 158.829 79.596C157.746 79.596 156.887 79.932 156.253 80.604C155.637 81.2573 155.329 82.2 155.329 83.432V92H151.409V76.488H155.329V78.42C155.851 77.748 156.514 77.2253 157.317 76.852C158.138 76.46 159.034 76.264 160.005 76.264ZM181.156 79.708V87.212C181.156 87.7347 181.277 88.1173 181.52 88.36C181.781 88.584 182.211 88.696 182.808 88.696H184.628V92H182.164C178.86 92 177.208 90.3947 177.208 87.184V79.708H175.36V76.488H177.208V72.652H181.156V76.488H184.628V79.708H181.156ZM194.336 92.252C192.842 92.252 191.498 91.9253 190.304 91.272C189.109 90.6 188.166 89.6573 187.476 88.444C186.804 87.2307 186.468 85.8307 186.468 84.244C186.468 82.6573 186.813 81.2573 187.504 80.044C188.213 78.8307 189.174 77.8973 190.388 77.244C191.601 76.572 192.954 76.236 194.448 76.236C195.941 76.236 197.294 76.572 198.508 77.244C199.721 77.8973 200.673 78.8307 201.364 80.044C202.073 81.2573 202.428 82.6573 202.428 84.244C202.428 85.8307 202.064 87.2307 201.336 88.444C200.626 89.6573 199.656 90.6 198.424 91.272C197.21 91.9253 195.848 92.252 194.336 92.252ZM194.336 88.836C195.045 88.836 195.708 88.668 196.324 88.332C196.958 87.9773 197.462 87.4547 197.836 86.764C198.209 86.0733 198.396 85.2333 198.396 84.244C198.396 82.7693 198.004 81.64 197.22 80.856C196.454 80.0533 195.512 79.652 194.392 79.652C193.272 79.652 192.329 80.0533 191.564 80.856C190.817 81.64 190.444 82.7693 190.444 84.244C190.444 85.7187 190.808 86.8573 191.536 87.66C192.282 88.444 193.216 88.836 194.336 88.836ZM226.815 76.488L217.211 99.336H213.039L216.399 91.608L210.183 76.488H214.579L218.583 87.324L222.643 76.488H226.815ZM235.816 92.252C234.323 92.252 232.979 91.9253 231.784 91.272C230.589 90.6 229.647 89.6573 228.956 88.444C228.284 87.2307 227.948 85.8307 227.948 84.244C227.948 82.6573 228.293 81.2573 228.984 80.044C229.693 78.8307 230.655 77.8973 231.868 77.244C233.081 76.572 234.435 76.236 235.928 76.236C237.421 76.236 238.775 76.572 239.988 77.244C241.201 77.8973 242.153 78.8307 242.844 80.044C243.553 81.2573 243.908 82.6573 243.908 84.244C243.908 85.8307 243.544 87.2307 242.816 88.444C242.107 89.6573 241.136 90.6 239.904 91.272C238.691 91.9253 237.328 92.252 235.816 92.252ZM235.816 88.836C236.525 88.836 237.188 88.668 237.804 88.332C238.439 87.9773 238.943 87.4547 239.316 86.764C239.689 86.0733 239.876 85.2333 239.876 84.244C239.876 82.7693 239.484 81.64 238.7 80.856C237.935 80.0533 236.992 79.652 235.872 79.652C234.752 79.652 233.809 80.0533 233.044 80.856C232.297 81.64 231.924 82.7693 231.924 84.244C231.924 85.7187 232.288 86.8573 233.016 87.66C233.763 88.444 234.696 88.836 235.816 88.836ZM261.428 76.488V92H257.48V90.04C256.976 90.712 256.313 91.244 255.492 91.636C254.689 92.0093 253.812 92.196 252.86 92.196C251.646 92.196 250.573 91.944 249.64 91.44C248.706 90.9173 247.969 90.1613 247.428 89.172C246.905 88.164 246.644 86.9693 246.644 85.588V76.488H250.564V85.028C250.564 86.26 250.872 87.212 251.488 87.884C252.104 88.5373 252.944 88.864 254.008 88.864C255.09 88.864 255.94 88.5373 256.556 87.884C257.172 87.212 257.48 86.26 257.48 85.028V76.488H261.428ZM269.215 78.896C269.719 78.0747 270.373 77.4307 271.175 76.964C271.997 76.4973 272.93 76.264 273.975 76.264V80.38H272.939C271.707 80.38 270.774 80.6693 270.139 81.248C269.523 81.8267 269.215 82.8347 269.215 84.272V92H265.295V76.488H269.215V78.896ZM282.279 84.188C282.279 82.62 282.587 81.2293 283.203 80.016C283.838 78.8027 284.687 77.8693 285.751 77.216C286.834 76.5627 288.038 76.236 289.363 76.236C290.521 76.236 291.529 76.4693 292.387 76.936C293.265 77.4027 293.965 77.9907 294.487 78.7V76.488H298.435V92H294.487V89.732C293.983 90.46 293.283 91.0667 292.387 91.552C291.51 92.0187 290.493 92.252 289.335 92.252C288.029 92.252 286.834 91.916 285.751 91.244C284.687 90.572 283.838 89.6293 283.203 88.416C282.587 87.184 282.279 85.7747 282.279 84.188ZM294.487 84.244C294.487 83.292 294.301 82.48 293.927 81.808C293.554 81.1173 293.05 80.5947 292.415 80.24C291.781 79.8667 291.099 79.68 290.371 79.68C289.643 79.68 288.971 79.8573 288.355 80.212C287.739 80.5667 287.235 81.0893 286.843 81.78C286.47 82.452 286.283 83.2547 286.283 84.188C286.283 85.1213 286.47 85.9427 286.843 86.652C287.235 87.3427 287.739 87.8747 288.355 88.248C288.99 88.6213 289.662 88.808 290.371 88.808C291.099 88.808 291.781 88.6307 292.415 88.276C293.05 87.9027 293.554 87.38 293.927 86.708C294.301 86.0173 294.487 85.196 294.487 84.244ZM301.256 84.244C301.256 82.6387 301.583 81.2387 302.236 80.044C302.889 78.8307 303.795 77.8973 304.952 77.244C306.109 76.572 307.435 76.236 308.928 76.236C310.851 76.236 312.437 76.7213 313.688 77.692C314.957 78.644 315.807 79.988 316.236 81.724H312.008C311.784 81.052 311.401 80.5293 310.86 80.156C310.337 79.764 309.684 79.568 308.9 79.568C307.78 79.568 306.893 79.9787 306.24 80.8C305.587 81.6027 305.26 82.7507 305.26 84.244C305.26 85.7187 305.587 86.8667 306.24 87.688C306.893 88.4907 307.78 88.892 308.9 88.892C310.487 88.892 311.523 88.1827 312.008 86.764H316.236C315.807 88.444 314.957 89.7787 313.688 90.768C312.419 91.7573 310.832 92.252 308.928 92.252C307.435 92.252 306.109 91.9253 304.952 91.272C303.795 90.6 302.889 89.6667 302.236 88.472C301.583 87.2587 301.256 85.8493 301.256 84.244ZM318.1 84.244C318.1 82.6387 318.426 81.2387 319.08 80.044C319.733 78.8307 320.638 77.8973 321.796 77.244C322.953 76.572 324.278 76.236 325.772 76.236C327.694 76.236 329.281 76.7213 330.532 77.692C331.801 78.644 332.65 79.988 333.08 81.724H328.852C328.628 81.052 328.245 80.5293 327.704 80.156C327.181 79.764 326.528 79.568 325.744 79.568C324.624 79.568 323.737 79.9787 323.084 80.8C322.43 81.6027 322.104 82.7507 322.104 84.244C322.104 85.7187 322.43 86.8667 323.084 87.688C323.737 88.4907 324.624 88.892 325.744 88.892C327.33 88.892 328.366 88.1827 328.852 86.764H333.08C332.65 88.444 331.801 89.7787 330.532 90.768C329.262 91.7573 327.676 92.252 325.772 92.252C324.278 92.252 322.953 91.9253 321.796 91.272C320.638 90.6 319.733 89.6667 319.08 88.472C318.426 87.2587 318.1 85.8493 318.1 84.244ZM342.84 92.252C341.346 92.252 340.002 91.9253 338.808 91.272C337.613 90.6 336.67 89.6573 335.98 88.444C335.308 87.2307 334.972 85.8307 334.972 84.244C334.972 82.6573 335.317 81.2573 336.008 80.044C336.717 78.8307 337.678 77.8973 338.892 77.244C340.105 76.572 341.458 76.236 342.952 76.236C344.445 76.236 345.798 76.572 347.012 77.244C348.225 77.8973 349.177 78.8307 349.868 80.044C350.577 81.2573 350.932 82.6573 350.932 84.244C350.932 85.8307 350.568 87.2307 349.84 88.444C349.13 89.6573 348.16 90.6 346.928 91.272C345.714 91.9253 344.352 92.252 342.84 92.252ZM342.84 88.836C343.549 88.836 344.212 88.668 344.828 88.332C345.462 87.9773 345.966 87.4547 346.34 86.764C346.713 86.0733 346.9 85.2333 346.9 84.244C346.9 82.7693 346.508 81.64 345.724 80.856C344.958 80.0533 344.016 79.652 342.896 79.652C341.776 79.652 340.833 80.0533 340.068 80.856C339.321 81.64 338.948 82.7693 338.948 84.244C338.948 85.7187 339.312 86.8573 340.04 87.66C340.786 88.444 341.72 88.836 342.84 88.836ZM368.451 76.488V92H364.503V90.04C363.999 90.712 363.336 91.244 362.515 91.636C361.712 92.0093 360.835 92.196 359.883 92.196C358.67 92.196 357.596 91.944 356.663 91.44C355.73 90.9173 354.992 90.1613 354.451 89.172C353.928 88.164 353.667 86.9693 353.667 85.588V76.488H357.587V85.028C357.587 86.26 357.895 87.212 358.511 87.884C359.127 88.5373 359.967 88.864 361.031 88.864C362.114 88.864 362.963 88.5373 363.579 87.884C364.195 87.212 364.503 86.26 364.503 85.028V76.488H368.451ZM380.915 76.264C382.763 76.264 384.256 76.852 385.395 78.028C386.533 79.1853 387.103 80.8093 387.103 82.9V92H383.183V83.432C383.183 82.2 382.875 81.2573 382.259 80.604C381.643 79.932 380.803 79.596 379.739 79.596C378.656 79.596 377.797 79.932 377.163 80.604C376.547 81.2573 376.239 82.2 376.239 83.432V92H372.319V76.488H376.239V78.42C376.761 77.748 377.424 77.2253 378.227 76.852C379.048 76.46 379.944 76.264 380.915 76.264ZM395.394 79.708V87.212C395.394 87.7347 395.516 88.1173 395.758 88.36C396.02 88.584 396.449 88.696 397.046 88.696H398.866V92H396.402C393.098 92 391.446 90.3947 391.446 87.184V79.708H389.598V76.488H391.446V72.652H395.394V76.488H398.866V79.708H395.394Z" fill="#101828"/>
<path d="M94.656 130.848V137.904C94.656 138.896 94.896 139.632 95.376 140.112C95.8667 140.592 96.544 140.832 97.408 140.832C98.2613 140.832 98.928 140.592 99.408 140.112C99.8987 139.632 100.144 138.896 100.144 137.904V130.848H101.6V137.888C101.6 138.816 101.413 139.6 101.04 140.24C100.667 140.869 100.16 141.339 99.52 141.648C98.8907 141.957 98.1813 142.112 97.392 142.112C96.6027 142.112 95.888 141.957 95.248 141.648C94.6187 141.339 94.1173 140.869 93.744 140.24C93.3813 139.6 93.2 138.816 93.2 137.888V130.848H94.656ZM107.133 142.144C106.461 142.144 105.858 142.032 105.325 141.808C104.792 141.573 104.37 141.253 104.061 140.848C103.752 140.432 103.581 139.957 103.549 139.424H105.053C105.096 139.861 105.298 140.219 105.661 140.496C106.034 140.773 106.52 140.912 107.117 140.912C107.672 140.912 108.109 140.789 108.429 140.544C108.749 140.299 108.909 139.989 108.909 139.616C108.909 139.232 108.738 138.949 108.397 138.768C108.056 138.576 107.528 138.389 106.813 138.208C106.162 138.037 105.629 137.867 105.213 137.696C104.808 137.515 104.456 137.253 104.157 136.912C103.869 136.56 103.725 136.101 103.725 135.536C103.725 135.088 103.858 134.677 104.125 134.304C104.392 133.931 104.77 133.637 105.261 133.424C105.752 133.2 106.312 133.088 106.941 133.088C107.912 133.088 108.696 133.333 109.293 133.824C109.89 134.315 110.21 134.987 110.253 135.84H108.797C108.765 135.381 108.578 135.013 108.237 134.736C107.906 134.459 107.458 134.32 106.893 134.32C106.37 134.32 105.954 134.432 105.645 134.656C105.336 134.88 105.181 135.173 105.181 135.536C105.181 135.824 105.272 136.064 105.453 136.256C105.645 136.437 105.88 136.587 106.157 136.704C106.445 136.811 106.84 136.933 107.341 137.072C107.97 137.243 108.482 137.413 108.877 137.584C109.272 137.744 109.608 137.989 109.885 138.32C110.173 138.651 110.322 139.083 110.333 139.616C110.333 140.096 110.2 140.528 109.933 140.912C109.666 141.296 109.288 141.6 108.797 141.824C108.317 142.037 107.762 142.144 107.133 142.144ZM120.388 137.28C120.388 137.557 120.372 137.851 120.34 138.16H113.332C113.386 139.024 113.679 139.701 114.212 140.192C114.756 140.672 115.412 140.912 116.18 140.912C116.81 140.912 117.332 140.768 117.748 140.48C118.175 140.181 118.474 139.787 118.644 139.296H120.212C119.978 140.139 119.508 140.827 118.804 141.36C118.1 141.883 117.226 142.144 116.18 142.144C115.348 142.144 114.602 141.957 113.94 141.584C113.29 141.211 112.778 140.683 112.404 140C112.031 139.307 111.844 138.507 111.844 137.6C111.844 136.693 112.026 135.899 112.388 135.216C112.751 134.533 113.258 134.011 113.908 133.648C114.57 133.275 115.327 133.088 116.18 133.088C117.012 133.088 117.748 133.269 118.388 133.632C119.028 133.995 119.519 134.496 119.86 135.136C120.212 135.765 120.388 136.48 120.388 137.28ZM118.884 136.976C118.884 136.421 118.762 135.947 118.516 135.552C118.271 135.147 117.935 134.843 117.508 134.64C117.092 134.427 116.628 134.32 116.116 134.32C115.38 134.32 114.751 134.555 114.228 135.024C113.716 135.493 113.423 136.144 113.348 136.976H118.884ZM123.766 134.656C124.022 134.155 124.385 133.765 124.854 133.488C125.334 133.211 125.915 133.072 126.598 133.072V134.576H126.214C124.582 134.576 123.766 135.461 123.766 137.232V142H122.31V133.232H123.766V134.656ZM132.551 133.072C133.618 133.072 134.482 133.397 135.143 134.048C135.804 134.688 136.135 135.616 136.135 136.832V142H134.695V137.04C134.695 136.165 134.476 135.499 134.039 135.04C133.602 134.571 133.004 134.336 132.247 134.336C131.479 134.336 130.866 134.576 130.407 135.056C129.959 135.536 129.735 136.235 129.735 137.152V142H128.279V133.232H129.735V134.48C130.023 134.032 130.412 133.685 130.903 133.44C131.404 133.195 131.954 133.072 132.551 133.072ZM137.969 137.584C137.969 136.688 138.151 135.904 138.513 135.232C138.876 134.549 139.372 134.021 140.001 133.648C140.641 133.275 141.351 133.088 142.129 133.088C142.897 133.088 143.564 133.253 144.129 133.584C144.695 133.915 145.116 134.331 145.393 134.832V133.232H146.865V142H145.393V140.368C145.105 140.88 144.673 141.307 144.097 141.648C143.532 141.979 142.871 142.144 142.113 142.144C141.335 142.144 140.631 141.952 140.001 141.568C139.372 141.184 138.876 140.645 138.513 139.952C138.151 139.259 137.969 138.469 137.969 137.584ZM145.393 137.6C145.393 136.939 145.26 136.363 144.993 135.872C144.727 135.381 144.364 135.008 143.905 134.752C143.457 134.485 142.961 134.352 142.417 134.352C141.873 134.352 141.377 134.48 140.929 134.736C140.481 134.992 140.124 135.365 139.857 135.856C139.591 136.347 139.457 136.923 139.457 137.584C139.457 138.256 139.591 138.843 139.857 139.344C140.124 139.835 140.481 140.213 140.929 140.48C141.377 140.736 141.873 140.864 142.417 140.864C142.961 140.864 143.457 140.736 143.905 140.48C144.364 140.213 144.727 139.835 144.993 139.344C145.26 138.843 145.393 138.261 145.393 137.6ZM159.87 133.072C160.552 133.072 161.16 133.216 161.694 133.504C162.227 133.781 162.648 134.203 162.958 134.768C163.267 135.333 163.422 136.021 163.422 136.832V142H161.982V137.04C161.982 136.165 161.763 135.499 161.326 135.04C160.899 134.571 160.318 134.336 159.582 134.336C158.824 134.336 158.222 134.581 157.774 135.072C157.326 135.552 157.102 136.251 157.102 137.168V142H155.662V137.04C155.662 136.165 155.443 135.499 155.006 135.04C154.579 134.571 153.998 134.336 153.262 134.336C152.504 134.336 151.902 134.581 151.454 135.072C151.006 135.552 150.782 136.251 150.782 137.168V142H149.326V133.232H150.782V134.496C151.07 134.037 151.454 133.685 151.934 133.44C152.424 133.195 152.963 133.072 153.55 133.072C154.286 133.072 154.936 133.237 155.502 133.568C156.067 133.899 156.488 134.384 156.766 135.024C157.011 134.405 157.416 133.925 157.982 133.584C158.547 133.243 159.176 133.072 159.87 133.072ZM173.81 137.28C173.81 137.557 173.794 137.851 173.762 138.16H166.754C166.807 139.024 167.101 139.701 167.634 140.192C168.178 140.672 168.834 140.912 169.602 140.912C170.231 140.912 170.754 140.768 171.17 140.48C171.597 140.181 171.895 139.787 172.066 139.296H173.634C173.399 140.139 172.93 140.827 172.226 141.36C171.522 141.883 170.647 142.144 169.602 142.144C168.77 142.144 168.023 141.957 167.362 141.584C166.711 141.211 166.199 140.683 165.826 140C165.453 139.307 165.266 138.507 165.266 137.6C165.266 136.693 165.447 135.899 165.81 135.216C166.173 134.533 166.679 134.011 167.33 133.648C167.991 133.275 168.749 133.088 169.602 133.088C170.434 133.088 171.17 133.269 171.81 133.632C172.45 133.995 172.941 134.496 173.282 135.136C173.634 135.765 173.81 136.48 173.81 137.28ZM172.306 136.976C172.306 136.421 172.183 135.947 171.938 135.552C171.693 135.147 171.357 134.843 170.93 134.64C170.514 134.427 170.05 134.32 169.538 134.32C168.802 134.32 168.173 134.555 167.65 135.024C167.138 135.493 166.845 136.144 166.77 136.976H172.306Z" fill="#344054"/>
<rect x="92" y="156" width="396" height="48" rx="8" stroke="#D1E9FF" stroke-width="3"/>
<path d="M100.688 234.112C100.688 235.04 100.368 235.813 99.728 236.432C99.0987 237.04 98.1333 237.344 96.832 237.344H94.688V242H93.232V230.848H96.832C98.0907 230.848 99.0453 231.152 99.696 231.76C100.357 232.368 100.688 233.152 100.688 234.112ZM96.832 236.144C97.6427 236.144 98.24 235.968 98.624 235.616C99.008 235.264 99.2 234.763 99.2 234.112C99.2 232.736 98.4107 232.048 96.832 232.048H94.688V236.144H96.832ZM101.954 237.584C101.954 236.688 102.135 235.904 102.498 235.232C102.86 234.549 103.356 234.021 103.986 233.648C104.626 233.275 105.335 233.088 106.114 233.088C106.882 233.088 107.548 233.253 108.114 233.584C108.679 233.915 109.1 234.331 109.378 234.832V233.232H110.85V242H109.378V240.368C109.09 240.88 108.658 241.307 108.082 241.648C107.516 241.979 106.855 242.144 106.098 242.144C105.319 242.144 104.615 241.952 103.986 241.568C103.356 241.184 102.86 240.645 102.498 239.952C102.135 239.259 101.954 238.469 101.954 237.584ZM109.378 237.6C109.378 236.939 109.244 236.363 108.978 235.872C108.711 235.381 108.348 235.008 107.89 234.752C107.442 234.485 106.946 234.352 106.402 234.352C105.858 234.352 105.362 234.48 104.914 234.736C104.466 234.992 104.108 235.365 103.842 235.856C103.575 236.347 103.442 236.923 103.442 237.584C103.442 238.256 103.575 238.843 103.842 239.344C104.108 239.835 104.466 240.213 104.914 240.48C105.362 240.736 105.858 240.864 106.402 240.864C106.946 240.864 107.442 240.736 107.89 240.48C108.348 240.213 108.711 239.835 108.978 239.344C109.244 238.843 109.378 238.261 109.378 237.6ZM116.414 242.144C115.742 242.144 115.139 242.032 114.606 241.808C114.073 241.573 113.651 241.253 113.342 240.848C113.033 240.432 112.862 239.957 112.83 239.424H114.334C114.377 239.861 114.579 240.219 114.942 240.496C115.315 240.773 115.801 240.912 116.398 240.912C116.953 240.912 117.39 240.789 117.71 240.544C118.03 240.299 118.19 239.989 118.19 239.616C118.19 239.232 118.019 238.949 117.678 238.768C117.337 238.576 116.809 238.389 116.094 238.208C115.443 238.037 114.91 237.867 114.494 237.696C114.089 237.515 113.737 237.253 113.438 236.912C113.15 236.56 113.006 236.101 113.006 235.536C113.006 235.088 113.139 234.677 113.406 234.304C113.673 233.931 114.051 233.637 114.542 233.424C115.033 233.2 115.593 233.088 116.222 233.088C117.193 233.088 117.977 233.333 118.574 233.824C119.171 234.315 119.491 234.987 119.534 235.84H118.078C118.046 235.381 117.859 235.013 117.518 234.736C117.187 234.459 116.739 234.32 116.174 234.32C115.651 234.32 115.235 234.432 114.926 234.656C114.617 234.88 114.462 235.173 114.462 235.536C114.462 235.824 114.553 236.064 114.734 236.256C114.926 236.437 115.161 236.587 115.438 236.704C115.726 236.811 116.121 236.933 116.622 237.072C117.251 237.243 117.763 237.413 118.158 237.584C118.553 237.744 118.889 237.989 119.166 238.32C119.454 238.651 119.603 239.083 119.614 239.616C119.614 240.096 119.481 240.528 119.214 240.912C118.947 241.296 118.569 241.6 118.078 241.824C117.598 242.037 117.043 242.144 116.414 242.144ZM124.774 242.144C124.102 242.144 123.499 242.032 122.966 241.808C122.432 241.573 122.011 241.253 121.702 240.848C121.392 240.432 121.222 239.957 121.19 239.424H122.694C122.736 239.861 122.939 240.219 123.302 240.496C123.675 240.773 124.16 240.912 124.758 240.912C125.312 240.912 125.75 240.789 126.07 240.544C126.39 240.299 126.55 239.989 126.55 239.616C126.55 239.232 126.379 238.949 126.038 238.768C125.696 238.576 125.168 238.389 124.454 238.208C123.803 238.037 123.27 237.867 122.854 237.696C122.448 237.515 122.096 237.253 121.798 236.912C121.51 236.56 121.366 236.101 121.366 235.536C121.366 235.088 121.499 234.677 121.766 234.304C122.032 233.931 122.411 233.637 122.902 233.424C123.392 233.2 123.952 233.088 124.582 233.088C125.552 233.088 126.336 233.333 126.934 233.824C127.531 234.315 127.851 234.987 127.894 235.84H126.438C126.406 235.381 126.219 235.013 125.878 234.736C125.547 234.459 125.099 234.32 124.534 234.32C124.011 234.32 123.595 234.432 123.286 234.656C122.976 234.88 122.822 235.173 122.822 235.536C122.822 235.824 122.912 236.064 123.094 236.256C123.286 236.437 123.52 236.587 123.798 236.704C124.086 236.811 124.48 236.933 124.982 237.072C125.611 237.243 126.123 237.413 126.518 237.584C126.912 237.744 127.248 237.989 127.526 238.32C127.814 238.651 127.963 239.083 127.974 239.616C127.974 240.096 127.84 240.528 127.574 240.912C127.307 241.296 126.928 241.6 126.438 241.824C125.958 242.037 125.403 242.144 124.774 242.144ZM141.709 233.232L138.973 242H137.469L135.357 235.04L133.245 242H131.741L128.989 233.232H130.477L132.493 240.592L134.669 233.232H136.157L138.285 240.608L140.269 233.232H141.709ZM146.978 242.144C146.157 242.144 145.41 241.957 144.738 241.584C144.077 241.211 143.554 240.683 143.17 240C142.797 239.307 142.61 238.507 142.61 237.6C142.61 236.704 142.802 235.915 143.186 235.232C143.581 234.539 144.114 234.011 144.786 233.648C145.458 233.275 146.21 233.088 147.042 233.088C147.874 233.088 148.626 233.275 149.298 233.648C149.97 234.011 150.498 234.533 150.882 235.216C151.277 235.899 151.474 236.693 151.474 237.6C151.474 238.507 151.271 239.307 150.866 240C150.471 240.683 149.933 241.211 149.25 241.584C148.567 241.957 147.81 242.144 146.978 242.144ZM146.978 240.864C147.501 240.864 147.991 240.741 148.45 240.496C148.909 240.251 149.277 239.883 149.554 239.392C149.842 238.901 149.986 238.304 149.986 237.6C149.986 236.896 149.847 236.299 149.57 235.808C149.293 235.317 148.93 234.955 148.482 234.72C148.034 234.475 147.549 234.352 147.026 234.352C146.493 234.352 146.002 234.475 145.554 234.72C145.117 234.955 144.765 235.317 144.498 235.808C144.231 236.299 144.098 236.896 144.098 237.6C144.098 238.315 144.226 238.917 144.482 239.408C144.749 239.899 145.101 240.267 145.538 240.512C145.975 240.747 146.455 240.864 146.978 240.864ZM154.844 234.656C155.1 234.155 155.463 233.765 155.932 233.488C156.412 233.211 156.994 233.072 157.676 233.072V234.576H157.292C155.66 234.576 154.844 235.461 154.844 237.232V242H153.388V233.232H154.844V234.656ZM158.813 237.584C158.813 236.688 158.994 235.904 159.357 235.232C159.72 234.549 160.216 234.021 160.845 233.648C161.485 233.275 162.2 233.088 162.989 233.088C163.672 233.088 164.306 233.248 164.893 233.568C165.48 233.877 165.928 234.288 166.237 234.8V230.16H167.709V242H166.237V240.352C165.949 240.875 165.522 241.307 164.957 241.648C164.392 241.979 163.73 242.144 162.973 242.144C162.194 242.144 161.485 241.952 160.845 241.568C160.216 241.184 159.72 240.645 159.357 239.952C158.994 239.259 158.813 238.469 158.813 237.584ZM166.237 237.6C166.237 236.939 166.104 236.363 165.837 235.872C165.57 235.381 165.208 235.008 164.749 234.752C164.301 234.485 163.805 234.352 163.261 234.352C162.717 234.352 162.221 234.48 161.773 234.736C161.325 234.992 160.968 235.365 160.701 235.856C160.434 236.347 160.301 236.923 160.301 237.584C160.301 238.256 160.434 238.843 160.701 239.344C160.968 239.835 161.325 240.213 161.773 240.48C162.221 240.736 162.717 240.864 163.261 240.864C163.805 240.864 164.301 240.736 164.749 240.48C165.208 240.213 165.57 239.835 165.837 239.344C166.104 238.843 166.237 238.261 166.237 237.6Z" fill="#344054"/>
<rect x="92.5" y="256.5" width="395" height="47" rx="7.5" stroke="#D0D5DD"/>
<path d="M460 273.25C452.5 273.25 449.5 280 449.5 280C449.5 280 452.5 286.75 460 286.75C467.5 286.75 470.5 280 470.5 280C470.5 280 467.5 273.25 460 273.25Z" stroke="#98A2B3" stroke-width="1.5" stroke-linecap="round" stroke-linejoin="round"/>
<path d="M460 283.75C462.071 283.75 463.75 282.071 463.75 280C463.75 277.929 462.071 276.25 460 276.25C457.929 276.25 456.25 277.929 456.25 280C456.25 282.071 457.929 283.75 460 283.75Z" stroke="#98A2B3" stroke-width="1.5" stroke-linecap="round" stroke-linejoin="round"/>
<rect x="92" y="336" width="396" height="52" rx="8" fill="#1570EF"/>
<path d="M252.344 366.224H256.024V368H250.104V356.832H252.344V366.224ZM261.384 368.144C260.53 368.144 259.762 367.957 259.08 367.584C258.397 367.2 257.858 366.661 257.464 365.968C257.08 365.275 256.888 364.475 256.888 363.568C256.888 362.661 257.085 361.861 257.48 361.168C257.885 360.475 258.434 359.941 259.128 359.568C259.821 359.184 260.594 358.992 261.448 358.992C262.301 358.992 263.074 359.184 263.768 359.568C264.461 359.941 265.005 360.475 265.4 361.168C265.805 361.861 266.008 362.661 266.008 363.568C266.008 364.475 265.8 365.275 265.384 365.968C264.978 366.661 264.424 367.2 263.72 367.584C263.026 367.957 262.248 368.144 261.384 368.144ZM261.384 366.192C261.789 366.192 262.168 366.096 262.52 365.904C262.882 365.701 263.17 365.403 263.384 365.008C263.597 364.613 263.704 364.133 263.704 363.568C263.704 362.725 263.48 362.08 263.032 361.632C262.594 361.173 262.056 360.944 261.416 360.944C260.776 360.944 260.237 361.173 259.8 361.632C259.373 362.08 259.16 362.725 259.16 363.568C259.16 364.411 259.368 365.061 259.784 365.52C260.21 365.968 260.744 366.192 261.384 366.192ZM271.123 358.992C271.784 358.992 272.366 359.125 272.867 359.392C273.368 359.648 273.763 359.984 274.051 360.4V359.136H276.307V368.064C276.307 368.885 276.142 369.616 275.811 370.256C275.48 370.907 274.984 371.419 274.323 371.792C273.662 372.176 272.862 372.368 271.923 372.368C270.664 372.368 269.63 372.075 268.819 371.488C268.019 370.901 267.566 370.101 267.459 369.088H269.683C269.8 369.493 270.051 369.813 270.435 370.048C270.83 370.293 271.304 370.416 271.859 370.416C272.51 370.416 273.038 370.219 273.443 369.824C273.848 369.44 274.051 368.853 274.051 368.064V366.688C273.763 367.104 273.363 367.451 272.851 367.728C272.35 368.005 271.774 368.144 271.123 368.144C270.376 368.144 269.694 367.952 269.075 367.568C268.456 367.184 267.966 366.645 267.603 365.952C267.251 365.248 267.075 364.443 267.075 363.536C267.075 362.64 267.251 361.845 267.603 361.152C267.966 360.459 268.451 359.925 269.059 359.552C269.678 359.179 270.366 358.992 271.123 358.992ZM274.051 363.568C274.051 363.024 273.944 362.56 273.731 362.176C273.518 361.781 273.23 361.483 272.867 361.28C272.504 361.067 272.115 360.96 271.699 360.96C271.283 360.96 270.899 361.061 270.547 361.264C270.195 361.467 269.907 361.765 269.683 362.16C269.47 362.544 269.363 363.003 269.363 363.536C269.363 364.069 269.47 364.539 269.683 364.944C269.907 365.339 270.195 365.643 270.547 365.856C270.91 366.069 271.294 366.176 271.699 366.176C272.115 366.176 272.504 366.075 272.867 365.872C273.23 365.659 273.518 365.36 273.731 364.976C273.944 364.581 274.051 364.112 274.051 363.568ZM279.631 358.08C279.236 358.08 278.905 357.957 278.639 357.712C278.383 357.456 278.255 357.141 278.255 356.768C278.255 356.395 278.383 356.085 278.639 355.84C278.905 355.584 279.236 355.456 279.631 355.456C280.025 355.456 280.351 355.584 280.607 355.84C280.873 356.085 281.007 356.395 281.007 356.768C281.007 357.141 280.873 357.456 280.607 357.712C280.351 357.957 280.025 358.08 279.631 358.08ZM280.735 359.136V368H278.495V359.136H280.735ZM287.86 359.008C288.916 359.008 289.769 359.344 290.42 360.016C291.07 360.677 291.396 361.605 291.396 362.8V368H289.156V363.104C289.156 362.4 288.98 361.861 288.628 361.488C288.276 361.104 287.796 360.912 287.188 360.912C286.569 360.912 286.078 361.104 285.716 361.488C285.364 361.861 285.188 362.4 285.188 363.104V368H282.948V359.136H285.188V360.24C285.486 359.856 285.865 359.557 286.324 359.344C286.793 359.12 287.305 359.008 287.86 359.008ZM302.25 359.008C303.306 359.008 304.16 359.344 304.81 360.016C305.461 360.677 305.786 361.605 305.786 362.8V368H303.546V363.104C303.546 362.4 303.37 361.861 303.018 361.488C302.666 361.104 302.186 360.912 301.578 360.912C300.96 360.912 300.469 361.104 300.106 361.488C299.754 361.861 299.578 362.4 299.578 363.104V368H297.338V359.136H299.578V360.24C299.877 359.856 300.256 359.557 300.714 359.344C301.184 359.12 301.696 359.008 302.25 359.008ZM311.853 368.144C310.999 368.144 310.231 367.957 309.549 367.584C308.866 367.2 308.327 366.661 307.933 365.968C307.549 365.275 307.357 364.475 307.357 363.568C307.357 362.661 307.554 361.861 307.949 361.168C308.354 360.475 308.903 359.941 309.597 359.568C310.29 359.184 311.063 358.992 311.917 358.992C312.77 358.992 313.543 359.184 314.237 359.568C314.93 359.941 315.474 360.475 315.869 361.168C316.274 361.861 316.477 362.661 316.477 363.568C316.477 364.475 316.269 365.275 315.852 365.968C315.447 366.661 314.893 367.2 314.189 367.584C313.495 367.957 312.717 368.144 311.853 368.144ZM311.853 366.192C312.258 366.192 312.637 366.096 312.989 365.904C313.351 365.701 313.639 365.403 313.853 365.008C314.066 364.613 314.173 364.133 314.173 363.568C314.173 362.725 313.949 362.08 313.501 361.632C313.063 361.173 312.525 360.944 311.885 360.944C311.245 360.944 310.706 361.173 310.269 361.632C309.842 362.08 309.629 362.725 309.629 363.568C309.629 364.411 309.837 365.061 310.253 365.52C310.679 365.968 311.213 366.192 311.853 366.192ZM330.408 359.136L327.816 368H325.4L323.784 361.808L322.168 368H319.736L317.128 359.136H319.4L320.968 365.888L322.664 359.136H325.032L326.696 365.872L328.264 359.136H330.408Z" fill="#FCFCFD"/>
</g>
<defs>
<filter id="filter0_d_310_1918" x="0" y="0" width="660" height="536" filterUnits="userSpaceOnUse" color-interpolation-filters="sRGB">
<feFlood flood-opacity="0" result="BackgroundImageFix"/>
<feColorMatrix in="SourceAlpha" type="matrix" values="0 0 0 0 0 0 0 0 0 0 0 0 0 0 0 0 0 0 127 0" result="hardAlpha"/>
<feOffset dx="40" dy="40"/>
<feGaussianBlur stdDeviation="30"/>
<feComposite in2="hardAlpha" operator="out"/>
<feColorMatrix type="matrix" values="0 0 0 0 0.893432 0 0 0 0 0.903756 0 0 0 0 0.918164 0 0 0 0.74 0"/>
<feBlend mode="darken" in2="BackgroundImageFix" result="effect1_dropShadow_310_1918"/>
<feBlend mode="normal" in="SourceGraphic" in2="effect1_dropShadow_310_1918" result="shape"/>
</filter>
</defs>
</svg>
