<svg width="317" height="33" viewBox="0 0 317 33" fill="none" xmlns="http://www.w3.org/2000/svg">
<g clip-path="url(#clip0_21149_269277)">
<rect width="317" height="48" transform="translate(0 -7.5)" fill="black"/>
<path d="M98.9441 14.0373C98.8411 13.7141 98.7026 13.4247 98.5286 13.169C98.3582 12.9098 98.154 12.6896 97.9161 12.5085C97.6781 12.3239 97.4065 12.1836 97.1011 12.0877C96.7992 11.9918 96.4672 11.9439 96.105 11.9439C95.4906 11.9439 94.9367 12.1019 94.443 12.418C93.9494 12.734 93.5588 13.1974 93.2712 13.8082C92.9871 14.4155 92.845 15.1594 92.845 16.0401C92.845 16.9244 92.9889 17.6719 93.2765 18.2827C93.5641 18.8935 93.9583 19.3569 94.459 19.6729C94.9597 19.989 95.5297 20.147 96.1689 20.147C96.7619 20.147 97.2786 20.0263 97.719 19.7848C98.1629 19.5433 98.5055 19.2024 98.747 18.7621C98.9921 18.3182 99.1146 17.7962 99.1146 17.196L99.5407 17.2759H96.4193V15.9176H100.707V17.1587C100.707 18.0749 100.512 18.8704 100.121 19.5451C99.7342 20.2163 99.198 20.7347 98.5127 21.1005C97.8308 21.4663 97.0496 21.6491 96.1689 21.6491C95.1817 21.6491 94.3152 21.4219 93.5695 20.9673C92.8273 20.5128 92.2484 19.8683 91.833 19.0337C91.4175 18.1957 91.2097 17.2013 91.2097 16.0508C91.2097 15.1808 91.3305 14.3995 91.572 13.707C91.8134 13.0146 92.1526 12.4268 92.5894 11.9439C93.0297 11.4574 93.5464 11.0863 94.1394 10.8306C94.736 10.5714 95.3877 10.4418 96.0943 10.4418C96.6838 10.4418 97.2325 10.5288 97.7403 10.7028C98.2516 10.8768 98.7062 11.1236 99.1039 11.4432C99.5052 11.7628 99.8372 12.1428 100.1 12.5831C100.363 13.0199 100.54 13.5046 100.633 14.0373H98.9441ZM107.852 18.1069V13.3182H109.45V21.5H107.884V20.0831H107.798C107.61 20.5199 107.308 20.8839 106.893 21.1751C106.481 21.4627 105.968 21.6065 105.353 21.6065C104.828 21.6065 104.363 21.4911 103.958 21.2603C103.557 21.0259 103.241 20.6797 103.01 20.2216C102.782 19.7635 102.669 19.1971 102.669 18.5224V13.3182H104.261V18.3306C104.261 18.8881 104.416 19.332 104.725 19.6623C105.034 19.9925 105.435 20.1577 105.929 20.1577C106.227 20.1577 106.524 20.0831 106.818 19.9339C107.117 19.7848 107.363 19.5593 107.559 19.2575C107.758 18.9556 107.855 18.5721 107.852 18.1069ZM113.971 21.6811C113.452 21.6811 112.984 21.5852 112.564 21.3935C112.145 21.1982 111.813 20.9158 111.568 20.5465C111.327 20.1772 111.206 19.7244 111.206 19.1882C111.206 18.7266 111.295 18.3466 111.473 18.0483C111.65 17.75 111.89 17.5138 112.192 17.3398C112.493 17.1658 112.831 17.0344 113.204 16.9457C113.577 16.8569 113.957 16.7894 114.344 16.7433C114.834 16.6864 115.231 16.6403 115.537 16.6048C115.842 16.5657 116.064 16.5036 116.203 16.4183C116.341 16.3331 116.41 16.1946 116.41 16.0028V15.9656C116.41 15.5004 116.279 15.1399 116.016 14.8842C115.757 14.6286 115.37 14.5007 114.855 14.5007C114.319 14.5007 113.896 14.6197 113.587 14.8576C113.282 15.092 113.071 15.353 112.953 15.6406L111.457 15.2997C111.634 14.8026 111.893 14.4013 112.234 14.0959C112.579 13.7869 112.975 13.5632 113.422 13.4247C113.87 13.2827 114.34 13.2116 114.834 13.2116C115.16 13.2116 115.507 13.2507 115.872 13.3288C116.242 13.4034 116.586 13.5419 116.906 13.7443C117.229 13.9467 117.493 14.2362 117.699 14.6126C117.905 14.9854 118.008 15.4702 118.008 16.0668V21.5H116.453V20.3814H116.389C116.286 20.5874 116.132 20.7898 115.926 20.9886C115.72 21.1875 115.455 21.3526 115.132 21.484C114.809 21.6154 114.422 21.6811 113.971 21.6811ZM114.317 20.4027C114.757 20.4027 115.134 20.3157 115.446 20.1417C115.762 19.9677 116.002 19.7404 116.165 19.4599C116.332 19.1758 116.416 18.8722 116.416 18.549V17.4943C116.359 17.5511 116.249 17.6044 116.085 17.6541C115.926 17.7003 115.743 17.7411 115.537 17.7766C115.331 17.8086 115.13 17.8388 114.935 17.8672C114.74 17.892 114.576 17.9134 114.445 17.9311C114.136 17.9702 113.854 18.0359 113.598 18.1282C113.346 18.2205 113.143 18.3537 112.991 18.5277C112.841 18.6982 112.767 18.9254 112.767 19.2095C112.767 19.6037 112.913 19.902 113.204 20.1044C113.495 20.3033 113.866 20.4027 114.317 20.4027ZM120.13 21.5V13.3182H121.669V14.6179H121.754C121.904 14.1776 122.166 13.8313 122.543 13.5792C122.923 13.3235 123.352 13.1957 123.832 13.1957C123.931 13.1957 124.048 13.1992 124.183 13.2063C124.322 13.2134 124.43 13.2223 124.508 13.233V14.7564C124.444 14.7386 124.331 14.7191 124.167 14.6978C124.004 14.6729 123.841 14.6605 123.677 14.6605C123.301 14.6605 122.965 14.7404 122.671 14.9002C122.379 15.0565 122.149 15.2749 121.978 15.5554C121.808 15.8324 121.722 16.1484 121.722 16.5036V21.5H120.13ZM128.656 21.6598C127.996 21.6598 127.406 21.4911 126.888 21.1538C126.373 20.8129 125.968 20.3281 125.674 19.6996C125.382 19.0675 125.237 18.3093 125.237 17.4251C125.237 16.5408 125.384 15.7844 125.679 15.1559C125.977 14.5273 126.386 14.0462 126.904 13.7124C127.422 13.3786 128.01 13.2116 128.667 13.2116C129.175 13.2116 129.583 13.2969 129.892 13.4673C130.205 13.6342 130.446 13.8295 130.617 14.0533C130.791 14.277 130.926 14.4741 131.022 14.6445H131.117V10.5909H132.71V21.5H131.155V20.2269H131.022C130.926 20.4009 130.787 20.5998 130.606 20.8235C130.428 21.0472 130.183 21.2425 129.871 21.4094C129.558 21.5763 129.154 21.6598 128.656 21.6598ZM129.008 20.3015C129.466 20.3015 129.853 20.1808 130.169 19.9393C130.489 19.6942 130.73 19.3551 130.894 18.9219C131.061 18.4886 131.144 17.9844 131.144 17.4091C131.144 16.8409 131.062 16.3437 130.899 15.9176C130.736 15.4915 130.496 15.1594 130.18 14.9215C129.864 14.6836 129.473 14.5646 129.008 14.5646C128.529 14.5646 128.129 14.6889 127.81 14.9375C127.49 15.1861 127.248 15.5252 127.085 15.9549C126.925 16.3846 126.845 16.8693 126.845 17.4091C126.845 17.956 126.927 18.4478 127.09 18.8846C127.254 19.3214 127.495 19.6676 127.815 19.9233C128.138 20.1754 128.536 20.3015 129.008 20.3015ZM137.364 21.6811C136.846 21.6811 136.377 21.5852 135.958 21.3935C135.539 21.1982 135.207 20.9158 134.962 20.5465C134.72 20.1772 134.6 19.7244 134.6 19.1882C134.6 18.7266 134.689 18.3466 134.866 18.0483C135.044 17.75 135.283 17.5138 135.585 17.3398C135.887 17.1658 136.224 17.0344 136.597 16.9457C136.97 16.8569 137.35 16.7894 137.737 16.7433C138.227 16.6864 138.625 16.6403 138.93 16.6048C139.236 16.5657 139.458 16.5036 139.596 16.4183C139.735 16.3331 139.804 16.1946 139.804 16.0028V15.9656C139.804 15.5004 139.673 15.1399 139.41 14.8842C139.151 14.6286 138.763 14.5007 138.249 14.5007C137.712 14.5007 137.29 14.6197 136.981 14.8576C136.675 15.092 136.464 15.353 136.347 15.6406L134.85 15.2997C135.028 14.8026 135.287 14.4013 135.628 14.0959C135.972 13.7869 136.368 13.5632 136.816 13.4247C137.263 13.2827 137.734 13.2116 138.227 13.2116C138.554 13.2116 138.9 13.2507 139.266 13.3288C139.635 13.4034 139.98 13.5419 140.299 13.7443C140.622 13.9467 140.887 14.2362 141.093 14.6126C141.299 14.9854 141.402 15.4702 141.402 16.0668V21.5H139.847V20.3814H139.783C139.68 20.5874 139.525 20.7898 139.319 20.9886C139.113 21.1875 138.849 21.3526 138.526 21.484C138.202 21.6154 137.815 21.6811 137.364 21.6811ZM137.711 20.4027C138.151 20.4027 138.527 20.3157 138.84 20.1417C139.156 19.9677 139.396 19.7404 139.559 19.4599C139.726 19.1758 139.809 18.8722 139.809 18.549V17.4943C139.752 17.5511 139.642 17.6044 139.479 17.6541C139.319 17.7003 139.136 17.7411 138.93 17.7766C138.724 17.8086 138.524 17.8388 138.328 17.8672C138.133 17.892 137.97 17.9134 137.838 17.9311C137.529 17.9702 137.247 18.0359 136.991 18.1282C136.739 18.2205 136.537 18.3537 136.384 18.5277C136.235 18.6982 136.16 18.9254 136.16 19.2095C136.16 19.6037 136.306 19.902 136.597 20.1044C136.888 20.3033 137.26 20.4027 137.711 20.4027ZM143.523 21.5V13.3182H145.063V14.6179H145.148C145.297 14.1776 145.56 13.8313 145.936 13.5792C146.316 13.3235 146.746 13.1957 147.225 13.1957C147.325 13.1957 147.442 13.1992 147.577 13.2063C147.715 13.2134 147.824 13.2223 147.902 13.233V14.7564C147.838 14.7386 147.724 14.7191 147.561 14.6978C147.398 14.6729 147.234 14.6605 147.071 14.6605C146.694 14.6605 146.359 14.7404 146.064 14.9002C145.773 15.0565 145.542 15.2749 145.372 15.5554C145.201 15.8324 145.116 16.1484 145.116 16.5036V21.5H143.523ZM162.438 14.1385H160.777C160.713 13.7834 160.594 13.4709 160.42 13.201C160.246 12.9311 160.033 12.7021 159.78 12.5138C159.528 12.3256 159.246 12.1836 158.933 12.0877C158.625 11.9918 158.296 11.9439 157.948 11.9439C157.319 11.9439 156.757 12.1019 156.259 12.418C155.766 12.734 155.375 13.1974 155.088 13.8082C154.803 14.419 154.661 15.1648 154.661 16.0455C154.661 16.9332 154.803 17.6825 155.088 18.2933C155.375 18.9041 155.768 19.3658 156.265 19.6783C156.762 19.9908 157.321 20.147 157.943 20.147C158.287 20.147 158.614 20.1009 158.923 20.0085C159.235 19.9126 159.518 19.7724 159.77 19.5877C160.022 19.4031 160.235 19.1776 160.409 18.9112C160.587 18.6413 160.709 18.3324 160.777 17.9844L162.438 17.9897C162.35 18.5259 162.177 19.0195 161.922 19.4705C161.67 19.918 161.345 20.305 160.947 20.6317C160.553 20.9549 160.102 21.2053 159.594 21.3828C159.086 21.5604 158.532 21.6491 157.932 21.6491C156.987 21.6491 156.146 21.4254 155.407 20.978C154.669 20.527 154.086 19.8825 153.66 19.0444C153.237 18.2063 153.026 17.2067 153.026 16.0455C153.026 14.8807 153.239 13.881 153.665 13.0465C154.091 12.2085 154.674 11.5657 155.413 11.1183C156.151 10.6673 156.991 10.4418 157.932 10.4418C158.511 10.4418 159.051 10.5252 159.551 10.6921C160.056 10.8555 160.508 11.0969 160.91 11.4165C161.311 11.7326 161.643 12.1197 161.906 12.5778C162.169 13.0323 162.346 13.5526 162.438 14.1385ZM167.727 21.6651C166.959 21.6651 166.29 21.4893 165.718 21.1378C165.147 20.7862 164.703 20.2944 164.387 19.6623C164.071 19.0302 163.913 18.2915 163.913 17.4464C163.913 16.5977 164.071 15.8555 164.387 15.2198C164.703 14.5842 165.147 14.0906 165.718 13.739C166.29 13.3874 166.959 13.2116 167.727 13.2116C168.494 13.2116 169.163 13.3874 169.735 13.739C170.306 14.0906 170.75 14.5842 171.066 15.2198C171.382 15.8555 171.54 16.5977 171.54 17.4464C171.54 18.2915 171.382 19.0302 171.066 19.6623C170.75 20.2944 170.306 20.7862 169.735 21.1378C169.163 21.4893 168.494 21.6651 167.727 21.6651ZM167.732 20.3281C168.229 20.3281 168.641 20.1967 168.968 19.9339C169.294 19.6712 169.536 19.3214 169.692 18.8846C169.852 18.4478 169.932 17.9666 169.932 17.4411C169.932 16.919 169.852 16.4396 169.692 16.0028C169.536 15.5625 169.294 15.2092 168.968 14.9428C168.641 14.6765 168.229 14.5433 167.732 14.5433C167.231 14.5433 166.816 14.6765 166.485 14.9428C166.159 15.2092 165.915 15.5625 165.756 16.0028C165.599 16.4396 165.521 16.919 165.521 17.4411C165.521 17.9666 165.599 18.4478 165.756 18.8846C165.915 19.3214 166.159 19.6712 166.485 19.9339C166.816 20.1967 167.231 20.3281 167.732 20.3281ZM174.911 16.642V21.5H173.318V13.3182H174.847V14.6499H174.948C175.136 14.2166 175.431 13.8686 175.832 13.6058C176.237 13.343 176.747 13.2116 177.361 13.2116C177.919 13.2116 178.407 13.3288 178.826 13.5632C179.245 13.794 179.57 14.1385 179.801 14.5966C180.032 15.0547 180.147 15.6211 180.147 16.2958V21.5H178.554V16.4876C178.554 15.8945 178.4 15.4311 178.091 15.0973C177.782 14.7599 177.358 14.5913 176.818 14.5913C176.449 14.5913 176.12 14.6712 175.832 14.831C175.548 14.9908 175.323 15.2251 175.156 15.5341C174.993 15.8395 174.911 16.2088 174.911 16.642ZM186.102 13.3182V14.5966H181.633V13.3182H186.102ZM182.832 11.358H184.424V19.0977C184.424 19.4066 184.471 19.6392 184.563 19.7955C184.655 19.9482 184.774 20.0529 184.92 20.1097C185.069 20.163 185.231 20.1896 185.405 20.1896C185.532 20.1896 185.644 20.1808 185.74 20.163C185.836 20.1452 185.911 20.131 185.964 20.1204L186.251 21.4361C186.159 21.4716 186.028 21.5071 185.857 21.5426C185.687 21.5817 185.474 21.603 185.218 21.6065C184.799 21.6136 184.408 21.5391 184.046 21.3828C183.684 21.2266 183.391 20.9851 183.167 20.6584C182.944 20.3317 182.832 19.9215 182.832 19.4279V11.358ZM191.303 21.6651C190.496 21.6651 189.802 21.4929 189.22 21.1484C188.641 20.8004 188.193 20.3121 187.877 19.6836C187.565 19.0515 187.409 18.3111 187.409 17.4624C187.409 16.6243 187.565 15.8857 187.877 15.2464C188.193 14.6072 188.634 14.1083 189.198 13.7496C189.767 13.391 190.431 13.2116 191.191 13.2116C191.652 13.2116 192.1 13.288 192.533 13.4407C192.966 13.5934 193.355 13.8331 193.7 14.1598C194.044 14.4865 194.316 14.9109 194.515 15.4329C194.713 15.9513 194.813 16.5817 194.813 17.3239V17.8885H188.309V16.6953H193.252C193.252 16.2763 193.167 15.9052 192.996 15.582C192.826 15.2553 192.586 14.9979 192.277 14.8097C191.972 14.6214 191.613 14.5273 191.201 14.5273C190.754 14.5273 190.363 14.6374 190.029 14.8576C189.699 15.0742 189.443 15.3583 189.262 15.7099C189.085 16.0579 188.996 16.4361 188.996 16.8445V17.7766C188.996 18.3235 189.092 18.7887 189.284 19.1722C189.479 19.5558 189.751 19.8487 190.099 20.0511C190.447 20.25 190.853 20.3494 191.318 20.3494C191.62 20.3494 191.896 20.3068 192.144 20.2216C192.393 20.1328 192.608 20.0014 192.789 19.8274C192.97 19.6534 193.108 19.4386 193.204 19.1829L194.712 19.4545C194.591 19.8984 194.374 20.2873 194.062 20.6211C193.753 20.9513 193.364 21.2088 192.895 21.3935C192.43 21.5746 191.899 21.6651 191.303 21.6651ZM198.173 16.642V21.5H196.58V13.3182H198.109V14.6499H198.21C198.398 14.2166 198.693 13.8686 199.094 13.6058C199.499 13.343 200.009 13.2116 200.623 13.2116C201.18 13.2116 201.669 13.3288 202.088 13.5632C202.507 13.794 202.832 14.1385 203.063 14.5966C203.293 15.0547 203.409 15.6211 203.409 16.2958V21.5H201.816V16.4876C201.816 15.8945 201.662 15.4311 201.353 15.0973C201.044 14.7599 200.619 14.5913 200.08 14.5913C199.71 14.5913 199.382 14.6712 199.094 14.831C198.81 14.9908 198.585 15.2251 198.418 15.5341C198.254 15.8395 198.173 16.2088 198.173 16.642ZM205.545 21.5V13.3182H207.137V21.5H205.545ZM206.349 12.0558C206.072 12.0558 205.834 11.9634 205.635 11.7788C205.44 11.5906 205.342 11.3668 205.342 11.1076C205.342 10.8448 205.44 10.6211 205.635 10.4364C205.834 10.2482 206.072 10.1541 206.349 10.1541C206.626 10.1541 206.862 10.2482 207.058 10.4364C207.256 10.6211 207.356 10.8448 207.356 11.1076C207.356 11.3668 207.256 11.5906 207.058 11.7788C206.862 11.9634 206.626 12.0558 206.349 12.0558ZM212.343 21.6598C211.682 21.6598 211.093 21.4911 210.575 21.1538C210.06 20.8129 209.655 20.3281 209.36 19.6996C209.069 19.0675 208.923 18.3093 208.923 17.4251C208.923 16.5408 209.071 15.7844 209.365 15.1559C209.664 14.5273 210.072 14.0462 210.591 13.7124C211.109 13.3786 211.697 13.2116 212.354 13.2116C212.861 13.2116 213.27 13.2969 213.579 13.4673C213.891 13.6342 214.133 13.8295 214.303 14.0533C214.477 14.277 214.612 14.4741 214.708 14.6445H214.804V10.5909H216.397V21.5H214.841V20.2269H214.708C214.612 20.4009 214.474 20.5998 214.293 20.8235C214.115 21.0472 213.87 21.2425 213.557 21.4094C213.245 21.5763 212.84 21.6598 212.343 21.6598ZM212.695 20.3015C213.153 20.3015 213.54 20.1808 213.856 19.9393C214.175 19.6942 214.417 19.3551 214.58 18.9219C214.747 18.4886 214.831 17.9844 214.831 17.4091C214.831 16.8409 214.749 16.3437 214.586 15.9176C214.422 15.4915 214.182 15.1594 213.866 14.9215C213.55 14.6836 213.16 14.5646 212.695 14.5646C212.215 14.5646 211.816 14.6889 211.496 14.9375C211.176 15.1861 210.935 15.5252 210.772 15.9549C210.612 16.3846 210.532 16.8693 210.532 17.4091C210.532 17.956 210.614 18.4478 210.777 18.8846C210.94 19.3214 211.182 19.6676 211.501 19.9233C211.825 20.1754 212.222 20.3015 212.695 20.3015ZM222.116 21.6651C221.349 21.6651 220.68 21.4893 220.108 21.1378C219.536 20.7862 219.092 20.2944 218.776 19.6623C218.46 19.0302 218.302 18.2915 218.302 17.4464C218.302 16.5977 218.46 15.8555 218.776 15.2198C219.092 14.5842 219.536 14.0906 220.108 13.739C220.68 13.3874 221.349 13.2116 222.116 13.2116C222.883 13.2116 223.553 13.3874 224.124 13.739C224.696 14.0906 225.14 14.5842 225.456 15.2198C225.772 15.8555 225.93 16.5977 225.93 17.4464C225.93 18.2915 225.772 19.0302 225.456 19.6623C225.14 20.2944 224.696 20.7862 224.124 21.1378C223.553 21.4893 222.883 21.6651 222.116 21.6651ZM222.121 20.3281C222.619 20.3281 223.031 20.1967 223.357 19.9339C223.684 19.6712 223.925 19.3214 224.082 18.8846C224.242 18.4478 224.321 17.9666 224.321 17.4411C224.321 16.919 224.242 16.4396 224.082 16.0028C223.925 15.5625 223.684 15.2092 223.357 14.9428C223.031 14.6765 222.619 14.5433 222.121 14.5433C221.621 14.5433 221.205 14.6765 220.875 14.9428C220.548 15.2092 220.305 15.5625 220.145 16.0028C219.989 16.4396 219.911 16.919 219.911 17.4411C219.911 17.9666 219.989 18.4478 220.145 18.8846C220.305 19.3214 220.548 19.6712 220.875 19.9339C221.205 20.1967 221.621 20.3281 222.121 20.3281Z" fill="white"/>
</g>
<defs>
<clipPath id="clip0_21149_269277">
<rect width="317" height="33" rx="8" fill="white"/>
</clipPath>
</defs>
</svg>
