<svg width="94" height="75" viewBox="0 0 94 75" fill="none" xmlns="http://www.w3.org/2000/svg">
<rect width="94" height="75" fill="black"/>
<path d="M2.20915 21.504V19.2H16.3452V21.504H10.6092V36H7.96915V21.504H2.20915ZM22.3587 29.55H21.5337C20.5137 29.55 19.6437 30.36 19.6437 31.605V36H18.0537V28.065H19.6437V29.61C19.9737 28.65 20.6937 27.99 21.7137 27.99H22.3587V29.55ZM22.9894 33.765C22.9894 32.34 23.9644 31.545 25.5544 31.44L27.8944 31.29V30.78C27.8944 29.88 27.3394 29.355 26.3794 29.355C25.6294 29.355 24.9694 29.595 24.2944 30.135L23.5744 28.965C24.4144 28.275 25.4194 27.9 26.6044 27.9C28.3294 27.9 29.4544 28.95 29.4544 30.585V34.14C29.4544 34.44 29.6194 34.605 29.9344 34.605H30.3244V36H29.5294C28.6894 36 28.1194 35.55 27.9844 34.845C27.5194 35.64 26.6794 36.15 25.6744 36.15C24.1294 36.15 22.9894 35.145 22.9894 33.765ZM24.5344 33.735C24.5344 34.41 25.1344 34.875 25.9894 34.875C27.0394 34.875 27.8944 34.125 27.8944 33.21V32.49L25.7644 32.655C24.9844 32.715 24.5344 33.075 24.5344 33.735ZM38.839 30.825V36H37.249V31.17C37.249 30.135 36.544 29.325 35.464 29.325C34.369 29.325 33.589 30.135 33.589 31.23V36H31.999V28.065H33.589V29.475C34.039 28.5 34.954 27.9 36.034 27.9C37.714 27.9 38.839 29.175 38.839 30.825ZM44.0328 36.165C42.1878 36.165 40.8678 35.115 40.5828 33.54H42.0978C42.2778 34.35 42.9828 34.905 44.0478 34.905C44.8578 34.905 45.3978 34.485 45.3978 33.9C45.3978 33.39 44.9928 33.06 44.3478 32.895L42.8478 32.52C41.4378 32.175 40.7178 31.425 40.7178 30.285C40.7178 28.845 41.8428 27.885 43.5078 27.885C45.2478 27.885 46.5828 28.935 46.8228 30.525H45.2928C45.1128 29.73 44.3928 29.16 43.5078 29.16C42.7428 29.16 42.2778 29.565 42.2778 30.135C42.2778 30.63 42.6678 30.975 43.3728 31.155L44.7828 31.5C46.2078 31.86 46.9578 32.625 46.9578 33.765C46.9578 35.19 45.7728 36.165 44.0328 36.165ZM48.7861 28.065H50.3761V29.25C50.9011 28.395 51.7411 27.885 52.8061 27.885C54.6661 27.885 56.0311 29.31 56.0311 31.485V32.58C56.0311 34.755 54.6661 36.165 52.8061 36.165C51.7711 36.165 50.9161 35.685 50.3761 34.86V39.27H48.7861V28.065ZM50.3761 32.46C50.3761 33.855 51.1411 34.77 52.4161 34.77C53.6911 34.77 54.4561 33.855 54.4561 32.46V31.605C54.4561 30.195 53.6911 29.28 52.4161 29.28C51.1411 29.28 50.3761 30.195 50.3761 31.605V32.46ZM64.7792 32.52C64.7792 34.74 63.2942 36.165 61.2092 36.165C59.1542 36.165 57.6542 34.74 57.6542 32.52V31.53C57.6542 29.325 59.1392 27.885 61.2092 27.885C63.2942 27.885 64.7792 29.31 64.7792 31.53V32.52ZM63.2042 31.605C63.2042 30.195 62.4542 29.28 61.2092 29.28C59.9792 29.28 59.2292 30.195 59.2292 31.605V32.46C59.2292 33.87 59.9792 34.77 61.2092 34.77C62.4542 34.77 63.2042 33.87 63.2042 32.46V31.605ZM71.0794 29.55H70.2544C69.2344 29.55 68.3644 30.36 68.3644 31.605V36H66.7744V28.065H68.3644V29.61C68.6944 28.65 69.4144 27.99 70.4344 27.99H71.0794V29.55ZM75.423 36C74.163 36 73.458 35.25 73.458 34.2V29.445H71.853V28.065H73.458V25.725H75.048V28.065H77.163V29.445H75.048V33.975C75.048 34.395 75.348 34.62 75.828 34.62H77.163V36H75.423ZM78.2499 32.505V31.56C78.2499 29.37 79.6899 27.885 81.7449 27.885C83.6499 27.885 84.9999 29.385 84.9999 31.515V32.535H79.8099C79.8249 33.93 80.6199 34.785 81.8649 34.785C82.6449 34.785 83.2749 34.485 83.8449 33.855L84.8499 34.785C84.0999 35.67 83.1249 36.165 81.8199 36.165C79.7199 36.165 78.2499 34.695 78.2499 32.505ZM81.6849 29.28C80.6199 29.28 79.8999 30.03 79.8249 31.29H83.4849C83.4399 30.045 82.7349 29.28 81.6849 29.28ZM89.7506 36.165C87.9056 36.165 86.5856 35.115 86.3006 33.54H87.8156C87.9956 34.35 88.7006 34.905 89.7656 34.905C90.5756 34.905 91.1156 34.485 91.1156 33.9C91.1156 33.39 90.7106 33.06 90.0656 32.895L88.5656 32.52C87.1556 32.175 86.4356 31.425 86.4356 30.285C86.4356 28.845 87.5606 27.885 89.2256 27.885C90.9656 27.885 92.3006 28.935 92.5406 30.525H91.0106C90.8306 29.73 90.1106 29.16 89.2256 29.16C88.4606 29.16 87.9956 29.565 87.9956 30.135C87.9956 30.63 88.3856 30.975 89.0906 31.155L90.5006 31.5C91.9256 31.86 92.6756 32.625 92.6756 33.765C92.6756 35.19 91.4906 36.165 89.7506 36.165ZM24.0777 56V45.5H28.4277C30.2727 45.5 31.6827 46.91 31.6827 48.71C31.6827 50.51 30.2727 51.905 28.4277 51.905H25.7277V56H24.0777ZM28.2927 46.94H25.7277V50.525H28.2927C29.3277 50.525 30.0327 49.745 30.0327 48.74C30.0327 47.72 29.3277 46.94 28.2927 46.94ZM32.1754 53.765C32.1754 52.34 33.1504 51.545 34.7404 51.44L37.0804 51.29V50.78C37.0804 49.88 36.5254 49.355 35.5654 49.355C34.8154 49.355 34.1554 49.595 33.4804 50.135L32.7604 48.965C33.6004 48.275 34.6054 47.9 35.7904 47.9C37.5154 47.9 38.6404 48.95 38.6404 50.585V54.14C38.6404 54.44 38.8054 54.605 39.1204 54.605H39.5104V56H38.7154C37.8754 56 37.3054 55.55 37.1704 54.845C36.7054 55.64 35.8654 56.15 34.8604 56.15C33.3154 56.15 32.1754 55.145 32.1754 53.765ZM33.7204 53.735C33.7204 54.41 34.3204 54.875 35.1754 54.875C36.2254 54.875 37.0804 54.125 37.0804 53.21V52.49L34.9504 52.655C34.1704 52.715 33.7204 53.075 33.7204 53.735ZM43.7985 56C42.5385 56 41.8335 55.25 41.8335 54.2V49.445H40.2285V48.065H41.8335V45.725H43.4235V48.065H45.5385V49.445H43.4235V53.975C43.4235 54.395 43.7235 54.62 44.2035 54.62H45.5385V56H43.7985ZM47.9419 46.76C47.4319 46.76 46.9819 46.325 46.9819 45.8C46.9819 45.26 47.4319 44.84 47.9419 44.84C48.4669 44.84 48.9019 45.26 48.9019 45.8C48.9019 46.325 48.4669 46.76 47.9419 46.76ZM48.7369 48.065V56H47.1469V48.065H48.7369ZM53.862 56C52.602 56 51.897 55.25 51.897 54.2V49.445H50.292V48.065H51.897V45.725H53.487V48.065H55.602V49.445H53.487V53.975C53.487 54.395 53.787 54.62 54.267 54.62H55.602V56H53.862ZM63.8139 52.52C63.8139 54.74 62.3289 56.165 60.2439 56.165C58.1889 56.165 56.6889 54.74 56.6889 52.52V51.53C56.6889 49.325 58.1739 47.885 60.2439 47.885C62.3289 47.885 63.8139 49.31 63.8139 51.53V52.52ZM62.2389 51.605C62.2389 50.195 61.4889 49.28 60.2439 49.28C59.0139 49.28 58.2639 50.195 58.2639 51.605V52.46C58.2639 53.87 59.0139 54.77 60.2439 54.77C61.4889 54.77 62.2389 53.87 62.2389 52.46V51.605ZM68.629 56.165C66.784 56.165 65.464 55.115 65.179 53.54H66.694C66.874 54.35 67.579 54.905 68.644 54.905C69.454 54.905 69.994 54.485 69.994 53.9C69.994 53.39 69.589 53.06 68.944 52.895L67.444 52.52C66.034 52.175 65.314 51.425 65.314 50.285C65.314 48.845 66.439 47.885 68.104 47.885C69.844 47.885 71.179 48.935 71.419 50.525H69.889C69.709 49.73 68.989 49.16 68.104 49.16C67.339 49.16 66.874 49.565 66.874 50.135C66.874 50.63 67.264 50.975 67.969 51.155L69.379 51.5C70.804 51.86 71.554 52.625 71.554 53.765C71.554 55.19 70.369 56.165 68.629 56.165Z" fill="white"/>
<line x1="15" y1="24" x2="15" y2="36" stroke="white"/>
<line x1="3.5" y1="24" x2="3.5" y2="36" stroke="white"/>
<line x1="11" y1="19.7" x2="2" y2="19.7" stroke="white"/>
<line x1="11" y1="21" x2="2" y2="21" stroke="white"/>
<line x1="11" y1="20.5" x2="2" y2="20.5" stroke="white"/>
<line x1="16.32" y1="19.7" x2="7.32" y2="19.7" stroke="white"/>
<line x1="16.32" y1="20.5" x2="7.32" y2="20.5" stroke="white"/>
<line x1="16.3207" y1="21" x2="7.32072" y2="21.0128" stroke="white"/>
<line x1="14.5" y1="24" x2="14.5" y2="36" stroke="white"/>
<line x1="4" y1="24" x2="4" y2="36" stroke="white"/>
<line x1="1.5" y1="19" x2="1.5" y2="22" stroke="black"/>
<rect x="1" y="19.2" width="1" height="2.3" fill="white"/>
<rect x="16.34" y="19.2" width="1" height="2.3" fill="white"/>
</svg>
