<svg width="359" height="124" viewBox="0 0 359 124" fill="none" xmlns="http://www.w3.org/2000/svg">
<path d="M16.352 4.336V2.8H25.776V4.336H21.952V14H20.192V4.336H16.352ZM28.237 4.144C27.693 4.144 27.213 3.68 27.213 3.12C27.213 2.544 27.693 2.096 28.237 2.096C28.797 2.096 29.261 2.544 29.261 3.12C29.261 3.68 28.797 4.144 28.237 4.144ZM29.085 5.536V14H27.389V5.536H29.085ZM31.6078 5.536H33.3038V6.8C33.8638 5.888 34.7598 5.344 35.8958 5.344C37.8798 5.344 39.3358 6.864 39.3358 9.184V10.352C39.3358 12.672 37.8798 14.176 35.8958 14.176C34.7918 14.176 33.8798 13.664 33.3038 12.784V17.488H31.6078V5.536ZM33.3038 10.224C33.3038 11.712 34.1198 12.688 35.4798 12.688C36.8398 12.688 37.6558 11.712 37.6558 10.224V9.312C37.6558 7.808 36.8398 6.832 35.4798 6.832C34.1198 6.832 33.3038 7.808 33.3038 9.312V10.224ZM48.6671 10.288C48.6671 12.656 47.0831 14.176 44.8591 14.176C42.6671 14.176 41.0671 12.656 41.0671 10.288V9.232C41.0671 6.88 42.6511 5.344 44.8591 5.344C47.0831 5.344 48.6671 6.864 48.6671 9.232V10.288ZM46.9871 9.312C46.9871 7.808 46.1871 6.832 44.8591 6.832C43.5471 6.832 42.7471 7.808 42.7471 9.312V10.224C42.7471 11.728 43.5471 12.688 44.8591 12.688C46.1871 12.688 46.9871 11.728 46.9871 10.224V9.312ZM61.6389 14H59.9429V12.72C59.3989 13.648 58.4709 14.176 57.3349 14.176C55.3669 14.176 53.9109 12.672 53.9109 10.352V9.184C53.9109 6.864 55.3669 5.344 57.3349 5.344C58.4549 5.344 59.3669 5.856 59.9429 6.752V2.208H61.6389V14ZM59.9429 9.312C59.9429 7.808 59.1109 6.832 57.7669 6.832C56.4069 6.832 55.5909 7.808 55.5909 9.312V10.224C55.5909 11.728 56.4069 12.688 57.7669 12.688C59.1109 12.688 59.9429 11.728 59.9429 10.224V9.312ZM63.7546 10.272V9.264C63.7546 6.928 65.2906 5.344 67.4826 5.344C69.5146 5.344 70.9546 6.944 70.9546 9.216V10.304H65.4186C65.4346 11.792 66.2826 12.704 67.6106 12.704C68.4426 12.704 69.1146 12.384 69.7226 11.712L70.7946 12.704C69.9946 13.648 68.9546 14.176 67.5626 14.176C65.3226 14.176 63.7546 12.608 63.7546 10.272ZM67.4186 6.832C66.2826 6.832 65.5146 7.632 65.4346 8.976H69.3386C69.2906 7.648 68.5386 6.832 67.4186 6.832ZM78.2256 8.928V14H76.5296V5.536H78.2256V7.04C78.6896 6 79.6336 5.36 80.7216 5.36C82.0496 5.36 83.0576 6.16 83.4416 7.344C83.8416 6.144 84.8496 5.36 86.1136 5.36C87.8736 5.36 89.0416 6.736 89.0416 8.496V14H87.3456V8.88C87.3456 7.744 86.6096 6.88 85.5216 6.88C84.4176 6.88 83.6336 7.76 83.6336 8.928V14H81.9376V8.88C81.9376 7.744 81.2016 6.88 80.1296 6.88C79.0096 6.88 78.2256 7.76 78.2256 8.928ZM90.8725 11.616C90.8725 10.096 91.9125 9.248 93.6085 9.136L96.1045 8.976V8.432C96.1045 7.472 95.5125 6.912 94.4885 6.912C93.6885 6.912 92.9845 7.168 92.2645 7.744L91.4965 6.496C92.3925 5.76 93.4645 5.36 94.7285 5.36C96.5685 5.36 97.7685 6.48 97.7685 8.224V12.016C97.7685 12.336 97.9445 12.512 98.2805 12.512H98.6965V14H97.8485C96.9525 14 96.3445 13.52 96.2005 12.768C95.7045 13.616 94.8085 14.16 93.7365 14.16C92.0885 14.16 90.8725 13.088 90.8725 11.616ZM92.5205 11.584C92.5205 12.304 93.1605 12.8 94.0725 12.8C95.1925 12.8 96.1045 12 96.1045 11.024V10.256L93.8325 10.432C93.0005 10.496 92.5205 10.88 92.5205 11.584ZM107.779 8.48V14H106.083V8.848C106.083 7.744 105.331 6.88 104.179 6.88C103.011 6.88 102.179 7.744 102.179 8.912V14H100.483V5.536H102.179V7.04C102.659 6 103.635 5.36 104.787 5.36C106.579 5.36 107.779 6.72 107.779 8.48ZM113.255 14C111.911 14 111.159 13.2 111.159 12.08V7.008H109.447V5.536H111.159V3.04H112.855V5.536H115.111V7.008H112.855V11.84C112.855 12.288 113.175 12.528 113.687 12.528H115.111V14H113.255ZM116.27 10.272V9.264C116.27 6.928 117.806 5.344 119.998 5.344C122.03 5.344 123.47 6.944 123.47 9.216V10.304H117.934C117.95 11.792 118.798 12.704 120.126 12.704C120.958 12.704 121.63 12.384 122.238 11.712L123.31 12.704C122.51 13.648 121.47 14.176 120.078 14.176C117.838 14.176 116.27 12.608 116.27 10.272ZM119.934 6.832C118.798 6.832 118.03 7.632 117.95 8.976H121.854C121.806 7.648 121.054 6.832 119.934 6.832ZM132.826 8.48V14H131.13V8.848C131.13 7.744 130.378 6.88 129.226 6.88C128.058 6.88 127.226 7.744 127.226 8.912V14H125.53V5.536H127.226V7.04C127.706 6 128.682 5.36 129.834 5.36C131.626 5.36 132.826 6.72 132.826 8.48ZM136.206 4.144C135.662 4.144 135.182 3.68 135.182 3.12C135.182 2.544 135.662 2.096 136.206 2.096C136.766 2.096 137.23 2.544 137.23 3.12C137.23 3.68 136.766 4.144 136.206 4.144ZM137.054 5.536V14H135.358V5.536H137.054ZM141.273 8.928V14H139.577V5.536H141.273V7.04C141.737 6 142.681 5.36 143.769 5.36C145.097 5.36 146.105 6.16 146.489 7.344C146.889 6.144 147.897 5.36 149.161 5.36C150.921 5.36 152.089 6.736 152.089 8.496V14H150.393V8.88C150.393 7.744 149.657 6.88 148.569 6.88C147.465 6.88 146.681 7.76 146.681 8.928V14H144.985V8.88C144.985 7.744 144.249 6.88 143.177 6.88C142.057 6.88 141.273 7.76 141.273 8.928ZM155.471 4.144C154.927 4.144 154.447 3.68 154.447 3.12C154.447 2.544 154.927 2.096 155.471 2.096C156.031 2.096 156.495 2.544 156.495 3.12C156.495 3.68 156.031 4.144 155.471 4.144ZM156.319 5.536V14H154.623V5.536H156.319ZM158.442 10.272V9.264C158.442 6.928 159.978 5.344 162.17 5.344C164.202 5.344 165.642 6.944 165.642 9.216V10.304H160.106C160.122 11.792 160.97 12.704 162.298 12.704C163.13 12.704 163.802 12.384 164.41 11.712L165.482 12.704C164.682 13.648 163.642 14.176 162.25 14.176C160.01 14.176 158.442 12.608 158.442 10.272ZM162.106 6.832C160.97 6.832 160.202 7.632 160.122 8.976H164.026C163.978 7.648 163.226 6.832 162.106 6.832ZM174.998 8.48V14H173.302V8.848C173.302 7.744 172.55 6.88 171.398 6.88C170.23 6.88 169.398 7.744 169.398 8.912V14H167.702V5.536H169.398V7.04C169.878 6 170.854 5.36 172.006 5.36C173.798 5.36 174.998 6.72 174.998 8.48ZM180.474 14C179.13 14 178.378 13.2 178.378 12.08V7.008H176.666V5.536H178.378V3.04H180.074V5.536H182.33V7.008H180.074V11.84C180.074 12.288 180.394 12.528 180.906 12.528H182.33V14H180.474ZM191.089 10.288C191.089 12.656 189.505 14.176 187.281 14.176C185.089 14.176 183.489 12.656 183.489 10.288V9.232C183.489 6.88 185.073 5.344 187.281 5.344C189.505 5.344 191.089 6.864 191.089 9.232V10.288ZM189.409 9.312C189.409 7.808 188.609 6.832 187.281 6.832C185.969 6.832 185.169 7.808 185.169 9.312V10.224C185.169 11.728 185.969 12.688 187.281 12.688C188.609 12.688 189.409 11.728 189.409 10.224V9.312Z" fill="black"/>
<rect x="16" y="24" width="327" height="72" rx="8" fill="#E8E8E8"/>
<path d="M19.836 119.112C19.304 119.112 18.8373 119.098 18.436 119.07C18.044 119.042 17.652 119.009 17.26 118.972V109.228C17.6987 109.181 18.128 109.149 18.548 109.13C18.968 109.102 19.4487 109.088 19.99 109.088C20.83 109.088 21.5533 109.219 22.16 109.48C22.776 109.741 23.28 110.101 23.672 110.558C24.0733 111.015 24.3673 111.547 24.554 112.154C24.75 112.751 24.848 113.395 24.848 114.086C24.848 114.767 24.75 115.411 24.554 116.018C24.358 116.625 24.0547 117.161 23.644 117.628C23.2427 118.085 22.7247 118.449 22.09 118.72C21.4647 118.981 20.7133 119.112 19.836 119.112ZM19.878 117.95C20.718 117.95 21.404 117.787 21.936 117.46C22.468 117.133 22.86 116.681 23.112 116.102C23.364 115.514 23.49 114.842 23.49 114.086C23.49 113.414 23.364 112.784 23.112 112.196C22.86 111.608 22.4727 111.137 21.95 110.782C21.4273 110.418 20.76 110.236 19.948 110.236C19.6773 110.236 19.43 110.245 19.206 110.264C18.982 110.273 18.7767 110.287 18.59 110.306V117.88C18.786 117.908 18.9913 117.927 19.206 117.936C19.4207 117.945 19.6447 117.95 19.878 117.95ZM26.663 119V111.72H27.923V119H26.663ZM27.293 110.474C27.0503 110.474 26.8403 110.385 26.663 110.208C26.495 110.031 26.411 109.825 26.411 109.592C26.411 109.321 26.4903 109.107 26.649 108.948C26.8076 108.789 27.0223 108.71 27.293 108.71C27.5356 108.71 27.741 108.799 27.909 108.976C28.0863 109.144 28.175 109.349 28.175 109.592C28.175 109.853 28.0956 110.068 27.937 110.236C27.7783 110.395 27.5636 110.474 27.293 110.474ZM32.837 122.248C32.4076 122.248 31.9876 122.197 31.577 122.094C31.1756 121.991 30.8163 121.837 30.499 121.632L30.961 120.54C31.185 120.717 31.4463 120.862 31.745 120.974C32.0436 121.095 32.4076 121.156 32.837 121.156C33.4996 121.156 34.0176 120.979 34.391 120.624C34.7736 120.279 34.965 119.723 34.965 118.958V118.062C34.7783 118.286 34.5076 118.501 34.153 118.706C33.8076 118.902 33.3923 119 32.907 119C32.3563 119 31.8336 118.86 31.339 118.58C30.8443 118.291 30.443 117.871 30.135 117.32C29.827 116.769 29.673 116.107 29.673 115.332C29.673 114.604 29.8223 113.955 30.121 113.386C30.429 112.817 30.8396 112.369 31.353 112.042C31.8663 111.715 32.431 111.552 33.047 111.552C33.4576 111.552 33.831 111.622 34.167 111.762C34.503 111.902 34.7923 112.075 35.035 112.28V111.72H36.183V118.832C36.183 119.635 36.043 120.288 35.763 120.792C35.483 121.296 35.091 121.665 34.587 121.898C34.0923 122.131 33.509 122.248 32.837 122.248ZM33.187 117.88C33.5603 117.88 33.8963 117.796 34.195 117.628C34.4936 117.46 34.7363 117.264 34.923 117.04V113.232C34.7176 113.083 34.4703 112.947 34.181 112.826C33.8916 112.705 33.5556 112.644 33.173 112.644C32.7903 112.644 32.431 112.747 32.095 112.952C31.759 113.157 31.4836 113.456 31.269 113.848C31.0636 114.231 30.961 114.702 30.961 115.262C30.961 115.794 31.0636 116.256 31.269 116.648C31.4836 117.04 31.759 117.343 32.095 117.558C32.431 117.773 32.795 117.88 33.187 117.88ZM38.3524 119V111.72H39.6124V119H38.3524ZM38.9824 110.474C38.7398 110.474 38.5298 110.385 38.3524 110.208C38.1844 110.031 38.1004 109.825 38.1004 109.592C38.1004 109.321 38.1798 109.107 38.3384 108.948C38.4971 108.789 38.7118 108.71 38.9824 108.71C39.2251 108.71 39.4304 108.799 39.5984 108.976C39.7758 109.144 39.8644 109.349 39.8644 109.592C39.8644 109.853 39.7851 110.068 39.6264 110.236C39.4678 110.395 39.2531 110.474 38.9824 110.474ZM44.4004 119.168C43.7004 119.168 43.1451 118.939 42.7344 118.482C42.3331 118.015 42.1324 117.353 42.1324 116.494V113.078H40.8724V111.986H42.1604L42.4264 109.69H43.3924V111.986H45.4084V113.078H43.3924V116.592C43.3924 117.133 43.5044 117.511 43.7284 117.726C43.9618 117.941 44.2371 118.048 44.5544 118.048C44.7878 118.048 45.0071 118.011 45.2124 117.936C45.4271 117.861 45.6231 117.773 45.8004 117.67L46.1504 118.678C45.9638 118.79 45.7118 118.897 45.3944 119C45.0771 119.112 44.7458 119.168 44.4004 119.168ZM50.0554 119.168C49.0101 119.168 48.1794 118.837 47.5634 118.174C46.9568 117.502 46.6534 116.564 46.6534 115.36C46.6534 114.632 46.7888 113.983 47.0594 113.414C47.3394 112.835 47.7268 112.383 48.2214 112.056C48.7161 111.72 49.2901 111.552 49.9434 111.552C50.6434 111.552 51.2221 111.706 51.6794 112.014C52.1461 112.313 52.4961 112.719 52.7294 113.232C52.9628 113.745 53.0794 114.31 53.0794 114.926C53.0794 115.253 53.0654 115.57 53.0374 115.878H47.9414C48.0254 116.559 48.2634 117.091 48.6554 117.474C49.0474 117.857 49.5654 118.048 50.2094 118.048C50.6294 118.048 51.0074 118.006 51.3434 117.922C51.6794 117.829 52.0014 117.712 52.3094 117.572L52.6034 118.65C52.2674 118.799 51.8894 118.921 51.4694 119.014C51.0494 119.117 50.5781 119.168 50.0554 119.168ZM47.9274 114.856H51.9174C51.9174 114.147 51.7401 113.601 51.3854 113.218C51.0308 112.835 50.5408 112.644 49.9154 112.644C49.3741 112.644 48.9261 112.835 48.5714 113.218C48.2168 113.591 48.0021 114.137 47.9274 114.856ZM61.3359 119.168C60.9159 119.168 60.5193 119.079 60.1459 118.902C59.7726 118.725 59.4693 118.44 59.2359 118.048C59.0026 117.647 58.8859 117.115 58.8859 116.452V111.72H60.1459V116.284C60.1459 116.853 60.2673 117.292 60.5099 117.6C60.7526 117.899 61.1073 118.048 61.5739 118.048C61.9566 118.048 62.3253 117.973 62.6799 117.824C63.0439 117.665 63.3659 117.455 63.6459 117.194V111.72H64.9059V117.11C64.9059 117.511 64.9899 117.777 65.1579 117.908C65.3353 118.029 65.5266 118.09 65.7319 118.09L65.4659 119.07C64.5979 119.07 64.0613 118.725 63.8559 118.034C63.5293 118.37 63.1513 118.645 62.7219 118.86C62.2926 119.065 61.8306 119.168 61.3359 119.168ZM67.4052 119V111.72H68.6232V112.938C68.8845 112.546 69.2158 112.219 69.6172 111.958C70.0278 111.687 70.5132 111.552 71.0732 111.552C71.8945 111.552 72.5058 111.799 72.9072 112.294C73.3178 112.789 73.5232 113.442 73.5232 114.254V119H72.2632V114.394C72.2632 113.871 72.1372 113.451 71.8852 113.134C71.6425 112.817 71.3018 112.658 70.8632 112.658C70.4338 112.658 70.0278 112.812 69.6452 113.12C69.2625 113.419 68.9358 113.773 68.6652 114.184V119H67.4052ZM78.4763 119.168C77.8696 119.168 77.319 119.014 76.8243 118.706C76.3296 118.398 75.933 117.964 75.6343 117.404C75.345 116.835 75.2003 116.167 75.2003 115.402C75.2003 114.674 75.345 114.021 75.6343 113.442C75.933 112.863 76.339 112.406 76.8523 112.07C77.375 111.725 77.9723 111.552 78.6443 111.552C79.0643 111.552 79.4423 111.627 79.7783 111.776C80.1236 111.916 80.4223 112.093 80.6743 112.308V111.72H81.8223V117.236C81.8223 117.591 81.9063 117.824 82.0743 117.936C82.2516 118.039 82.443 118.09 82.6483 118.09L82.3823 119.07C81.4863 119.07 80.945 118.706 80.7583 117.978C80.5436 118.277 80.2496 118.552 79.8763 118.804C79.5123 119.047 79.0456 119.168 78.4763 119.168ZM78.7563 118.048C79.111 118.048 79.447 117.964 79.7643 117.796C80.0816 117.619 80.3476 117.399 80.5623 117.138V113.232C80.3103 113.055 80.0303 112.915 79.7223 112.812C79.4236 112.7 79.1063 112.644 78.7703 112.644C78.3223 112.644 77.9256 112.761 77.5803 112.994C77.2443 113.218 76.9783 113.535 76.7823 113.946C76.5863 114.347 76.4883 114.819 76.4883 115.36C76.4883 115.883 76.5863 116.349 76.7823 116.76C76.9783 117.161 77.249 117.479 77.5943 117.712C77.9396 117.936 78.327 118.048 78.7563 118.048ZM91.2862 119.168C90.6889 119.168 90.1429 119.014 89.6482 118.706C89.1535 118.398 88.7615 117.964 88.4722 117.404C88.1829 116.835 88.0382 116.167 88.0382 115.402C88.0382 114.665 88.1829 114.007 88.4722 113.428C88.7709 112.849 89.1629 112.392 89.6482 112.056C90.1429 111.72 90.6842 111.552 91.2722 111.552C91.7575 111.552 92.1729 111.65 92.5182 111.846C92.8729 112.042 93.1482 112.243 93.3442 112.448V108.64H94.6042V117.236C94.6042 117.591 94.6882 117.824 94.8562 117.936C95.0335 118.039 95.2249 118.09 95.4302 118.09L95.1642 119.07C94.2775 119.07 93.7362 118.715 93.5402 118.006C93.3349 118.295 93.0455 118.561 92.6722 118.804C92.3082 119.047 91.8462 119.168 91.2862 119.168ZM91.5662 118.048C91.9115 118.048 92.2382 117.969 92.5462 117.81C92.8635 117.642 93.1295 117.427 93.3442 117.166V113.554C93.1669 113.33 92.9195 113.125 92.6022 112.938C92.2849 112.742 91.9349 112.644 91.5522 112.644C91.1042 112.644 90.7122 112.765 90.3762 113.008C90.0402 113.251 89.7789 113.577 89.5922 113.988C89.4149 114.389 89.3262 114.847 89.3262 115.36C89.3262 115.873 89.4242 116.335 89.6202 116.746C89.8162 117.147 90.0822 117.465 90.4182 117.698C90.7635 117.931 91.1462 118.048 91.5662 118.048ZM99.8894 119.168C98.8441 119.168 98.0134 118.837 97.3974 118.174C96.7908 117.502 96.4874 116.564 96.4874 115.36C96.4874 114.632 96.6228 113.983 96.8934 113.414C97.1734 112.835 97.5608 112.383 98.0554 112.056C98.5501 111.72 99.1241 111.552 99.7774 111.552C100.477 111.552 101.056 111.706 101.513 112.014C101.98 112.313 102.33 112.719 102.563 113.232C102.797 113.745 102.913 114.31 102.913 114.926C102.913 115.253 102.899 115.57 102.871 115.878H97.7754C97.8594 116.559 98.0974 117.091 98.4894 117.474C98.8814 117.857 99.3994 118.048 100.043 118.048C100.463 118.048 100.841 118.006 101.177 117.922C101.513 117.829 101.835 117.712 102.143 117.572L102.437 118.65C102.101 118.799 101.723 118.921 101.303 119.014C100.883 119.117 100.412 119.168 99.8894 119.168ZM97.7614 114.856H101.751C101.751 114.147 101.574 113.601 101.219 113.218C100.865 112.835 100.375 112.644 99.7494 112.644C99.2081 112.644 98.7601 112.835 98.4054 113.218C98.0508 113.591 97.8361 114.137 97.7614 114.856ZM106.553 119.168C106.002 119.168 105.503 119.098 105.055 118.958C104.616 118.818 104.252 118.636 103.963 118.412L104.495 117.362C104.737 117.567 105.041 117.74 105.405 117.88C105.778 118.011 106.175 118.076 106.595 118.076C107.117 118.076 107.509 117.992 107.771 117.824C108.041 117.647 108.177 117.423 108.177 117.152C108.177 116.956 108.125 116.783 108.023 116.634C107.929 116.485 107.752 116.34 107.491 116.2C107.229 116.051 106.851 115.892 106.357 115.724C105.675 115.491 105.162 115.215 104.817 114.898C104.481 114.571 104.313 114.123 104.313 113.554C104.313 112.994 104.555 112.523 105.041 112.14C105.535 111.748 106.217 111.552 107.085 111.552C107.551 111.552 107.967 111.603 108.331 111.706C108.695 111.799 109.021 111.921 109.311 112.07L108.961 113.106C108.709 112.957 108.419 112.835 108.093 112.742C107.775 112.649 107.421 112.602 107.029 112.602C106.543 112.602 106.175 112.7 105.923 112.896C105.671 113.092 105.545 113.307 105.545 113.54C105.545 113.764 105.643 113.955 105.839 114.114C106.035 114.273 106.417 114.445 106.987 114.632C107.911 114.94 108.555 115.281 108.919 115.654C109.283 116.027 109.465 116.494 109.465 117.054C109.465 117.707 109.199 118.225 108.667 118.608C108.144 118.981 107.439 119.168 106.553 119.168ZM114.081 119.168C113.391 119.168 112.784 119.009 112.261 118.692C111.748 118.365 111.351 117.917 111.071 117.348C110.791 116.769 110.651 116.107 110.651 115.36C110.651 114.66 110.791 114.021 111.071 113.442C111.361 112.863 111.771 112.406 112.303 112.07C112.835 111.725 113.461 111.552 114.179 111.552C114.59 111.552 114.949 111.589 115.257 111.664C115.575 111.739 115.878 111.846 116.167 111.986L115.789 113.05C115.528 112.919 115.276 112.826 115.033 112.77C114.8 112.705 114.539 112.672 114.249 112.672C113.596 112.672 113.045 112.91 112.597 113.386C112.159 113.853 111.939 114.501 111.939 115.332C111.939 115.836 112.033 116.293 112.219 116.704C112.406 117.115 112.663 117.441 112.989 117.684C113.325 117.927 113.717 118.048 114.165 118.048C114.52 118.048 114.823 118.011 115.075 117.936C115.327 117.852 115.598 117.735 115.887 117.586L116.279 118.65C115.99 118.809 115.663 118.935 115.299 119.028C114.945 119.121 114.539 119.168 114.081 119.168ZM117.745 119V111.72H118.963V113.302C119.084 112.994 119.248 112.709 119.453 112.448C119.658 112.177 119.915 111.963 120.223 111.804C120.531 111.636 120.89 111.552 121.301 111.552C121.441 111.552 121.581 111.561 121.721 111.58C121.861 111.589 121.978 111.608 122.071 111.636L121.693 112.938C121.516 112.863 121.306 112.826 121.063 112.826C120.718 112.826 120.386 112.924 120.069 113.12C119.761 113.316 119.504 113.619 119.299 114.03C119.103 114.441 119.005 114.963 119.005 115.598V119H117.745ZM123.337 119V111.72H124.597V119H123.337ZM123.967 110.474C123.724 110.474 123.514 110.385 123.337 110.208C123.169 110.031 123.085 109.825 123.085 109.592C123.085 109.321 123.164 109.107 123.323 108.948C123.481 108.789 123.696 108.71 123.967 108.71C124.209 108.71 124.415 108.799 124.583 108.976C124.76 109.144 124.849 109.349 124.849 109.592C124.849 109.853 124.769 110.068 124.611 110.236C124.452 110.395 124.237 110.474 123.967 110.474ZM127.103 122.08V113.582C127.103 113.265 127.023 113.041 126.865 112.91C126.715 112.77 126.519 112.7 126.277 112.7L126.543 111.72C127.401 111.72 127.938 112.061 128.153 112.742C128.246 112.602 128.395 112.439 128.601 112.252C128.815 112.065 129.077 111.902 129.385 111.762C129.702 111.622 130.061 111.552 130.463 111.552C131.023 111.552 131.545 111.701 132.031 112C132.525 112.289 132.922 112.714 133.221 113.274C133.519 113.825 133.669 114.497 133.669 115.29C133.669 116.065 133.519 116.746 133.221 117.334C132.922 117.913 132.53 118.365 132.045 118.692C131.569 119.009 131.051 119.168 130.491 119.168C130.061 119.168 129.66 119.084 129.287 118.916C128.913 118.739 128.605 118.538 128.363 118.314V122.08H127.103ZM130.239 118.048C130.873 118.048 131.387 117.801 131.779 117.306C132.18 116.802 132.381 116.144 132.381 115.332C132.381 114.772 132.278 114.291 132.073 113.89C131.877 113.489 131.611 113.181 131.275 112.966C130.948 112.751 130.584 112.644 130.183 112.644C129.781 112.644 129.417 112.747 129.091 112.952C128.773 113.148 128.531 113.363 128.363 113.596V117.18C128.605 117.432 128.885 117.642 129.203 117.81C129.52 117.969 129.865 118.048 130.239 118.048ZM138.363 119.168C137.672 119.168 137.065 119.009 136.543 118.692C136.029 118.365 135.633 117.917 135.353 117.348C135.073 116.769 134.933 116.107 134.933 115.36C134.933 114.66 135.073 114.021 135.353 113.442C135.642 112.863 136.053 112.406 136.585 112.07C137.117 111.725 137.742 111.552 138.461 111.552C138.871 111.552 139.231 111.589 139.539 111.664C139.856 111.739 140.159 111.846 140.449 111.986L140.071 113.05C139.809 112.919 139.557 112.826 139.315 112.77C139.081 112.705 138.82 112.672 138.531 112.672C137.877 112.672 137.327 112.91 136.879 113.386C136.44 113.853 136.221 114.501 136.221 115.332C136.221 115.836 136.314 116.293 136.501 116.704C136.687 117.115 136.944 117.441 137.271 117.684C137.607 117.927 137.999 118.048 138.447 118.048C138.801 118.048 139.105 118.011 139.357 117.936C139.609 117.852 139.879 117.735 140.169 117.586L140.561 118.65C140.271 118.809 139.945 118.935 139.581 119.028C139.226 119.121 138.82 119.168 138.363 119.168ZM142.026 119V111.72H143.286V119H142.026ZM142.656 110.474C142.414 110.474 142.204 110.385 142.026 110.208C141.858 110.031 141.774 109.825 141.774 109.592C141.774 109.321 141.854 109.107 142.012 108.948C142.171 108.789 142.386 108.71 142.656 108.71C142.899 108.71 143.104 108.799 143.272 108.976C143.45 109.144 143.538 109.349 143.538 109.592C143.538 109.853 143.459 110.068 143.3 110.236C143.142 110.395 142.927 110.474 142.656 110.474ZM148.592 119.168C147.902 119.168 147.281 119.009 146.73 118.692C146.18 118.365 145.746 117.917 145.428 117.348C145.12 116.769 144.966 116.107 144.966 115.36C144.966 114.576 145.125 113.899 145.442 113.33C145.76 112.761 146.194 112.322 146.744 112.014C147.295 111.706 147.911 111.552 148.592 111.552C149.274 111.552 149.885 111.706 150.426 112.014C150.977 112.322 151.411 112.761 151.728 113.33C152.055 113.89 152.218 114.557 152.218 115.332C152.218 116.107 152.06 116.783 151.742 117.362C151.425 117.931 150.991 118.375 150.44 118.692C149.899 119.009 149.283 119.168 148.592 119.168ZM148.592 118.048C149.33 118.048 149.904 117.801 150.314 117.306C150.725 116.802 150.93 116.153 150.93 115.36C150.93 114.875 150.828 114.431 150.622 114.03C150.417 113.619 150.137 113.293 149.782 113.05C149.437 112.798 149.04 112.672 148.592 112.672C147.855 112.672 147.281 112.915 146.87 113.4C146.46 113.885 146.254 114.529 146.254 115.332C146.254 115.817 146.357 116.27 146.562 116.69C146.768 117.101 147.043 117.432 147.388 117.684C147.743 117.927 148.144 118.048 148.592 118.048ZM147.402 110.95L146.968 110.096L149.614 108.346L150.202 109.522L147.402 110.95ZM153.893 119V111.72H155.111V112.938C155.373 112.546 155.704 112.219 156.105 111.958C156.516 111.687 157.001 111.552 157.561 111.552C158.383 111.552 158.994 111.799 159.395 112.294C159.806 112.789 160.011 113.442 160.011 114.254V119H158.751V114.394C158.751 113.871 158.625 113.451 158.373 113.134C158.131 112.817 157.79 112.658 157.351 112.658C156.922 112.658 156.516 112.812 156.133 113.12C155.751 113.419 155.424 113.773 155.153 114.184V119H153.893ZM169.134 119.168C168.537 119.168 167.991 119.014 167.496 118.706C167.001 118.398 166.609 117.964 166.32 117.404C166.031 116.835 165.886 116.167 165.886 115.402C165.886 114.665 166.031 114.007 166.32 113.428C166.619 112.849 167.011 112.392 167.496 112.056C167.991 111.72 168.532 111.552 169.12 111.552C169.605 111.552 170.021 111.65 170.366 111.846C170.721 112.042 170.996 112.243 171.192 112.448V108.64H172.452V117.236C172.452 117.591 172.536 117.824 172.704 117.936C172.881 118.039 173.073 118.09 173.278 118.09L173.012 119.07C172.125 119.07 171.584 118.715 171.388 118.006C171.183 118.295 170.893 118.561 170.52 118.804C170.156 119.047 169.694 119.168 169.134 119.168ZM169.414 118.048C169.759 118.048 170.086 117.969 170.394 117.81C170.711 117.642 170.977 117.427 171.192 117.166V113.554C171.015 113.33 170.767 113.125 170.45 112.938C170.133 112.742 169.783 112.644 169.4 112.644C168.952 112.644 168.56 112.765 168.224 113.008C167.888 113.251 167.627 113.577 167.44 113.988C167.263 114.389 167.174 114.847 167.174 115.36C167.174 115.873 167.272 116.335 167.468 116.746C167.664 117.147 167.93 117.465 168.266 117.698C168.611 117.931 168.994 118.048 169.414 118.048ZM177.737 119.168C176.692 119.168 175.861 118.837 175.245 118.174C174.638 117.502 174.335 116.564 174.335 115.36C174.335 114.632 174.47 113.983 174.741 113.414C175.021 112.835 175.408 112.383 175.903 112.056C176.398 111.72 176.972 111.552 177.625 111.552C178.325 111.552 178.904 111.706 179.361 112.014C179.828 112.313 180.178 112.719 180.411 113.232C180.644 113.745 180.761 114.31 180.761 114.926C180.761 115.253 180.747 115.57 180.719 115.878H175.623C175.707 116.559 175.945 117.091 176.337 117.474C176.729 117.857 177.247 118.048 177.891 118.048C178.311 118.048 178.689 118.006 179.025 117.922C179.361 117.829 179.683 117.712 179.991 117.572L180.285 118.65C179.949 118.799 179.571 118.921 179.151 119.014C178.731 119.117 178.26 119.168 177.737 119.168ZM175.609 114.856H179.599C179.599 114.147 179.422 113.601 179.067 113.218C178.712 112.835 178.222 112.644 177.597 112.644C177.056 112.644 176.608 112.835 176.253 113.218C175.898 113.591 175.684 114.137 175.609 114.856ZM184.652 119.168C184.223 119.168 183.836 119.089 183.49 118.93C183.145 118.762 182.87 118.496 182.664 118.132C182.468 117.768 182.37 117.297 182.37 116.718V108.64H183.63V116.592C183.63 117.096 183.733 117.469 183.938 117.712C184.153 117.955 184.447 118.076 184.82 118.076C184.998 118.076 185.17 118.057 185.338 118.02C185.516 117.973 185.665 117.922 185.786 117.866L186.094 118.888C185.926 118.963 185.716 119.028 185.464 119.084C185.222 119.14 184.951 119.168 184.652 119.168ZM194.025 119.168C193.325 119.168 192.77 118.939 192.359 118.482C191.958 118.015 191.757 117.353 191.757 116.494V113.078H190.497V111.986H191.785L192.051 109.69H193.017V111.986H195.033V113.078H193.017V116.592C193.017 117.133 193.129 117.511 193.353 117.726C193.587 117.941 193.862 118.048 194.179 118.048C194.413 118.048 194.632 118.011 194.837 117.936C195.052 117.861 195.248 117.773 195.425 117.67L195.775 118.678C195.589 118.79 195.337 118.897 195.019 119C194.702 119.112 194.371 119.168 194.025 119.168ZM197.042 119V111.72H198.302V119H197.042ZM197.672 110.474C197.429 110.474 197.219 110.385 197.042 110.208C196.874 110.031 196.79 109.825 196.79 109.592C196.79 109.321 196.869 109.107 197.028 108.948C197.187 108.789 197.401 108.71 197.672 108.71C197.915 108.71 198.12 108.799 198.288 108.976C198.465 109.144 198.554 109.349 198.554 109.592C198.554 109.853 198.475 110.068 198.316 110.236C198.157 110.395 197.943 110.474 197.672 110.474ZM200.808 122.08V113.582C200.808 113.265 200.729 113.041 200.57 112.91C200.421 112.77 200.225 112.7 199.982 112.7L200.248 111.72C201.107 111.72 201.643 112.061 201.858 112.742C201.951 112.602 202.101 112.439 202.306 112.252C202.521 112.065 202.782 111.902 203.09 111.762C203.407 111.622 203.767 111.552 204.168 111.552C204.728 111.552 205.251 111.701 205.736 112C206.231 112.289 206.627 112.714 206.926 113.274C207.225 113.825 207.374 114.497 207.374 115.29C207.374 116.065 207.225 116.746 206.926 117.334C206.627 117.913 206.235 118.365 205.75 118.692C205.274 119.009 204.756 119.168 204.196 119.168C203.767 119.168 203.365 119.084 202.992 118.916C202.619 118.739 202.311 118.538 202.068 118.314V122.08H200.808ZM203.944 118.048C204.579 118.048 205.092 117.801 205.484 117.306C205.885 116.802 206.086 116.144 206.086 115.332C206.086 114.772 205.983 114.291 205.778 113.89C205.582 113.489 205.316 113.181 204.98 112.966C204.653 112.751 204.289 112.644 203.888 112.644C203.487 112.644 203.123 112.747 202.796 112.952C202.479 113.148 202.236 113.363 202.068 113.596V117.18C202.311 117.432 202.591 117.642 202.908 117.81C203.225 117.969 203.571 118.048 203.944 118.048ZM212.194 119.168C211.503 119.168 210.882 119.009 210.332 118.692C209.781 118.365 209.347 117.917 209.03 117.348C208.722 116.769 208.568 116.107 208.568 115.36C208.568 114.576 208.726 113.899 209.044 113.33C209.361 112.761 209.795 112.322 210.346 112.014C210.896 111.706 211.512 111.552 212.194 111.552C212.875 111.552 213.486 111.706 214.028 112.014C214.578 112.322 215.012 112.761 215.33 113.33C215.656 113.89 215.82 114.557 215.82 115.332C215.82 116.107 215.661 116.783 215.344 117.362C215.026 117.931 214.592 118.375 214.042 118.692C213.5 119.009 212.884 119.168 212.194 119.168ZM212.194 118.048C212.931 118.048 213.505 117.801 213.916 117.306C214.326 116.802 214.532 116.153 214.532 115.36C214.532 114.875 214.429 114.431 214.224 114.03C214.018 113.619 213.738 113.293 213.384 113.05C213.038 112.798 212.642 112.672 212.194 112.672C211.456 112.672 210.882 112.915 210.472 113.4C210.061 113.885 209.856 114.529 209.856 115.332C209.856 115.817 209.958 116.27 210.164 116.69C210.369 117.101 210.644 117.432 210.99 117.684C211.344 117.927 211.746 118.048 212.194 118.048ZM224.45 119.168C223.853 119.168 223.307 119.014 222.812 118.706C222.318 118.398 221.926 117.964 221.636 117.404C221.347 116.835 221.202 116.167 221.202 115.402C221.202 114.665 221.347 114.007 221.636 113.428C221.935 112.849 222.327 112.392 222.812 112.056C223.307 111.72 223.848 111.552 224.436 111.552C224.922 111.552 225.337 111.65 225.682 111.846C226.037 112.042 226.312 112.243 226.508 112.448V108.64H227.768V117.236C227.768 117.591 227.852 117.824 228.02 117.936C228.198 118.039 228.389 118.09 228.594 118.09L228.328 119.07C227.442 119.07 226.9 118.715 226.704 118.006C226.499 118.295 226.21 118.561 225.836 118.804C225.472 119.047 225.01 119.168 224.45 119.168ZM224.73 118.048C225.076 118.048 225.402 117.969 225.71 117.81C226.028 117.642 226.294 117.427 226.508 117.166V113.554C226.331 113.33 226.084 113.125 225.766 112.938C225.449 112.742 225.099 112.644 224.716 112.644C224.268 112.644 223.876 112.765 223.54 113.008C223.204 113.251 222.943 113.577 222.756 113.988C222.579 114.389 222.49 114.847 222.49 115.36C222.49 115.873 222.588 116.335 222.784 116.746C222.98 117.147 223.246 117.465 223.582 117.698C223.928 117.931 224.31 118.048 224.73 118.048ZM233.053 119.168C232.008 119.168 231.177 118.837 230.561 118.174C229.955 117.502 229.651 116.564 229.651 115.36C229.651 114.632 229.787 113.983 230.057 113.414C230.337 112.835 230.725 112.383 231.219 112.056C231.714 111.72 232.288 111.552 232.941 111.552C233.641 111.552 234.22 111.706 234.677 112.014C235.144 112.313 235.494 112.719 235.727 113.232C235.961 113.745 236.077 114.31 236.077 114.926C236.077 115.253 236.063 115.57 236.035 115.878H230.939C231.023 116.559 231.261 117.091 231.653 117.474C232.045 117.857 232.563 118.048 233.207 118.048C233.627 118.048 234.005 118.006 234.341 117.922C234.677 117.829 234.999 117.712 235.307 117.572L235.601 118.65C235.265 118.799 234.887 118.921 234.467 119.014C234.047 119.117 233.576 119.168 233.053 119.168ZM230.925 114.856H234.915C234.915 114.147 234.738 113.601 234.383 113.218C234.029 112.835 233.539 112.644 232.913 112.644C232.372 112.644 231.924 112.835 231.569 113.218C231.215 113.591 231 114.137 230.925 114.856ZM241.954 119V111.72H243.172V112.938C243.433 112.546 243.765 112.219 244.166 111.958C244.567 111.687 245.025 111.552 245.538 111.552C246.117 111.552 246.588 111.692 246.952 111.972C247.325 112.252 247.587 112.625 247.736 113.092C248.025 112.663 248.366 112.299 248.758 112C249.159 111.701 249.654 111.552 250.242 111.552C251.035 111.552 251.623 111.804 252.006 112.308C252.398 112.803 252.594 113.451 252.594 114.254V119H251.334V114.352C251.334 113.848 251.217 113.442 250.984 113.134C250.751 112.817 250.429 112.658 250.018 112.658C249.598 112.658 249.206 112.817 248.842 113.134C248.487 113.442 248.175 113.806 247.904 114.226V119H246.644V114.352C246.644 113.848 246.527 113.442 246.294 113.134C246.061 112.817 245.739 112.658 245.328 112.658C244.917 112.658 244.53 112.812 244.166 113.12C243.802 113.419 243.485 113.773 243.214 114.184V119H241.954ZM257.551 119.168C256.944 119.168 256.393 119.014 255.899 118.706C255.404 118.398 255.007 117.964 254.709 117.404C254.419 116.835 254.275 116.167 254.275 115.402C254.275 114.674 254.419 114.021 254.709 113.442C255.007 112.863 255.413 112.406 255.927 112.07C256.449 111.725 257.047 111.552 257.719 111.552C258.139 111.552 258.517 111.627 258.853 111.776C259.198 111.916 259.497 112.093 259.749 112.308V111.72H260.897V117.236C260.897 117.591 260.981 117.824 261.149 117.936C261.326 118.039 261.517 118.09 261.723 118.09L261.457 119.07C260.561 119.07 260.019 118.706 259.833 117.978C259.618 118.277 259.324 118.552 258.951 118.804C258.587 119.047 258.12 119.168 257.551 119.168ZM257.831 118.048C258.185 118.048 258.521 117.964 258.839 117.796C259.156 117.619 259.422 117.399 259.637 117.138V113.232C259.385 113.055 259.105 112.915 258.797 112.812C258.498 112.7 258.181 112.644 257.845 112.644C257.397 112.644 257 112.761 256.655 112.994C256.319 113.218 256.053 113.535 255.857 113.946C255.661 114.347 255.563 114.819 255.563 115.36C255.563 115.883 255.661 116.349 255.857 116.76C256.053 117.161 256.323 117.479 256.669 117.712C257.014 117.936 257.401 118.048 257.831 118.048ZM263.405 119V111.72H264.623V112.938C264.884 112.546 265.216 112.219 265.617 111.958C266.028 111.687 266.513 111.552 267.073 111.552C267.894 111.552 268.506 111.799 268.907 112.294C269.318 112.789 269.523 113.442 269.523 114.254V119H268.263V114.394C268.263 113.871 268.137 113.451 267.885 113.134C267.642 112.817 267.302 112.658 266.863 112.658C266.434 112.658 266.028 112.812 265.645 113.12C265.262 113.419 264.936 113.773 264.665 114.184V119H263.405ZM274.238 119.168C273.538 119.168 272.983 118.939 272.572 118.482C272.171 118.015 271.97 117.353 271.97 116.494V113.078H270.71V111.986H271.998L272.264 109.69H273.23V111.986H275.246V113.078H273.23V116.592C273.23 117.133 273.342 117.511 273.566 117.726C273.8 117.941 274.075 118.048 274.392 118.048C274.626 118.048 274.845 118.011 275.05 117.936C275.265 117.861 275.461 117.773 275.638 117.67L275.988 118.678C275.802 118.79 275.55 118.897 275.232 119C274.915 119.112 274.584 119.168 274.238 119.168ZM279.893 119.168C278.848 119.168 278.017 118.837 277.401 118.174C276.795 117.502 276.491 116.564 276.491 115.36C276.491 114.632 276.627 113.983 276.897 113.414C277.177 112.835 277.565 112.383 278.059 112.056C278.554 111.72 279.128 111.552 279.781 111.552C280.481 111.552 281.06 111.706 281.517 112.014C281.984 112.313 282.334 112.719 282.567 113.232C282.801 113.745 282.917 114.31 282.917 114.926C282.917 115.253 282.903 115.57 282.875 115.878H277.779C277.863 116.559 278.101 117.091 278.493 117.474C278.885 117.857 279.403 118.048 280.047 118.048C280.467 118.048 280.845 118.006 281.181 117.922C281.517 117.829 281.839 117.712 282.147 117.572L282.441 118.65C282.105 118.799 281.727 118.921 281.307 119.014C280.887 119.117 280.416 119.168 279.893 119.168ZM277.765 114.856H281.755C281.755 114.147 281.578 113.601 281.223 113.218C280.869 112.835 280.379 112.644 279.753 112.644C279.212 112.644 278.764 112.835 278.409 113.218C278.055 113.591 277.84 114.137 277.765 114.856ZM284.597 119V111.72H285.815V112.938C286.076 112.546 286.407 112.219 286.809 111.958C287.219 111.687 287.705 111.552 288.265 111.552C289.086 111.552 289.697 111.799 290.099 112.294C290.509 112.789 290.715 113.442 290.715 114.254V119H289.455V114.394C289.455 113.871 289.329 113.451 289.077 113.134C288.834 112.817 288.493 112.658 288.055 112.658C287.625 112.658 287.219 112.812 286.837 113.12C286.454 113.419 286.127 113.773 285.857 114.184V119H284.597ZM292.882 119V111.72H294.142V119H292.882ZM293.512 110.474C293.269 110.474 293.059 110.385 292.882 110.208C292.714 110.031 292.63 109.825 292.63 109.592C292.63 109.321 292.709 109.107 292.868 108.948C293.026 108.789 293.241 108.71 293.512 108.71C293.754 108.71 293.96 108.799 294.128 108.976C294.305 109.144 294.394 109.349 294.394 109.592C294.394 109.853 294.314 110.068 294.156 110.236C293.997 110.395 293.782 110.474 293.512 110.474ZM296.382 119V111.72H297.6V112.938C297.861 112.546 298.192 112.219 298.594 111.958C298.995 111.687 299.452 111.552 299.966 111.552C300.544 111.552 301.016 111.692 301.38 111.972C301.753 112.252 302.014 112.625 302.164 113.092C302.453 112.663 302.794 112.299 303.186 112C303.587 111.701 304.082 111.552 304.67 111.552C305.463 111.552 306.051 111.804 306.434 112.308C306.826 112.803 307.022 113.451 307.022 114.254V119H305.762V114.352C305.762 113.848 305.645 113.442 305.412 113.134C305.178 112.817 304.856 112.658 304.446 112.658C304.026 112.658 303.634 112.817 303.27 113.134C302.915 113.442 302.602 113.806 302.332 114.226V119H301.072V114.352C301.072 113.848 300.955 113.442 300.722 113.134C300.488 112.817 300.166 112.658 299.756 112.658C299.345 112.658 298.958 112.812 298.594 113.12C298.23 113.419 297.912 113.773 297.642 114.184V119H296.382ZM309.192 119V111.72H310.452V119H309.192ZM309.822 110.474C309.58 110.474 309.37 110.385 309.192 110.208C309.024 110.031 308.94 109.825 308.94 109.592C308.94 109.321 309.02 109.107 309.178 108.948C309.337 108.789 309.552 108.71 309.822 108.71C310.065 108.71 310.27 108.799 310.438 108.976C310.616 109.144 310.704 109.349 310.704 109.592C310.704 109.853 310.625 110.068 310.466 110.236C310.308 110.395 310.093 110.474 309.822 110.474ZM315.604 119.168C314.559 119.168 313.728 118.837 313.112 118.174C312.506 117.502 312.202 116.564 312.202 115.36C312.202 114.632 312.338 113.983 312.608 113.414C312.888 112.835 313.276 112.383 313.77 112.056C314.265 111.72 314.839 111.552 315.492 111.552C316.192 111.552 316.771 111.706 317.228 112.014C317.695 112.313 318.045 112.719 318.278 113.232C318.512 113.745 318.628 114.31 318.628 114.926C318.628 115.253 318.614 115.57 318.586 115.878H313.49C313.574 116.559 313.812 117.091 314.204 117.474C314.596 117.857 315.114 118.048 315.758 118.048C316.178 118.048 316.556 118.006 316.892 117.922C317.228 117.829 317.55 117.712 317.858 117.572L318.152 118.65C317.816 118.799 317.438 118.921 317.018 119.014C316.598 119.117 316.127 119.168 315.604 119.168ZM313.476 114.856H317.466C317.466 114.147 317.289 113.601 316.934 113.218C316.58 112.835 316.09 112.644 315.464 112.644C314.923 112.644 314.475 112.835 314.12 113.218C313.766 113.591 313.551 114.137 313.476 114.856ZM320.308 119V111.72H321.526V112.938C321.787 112.546 322.118 112.219 322.52 111.958C322.93 111.687 323.416 111.552 323.976 111.552C324.797 111.552 325.408 111.799 325.81 112.294C326.22 112.789 326.426 113.442 326.426 114.254V119H325.166V114.394C325.166 113.871 325.04 113.451 324.788 113.134C324.545 112.817 324.204 112.658 323.766 112.658C323.336 112.658 322.93 112.812 322.548 113.12C322.165 113.419 321.838 113.773 321.568 114.184V119H320.308ZM331.141 119.168C330.441 119.168 329.885 118.939 329.475 118.482C329.073 118.015 328.873 117.353 328.873 116.494V113.078H327.613V111.986H328.901L329.167 109.69H330.133V111.986H332.149V113.078H330.133V116.592C330.133 117.133 330.245 117.511 330.469 117.726C330.702 117.941 330.977 118.048 331.295 118.048C331.528 118.048 331.747 118.011 331.953 117.936C332.167 117.861 332.363 117.773 332.541 117.67L332.891 118.678C332.704 118.79 332.452 118.897 332.135 119C331.817 119.112 331.486 119.168 331.141 119.168ZM336.95 119.168C336.259 119.168 335.638 119.009 335.088 118.692C334.537 118.365 334.103 117.917 333.786 117.348C333.478 116.769 333.324 116.107 333.324 115.36C333.324 114.576 333.482 113.899 333.8 113.33C334.117 112.761 334.551 112.322 335.102 112.014C335.652 111.706 336.268 111.552 336.95 111.552C337.631 111.552 338.242 111.706 338.784 112.014C339.334 112.322 339.768 112.761 340.086 113.33C340.412 113.89 340.576 114.557 340.576 115.332C340.576 116.107 340.417 116.783 340.1 117.362C339.782 117.931 339.348 118.375 338.798 118.692C338.256 119.009 337.64 119.168 336.95 119.168ZM336.95 118.048C337.687 118.048 338.261 117.801 338.672 117.306C339.082 116.802 339.288 116.153 339.288 115.36C339.288 114.875 339.185 114.431 338.98 114.03C338.774 113.619 338.494 113.293 338.14 113.05C337.794 112.798 337.398 112.672 336.95 112.672C336.212 112.672 335.638 112.915 335.228 113.4C334.817 113.885 334.612 114.529 334.612 115.332C334.612 115.817 334.714 116.27 334.92 116.69C335.125 117.101 335.4 117.432 335.746 117.684C336.1 117.927 336.502 118.048 336.95 118.048Z" fill="#5E5E5E"/>
</svg>
