<svg width="359" height="94" viewBox="0 0 359 94" fill="none" xmlns="http://www.w3.org/2000/svg">
<path d="M17.36 14V2.8H24.736V4.336H19.12V7.632H24.576V9.152H19.12V12.464H24.736V14H17.36ZM29.8814 14.176C27.9134 14.176 26.5054 13.056 26.2014 11.376H27.8174C28.0094 12.24 28.7614 12.832 29.8974 12.832C30.7614 12.832 31.3374 12.384 31.3374 11.76C31.3374 11.216 30.9054 10.864 30.2174 10.688L28.6174 10.288C27.1134 9.92 26.3454 9.12 26.3454 7.904C26.3454 6.368 27.5454 5.344 29.3214 5.344C31.1774 5.344 32.6014 6.464 32.8574 8.16H31.2254C31.0334 7.312 30.2654 6.704 29.3214 6.704C28.5054 6.704 28.0094 7.136 28.0094 7.744C28.0094 8.272 28.4254 8.64 29.1774 8.832L30.6814 9.2C32.2014 9.584 33.0014 10.4 33.0014 11.616C33.0014 13.136 31.7374 14.176 29.8814 14.176ZM37.583 14C36.239 14 35.487 13.2 35.487 12.08V7.008H33.775V5.536H35.487V3.04H37.183V5.536H39.439V7.008H37.183V11.84C37.183 12.288 37.503 12.528 38.015 12.528H39.439V14H37.583ZM40.4506 11.616C40.4506 10.096 41.4906 9.248 43.1866 9.136L45.6826 8.976V8.432C45.6826 7.472 45.0906 6.912 44.0666 6.912C43.2666 6.912 42.5626 7.168 41.8426 7.744L41.0746 6.496C41.9706 5.76 43.0426 5.36 44.3066 5.36C46.1466 5.36 47.3466 6.48 47.3466 8.224V12.016C47.3466 12.336 47.5226 12.512 47.8586 12.512H48.2746V14H47.4266C46.5306 14 45.9226 13.52 45.7786 12.768C45.2826 13.616 44.3866 14.16 43.3146 14.16C41.6666 14.16 40.4506 13.088 40.4506 11.616ZM42.0986 11.584C42.0986 12.304 42.7386 12.8 43.6506 12.8C44.7706 12.8 45.6826 12 45.6826 11.024V10.256L43.4106 10.432C42.5786 10.496 42.0986 10.88 42.0986 11.584ZM57.3889 14H55.6929V12.72C55.1489 13.648 54.2209 14.176 53.0849 14.176C51.1169 14.176 49.6609 12.672 49.6609 10.352V9.184C49.6609 6.864 51.1169 5.344 53.0849 5.344C54.2049 5.344 55.1169 5.856 55.6929 6.752V2.208H57.3889V14ZM55.6929 9.312C55.6929 7.808 54.8609 6.832 53.5169 6.832C52.1569 6.832 51.3409 7.808 51.3409 9.312V10.224C51.3409 11.728 52.1569 12.688 53.5169 12.688C54.8609 12.688 55.6929 11.728 55.6929 10.224V9.312ZM67.1046 10.288C67.1046 12.656 65.5206 14.176 63.2966 14.176C61.1046 14.176 59.5046 12.656 59.5046 10.288V9.232C59.5046 6.88 61.0886 5.344 63.2966 5.344C65.5206 5.344 67.1046 6.864 67.1046 9.232V10.288ZM65.4246 9.312C65.4246 7.808 64.6246 6.832 63.2966 6.832C61.9846 6.832 61.1846 7.808 61.1846 9.312V10.224C61.1846 11.728 61.9846 12.688 63.2966 12.688C64.6246 12.688 65.4246 11.728 65.4246 10.224V9.312Z" fill="black"/>
<rect x="16" y="24" width="327" height="42" rx="8" fill="#E8E8E8"/>
<path d="M17.26 89V79.2H23.14V80.348H18.59V83.33H22.51V84.45H18.59V87.852H23.14V89H17.26ZM26.7089 89.168C26.1582 89.168 25.6589 89.098 25.2109 88.958C24.7722 88.818 24.4082 88.636 24.1189 88.412L24.6509 87.362C24.8936 87.5673 25.1969 87.74 25.5609 87.88C25.9342 88.0107 26.3309 88.076 26.7509 88.076C27.2736 88.076 27.6656 87.992 27.9269 87.824C28.1976 87.6467 28.3329 87.4227 28.3329 87.152C28.3329 86.956 28.2816 86.7833 28.1789 86.634C28.0856 86.4847 27.9082 86.34 27.6469 86.2C27.3856 86.0507 27.0076 85.892 26.5129 85.724C25.8316 85.4907 25.3182 85.2153 24.9729 84.898C24.6369 84.5713 24.4689 84.1233 24.4689 83.554C24.4689 82.994 24.7116 82.5227 25.1969 82.14C25.6916 81.748 26.3729 81.552 27.2409 81.552C27.7076 81.552 28.1229 81.6033 28.4869 81.706C28.8509 81.7993 29.1776 81.9207 29.4669 82.07L29.1169 83.106C28.8649 82.9567 28.5756 82.8353 28.2489 82.742C27.9316 82.6487 27.5769 82.602 27.1849 82.602C26.6996 82.602 26.3309 82.7 26.0789 82.896C25.8269 83.092 25.7009 83.3067 25.7009 83.54C25.7009 83.764 25.7989 83.9553 25.9949 84.114C26.1909 84.2727 26.5736 84.4453 27.1429 84.632C28.0669 84.94 28.7109 85.2807 29.0749 85.654C29.4389 86.0273 29.6209 86.494 29.6209 87.054C29.6209 87.7073 29.3549 88.2253 28.8229 88.608C28.3002 88.9813 27.5956 89.168 26.7089 89.168ZM34.2377 89.168C33.5471 89.168 32.9404 89.0093 32.4177 88.692C31.9044 88.3653 31.5077 87.9173 31.2277 87.348C30.9477 86.7693 30.8077 86.1067 30.8077 85.36C30.8077 84.66 30.9477 84.0207 31.2277 83.442C31.5171 82.8633 31.9277 82.406 32.4597 82.07C32.9917 81.7247 33.6171 81.552 34.3357 81.552C34.7464 81.552 35.1057 81.5893 35.4137 81.664C35.7311 81.7387 36.0344 81.846 36.3237 81.986L35.9457 83.05C35.6844 82.9193 35.4324 82.826 35.1897 82.77C34.9564 82.7047 34.6951 82.672 34.4057 82.672C33.7524 82.672 33.2017 82.91 32.7537 83.386C32.3151 83.8527 32.0957 84.5013 32.0957 85.332C32.0957 85.836 32.1891 86.2933 32.3757 86.704C32.5624 87.1147 32.8191 87.4413 33.1457 87.684C33.4817 87.9267 33.8737 88.048 34.3217 88.048C34.6764 88.048 34.9797 88.0107 35.2317 87.936C35.4837 87.852 35.7544 87.7353 36.0437 87.586L36.4357 88.65C36.1464 88.8087 35.8197 88.9347 35.4557 89.028C35.1011 89.1213 34.6951 89.168 34.2377 89.168ZM40.8305 89.168C40.1399 89.168 39.5192 89.0093 38.9685 88.692C38.4179 88.3653 37.9839 87.9173 37.6665 87.348C37.3585 86.7693 37.2045 86.1067 37.2045 85.36C37.2045 84.576 37.3632 83.8993 37.6805 83.33C37.9979 82.7607 38.4319 82.322 38.9825 82.014C39.5332 81.706 40.1492 81.552 40.8305 81.552C41.5119 81.552 42.1232 81.706 42.6645 82.014C43.2152 82.322 43.6492 82.7607 43.9665 83.33C44.2932 83.89 44.4565 84.5573 44.4565 85.332C44.4565 86.1067 44.2979 86.7833 43.9805 87.362C43.6632 87.9313 43.2292 88.3747 42.6785 88.692C42.1372 89.0093 41.5212 89.168 40.8305 89.168ZM40.8305 88.048C41.5679 88.048 42.1419 87.8007 42.5525 87.306C42.9632 86.802 43.1685 86.1533 43.1685 85.36C43.1685 84.8747 43.0659 84.4313 42.8605 84.03C42.6552 83.6193 42.3752 83.2927 42.0205 83.05C41.6752 82.798 41.2785 82.672 40.8305 82.672C40.0932 82.672 39.5192 82.9147 39.1085 83.4C38.6979 83.8853 38.4925 84.5293 38.4925 85.332C38.4925 85.8173 38.5952 86.27 38.8005 86.69C39.0059 87.1007 39.2812 87.432 39.6265 87.684C39.9812 87.9267 40.3825 88.048 40.8305 88.048ZM48.8057 92.248C48.3764 92.248 47.9564 92.1967 47.5457 92.094C47.1444 91.9913 46.7851 91.8373 46.4677 91.632L46.9297 90.54C47.1537 90.7173 47.4151 90.862 47.7137 90.974C48.0124 91.0953 48.3764 91.156 48.8057 91.156C49.4684 91.156 49.9864 90.9787 50.3597 90.624C50.7424 90.2787 50.9337 89.7233 50.9337 88.958V88.062C50.7471 88.286 50.4764 88.5007 50.1217 88.706C49.7764 88.902 49.3611 89 48.8757 89C48.3251 89 47.8024 88.86 47.3077 88.58C46.8131 88.2907 46.4117 87.8707 46.1037 87.32C45.7957 86.7693 45.6417 86.1067 45.6417 85.332C45.6417 84.604 45.7911 83.9553 46.0897 83.386C46.3977 82.8167 46.8084 82.3687 47.3217 82.042C47.8351 81.7153 48.3997 81.552 49.0157 81.552C49.4264 81.552 49.7997 81.622 50.1357 81.762C50.4717 81.902 50.7611 82.0747 51.0037 82.28V81.72H52.1517V88.832C52.1517 89.6347 52.0117 90.288 51.7317 90.792C51.4517 91.296 51.0597 91.6647 50.5557 91.898C50.0611 92.1313 49.4777 92.248 48.8057 92.248ZM49.1557 87.88C49.5291 87.88 49.8651 87.796 50.1637 87.628C50.4624 87.46 50.7051 87.264 50.8917 87.04V83.232C50.6864 83.0827 50.4391 82.9473 50.1497 82.826C49.8604 82.7047 49.5244 82.644 49.1417 82.644C48.7591 82.644 48.3997 82.7467 48.0637 82.952C47.7277 83.1573 47.4524 83.456 47.2377 83.848C47.0324 84.2307 46.9297 84.702 46.9297 85.262C46.9297 85.794 47.0324 86.256 47.2377 86.648C47.4524 87.04 47.7277 87.3433 48.0637 87.558C48.3997 87.7727 48.7637 87.88 49.1557 87.88ZM57.2332 89.168C56.1878 89.168 55.3572 88.8367 54.7412 88.174C54.1345 87.502 53.8312 86.564 53.8312 85.36C53.8312 84.632 53.9665 83.9833 54.2372 83.414C54.5172 82.8353 54.9045 82.3827 55.3992 82.056C55.8938 81.72 56.4678 81.552 57.1212 81.552C57.8212 81.552 58.3998 81.706 58.8572 82.014C59.3238 82.3127 59.6738 82.7187 59.9072 83.232C60.1405 83.7453 60.2572 84.31 60.2572 84.926C60.2572 85.2527 60.2432 85.57 60.2152 85.878H55.1192C55.2032 86.5593 55.4412 87.0913 55.8332 87.474C56.2252 87.8567 56.7432 88.048 57.3872 88.048C57.8072 88.048 58.1852 88.006 58.5212 87.922C58.8572 87.8287 59.1792 87.712 59.4872 87.572L59.7812 88.65C59.4452 88.7993 59.0672 88.9207 58.6472 89.014C58.2272 89.1167 57.7558 89.168 57.2332 89.168ZM55.1052 84.856H59.0952C59.0952 84.1467 58.9178 83.6007 58.5632 83.218C58.2085 82.8353 57.7185 82.644 57.0932 82.644C56.5518 82.644 56.1038 82.8353 55.7492 83.218C55.3945 83.5913 55.1798 84.1373 55.1052 84.856ZM69.0457 89.168C68.0003 89.168 67.1697 88.8367 66.5537 88.174C65.947 87.502 65.6437 86.564 65.6437 85.36C65.6437 84.632 65.779 83.9833 66.0497 83.414C66.3297 82.8353 66.717 82.3827 67.2117 82.056C67.7063 81.72 68.2803 81.552 68.9337 81.552C69.6337 81.552 70.2123 81.706 70.6697 82.014C71.1363 82.3127 71.4863 82.7187 71.7197 83.232C71.953 83.7453 72.0697 84.31 72.0697 84.926C72.0697 85.2527 72.0557 85.57 72.0277 85.878H66.9317C67.0157 86.5593 67.2537 87.0913 67.6457 87.474C68.0377 87.8567 68.5557 88.048 69.1997 88.048C69.6197 88.048 69.9977 88.006 70.3337 87.922C70.6697 87.8287 70.9917 87.712 71.2997 87.572L71.5937 88.65C71.2577 88.7993 70.8797 88.9207 70.4597 89.014C70.0397 89.1167 69.5683 89.168 69.0457 89.168ZM66.9177 84.856H70.9077C70.9077 84.1467 70.7303 83.6007 70.3757 83.218C70.021 82.8353 69.531 82.644 68.9057 82.644C68.3643 82.644 67.9163 82.8353 67.5617 83.218C67.207 83.5913 66.9923 84.1373 66.9177 84.856ZM75.9609 89.168C75.5316 89.168 75.1442 89.0887 74.7989 88.93C74.4536 88.762 74.1782 88.496 73.9729 88.132C73.7769 87.768 73.6789 87.2967 73.6789 86.718V78.64H74.9389V86.592C74.9389 87.096 75.0416 87.4693 75.2469 87.712C75.4616 87.9547 75.7556 88.076 76.1289 88.076C76.3062 88.076 76.4789 88.0573 76.6469 88.02C76.8242 87.9733 76.9736 87.922 77.0949 87.866L77.4029 88.888C77.2349 88.9627 77.0249 89.028 76.7729 89.084C76.5302 89.14 76.2596 89.168 75.9609 89.168ZM85.698 89.168C84.6527 89.168 83.822 88.8367 83.206 88.174C82.5993 87.502 82.296 86.564 82.296 85.36C82.296 84.632 82.4313 83.9833 82.702 83.414C82.982 82.8353 83.3693 82.3827 83.864 82.056C84.3587 81.72 84.9327 81.552 85.586 81.552C86.286 81.552 86.8647 81.706 87.322 82.014C87.7887 82.3127 88.1387 82.7187 88.372 83.232C88.6053 83.7453 88.722 84.31 88.722 84.926C88.722 85.2527 88.708 85.57 88.68 85.878H83.584C83.668 86.5593 83.906 87.0913 84.298 87.474C84.69 87.8567 85.208 88.048 85.852 88.048C86.272 88.048 86.65 88.006 86.986 87.922C87.322 87.8287 87.644 87.712 87.952 87.572L88.246 88.65C87.91 88.7993 87.532 88.9207 87.112 89.014C86.692 89.1167 86.2207 89.168 85.698 89.168ZM83.57 84.856H87.56C87.56 84.1467 87.3827 83.6007 87.028 83.218C86.6733 82.8353 86.1833 82.644 85.558 82.644C85.0167 82.644 84.5687 82.8353 84.214 83.218C83.8593 83.5913 83.6447 84.1373 83.57 84.856ZM92.3613 89.168C91.8106 89.168 91.3113 89.098 90.8633 88.958C90.4246 88.818 90.0606 88.636 89.7713 88.412L90.3033 87.362C90.5459 87.5673 90.8493 87.74 91.2133 87.88C91.5866 88.0107 91.9833 88.076 92.4033 88.076C92.9259 88.076 93.3179 87.992 93.5793 87.824C93.8499 87.6467 93.9853 87.4227 93.9853 87.152C93.9853 86.956 93.9339 86.7833 93.8313 86.634C93.7379 86.4847 93.5606 86.34 93.2993 86.2C93.0379 86.0507 92.6599 85.892 92.1653 85.724C91.4839 85.4907 90.9706 85.2153 90.6253 84.898C90.2893 84.5713 90.1213 84.1233 90.1213 83.554C90.1213 82.994 90.3639 82.5227 90.8493 82.14C91.3439 81.748 92.0253 81.552 92.8933 81.552C93.3599 81.552 93.7753 81.6033 94.1393 81.706C94.5033 81.7993 94.8299 81.9207 95.1193 82.07L94.7693 83.106C94.5173 82.9567 94.2279 82.8353 93.9013 82.742C93.5839 82.6487 93.2293 82.602 92.8373 82.602C92.3519 82.602 91.9833 82.7 91.7313 82.896C91.4793 83.092 91.3533 83.3067 91.3533 83.54C91.3533 83.764 91.4513 83.9553 91.6473 84.114C91.8433 84.2727 92.2259 84.4453 92.7953 84.632C93.7193 84.94 94.3633 85.2807 94.7273 85.654C95.0913 86.0273 95.2733 86.494 95.2733 87.054C95.2733 87.7073 95.0073 88.2253 94.4753 88.608C93.9526 88.9813 93.2479 89.168 92.3613 89.168ZM99.4981 89.168C98.7981 89.168 98.2427 88.9393 97.8321 88.482C97.4307 88.0153 97.2301 87.3527 97.2301 86.494V83.078H95.9701V81.986H97.2581L97.5241 79.69H98.4901V81.986H100.506V83.078H98.4901V86.592C98.4901 87.1333 98.6021 87.5113 98.8261 87.726C99.0594 87.9407 99.3347 88.048 99.6521 88.048C99.8854 88.048 100.105 88.0107 100.31 87.936C100.525 87.8613 100.721 87.7727 100.898 87.67L101.248 88.678C101.061 88.79 100.809 88.8973 100.492 89C100.175 89.112 99.8434 89.168 99.4981 89.168ZM105.027 89.168C104.42 89.168 103.87 89.014 103.375 88.706C102.88 88.398 102.484 87.964 102.185 87.404C101.896 86.8347 101.751 86.1673 101.751 85.402C101.751 84.674 101.896 84.0207 102.185 83.442C102.484 82.8633 102.89 82.406 103.403 82.07C103.926 81.7247 104.523 81.552 105.195 81.552C105.615 81.552 105.993 81.6267 106.329 81.776C106.674 81.916 106.973 82.0933 107.225 82.308V81.72H108.373V87.236C108.373 87.5907 108.457 87.824 108.625 87.936C108.802 88.0387 108.994 88.09 109.199 88.09L108.933 89.07C108.037 89.07 107.496 88.706 107.309 87.978C107.094 88.2767 106.8 88.552 106.427 88.804C106.063 89.0467 105.596 89.168 105.027 89.168ZM105.307 88.048C105.662 88.048 105.998 87.964 106.315 87.796C106.632 87.6187 106.898 87.3993 107.113 87.138V83.232C106.861 83.0547 106.581 82.9147 106.273 82.812C105.974 82.7 105.657 82.644 105.321 82.644C104.873 82.644 104.476 82.7607 104.131 82.994C103.795 83.218 103.529 83.5353 103.333 83.946C103.137 84.3473 103.039 84.8187 103.039 85.36C103.039 85.8827 103.137 86.3493 103.333 86.76C103.529 87.1613 103.8 87.4787 104.145 87.712C104.49 87.936 104.878 88.048 105.307 88.048ZM113.503 89.168C112.906 89.168 112.36 89.014 111.865 88.706C111.37 88.398 110.978 87.964 110.689 87.404C110.4 86.8347 110.255 86.1673 110.255 85.402C110.255 84.6647 110.4 84.0067 110.689 83.428C110.988 82.8493 111.38 82.392 111.865 82.056C112.36 81.72 112.901 81.552 113.489 81.552C113.974 81.552 114.39 81.65 114.735 81.846C115.09 82.042 115.365 82.2427 115.561 82.448V78.64H116.821V87.236C116.821 87.5907 116.905 87.824 117.073 87.936C117.25 88.0387 117.442 88.09 117.647 88.09L117.381 89.07C116.494 89.07 115.953 88.7153 115.757 88.006C115.552 88.2953 115.262 88.5613 114.889 88.804C114.525 89.0467 114.063 89.168 113.503 89.168ZM113.783 88.048C114.128 88.048 114.455 87.9687 114.763 87.81C115.08 87.642 115.346 87.4273 115.561 87.166V83.554C115.384 83.33 115.136 83.1247 114.819 82.938C114.502 82.742 114.152 82.644 113.769 82.644C113.321 82.644 112.929 82.7653 112.593 83.008C112.257 83.2507 111.996 83.5773 111.809 83.988C111.632 84.3893 111.543 84.8467 111.543 85.36C111.543 85.8733 111.641 86.3353 111.837 86.746C112.033 87.1473 112.299 87.4647 112.635 87.698C112.98 87.9313 113.363 88.048 113.783 88.048ZM122.26 89.168C121.57 89.168 120.949 89.0093 120.398 88.692C119.848 88.3653 119.414 87.9173 119.096 87.348C118.788 86.7693 118.634 86.1067 118.634 85.36C118.634 84.576 118.793 83.8993 119.11 83.33C119.428 82.7607 119.862 82.322 120.412 82.014C120.963 81.706 121.579 81.552 122.26 81.552C122.942 81.552 123.553 81.706 124.094 82.014C124.645 82.322 125.079 82.7607 125.396 83.33C125.723 83.89 125.886 84.5573 125.886 85.332C125.886 86.1067 125.728 86.7833 125.41 87.362C125.093 87.9313 124.659 88.3747 124.108 88.692C123.567 89.0093 122.951 89.168 122.26 89.168ZM122.26 88.048C122.998 88.048 123.572 87.8007 123.982 87.306C124.393 86.802 124.598 86.1533 124.598 85.36C124.598 84.8747 124.496 84.4313 124.29 84.03C124.085 83.6193 123.805 83.2927 123.45 83.05C123.105 82.798 122.708 82.672 122.26 82.672C121.523 82.672 120.949 82.9147 120.538 83.4C120.128 83.8853 119.922 84.5293 119.922 85.332C119.922 85.8173 120.025 86.27 120.23 86.69C120.436 87.1007 120.711 87.432 121.056 87.684C121.411 87.9267 121.812 88.048 122.26 88.048ZM134.517 89.168C133.919 89.168 133.373 89.014 132.879 88.706C132.384 88.398 131.992 87.964 131.703 87.404C131.413 86.8347 131.269 86.1673 131.269 85.402C131.269 84.6647 131.413 84.0067 131.703 83.428C132.001 82.8493 132.393 82.392 132.879 82.056C133.373 81.72 133.915 81.552 134.503 81.552C134.988 81.552 135.403 81.65 135.749 81.846C136.103 82.042 136.379 82.2427 136.575 82.448V78.64H137.835V87.236C137.835 87.5907 137.919 87.824 138.087 87.936C138.264 88.0387 138.455 88.09 138.661 88.09L138.395 89.07C137.508 89.07 136.967 88.7153 136.771 88.006C136.565 88.2953 136.276 88.5613 135.903 88.804C135.539 89.0467 135.077 89.168 134.517 89.168ZM134.797 88.048C135.142 88.048 135.469 87.9687 135.777 87.81C136.094 87.642 136.36 87.4273 136.575 87.166V83.554C136.397 83.33 136.15 83.1247 135.833 82.938C135.515 82.742 135.165 82.644 134.783 82.644C134.335 82.644 133.943 82.7653 133.607 83.008C133.271 83.2507 133.009 83.5773 132.823 83.988C132.645 84.3893 132.557 84.8467 132.557 85.36C132.557 85.8733 132.655 86.3353 132.851 86.746C133.047 87.1473 133.313 87.4647 133.649 87.698C133.994 87.9313 134.377 88.048 134.797 88.048ZM143.12 89.168C142.075 89.168 141.244 88.8367 140.628 88.174C140.021 87.502 139.718 86.564 139.718 85.36C139.718 84.632 139.853 83.9833 140.124 83.414C140.404 82.8353 140.791 82.3827 141.286 82.056C141.781 81.72 142.355 81.552 143.008 81.552C143.708 81.552 144.287 81.706 144.744 82.014C145.211 82.3127 145.561 82.7187 145.794 83.232C146.027 83.7453 146.144 84.31 146.144 84.926C146.144 85.2527 146.13 85.57 146.102 85.878H141.006C141.09 86.5593 141.328 87.0913 141.72 87.474C142.112 87.8567 142.63 88.048 143.274 88.048C143.694 88.048 144.072 88.006 144.408 87.922C144.744 87.8287 145.066 87.712 145.374 87.572L145.668 88.65C145.332 88.7993 144.954 88.9207 144.534 89.014C144.114 89.1167 143.643 89.168 143.12 89.168ZM140.992 84.856H144.982C144.982 84.1467 144.805 83.6007 144.45 83.218C144.095 82.8353 143.605 82.644 142.98 82.644C142.439 82.644 141.991 82.8353 141.636 83.218C141.281 83.5913 141.067 84.1373 140.992 84.856ZM150.035 89.168C149.606 89.168 149.218 89.0887 148.873 88.93C148.528 88.762 148.252 88.496 148.047 88.132C147.851 87.768 147.753 87.2967 147.753 86.718V78.64H149.013V86.592C149.013 87.096 149.116 87.4693 149.321 87.712C149.536 87.9547 149.83 88.076 150.203 88.076C150.38 88.076 150.553 88.0573 150.721 88.02C150.898 87.9733 151.048 87.922 151.169 87.866L151.477 88.888C151.309 88.9627 151.099 89.028 150.847 89.084C150.604 89.14 150.334 89.168 150.035 89.168ZM159.408 89.168C158.708 89.168 158.153 88.9393 157.742 88.482C157.341 88.0153 157.14 87.3527 157.14 86.494V83.078H155.88V81.986H157.168L157.434 79.69H158.4V81.986H160.416V83.078H158.4V86.592C158.4 87.1333 158.512 87.5113 158.736 87.726C158.97 87.9407 159.245 88.048 159.562 88.048C159.796 88.048 160.015 88.0107 160.22 87.936C160.435 87.8613 160.631 87.7727 160.808 87.67L161.158 88.678C160.972 88.79 160.72 88.8973 160.402 89C160.085 89.112 159.754 89.168 159.408 89.168ZM162.425 89V81.72H163.685V89H162.425ZM163.055 80.474C162.812 80.474 162.602 80.3853 162.425 80.208C162.257 80.0307 162.173 79.8253 162.173 79.592C162.173 79.3213 162.252 79.1067 162.411 78.948C162.569 78.7893 162.784 78.71 163.055 78.71C163.297 78.71 163.503 78.7987 163.671 78.976C163.848 79.144 163.937 79.3493 163.937 79.592C163.937 79.8533 163.857 80.068 163.699 80.236C163.54 80.3947 163.325 80.474 163.055 80.474ZM166.191 92.08V83.582C166.191 83.2647 166.111 83.0407 165.953 82.91C165.803 82.77 165.607 82.7 165.365 82.7L165.631 81.72C166.489 81.72 167.026 82.0607 167.241 82.742C167.334 82.602 167.483 82.4387 167.689 82.252C167.903 82.0653 168.165 81.902 168.473 81.762C168.79 81.622 169.149 81.552 169.551 81.552C170.111 81.552 170.633 81.7013 171.119 82C171.613 82.2893 172.01 82.714 172.309 83.274C172.607 83.8247 172.757 84.4967 172.757 85.29C172.757 86.0647 172.607 86.746 172.309 87.334C172.01 87.9127 171.618 88.3653 171.133 88.692C170.657 89.0093 170.139 89.168 169.579 89.168C169.149 89.168 168.748 89.084 168.375 88.916C168.001 88.7387 167.693 88.538 167.451 88.314V92.08H166.191ZM169.327 88.048C169.961 88.048 170.475 87.8007 170.867 87.306C171.268 86.802 171.469 86.144 171.469 85.332C171.469 84.772 171.366 84.2913 171.161 83.89C170.965 83.4887 170.699 83.1807 170.363 82.966C170.036 82.7513 169.672 82.644 169.271 82.644C168.869 82.644 168.505 82.7467 168.179 82.952C167.861 83.148 167.619 83.3627 167.451 83.596V87.18C167.693 87.432 167.973 87.642 168.291 87.81C168.608 87.9687 168.953 88.048 169.327 88.048ZM177.577 89.168C176.886 89.168 176.265 89.0093 175.715 88.692C175.164 88.3653 174.73 87.9173 174.413 87.348C174.105 86.7693 173.951 86.1067 173.951 85.36C173.951 84.576 174.109 83.8993 174.427 83.33C174.744 82.7607 175.178 82.322 175.729 82.014C176.279 81.706 176.895 81.552 177.577 81.552C178.258 81.552 178.869 81.706 179.411 82.014C179.961 82.322 180.395 82.7607 180.713 83.33C181.039 83.89 181.203 84.5573 181.203 85.332C181.203 86.1067 181.044 86.7833 180.727 87.362C180.409 87.9313 179.975 88.3747 179.425 88.692C178.883 89.0093 178.267 89.168 177.577 89.168ZM177.577 88.048C178.314 88.048 178.888 87.8007 179.299 87.306C179.709 86.802 179.915 86.1533 179.915 85.36C179.915 84.8747 179.812 84.4313 179.607 84.03C179.401 83.6193 179.121 83.2927 178.767 83.05C178.421 82.798 178.025 82.672 177.577 82.672C176.839 82.672 176.265 82.9147 175.855 83.4C175.444 83.8853 175.239 84.5293 175.239 85.332C175.239 85.8173 175.341 86.27 175.547 86.69C175.752 87.1007 176.027 87.432 176.373 87.684C176.727 87.9267 177.129 88.048 177.577 88.048ZM189.833 89.168C189.236 89.168 188.69 89.014 188.195 88.706C187.7 88.398 187.308 87.964 187.019 87.404C186.73 86.8347 186.585 86.1673 186.585 85.402C186.585 84.6647 186.73 84.0067 187.019 83.428C187.318 82.8493 187.71 82.392 188.195 82.056C188.69 81.72 189.231 81.552 189.819 81.552C190.304 81.552 190.72 81.65 191.065 81.846C191.42 82.042 191.695 82.2427 191.891 82.448V78.64H193.151V87.236C193.151 87.5907 193.235 87.824 193.403 87.936C193.58 88.0387 193.772 88.09 193.977 88.09L193.711 89.07C192.824 89.07 192.283 88.7153 192.087 88.006C191.882 88.2953 191.592 88.5613 191.219 88.804C190.855 89.0467 190.393 89.168 189.833 89.168ZM190.113 88.048C190.458 88.048 190.785 87.9687 191.093 87.81C191.41 87.642 191.676 87.4273 191.891 87.166V83.554C191.714 83.33 191.466 83.1247 191.149 82.938C190.832 82.742 190.482 82.644 190.099 82.644C189.651 82.644 189.259 82.7653 188.923 83.008C188.587 83.2507 188.326 83.5773 188.139 83.988C187.962 84.3893 187.873 84.8467 187.873 85.36C187.873 85.8733 187.971 86.3353 188.167 86.746C188.363 87.1473 188.629 87.4647 188.965 87.698C189.31 87.9313 189.693 88.048 190.113 88.048ZM198.436 89.168C197.391 89.168 196.56 88.8367 195.944 88.174C195.338 87.502 195.034 86.564 195.034 85.36C195.034 84.632 195.17 83.9833 195.44 83.414C195.72 82.8353 196.108 82.3827 196.602 82.056C197.097 81.72 197.671 81.552 198.324 81.552C199.024 81.552 199.603 81.706 200.06 82.014C200.527 82.3127 200.877 82.7187 201.11 83.232C201.344 83.7453 201.46 84.31 201.46 84.926C201.46 85.2527 201.446 85.57 201.418 85.878H196.322C196.406 86.5593 196.644 87.0913 197.036 87.474C197.428 87.8567 197.946 88.048 198.59 88.048C199.01 88.048 199.388 88.006 199.724 87.922C200.06 87.8287 200.382 87.712 200.69 87.572L200.984 88.65C200.648 88.7993 200.27 88.9207 199.85 89.014C199.43 89.1167 198.959 89.168 198.436 89.168ZM196.308 84.856H200.298C200.298 84.1467 200.121 83.6007 199.766 83.218C199.412 82.8353 198.922 82.644 198.296 82.644C197.755 82.644 197.307 82.8353 196.952 83.218C196.598 83.5913 196.383 84.1373 196.308 84.856ZM207.337 89V81.72H208.555V82.938C208.816 82.546 209.147 82.2193 209.549 81.958C209.95 81.6873 210.407 81.552 210.921 81.552C211.499 81.552 211.971 81.692 212.335 81.972C212.708 82.252 212.969 82.6253 213.119 83.092C213.408 82.6627 213.749 82.2987 214.141 82C214.542 81.7013 215.037 81.552 215.625 81.552C216.418 81.552 217.006 81.804 217.389 82.308C217.781 82.8027 217.977 83.4513 217.977 84.254V89H216.717V84.352C216.717 83.848 216.6 83.442 216.367 83.134C216.133 82.8167 215.811 82.658 215.401 82.658C214.981 82.658 214.589 82.8167 214.225 83.134C213.87 83.442 213.557 83.806 213.287 84.226V89H212.027V84.352C212.027 83.848 211.91 83.442 211.677 83.134C211.443 82.8167 211.121 82.658 210.711 82.658C210.3 82.658 209.913 82.812 209.549 83.12C209.185 83.4187 208.867 83.7733 208.597 84.184V89H207.337ZM222.933 89.168C222.327 89.168 221.776 89.014 221.281 88.706C220.787 88.398 220.39 87.964 220.091 87.404C219.802 86.8347 219.657 86.1673 219.657 85.402C219.657 84.674 219.802 84.0207 220.091 83.442C220.39 82.8633 220.796 82.406 221.309 82.07C221.832 81.7247 222.429 81.552 223.101 81.552C223.521 81.552 223.899 81.6267 224.235 81.776C224.581 81.916 224.879 82.0933 225.131 82.308V81.72H226.279V87.236C226.279 87.5907 226.363 87.824 226.531 87.936C226.709 88.0387 226.9 88.09 227.105 88.09L226.839 89.07C225.943 89.07 225.402 88.706 225.215 87.978C225.001 88.2767 224.707 88.552 224.333 88.804C223.969 89.0467 223.503 89.168 222.933 89.168ZM223.213 88.048C223.568 88.048 223.904 87.964 224.221 87.796C224.539 87.6187 224.805 87.3993 225.019 87.138V83.232C224.767 83.0547 224.487 82.9147 224.179 82.812C223.881 82.7 223.563 82.644 223.227 82.644C222.779 82.644 222.383 82.7607 222.037 82.994C221.701 83.218 221.435 83.5353 221.239 83.946C221.043 84.3473 220.945 84.8187 220.945 85.36C220.945 85.8827 221.043 86.3493 221.239 86.76C221.435 87.1613 221.706 87.4787 222.051 87.712C222.397 87.936 222.784 88.048 223.213 88.048ZM228.788 89V81.72H230.006V82.938C230.267 82.546 230.599 82.2193 231 81.958C231.411 81.6873 231.896 81.552 232.456 81.552C233.277 81.552 233.889 81.7993 234.29 82.294C234.701 82.7887 234.906 83.442 234.906 84.254V89H233.646V84.394C233.646 83.8713 233.52 83.4513 233.268 83.134C233.025 82.8167 232.685 82.658 232.246 82.658C231.817 82.658 231.411 82.812 231.028 83.12C230.645 83.4187 230.319 83.7733 230.048 84.184V89H228.788ZM239.621 89.168C238.921 89.168 238.366 88.9393 237.955 88.482C237.554 88.0153 237.353 87.3527 237.353 86.494V83.078H236.093V81.986H237.381L237.647 79.69H238.613V81.986H240.629V83.078H238.613V86.592C238.613 87.1333 238.725 87.5113 238.949 87.726C239.182 87.9407 239.458 88.048 239.775 88.048C240.008 88.048 240.228 88.0107 240.433 87.936C240.648 87.8613 240.844 87.7727 241.021 87.67L241.371 88.678C241.184 88.79 240.932 88.8973 240.615 89C240.298 89.112 239.966 89.168 239.621 89.168ZM245.276 89.168C244.231 89.168 243.4 88.8367 242.784 88.174C242.177 87.502 241.874 86.564 241.874 85.36C241.874 84.632 242.009 83.9833 242.28 83.414C242.56 82.8353 242.947 82.3827 243.442 82.056C243.937 81.72 244.511 81.552 245.164 81.552C245.864 81.552 246.443 81.706 246.9 82.014C247.367 82.3127 247.717 82.7187 247.95 83.232C248.183 83.7453 248.3 84.31 248.3 84.926C248.3 85.2527 248.286 85.57 248.258 85.878H243.162C243.246 86.5593 243.484 87.0913 243.876 87.474C244.268 87.8567 244.786 88.048 245.43 88.048C245.85 88.048 246.228 88.006 246.564 87.922C246.9 87.8287 247.222 87.712 247.53 87.572L247.824 88.65C247.488 88.7993 247.11 88.9207 246.69 89.014C246.27 89.1167 245.799 89.168 245.276 89.168ZM243.148 84.856H247.138C247.138 84.1467 246.961 83.6007 246.606 83.218C246.251 82.8353 245.761 82.644 245.136 82.644C244.595 82.644 244.147 82.8353 243.792 83.218C243.437 83.5913 243.223 84.1373 243.148 84.856ZM249.979 89V81.72H251.197V82.938C251.459 82.546 251.79 82.2193 252.191 81.958C252.602 81.6873 253.087 81.552 253.647 81.552C254.469 81.552 255.08 81.7993 255.481 82.294C255.892 82.7887 256.097 83.442 256.097 84.254V89H254.837V84.394C254.837 83.8713 254.711 83.4513 254.459 83.134C254.217 82.8167 253.876 82.658 253.437 82.658C253.008 82.658 252.602 82.812 252.219 83.12C251.837 83.4187 251.51 83.7733 251.239 84.184V89H249.979ZM258.265 89V81.72H259.525V89H258.265ZM258.895 80.474C258.652 80.474 258.442 80.3853 258.265 80.208C258.097 80.0307 258.013 79.8253 258.013 79.592C258.013 79.3213 258.092 79.1067 258.251 78.948C258.409 78.7893 258.624 78.71 258.895 78.71C259.137 78.71 259.343 78.7987 259.511 78.976C259.688 79.144 259.777 79.3493 259.777 79.592C259.777 79.8533 259.697 80.068 259.539 80.236C259.38 80.3947 259.165 80.474 258.895 80.474ZM261.765 89V81.72H262.983V82.938C263.244 82.546 263.575 82.2193 263.977 81.958C264.378 81.6873 264.835 81.552 265.349 81.552C265.927 81.552 266.399 81.692 266.763 81.972C267.136 82.252 267.397 82.6253 267.547 83.092C267.836 82.6627 268.177 82.2987 268.569 82C268.97 81.7013 269.465 81.552 270.053 81.552C270.846 81.552 271.434 81.804 271.817 82.308C272.209 82.8027 272.405 83.4513 272.405 84.254V89H271.145V84.352C271.145 83.848 271.028 83.442 270.795 83.134C270.561 82.8167 270.239 82.658 269.829 82.658C269.409 82.658 269.017 82.8167 268.653 83.134C268.298 83.442 267.985 83.806 267.715 84.226V89H266.455V84.352C266.455 83.848 266.338 83.442 266.105 83.134C265.871 82.8167 265.549 82.658 265.139 82.658C264.728 82.658 264.341 82.812 263.977 83.12C263.613 83.4187 263.295 83.7733 263.025 84.184V89H261.765ZM274.575 89V81.72H275.835V89H274.575ZM275.205 80.474C274.962 80.474 274.752 80.3853 274.575 80.208C274.407 80.0307 274.323 79.8253 274.323 79.592C274.323 79.3213 274.402 79.1067 274.561 78.948C274.72 78.7893 274.934 78.71 275.205 78.71C275.448 78.71 275.653 78.7987 275.821 78.976C275.998 79.144 276.087 79.3493 276.087 79.592C276.087 79.8533 276.008 80.068 275.849 80.236C275.69 80.3947 275.476 80.474 275.205 80.474ZM280.987 89.168C279.942 89.168 279.111 88.8367 278.495 88.174C277.888 87.502 277.585 86.564 277.585 85.36C277.585 84.632 277.72 83.9833 277.991 83.414C278.271 82.8353 278.658 82.3827 279.153 82.056C279.648 81.72 280.222 81.552 280.875 81.552C281.575 81.552 282.154 81.706 282.611 82.014C283.078 82.3127 283.428 82.7187 283.661 83.232C283.894 83.7453 284.011 84.31 284.011 84.926C284.011 85.2527 283.997 85.57 283.969 85.878H278.873C278.957 86.5593 279.195 87.0913 279.587 87.474C279.979 87.8567 280.497 88.048 281.141 88.048C281.561 88.048 281.939 88.006 282.275 87.922C282.611 87.8287 282.933 87.712 283.241 87.572L283.535 88.65C283.199 88.7993 282.821 88.9207 282.401 89.014C281.981 89.1167 281.51 89.168 280.987 89.168ZM278.859 84.856H282.849C282.849 84.1467 282.672 83.6007 282.317 83.218C281.962 82.8353 281.472 82.644 280.847 82.644C280.306 82.644 279.858 82.8353 279.503 83.218C279.148 83.5913 278.934 84.1373 278.859 84.856ZM285.69 89V81.72H286.908V82.938C287.17 82.546 287.501 82.2193 287.902 81.958C288.313 81.6873 288.798 81.552 289.358 81.552C290.18 81.552 290.791 81.7993 291.192 82.294C291.603 82.7887 291.808 83.442 291.808 84.254V89H290.548V84.394C290.548 83.8713 290.422 83.4513 290.17 83.134C289.928 82.8167 289.587 82.658 289.148 82.658C288.719 82.658 288.313 82.812 287.93 83.12C287.548 83.4187 287.221 83.7733 286.95 84.184V89H285.69ZM296.523 89.168C295.823 89.168 295.268 88.9393 294.857 88.482C294.456 88.0153 294.255 87.3527 294.255 86.494V83.078H292.995V81.986H294.283L294.549 79.69H295.515V81.986H297.531V83.078H295.515V86.592C295.515 87.1333 295.627 87.5113 295.851 87.726C296.085 87.9407 296.36 88.048 296.677 88.048C296.911 88.048 297.13 88.0107 297.335 87.936C297.55 87.8613 297.746 87.7727 297.923 87.67L298.273 88.678C298.087 88.79 297.835 88.8973 297.517 89C297.2 89.112 296.869 89.168 296.523 89.168ZM302.332 89.168C301.642 89.168 301.021 89.0093 300.47 88.692C299.92 88.3653 299.486 87.9173 299.168 87.348C298.86 86.7693 298.706 86.1067 298.706 85.36C298.706 84.576 298.865 83.8993 299.182 83.33C299.5 82.7607 299.934 82.322 300.484 82.014C301.035 81.706 301.651 81.552 302.332 81.552C303.014 81.552 303.625 81.706 304.166 82.014C304.717 82.322 305.151 82.7607 305.468 83.33C305.795 83.89 305.958 84.5573 305.958 85.332C305.958 86.1067 305.8 86.7833 305.482 87.362C305.165 87.9313 304.731 88.3747 304.18 88.692C303.639 89.0093 303.023 89.168 302.332 89.168ZM302.332 88.048C303.07 88.048 303.644 87.8007 304.054 87.306C304.465 86.802 304.67 86.1533 304.67 85.36C304.67 84.8747 304.568 84.4313 304.362 84.03C304.157 83.6193 303.877 83.2927 303.522 83.05C303.177 82.798 302.78 82.672 302.332 82.672C301.595 82.672 301.021 82.9147 300.61 83.4C300.2 83.8853 299.994 84.5293 299.994 85.332C299.994 85.8173 300.097 86.27 300.302 86.69C300.508 87.1007 300.783 87.432 301.128 87.684C301.483 87.9267 301.884 88.048 302.332 88.048Z" fill="#5E5E5E"/>
</svg>
