<svg width="317" height="33" viewBox="0 0 317 33" fill="none" xmlns="http://www.w3.org/2000/svg">
<g clip-path="url(#clip0_21149_269277)">
<rect width="317" height="48" transform="translate(0 -7.5)" fill="black"/>
<path d="M86.6321 10.5909H88.6296L92.1026 19.071H92.2305L95.7035 10.5909H97.701V21.5H96.1349V13.6058H96.0337L92.8164 21.484H91.5167L88.2994 13.6005H88.1982V21.5H86.6321V10.5909ZM103.413 21.6651C102.646 21.6651 101.976 21.4893 101.404 21.1378C100.833 20.7862 100.389 20.2944 100.073 19.6623C99.7567 19.0302 99.5986 18.2915 99.5986 17.4464C99.5986 16.5977 99.7567 15.8555 100.073 15.2198C100.389 14.5842 100.833 14.0906 101.404 13.739C101.976 13.3874 102.646 13.2116 103.413 13.2116C104.18 13.2116 104.849 13.3874 105.421 13.739C105.992 14.0906 106.436 14.5842 106.752 15.2198C107.068 15.8555 107.226 16.5977 107.226 17.4464C107.226 18.2915 107.068 19.0302 106.752 19.6623C106.436 20.2944 105.992 20.7862 105.421 21.1378C104.849 21.4893 104.18 21.6651 103.413 21.6651ZM103.418 20.3281C103.915 20.3281 104.327 20.1967 104.654 19.9339C104.98 19.6712 105.222 19.3214 105.378 18.8846C105.538 18.4478 105.618 17.9666 105.618 17.4411C105.618 16.919 105.538 16.4396 105.378 16.0028C105.222 15.5625 104.98 15.2092 104.654 14.9428C104.327 14.6765 103.915 14.5433 103.418 14.5433C102.917 14.5433 102.502 14.6765 102.171 14.9428C101.845 15.2092 101.601 15.5625 101.442 16.0028C101.285 16.4396 101.207 16.919 101.207 17.4411C101.207 17.9666 101.285 18.4478 101.442 18.8846C101.601 19.3214 101.845 19.6712 102.171 19.9339C102.502 20.1967 102.917 20.3281 103.418 20.3281ZM112.067 21.6598C111.407 21.6598 110.817 21.4911 110.299 21.1538C109.784 20.8129 109.379 20.3281 109.084 19.6996C108.793 19.0675 108.647 18.3093 108.647 17.4251C108.647 16.5408 108.795 15.7844 109.089 15.1559C109.388 14.5273 109.796 14.0462 110.315 13.7124C110.833 13.3786 111.421 13.2116 112.078 13.2116C112.586 13.2116 112.994 13.2969 113.303 13.4673C113.615 13.6342 113.857 13.8295 114.027 14.0533C114.201 14.277 114.336 14.4741 114.432 14.6445H114.528V10.5909H116.121V21.5H114.565V20.2269H114.432C114.336 20.4009 114.198 20.5998 114.017 20.8235C113.839 21.0472 113.594 21.2425 113.282 21.4094C112.969 21.5763 112.564 21.6598 112.067 21.6598ZM112.419 20.3015C112.877 20.3015 113.264 20.1808 113.58 19.9393C113.9 19.6942 114.141 19.3551 114.304 18.9219C114.471 18.4886 114.555 17.9844 114.555 17.4091C114.555 16.8409 114.473 16.3437 114.31 15.9176C114.146 15.4915 113.907 15.1594 113.591 14.9215C113.275 14.6836 112.884 14.5646 112.419 14.5646C111.939 14.5646 111.54 14.6889 111.22 14.9375C110.901 15.1861 110.659 15.5252 110.496 15.9549C110.336 16.3846 110.256 16.8693 110.256 17.4091C110.256 17.956 110.338 18.4478 110.501 18.8846C110.664 19.3214 110.906 19.6676 111.225 19.9233C111.549 20.1754 111.946 20.3015 112.419 20.3015ZM118.394 21.5V13.3182H119.987V21.5H118.394ZM119.198 12.0558C118.921 12.0558 118.683 11.9634 118.484 11.7788C118.289 11.5906 118.191 11.3668 118.191 11.1076C118.191 10.8448 118.289 10.6211 118.484 10.4364C118.683 10.2482 118.921 10.1541 119.198 10.1541C119.475 10.1541 119.711 10.2482 119.907 10.4364C120.106 10.6211 120.205 10.8448 120.205 11.1076C120.205 11.3668 120.106 11.5906 119.907 11.7788C119.711 11.9634 119.475 12.0558 119.198 12.0558ZM126.023 13.3182V14.5966H121.4V13.3182H126.023ZM122.667 21.5V12.37C122.667 11.8587 122.779 11.4343 123.003 11.0969C123.227 10.756 123.523 10.5021 123.892 10.3352C124.262 10.1648 124.663 10.0795 125.096 10.0795C125.416 10.0795 125.689 10.1062 125.917 10.1594C126.144 10.2092 126.312 10.2553 126.423 10.2979L126.05 11.587C125.975 11.5657 125.879 11.5408 125.762 11.5124C125.645 11.4805 125.503 11.4645 125.336 11.4645C124.949 11.4645 124.672 11.5604 124.505 11.7521C124.342 11.9439 124.26 12.2209 124.26 12.5831V21.5H122.667ZM127.666 21.5V13.3182H129.259V21.5H127.666ZM128.471 12.0558C128.194 12.0558 127.956 11.9634 127.757 11.7788C127.562 11.5906 127.464 11.3668 127.464 11.1076C127.464 10.8448 127.562 10.6211 127.757 10.4364C127.956 10.2482 128.194 10.1541 128.471 10.1541C128.748 10.1541 128.984 10.2482 129.179 10.4364C129.378 10.6211 129.477 10.8448 129.477 11.1076C129.477 11.3668 129.378 11.5906 129.179 11.7788C128.984 11.9634 128.748 12.0558 128.471 12.0558ZM134.848 21.6651C134.056 21.6651 133.374 21.4858 132.803 21.1271C132.234 20.7649 131.798 20.266 131.492 19.6303C131.187 18.9947 131.034 18.2667 131.034 17.4464C131.034 16.6154 131.19 15.8821 131.503 15.2464C131.815 14.6072 132.256 14.1083 132.824 13.7496C133.392 13.391 134.062 13.2116 134.832 13.2116C135.454 13.2116 136.008 13.3271 136.494 13.5579C136.981 13.7852 137.373 14.1048 137.671 14.5167C137.973 14.9286 138.152 15.4098 138.209 15.9602H136.659C136.574 15.5767 136.379 15.2464 136.073 14.9695C135.771 14.6925 135.367 14.554 134.859 14.554C134.415 14.554 134.026 14.6712 133.692 14.9055C133.362 15.1364 133.104 15.4666 132.92 15.8963C132.735 16.3224 132.643 16.8267 132.643 17.4091C132.643 18.0057 132.733 18.5206 132.915 18.9538C133.096 19.3871 133.351 19.7227 133.682 19.9606C134.015 20.1985 134.408 20.3175 134.859 20.3175C135.161 20.3175 135.434 20.2624 135.679 20.1523C135.928 20.0387 136.135 19.8771 136.302 19.6676C136.473 19.4581 136.592 19.206 136.659 18.9112H138.209C138.152 19.4403 137.98 19.9126 137.693 20.3281C137.405 20.7436 137.02 21.0703 136.537 21.3082C136.057 21.5462 135.494 21.6651 134.848 21.6651ZM142.294 21.6811C141.775 21.6811 141.306 21.5852 140.887 21.3935C140.468 21.1982 140.136 20.9158 139.891 20.5465C139.65 20.1772 139.529 19.7244 139.529 19.1882C139.529 18.7266 139.618 18.3466 139.795 18.0483C139.973 17.75 140.213 17.5138 140.514 17.3398C140.816 17.1658 141.154 17.0344 141.526 16.9457C141.899 16.8569 142.279 16.7894 142.666 16.7433C143.156 16.6864 143.554 16.6403 143.86 16.6048C144.165 16.5657 144.387 16.5036 144.525 16.4183C144.664 16.3331 144.733 16.1946 144.733 16.0028V15.9656C144.733 15.5004 144.602 15.1399 144.339 14.8842C144.08 14.6286 143.693 14.5007 143.178 14.5007C142.642 14.5007 142.219 14.6197 141.91 14.8576C141.605 15.092 141.393 15.353 141.276 15.6406L139.779 15.2997C139.957 14.8026 140.216 14.4013 140.557 14.0959C140.901 13.7869 141.297 13.5632 141.745 13.4247C142.192 13.2827 142.663 13.2116 143.156 13.2116C143.483 13.2116 143.829 13.2507 144.195 13.3288C144.564 13.4034 144.909 13.5419 145.229 13.7443C145.552 13.9467 145.816 14.2362 146.022 14.6126C146.228 14.9854 146.331 15.4702 146.331 16.0668V21.5H144.776V20.3814H144.712C144.609 20.5874 144.454 20.7898 144.248 20.9886C144.042 21.1875 143.778 21.3526 143.455 21.484C143.132 21.6154 142.744 21.6811 142.294 21.6811ZM142.64 20.4027C143.08 20.4027 143.456 20.3157 143.769 20.1417C144.085 19.9677 144.325 19.7404 144.488 19.4599C144.655 19.1758 144.738 18.8722 144.738 18.549V17.4943C144.682 17.5511 144.572 17.6044 144.408 17.6541C144.248 17.7003 144.066 17.7411 143.86 17.7766C143.654 17.8086 143.453 17.8388 143.258 17.8672C143.062 17.892 142.899 17.9134 142.768 17.9311C142.459 17.9702 142.176 18.0359 141.921 18.1282C141.669 18.2205 141.466 18.3537 141.313 18.5277C141.164 18.6982 141.09 18.9254 141.09 19.2095C141.09 19.6037 141.235 19.902 141.526 20.1044C141.818 20.3033 142.189 20.4027 142.64 20.4027ZM148.453 21.5V13.3182H149.992V14.6179H150.077C150.226 14.1776 150.489 13.8313 150.866 13.5792C151.245 13.3235 151.675 13.1957 152.155 13.1957C152.254 13.1957 152.371 13.1992 152.506 13.2063C152.645 13.2134 152.753 13.2223 152.831 13.233V14.7564C152.767 14.7386 152.653 14.7191 152.49 14.6978C152.327 14.6729 152.163 14.6605 152 14.6605C151.624 14.6605 151.288 14.7404 150.993 14.9002C150.702 15.0565 150.471 15.2749 150.301 15.5554C150.13 15.8324 150.045 16.1484 150.045 16.5036V21.5H148.453ZM167.368 14.1385H165.706C165.642 13.7834 165.523 13.4709 165.349 13.201C165.175 12.9311 164.962 12.7021 164.71 12.5138C164.457 12.3256 164.175 12.1836 163.863 12.0877C163.554 11.9918 163.225 11.9439 162.877 11.9439C162.249 11.9439 161.686 12.1019 161.189 12.418C160.695 12.734 160.304 13.1974 160.017 13.8082C159.733 14.419 159.591 15.1648 159.591 16.0455C159.591 16.9332 159.733 17.6825 160.017 18.2933C160.304 18.9041 160.697 19.3658 161.194 19.6783C161.691 19.9908 162.25 20.147 162.872 20.147C163.216 20.147 163.543 20.1009 163.852 20.0085C164.165 19.9126 164.447 19.7724 164.699 19.5877C164.951 19.4031 165.164 19.1776 165.338 18.9112C165.516 18.6413 165.638 18.3324 165.706 17.9844L167.368 17.9897C167.279 18.5259 167.107 19.0195 166.851 19.4705C166.599 19.918 166.274 20.305 165.876 20.6317C165.482 20.9549 165.031 21.2053 164.523 21.3828C164.015 21.5604 163.461 21.6491 162.861 21.6491C161.917 21.6491 161.075 21.4254 160.336 20.978C159.598 20.527 159.015 19.8825 158.589 19.0444C158.167 18.2063 157.955 17.2067 157.955 16.0455C157.955 14.8807 158.168 13.881 158.595 13.0465C159.021 12.2085 159.603 11.5657 160.342 11.1183C161.08 10.6673 161.92 10.4418 162.861 10.4418C163.44 10.4418 163.98 10.5252 164.481 10.6921C164.985 10.8555 165.438 11.0969 165.839 11.4165C166.24 11.7326 166.572 12.1197 166.835 12.5778C167.098 13.0323 167.275 13.5526 167.368 14.1385ZM172.656 21.6651C171.889 21.6651 171.219 21.4893 170.648 21.1378C170.076 20.7862 169.632 20.2944 169.316 19.6623C169 19.0302 168.842 18.2915 168.842 17.4464C168.842 16.5977 169 15.8555 169.316 15.2198C169.632 14.5842 170.076 14.0906 170.648 13.739C171.219 13.3874 171.889 13.2116 172.656 13.2116C173.423 13.2116 174.092 13.3874 174.664 13.739C175.236 14.0906 175.68 14.5842 175.996 15.2198C176.312 15.8555 176.47 16.5977 176.47 17.4464C176.47 18.2915 176.312 19.0302 175.996 19.6623C175.68 20.2944 175.236 20.7862 174.664 21.1378C174.092 21.4893 173.423 21.6651 172.656 21.6651ZM172.661 20.3281C173.158 20.3281 173.57 20.1967 173.897 19.9339C174.224 19.6712 174.465 19.3214 174.621 18.8846C174.781 18.4478 174.861 17.9666 174.861 17.4411C174.861 16.919 174.781 16.4396 174.621 16.0028C174.465 15.5625 174.224 15.2092 173.897 14.9428C173.57 14.6765 173.158 14.5433 172.661 14.5433C172.16 14.5433 171.745 14.6765 171.415 14.9428C171.088 15.2092 170.845 15.5625 170.685 16.0028C170.529 16.4396 170.45 16.919 170.45 17.4411C170.45 17.9666 170.529 18.4478 170.685 18.8846C170.845 19.3214 171.088 19.6712 171.415 19.9339C171.745 20.1967 172.16 20.3281 172.661 20.3281ZM179.84 16.642V21.5H178.247V13.3182H179.776V14.6499H179.877C180.066 14.2166 180.36 13.8686 180.762 13.6058C181.166 13.343 181.676 13.2116 182.29 13.2116C182.848 13.2116 183.336 13.3288 183.755 13.5632C184.174 13.794 184.499 14.1385 184.73 14.5966C184.961 15.0547 185.076 15.6211 185.076 16.2958V21.5H183.484V16.4876C183.484 15.8945 183.329 15.4311 183.02 15.0973C182.711 14.7599 182.287 14.5913 181.747 14.5913C181.378 14.5913 181.049 14.6712 180.762 14.831C180.478 14.9908 180.252 15.2251 180.085 15.5341C179.922 15.8395 179.84 16.2088 179.84 16.642ZM191.032 13.3182V14.5966H186.562V13.3182H191.032ZM187.761 11.358H189.354V19.0977C189.354 19.4066 189.4 19.6392 189.492 19.7955C189.584 19.9482 189.703 20.0529 189.849 20.1097C189.998 20.163 190.16 20.1896 190.334 20.1896C190.462 20.1896 190.573 20.1808 190.669 20.163C190.765 20.1452 190.84 20.131 190.893 20.1204L191.181 21.4361C191.088 21.4716 190.957 21.5071 190.786 21.5426C190.616 21.5817 190.403 21.603 190.147 21.6065C189.728 21.6136 189.338 21.5391 188.975 21.3828C188.613 21.2266 188.32 20.9851 188.097 20.6584C187.873 20.3317 187.761 19.9215 187.761 19.4279V11.358ZM196.232 21.6651C195.426 21.6651 194.731 21.4929 194.149 21.1484C193.57 20.8004 193.123 20.3121 192.807 19.6836C192.494 19.0515 192.338 18.3111 192.338 17.4624C192.338 16.6243 192.494 15.8857 192.807 15.2464C193.123 14.6072 193.563 14.1083 194.128 13.7496C194.696 13.391 195.36 13.2116 196.12 13.2116C196.581 13.2116 197.029 13.288 197.462 13.4407C197.895 13.5934 198.284 13.8331 198.629 14.1598C198.973 14.4865 199.245 14.9109 199.444 15.4329C199.643 15.9513 199.742 16.5817 199.742 17.3239V17.8885H193.238V16.6953H198.181C198.181 16.2763 198.096 15.9052 197.926 15.582C197.755 15.2553 197.515 14.9979 197.206 14.8097C196.901 14.6214 196.542 14.5273 196.131 14.5273C195.683 14.5273 195.292 14.6374 194.959 14.8576C194.628 15.0742 194.373 15.3583 194.192 15.7099C194.014 16.0579 193.925 16.4361 193.925 16.8445V17.7766C193.925 18.3235 194.021 18.7887 194.213 19.1722C194.408 19.5558 194.68 19.8487 195.028 20.0511C195.376 20.25 195.782 20.3494 196.248 20.3494C196.55 20.3494 196.825 20.3068 197.073 20.2216C197.322 20.1328 197.537 20.0014 197.718 19.8274C197.899 19.6534 198.037 19.4386 198.133 19.1829L199.641 19.4545C199.52 19.8984 199.303 20.2873 198.991 20.6211C198.682 20.9513 198.293 21.2088 197.824 21.3935C197.359 21.5746 196.828 21.6651 196.232 21.6651ZM203.102 16.642V21.5H201.509V13.3182H203.038V14.6499H203.139C203.327 14.2166 203.622 13.8686 204.023 13.6058C204.428 13.343 204.938 13.2116 205.552 13.2116C206.11 13.2116 206.598 13.3288 207.017 13.5632C207.436 13.794 207.761 14.1385 207.992 14.5966C208.223 15.0547 208.338 15.6211 208.338 16.2958V21.5H206.745V16.4876C206.745 15.8945 206.591 15.4311 206.282 15.0973C205.973 14.7599 205.549 14.5913 205.009 14.5913C204.639 14.5913 204.311 14.6712 204.023 14.831C203.739 14.9908 203.514 15.2251 203.347 15.5341C203.184 15.8395 203.102 16.2088 203.102 16.642ZM210.474 21.5V13.3182H212.067V21.5H210.474ZM211.278 12.0558C211.001 12.0558 210.763 11.9634 210.565 11.7788C210.369 11.5906 210.272 11.3668 210.272 11.1076C210.272 10.8448 210.369 10.6211 210.565 10.4364C210.763 10.2482 211.001 10.1541 211.278 10.1541C211.555 10.1541 211.791 10.2482 211.987 10.4364C212.186 10.6211 212.285 10.8448 212.285 11.1076C212.285 11.3668 212.186 11.5906 211.987 11.7788C211.791 11.9634 211.555 12.0558 211.278 12.0558ZM217.272 21.6598C216.612 21.6598 216.022 21.4911 215.504 21.1538C214.989 20.8129 214.584 20.3281 214.289 19.6996C213.998 19.0675 213.852 18.3093 213.852 17.4251C213.852 16.5408 214 15.7844 214.295 15.1559C214.593 14.5273 215.001 14.0462 215.52 13.7124C216.038 13.3786 216.626 13.2116 217.283 13.2116C217.791 13.2116 218.199 13.2969 218.508 13.4673C218.82 13.6342 219.062 13.8295 219.232 14.0533C219.406 14.277 219.541 14.4741 219.637 14.6445H219.733V10.5909H221.326V21.5H219.77V20.2269H219.637C219.541 20.4009 219.403 20.5998 219.222 20.8235C219.044 21.0472 218.799 21.2425 218.487 21.4094C218.174 21.5763 217.769 21.6598 217.272 21.6598ZM217.624 20.3015C218.082 20.3015 218.469 20.1808 218.785 19.9393C219.105 19.6942 219.346 19.3551 219.509 18.9219C219.676 18.4886 219.76 17.9844 219.76 17.4091C219.76 16.8409 219.678 16.3437 219.515 15.9176C219.351 15.4915 219.112 15.1594 218.796 14.9215C218.48 14.6836 218.089 14.5646 217.624 14.5646C217.144 14.5646 216.745 14.6889 216.425 14.9375C216.106 15.1861 215.864 15.5252 215.701 15.9549C215.541 16.3846 215.461 16.8693 215.461 17.4091C215.461 17.956 215.543 18.4478 215.706 18.8846C215.869 19.3214 216.111 19.6676 216.431 19.9233C216.754 20.1754 217.151 20.3015 217.624 20.3015ZM227.045 21.6651C226.278 21.6651 225.609 21.4893 225.037 21.1378C224.465 20.7862 224.022 20.2944 223.706 19.6623C223.389 19.0302 223.231 18.2915 223.231 17.4464C223.231 16.5977 223.389 15.8555 223.706 15.2198C224.022 14.5842 224.465 14.0906 225.037 13.739C225.609 13.3874 226.278 13.2116 227.045 13.2116C227.812 13.2116 228.482 13.3874 229.054 13.739C229.625 14.0906 230.069 14.5842 230.385 15.2198C230.701 15.8555 230.859 16.5977 230.859 17.4464C230.859 18.2915 230.701 19.0302 230.385 19.6623C230.069 20.2944 229.625 20.7862 229.054 21.1378C228.482 21.4893 227.812 21.6651 227.045 21.6651ZM227.051 20.3281C227.548 20.3281 227.96 20.1967 228.286 19.9339C228.613 19.6712 228.855 19.3214 229.011 18.8846C229.171 18.4478 229.251 17.9666 229.251 17.4411C229.251 16.919 229.171 16.4396 229.011 16.0028C228.855 15.5625 228.613 15.2092 228.286 14.9428C227.96 14.6765 227.548 14.5433 227.051 14.5433C226.55 14.5433 226.134 14.6765 225.804 14.9428C225.478 15.2092 225.234 15.5625 225.074 16.0028C224.918 16.4396 224.84 16.919 224.84 17.4411C224.84 17.9666 224.918 18.4478 225.074 18.8846C225.234 19.3214 225.478 19.6712 225.804 19.9339C226.134 20.1967 226.55 20.3281 227.051 20.3281Z" fill="white"/>
</g>
<defs>
<clipPath id="clip0_21149_269277">
<rect width="317" height="33" rx="8" fill="white"/>
</clipPath>
</defs>
</svg>
