<svg width="232" height="44" viewBox="0 0 232 44" fill="none" xmlns="http://www.w3.org/2000/svg">
<rect width="232" height="44" rx="22" fill="#BBB7FF" fill-opacity="0.25"/>
<path d="M30.1667 23.6667V28.6667M27.6667 26.1667H32.6667M21 20.3333H22.6667C23.5872 20.3333 24.3334 19.5872 24.3334 18.6667V17C24.3334 16.0795 23.5872 15.3333 22.6667 15.3333H21C20.0796 15.3333 19.3334 16.0795 19.3334 17V18.6667C19.3334 19.5872 20.0796 20.3333 21 20.3333ZM29.3334 20.3333H31C31.9205 20.3333 32.6667 19.5872 32.6667 18.6667V17C32.6667 16.0795 31.9205 15.3333 31 15.3333H29.3334C28.4129 15.3333 27.6667 16.0795 27.6667 17V18.6667C27.6667 19.5872 28.4129 20.3333 29.3334 20.3333ZM21 28.6667H22.6667C23.5872 28.6667 24.3334 27.9205 24.3334 27V25.3333C24.3334 24.4129 23.5872 23.6667 22.6667 23.6667H21C20.0796 23.6667 19.3334 24.4129 19.3334 25.3333V27C19.3334 27.9205 20.0796 28.6667 21 28.6667Z" stroke="white" stroke-width="1.5" stroke-linecap="round" stroke-linejoin="round"/>
<path d="M52.228 17.27C53.264 17.27 54.1693 17.4707 54.944 17.872C55.728 18.264 56.33 18.8333 56.75 19.58C57.1793 20.3173 57.394 21.1807 57.394 22.17C57.394 23.1593 57.1793 24.018 56.75 24.746C56.33 25.474 55.728 26.034 54.944 26.426C54.1693 26.8087 53.264 27 52.228 27H49.05V17.27H52.228ZM52.228 25.698C53.3667 25.698 54.2393 25.39 54.846 24.774C55.4527 24.158 55.756 23.29 55.756 22.17C55.756 21.0407 55.4527 20.1587 54.846 19.524C54.2393 18.8893 53.3667 18.572 52.228 18.572H50.646V25.698H52.228ZM58.4438 23.108C58.4438 22.3333 58.6024 21.6473 58.9198 21.05C59.2464 20.4527 59.6851 19.9907 60.2358 19.664C60.7958 19.328 61.4118 19.16 62.0838 19.16C62.6904 19.16 63.2178 19.2813 63.6658 19.524C64.1231 19.7573 64.4871 20.0513 64.7578 20.406V19.286H66.3678V27H64.7578V25.852C64.4871 26.216 64.1184 26.5193 63.6518 26.762C63.1851 27.0047 62.6531 27.126 62.0558 27.126C61.3931 27.126 60.7864 26.958 60.2358 26.622C59.6851 26.2767 59.2464 25.8007 58.9198 25.194C58.6024 24.578 58.4438 23.8827 58.4438 23.108ZM64.7578 23.136C64.7578 22.604 64.6458 22.142 64.4218 21.75C64.2071 21.358 63.9224 21.0593 63.5678 20.854C63.2131 20.6487 62.8304 20.546 62.4198 20.546C62.0091 20.546 61.6264 20.6487 61.2718 20.854C60.9171 21.05 60.6278 21.344 60.4038 21.736C60.1891 22.1187 60.0818 22.576 60.0818 23.108C60.0818 23.64 60.1891 24.1067 60.4038 24.508C60.6278 24.9093 60.9171 25.2173 61.2718 25.432C61.6358 25.6373 62.0184 25.74 62.4198 25.74C62.8304 25.74 63.2131 25.6373 63.5678 25.432C63.9224 25.2267 64.2071 24.928 64.4218 24.536C64.6458 24.1347 64.7578 23.668 64.7578 23.136ZM71.2641 27.126C70.6574 27.126 70.1114 27.0187 69.6261 26.804C69.1501 26.58 68.7721 26.2813 68.4921 25.908C68.2121 25.5253 68.0627 25.1007 68.0441 24.634H69.6961C69.7241 24.9607 69.8781 25.236 70.1581 25.46C70.4474 25.6747 70.8067 25.782 71.2361 25.782C71.6841 25.782 72.0294 25.698 72.2721 25.53C72.5241 25.3527 72.6501 25.1287 72.6501 24.858C72.6501 24.5687 72.5101 24.354 72.2301 24.214C71.9594 24.074 71.5254 23.92 70.9281 23.752C70.3494 23.5933 69.8781 23.4393 69.5141 23.29C69.1501 23.1407 68.8327 22.912 68.5621 22.604C68.3007 22.296 68.1701 21.89 68.1701 21.386C68.1701 20.9753 68.2914 20.602 68.5341 20.266C68.7767 19.9207 69.1221 19.65 69.5701 19.454C70.0274 19.258 70.5501 19.16 71.1381 19.16C72.0154 19.16 72.7201 19.384 73.2521 19.832C73.7934 20.2707 74.0827 20.8727 74.1201 21.638H72.5241C72.4961 21.2927 72.3561 21.0173 72.1041 20.812C71.8521 20.6067 71.5114 20.504 71.0821 20.504C70.6621 20.504 70.3401 20.5833 70.1161 20.742C69.8921 20.9007 69.7801 21.1107 69.7801 21.372C69.7801 21.5773 69.8547 21.75 70.0041 21.89C70.1534 22.03 70.3354 22.142 70.5501 22.226C70.7647 22.3007 71.0821 22.3987 71.5021 22.52C72.0621 22.6693 72.5194 22.8233 72.8741 22.982C73.2381 23.1313 73.5507 23.3553 73.8121 23.654C74.0734 23.9527 74.2087 24.3493 74.2181 24.844C74.2181 25.2827 74.0967 25.6747 73.8541 26.02C73.6114 26.3653 73.2661 26.636 72.8181 26.832C72.3794 27.028 71.8614 27.126 71.2641 27.126ZM79.9326 19.16C80.5206 19.16 81.0432 19.286 81.5006 19.538C81.9672 19.79 82.3312 20.1633 82.5926 20.658C82.8632 21.1527 82.9986 21.75 82.9986 22.45V27H81.4166V22.688C81.4166 21.9973 81.2439 21.47 80.8986 21.106C80.5532 20.7327 80.0819 20.546 79.4846 20.546C78.8872 20.546 78.4112 20.7327 78.0566 21.106C77.7112 21.47 77.5386 21.9973 77.5386 22.688V27H75.9426V16.64H77.5386V20.182C77.8092 19.8553 78.1499 19.6033 78.5606 19.426C78.9806 19.2487 79.4379 19.16 79.9326 19.16ZM86.6304 20.434C86.901 20.0607 87.2697 19.7573 87.7364 19.524C88.2124 19.2813 88.7397 19.16 89.3184 19.16C89.9997 19.16 90.6157 19.3233 91.1664 19.65C91.717 19.9767 92.151 20.4433 92.4684 21.05C92.7857 21.6473 92.9444 22.3333 92.9444 23.108C92.9444 23.8827 92.7857 24.578 92.4684 25.194C92.151 25.8007 91.7124 26.2767 91.1524 26.622C90.6017 26.958 89.9904 27.126 89.3184 27.126C88.721 27.126 88.189 27.0093 87.7224 26.776C87.265 26.5427 86.901 26.244 86.6304 25.88V27H85.0344V16.64H86.6304V20.434ZM91.3204 23.108C91.3204 22.576 91.2084 22.1187 90.9844 21.736C90.7697 21.344 90.4804 21.05 90.1164 20.854C89.7617 20.6487 89.379 20.546 88.9684 20.546C88.567 20.546 88.1844 20.6487 87.8204 20.854C87.4657 21.0593 87.1764 21.358 86.9524 21.75C86.7377 22.142 86.6304 22.604 86.6304 23.136C86.6304 23.668 86.7377 24.1347 86.9524 24.536C87.1764 24.928 87.4657 25.2267 87.8204 25.432C88.1844 25.6373 88.567 25.74 88.9684 25.74C89.379 25.74 89.7617 25.6373 90.1164 25.432C90.4804 25.2173 90.7697 24.9093 90.9844 24.508C91.2084 24.1067 91.3204 23.64 91.3204 23.108ZM97.8687 27.126C97.1407 27.126 96.4827 26.9627 95.8947 26.636C95.3067 26.3 94.8447 25.8333 94.5087 25.236C94.1727 24.6293 94.0047 23.9293 94.0047 23.136C94.0047 22.352 94.1773 21.6567 94.5227 21.05C94.868 20.4433 95.3393 19.9767 95.9367 19.65C96.534 19.3233 97.2013 19.16 97.9387 19.16C98.676 19.16 99.3433 19.3233 99.9407 19.65C100.538 19.9767 101.009 20.4433 101.355 21.05C101.7 21.6567 101.873 22.352 101.873 23.136C101.873 23.92 101.695 24.6153 101.341 25.222C100.986 25.8287 100.501 26.3 99.8847 26.636C99.278 26.9627 98.606 27.126 97.8687 27.126ZM97.8687 25.74C98.2793 25.74 98.662 25.642 99.0167 25.446C99.3807 25.25 99.6747 24.956 99.8987 24.564C100.123 24.172 100.235 23.696 100.235 23.136C100.235 22.576 100.127 22.1047 99.9127 21.722C99.698 21.33 99.4133 21.036 99.0587 20.84C98.704 20.644 98.3213 20.546 97.9107 20.546C97.5 20.546 97.1173 20.644 96.7627 20.84C96.4173 21.036 96.142 21.33 95.9367 21.722C95.7313 22.1047 95.6287 22.576 95.6287 23.136C95.6287 23.9667 95.8387 24.6107 96.2587 25.068C96.688 25.516 97.2247 25.74 97.8687 25.74ZM102.918 23.108C102.918 22.3333 103.077 21.6473 103.394 21.05C103.721 20.4527 104.16 19.9907 104.71 19.664C105.27 19.328 105.886 19.16 106.558 19.16C107.165 19.16 107.692 19.2813 108.14 19.524C108.598 19.7573 108.962 20.0513 109.232 20.406V19.286H110.842V27H109.232V25.852C108.962 26.216 108.593 26.5193 108.126 26.762C107.66 27.0047 107.128 27.126 106.53 27.126C105.868 27.126 105.261 26.958 104.71 26.622C104.16 26.2767 103.721 25.8007 103.394 25.194C103.077 24.578 102.918 23.8827 102.918 23.108ZM109.232 23.136C109.232 22.604 109.12 22.142 108.896 21.75C108.682 21.358 108.397 21.0593 108.042 20.854C107.688 20.6487 107.305 20.546 106.894 20.546C106.484 20.546 106.101 20.6487 105.746 20.854C105.392 21.05 105.102 21.344 104.878 21.736C104.664 22.1187 104.556 22.576 104.556 23.108C104.556 23.64 104.664 24.1067 104.878 24.508C105.102 24.9093 105.392 25.2173 105.746 25.432C106.11 25.6373 106.493 25.74 106.894 25.74C107.305 25.74 107.688 25.6373 108.042 25.432C108.397 25.2267 108.682 24.928 108.896 24.536C109.12 24.1347 109.232 23.668 109.232 23.136ZM114.535 20.406C114.768 20.014 115.076 19.7107 115.459 19.496C115.851 19.272 116.313 19.16 116.845 19.16V20.812H116.439C115.813 20.812 115.337 20.9707 115.011 21.288C114.693 21.6053 114.535 22.156 114.535 22.94V27H112.939V19.286H114.535V20.406ZM117.78 23.108C117.78 22.3333 117.938 21.6473 118.256 21.05C118.582 20.4527 119.021 19.9907 119.572 19.664C120.132 19.328 120.752 19.16 121.434 19.16C121.938 19.16 122.432 19.272 122.918 19.496C123.412 19.7107 123.804 20 124.094 20.364V16.64H125.704V27H124.094V25.838C123.832 26.2113 123.468 26.5193 123.002 26.762C122.544 27.0047 122.017 27.126 121.42 27.126C120.748 27.126 120.132 26.958 119.572 26.622C119.021 26.2767 118.582 25.8007 118.256 25.194C117.938 24.578 117.78 23.8827 117.78 23.108ZM124.094 23.136C124.094 22.604 123.982 22.142 123.758 21.75C123.543 21.358 123.258 21.0593 122.904 20.854C122.549 20.6487 122.166 20.546 121.756 20.546C121.345 20.546 120.962 20.6487 120.608 20.854C120.253 21.05 119.964 21.344 119.74 21.736C119.525 22.1187 119.418 22.576 119.418 23.108C119.418 23.64 119.525 24.1067 119.74 24.508C119.964 24.9093 120.253 25.2173 120.608 25.432C120.972 25.6373 121.354 25.74 121.756 25.74C122.166 25.74 122.549 25.6373 122.904 25.432C123.258 25.2267 123.543 24.928 123.758 24.536C123.982 24.1347 124.094 23.668 124.094 23.136Z" fill="white"/>
</svg>
