<svg width="317" height="33" viewBox="0 0 317 33" fill="none" xmlns="http://www.w3.org/2000/svg">
<g clip-path="url(#clip0_21149_269277)">
<rect width="317" height="48" transform="translate(0 -7.5)" fill="black"/>
<path d="M113.799 10.5909V21.5H112.286L106.741 13.4993H106.64V21.5H104.994V10.5909H106.517L112.068 18.6023H112.169V10.5909H113.799ZM121.255 18.1069V13.3182H122.853V21.5H121.287V20.0831H121.202C121.014 20.5199 120.712 20.8839 120.296 21.1751C119.884 21.4627 119.371 21.6065 118.757 21.6065C118.231 21.6065 117.766 21.4911 117.361 21.2603C116.96 21.0259 116.644 20.6797 116.413 20.2216C116.186 19.7635 116.072 19.1971 116.072 18.5224V13.3182H117.665V18.3306C117.665 18.8881 117.819 19.332 118.128 19.6623C118.437 19.9925 118.838 20.1577 119.332 20.1577C119.63 20.1577 119.927 20.0831 120.222 19.9339C120.52 19.7848 120.767 19.5593 120.962 19.2575C121.161 18.9556 121.259 18.5721 121.255 18.1069ZM128.519 21.6651C127.713 21.6651 127.019 21.4929 126.437 21.1484C125.858 20.8004 125.41 20.3121 125.094 19.6836C124.782 19.0515 124.625 18.3111 124.625 17.4624C124.625 16.6243 124.782 15.8857 125.094 15.2464C125.41 14.6072 125.851 14.1083 126.415 13.7496C126.983 13.391 127.648 13.2116 128.407 13.2116C128.869 13.2116 129.317 13.288 129.75 13.4407C130.183 13.5934 130.572 13.8331 130.916 14.1598C131.261 14.4865 131.532 14.9109 131.731 15.4329C131.93 15.9513 132.03 16.5817 132.03 17.3239V17.8885H125.526V16.6953H130.469C130.469 16.2763 130.384 15.9052 130.213 15.582C130.043 15.2553 129.803 14.9979 129.494 14.8097C129.189 14.6214 128.83 14.5273 128.418 14.5273C127.971 14.5273 127.58 14.6374 127.246 14.8576C126.916 15.0742 126.66 15.3583 126.479 15.7099C126.302 16.0579 126.213 16.4361 126.213 16.8445V17.7766C126.213 18.3235 126.309 18.7887 126.5 19.1722C126.696 19.5558 126.967 19.8487 127.315 20.0511C127.663 20.25 128.07 20.3494 128.535 20.3494C128.837 20.3494 129.112 20.3068 129.361 20.2216C129.61 20.1328 129.824 20.0014 130.005 19.8274C130.187 19.6534 130.325 19.4386 130.421 19.1829L131.928 19.4545C131.808 19.8984 131.591 20.2873 131.279 20.6211C130.97 20.9513 130.581 21.2088 130.112 21.3935C129.647 21.5746 129.116 21.6651 128.519 21.6651ZM140.562 13.3182L137.595 21.5H135.89L132.918 13.3182H134.628L136.7 19.6143H136.785L138.852 13.3182H140.562ZM145.227 21.6651C144.459 21.6651 143.79 21.4893 143.218 21.1378C142.647 20.7862 142.203 20.2944 141.887 19.6623C141.571 19.0302 141.413 18.2915 141.413 17.4464C141.413 16.5977 141.571 15.8555 141.887 15.2198C142.203 14.5842 142.647 14.0906 143.218 13.739C143.79 13.3874 144.459 13.2116 145.227 13.2116C145.994 13.2116 146.663 13.3874 147.235 13.739C147.806 14.0906 148.25 14.5842 148.566 15.2198C148.882 15.8555 149.04 16.5977 149.04 17.4464C149.04 18.2915 148.882 19.0302 148.566 19.6623C148.25 20.2944 147.806 20.7862 147.235 21.1378C146.663 21.4893 145.994 21.6651 145.227 21.6651ZM145.232 20.3281C145.729 20.3281 146.141 20.1967 146.468 19.9339C146.794 19.6712 147.036 19.3214 147.192 18.8846C147.352 18.4478 147.432 17.9666 147.432 17.4411C147.432 16.919 147.352 16.4396 147.192 16.0028C147.036 15.5625 146.794 15.2092 146.468 14.9428C146.141 14.6765 145.729 14.5433 145.232 14.5433C144.731 14.5433 144.316 14.6765 143.985 14.9428C143.659 15.2092 143.415 15.5625 143.256 16.0028C143.099 16.4396 143.021 16.919 143.021 17.4411C143.021 17.9666 143.099 18.4478 143.256 18.8846C143.415 19.3214 143.659 19.6712 143.985 19.9339C144.316 20.1967 144.731 20.3281 145.232 20.3281ZM154.916 21.5V10.5909H158.804C159.649 10.5909 160.351 10.7365 160.908 11.0277C161.469 11.3189 161.888 11.7219 162.165 12.2369C162.442 12.7482 162.581 13.3395 162.581 14.0107C162.581 14.6783 162.441 15.266 162.16 15.7738C161.883 16.2781 161.464 16.6705 160.903 16.951C160.345 17.2315 159.644 17.3718 158.799 17.3718H155.853V15.9549H158.65C159.182 15.9549 159.616 15.8786 159.95 15.7259C160.287 15.5732 160.534 15.3512 160.69 15.06C160.846 14.7688 160.924 14.419 160.924 14.0107C160.924 13.5987 160.844 13.2418 160.685 12.94C160.528 12.6381 160.282 12.4073 159.944 12.2475C159.61 12.0842 159.172 12.0025 158.629 12.0025H156.562V21.5H154.916ZM160.301 16.5781L162.996 21.5H161.121L158.479 16.5781H160.301ZM167.88 21.6651C167.074 21.6651 166.379 21.4929 165.797 21.1484C165.218 20.8004 164.771 20.3121 164.455 19.6836C164.142 19.0515 163.986 18.3111 163.986 17.4624C163.986 16.6243 164.142 15.8857 164.455 15.2464C164.771 14.6072 165.211 14.1083 165.776 13.7496C166.344 13.391 167.008 13.2116 167.768 13.2116C168.229 13.2116 168.677 13.288 169.11 13.4407C169.543 13.5934 169.932 13.8331 170.277 14.1598C170.621 14.4865 170.893 14.9109 171.092 15.4329C171.291 15.9513 171.39 16.5817 171.39 17.3239V17.8885H164.886V16.6953H169.829C169.829 16.2763 169.744 15.9052 169.574 15.582C169.403 15.2553 169.163 14.9979 168.854 14.8097C168.549 14.6214 168.19 14.5273 167.778 14.5273C167.331 14.5273 166.94 14.6374 166.607 14.8576C166.276 15.0742 166.021 15.3583 165.84 15.7099C165.662 16.0579 165.573 16.4361 165.573 16.8445V17.7766C165.573 18.3235 165.669 18.7887 165.861 19.1722C166.056 19.5558 166.328 19.8487 166.676 20.0511C167.024 20.25 167.43 20.3494 167.896 20.3494C168.197 20.3494 168.473 20.3068 168.721 20.2216C168.97 20.1328 169.185 20.0014 169.366 19.8274C169.547 19.6534 169.685 19.4386 169.781 19.1829L171.289 19.4545C171.168 19.8984 170.951 20.2873 170.639 20.6211C170.33 20.9513 169.941 21.2088 169.472 21.3935C169.007 21.5746 168.476 21.6651 167.88 21.6651ZM176.587 24.7386C175.938 24.7386 175.378 24.6534 174.91 24.483C174.444 24.3125 174.064 24.087 173.77 23.8065C173.475 23.5259 173.255 23.2188 173.109 22.8849L174.478 22.3203C174.574 22.4766 174.702 22.6417 174.862 22.8157C175.025 22.9933 175.245 23.1442 175.522 23.2685C175.803 23.3928 176.163 23.4549 176.603 23.4549C177.207 23.4549 177.706 23.3075 178.1 23.0128C178.494 22.7216 178.692 22.2564 178.692 21.6172V20.0085H178.59C178.494 20.1825 178.356 20.3761 178.175 20.5891C177.997 20.8022 177.752 20.9869 177.44 21.1431C177.127 21.2994 176.721 21.3775 176.22 21.3775C175.574 21.3775 174.991 21.2266 174.473 20.9247C173.958 20.6193 173.549 20.1701 173.248 19.5771C172.949 18.9805 172.8 18.2472 172.8 17.3771C172.8 16.5071 172.948 15.7614 173.242 15.1399C173.541 14.5185 173.949 14.0426 174.467 13.7124C174.986 13.3786 175.574 13.2116 176.231 13.2116C176.738 13.2116 177.149 13.2969 177.461 13.4673C177.774 13.6342 178.017 13.8295 178.191 14.0533C178.368 14.277 178.505 14.4741 178.601 14.6445H178.718V13.3182H180.279V21.6811C180.279 22.3842 180.116 22.9613 179.789 23.4123C179.462 23.8633 179.02 24.1971 178.462 24.4137C177.909 24.6303 177.284 24.7386 176.587 24.7386ZM176.572 20.0565C177.03 20.0565 177.417 19.9499 177.733 19.7369C178.052 19.5202 178.294 19.2113 178.457 18.81C178.624 18.4052 178.708 17.9205 178.708 17.3558C178.708 16.8054 178.626 16.3207 178.462 15.9016C178.299 15.4826 178.059 15.1559 177.743 14.9215C177.427 14.6836 177.037 14.5646 176.572 14.5646C176.092 14.5646 175.693 14.6889 175.373 14.9375C175.053 15.1825 174.812 15.5163 174.649 15.9389C174.489 16.3615 174.409 16.8338 174.409 17.3558C174.409 17.892 174.491 18.3626 174.654 18.7674C174.817 19.1722 175.059 19.4883 175.378 19.7156C175.701 19.9428 176.099 20.0565 176.572 20.0565ZM182.415 21.5V13.3182H184.008V21.5H182.415ZM183.219 12.0558C182.942 12.0558 182.704 11.9634 182.505 11.7788C182.31 11.5906 182.212 11.3668 182.212 11.1076C182.212 10.8448 182.31 10.6211 182.505 10.4364C182.704 10.2482 182.942 10.1541 183.219 10.1541C183.496 10.1541 183.732 10.2482 183.928 10.4364C184.127 10.6211 184.226 10.8448 184.226 11.1076C184.226 11.3668 184.127 11.5906 183.928 11.7788C183.732 11.9634 183.496 12.0558 183.219 12.0558ZM192.281 15.3157L190.838 15.5714C190.777 15.3867 190.682 15.2109 190.55 15.044C190.422 14.8771 190.248 14.7404 190.028 14.6339C189.808 14.5273 189.533 14.4741 189.202 14.4741C188.751 14.4741 188.375 14.5753 188.073 14.7777C187.771 14.9766 187.62 15.234 187.62 15.5501C187.62 15.8235 187.722 16.0437 187.924 16.2106C188.126 16.3775 188.453 16.5142 188.904 16.6207L190.204 16.919C190.957 17.093 191.518 17.3612 191.887 17.7234C192.256 18.0856 192.441 18.5561 192.441 19.1349C192.441 19.625 192.299 20.0618 192.015 20.4453C191.734 20.8253 191.342 21.1236 190.838 21.3402C190.337 21.5568 189.756 21.6651 189.096 21.6651C188.18 21.6651 187.432 21.4698 186.853 21.0792C186.275 20.685 185.919 20.1257 185.788 19.4013L187.327 19.1669C187.423 19.5682 187.62 19.8718 187.919 20.0778C188.217 20.2802 188.606 20.3814 189.085 20.3814C189.607 20.3814 190.025 20.2731 190.337 20.0565C190.65 19.8363 190.806 19.5682 190.806 19.2521C190.806 18.9964 190.71 18.7816 190.518 18.6076C190.33 18.4336 190.041 18.3022 189.65 18.2134L188.265 17.9098C187.501 17.7358 186.937 17.4588 186.571 17.0788C186.209 16.6989 186.028 16.2177 186.028 15.6353C186.028 15.1523 186.163 14.7298 186.433 14.3675C186.702 14.0053 187.075 13.723 187.551 13.5206C188.027 13.3146 188.572 13.2116 189.186 13.2116C190.071 13.2116 190.767 13.4034 191.275 13.7869C191.782 14.1669 192.118 14.6765 192.281 15.3157ZM198.011 13.3182V14.5966H193.542V13.3182H198.011ZM194.741 11.358H196.334V19.0977C196.334 19.4066 196.38 19.6392 196.472 19.7955C196.564 19.9482 196.683 20.0529 196.829 20.1097C196.978 20.163 197.14 20.1896 197.314 20.1896C197.442 20.1896 197.553 20.1808 197.649 20.163C197.745 20.1452 197.82 20.131 197.873 20.1204L198.161 21.4361C198.068 21.4716 197.937 21.5071 197.766 21.5426C197.596 21.5817 197.383 21.603 197.127 21.6065C196.708 21.6136 196.318 21.5391 195.955 21.3828C195.593 21.2266 195.3 20.9851 195.076 20.6584C194.853 20.3317 194.741 19.9215 194.741 19.4279V11.358ZM199.773 21.5V13.3182H201.313V14.6179H201.398C201.547 14.1776 201.81 13.8313 202.186 13.5792C202.566 13.3235 202.996 13.1957 203.475 13.1957C203.575 13.1957 203.692 13.1992 203.827 13.2063C203.965 13.2134 204.074 13.2223 204.152 13.233V14.7564C204.088 14.7386 203.974 14.7191 203.811 14.6978C203.648 14.6729 203.484 14.6605 203.321 14.6605C202.944 14.6605 202.609 14.7404 202.314 14.9002C202.023 15.0565 201.792 15.2749 201.622 15.5554C201.451 15.8324 201.366 16.1484 201.366 16.5036V21.5H199.773ZM208.684 21.6651C207.917 21.6651 207.247 21.4893 206.675 21.1378C206.104 20.7862 205.66 20.2944 205.344 19.6623C205.028 19.0302 204.87 18.2915 204.87 17.4464C204.87 16.5977 205.028 15.8555 205.344 15.2198C205.66 14.5842 206.104 14.0906 206.675 13.739C207.247 13.3874 207.917 13.2116 208.684 13.2116C209.451 13.2116 210.12 13.3874 210.692 13.739C211.263 14.0906 211.707 14.5842 212.023 15.2198C212.339 15.8555 212.497 16.5977 212.497 17.4464C212.497 18.2915 212.339 19.0302 212.023 19.6623C211.707 20.2944 211.263 20.7862 210.692 21.1378C210.12 21.4893 209.451 21.6651 208.684 21.6651ZM208.689 20.3281C209.186 20.3281 209.598 20.1967 209.925 19.9339C210.251 19.6712 210.493 19.3214 210.649 18.8846C210.809 18.4478 210.889 17.9666 210.889 17.4411C210.889 16.919 210.809 16.4396 210.649 16.0028C210.493 15.5625 210.251 15.2092 209.925 14.9428C209.598 14.6765 209.186 14.5433 208.689 14.5433C208.188 14.5433 207.773 14.6765 207.442 14.9428C207.116 15.2092 206.872 15.5625 206.713 16.0028C206.556 16.4396 206.478 16.919 206.478 17.4411C206.478 17.9666 206.556 18.4478 206.713 18.8846C206.872 19.3214 207.116 19.6712 207.442 19.9339C207.773 20.1967 208.188 20.3281 208.689 20.3281Z" fill="white"/>
</g>
<defs>
<clipPath id="clip0_21149_269277">
<rect width="317" height="33" rx="8" fill="white"/>
</clipPath>
</defs>
</svg>
