<svg width="359" height="94" viewBox="0 0 359 94" fill="none" xmlns="http://www.w3.org/2000/svg">
<path d="M18.992 14H17.36V2.8H19.248L25.056 11.488V2.8H26.704V14H24.8L18.992 5.28V14ZM36.5109 10.288C36.5109 12.656 34.9269 14.176 32.7029 14.176C30.5109 14.176 28.9109 12.656 28.9109 10.288V9.232C28.9109 6.88 30.4949 5.344 32.7029 5.344C34.9269 5.344 36.5109 6.864 36.5109 9.232V10.288ZM34.8309 9.312C34.8309 7.808 34.0309 6.832 32.7029 6.832C31.3909 6.832 30.5909 7.808 30.5909 9.312V10.224C30.5909 11.728 31.3909 12.688 32.7029 12.688C34.0309 12.688 34.8309 11.728 34.8309 10.224V9.312ZM40.335 8.928V14H38.639V5.536H40.335V7.04C40.799 6 41.743 5.36 42.831 5.36C44.159 5.36 45.167 6.16 45.551 7.344C45.951 6.144 46.959 5.36 48.223 5.36C49.983 5.36 51.151 6.736 51.151 8.496V14H49.455V8.88C49.455 7.744 48.719 6.88 47.631 6.88C46.527 6.88 45.743 7.76 45.743 8.928V14H44.047V8.88C44.047 7.744 43.311 6.88 42.239 6.88C41.119 6.88 40.335 7.76 40.335 8.928ZM53.6859 14V2.208H55.3819V6.768C55.9579 5.872 56.8699 5.344 57.9899 5.344C59.9739 5.344 61.4139 6.864 61.4139 9.184V10.352C61.4139 12.672 59.9579 14.176 57.9899 14.176C56.8539 14.176 55.9419 13.632 55.3819 12.704V14H53.6859ZM55.3819 9.312V10.224C55.3819 11.728 56.2139 12.688 57.5579 12.688C58.9179 12.688 59.7339 11.728 59.7339 10.224V9.312C59.7339 7.808 58.9179 6.832 57.5579 6.832C56.2139 6.832 55.3819 7.808 55.3819 9.312ZM68.1216 7.12H67.2416C66.1536 7.12 65.2256 7.984 65.2256 9.312V14H63.5296V5.536H65.2256V7.184C65.5776 6.16 66.3456 5.456 67.4336 5.456H68.1216V7.12ZM69.0984 10.272V9.264C69.0984 6.928 70.6344 5.344 72.8264 5.344C74.8584 5.344 76.2984 6.944 76.2984 9.216V10.304H70.7624C70.7784 11.792 71.6264 12.704 72.9544 12.704C73.7864 12.704 74.4584 12.384 75.0664 11.712L76.1384 12.704C75.3384 13.648 74.2984 14.176 72.9064 14.176C70.6664 14.176 69.0984 12.608 69.0984 10.272ZM72.7624 6.832C71.6264 6.832 70.8584 7.632 70.7784 8.976H74.6824C74.6344 7.648 73.8824 6.832 72.7624 6.832Z" fill="black"/>
<rect x="16" y="24" width="327" height="42" rx="8" fill="#E8E8E8"/>
<path d="M19.836 89.112C19.304 89.112 18.8373 89.098 18.436 89.07C18.044 89.042 17.652 89.0093 17.26 88.972V79.228C17.6987 79.1813 18.128 79.1487 18.548 79.13C18.968 79.102 19.4487 79.088 19.99 79.088C20.83 79.088 21.5533 79.2187 22.16 79.48C22.776 79.7413 23.28 80.1007 23.672 80.558C24.0733 81.0153 24.3673 81.5473 24.554 82.154C24.75 82.7513 24.848 83.3953 24.848 84.086C24.848 84.7673 24.75 85.4113 24.554 86.018C24.358 86.6247 24.0547 87.1613 23.644 87.628C23.2427 88.0853 22.7247 88.4493 22.09 88.72C21.4647 88.9813 20.7133 89.112 19.836 89.112ZM19.878 87.95C20.718 87.95 21.404 87.7867 21.936 87.46C22.468 87.1333 22.86 86.6807 23.112 86.102C23.364 85.514 23.49 84.842 23.49 84.086C23.49 83.414 23.364 82.784 23.112 82.196C22.86 81.608 22.4727 81.1367 21.95 80.782C21.4273 80.418 20.76 80.236 19.948 80.236C19.6773 80.236 19.43 80.2453 19.206 80.264C18.982 80.2733 18.7767 80.2873 18.59 80.306V87.88C18.786 87.908 18.9913 87.9267 19.206 87.936C19.4207 87.9453 19.6447 87.95 19.878 87.95ZM26.663 89V81.72H27.923V89H26.663ZM27.293 80.474C27.0503 80.474 26.8403 80.3853 26.663 80.208C26.495 80.0307 26.411 79.8253 26.411 79.592C26.411 79.3213 26.4903 79.1067 26.649 78.948C26.8076 78.7893 27.0223 78.71 27.293 78.71C27.5356 78.71 27.741 78.7987 27.909 78.976C28.0863 79.144 28.175 79.3493 28.175 79.592C28.175 79.8533 28.0956 80.068 27.937 80.236C27.7783 80.3947 27.5636 80.474 27.293 80.474ZM32.837 92.248C32.4076 92.248 31.9876 92.1967 31.577 92.094C31.1756 91.9913 30.8163 91.8373 30.499 91.632L30.961 90.54C31.185 90.7173 31.4463 90.862 31.745 90.974C32.0436 91.0953 32.4076 91.156 32.837 91.156C33.4996 91.156 34.0176 90.9787 34.391 90.624C34.7736 90.2787 34.965 89.7233 34.965 88.958V88.062C34.7783 88.286 34.5076 88.5007 34.153 88.706C33.8076 88.902 33.3923 89 32.907 89C32.3563 89 31.8336 88.86 31.339 88.58C30.8443 88.2907 30.443 87.8707 30.135 87.32C29.827 86.7693 29.673 86.1067 29.673 85.332C29.673 84.604 29.8223 83.9553 30.121 83.386C30.429 82.8167 30.8396 82.3687 31.353 82.042C31.8663 81.7153 32.431 81.552 33.047 81.552C33.4576 81.552 33.831 81.622 34.167 81.762C34.503 81.902 34.7923 82.0747 35.035 82.28V81.72H36.183V88.832C36.183 89.6347 36.043 90.288 35.763 90.792C35.483 91.296 35.091 91.6647 34.587 91.898C34.0923 92.1313 33.509 92.248 32.837 92.248ZM33.187 87.88C33.5603 87.88 33.8963 87.796 34.195 87.628C34.4936 87.46 34.7363 87.264 34.923 87.04V83.232C34.7176 83.0827 34.4703 82.9473 34.181 82.826C33.8916 82.7047 33.5556 82.644 33.173 82.644C32.7903 82.644 32.431 82.7467 32.095 82.952C31.759 83.1573 31.4836 83.456 31.269 83.848C31.0636 84.2307 30.961 84.702 30.961 85.262C30.961 85.794 31.0636 86.256 31.269 86.648C31.4836 87.04 31.759 87.3433 32.095 87.558C32.431 87.7727 32.795 87.88 33.187 87.88ZM38.3524 89V81.72H39.6124V89H38.3524ZM38.9824 80.474C38.7398 80.474 38.5298 80.3853 38.3524 80.208C38.1844 80.0307 38.1004 79.8253 38.1004 79.592C38.1004 79.3213 38.1798 79.1067 38.3384 78.948C38.4971 78.7893 38.7118 78.71 38.9824 78.71C39.2251 78.71 39.4304 78.7987 39.5984 78.976C39.7758 79.144 39.8644 79.3493 39.8644 79.592C39.8644 79.8533 39.7851 80.068 39.6264 80.236C39.4678 80.3947 39.2531 80.474 38.9824 80.474ZM44.4004 89.168C43.7004 89.168 43.1451 88.9393 42.7344 88.482C42.3331 88.0153 42.1324 87.3527 42.1324 86.494V83.078H40.8724V81.986H42.1604L42.4264 79.69H43.3924V81.986H45.4084V83.078H43.3924V86.592C43.3924 87.1333 43.5044 87.5113 43.7284 87.726C43.9618 87.9407 44.2371 88.048 44.5544 88.048C44.7878 88.048 45.0071 88.0107 45.2124 87.936C45.4271 87.8613 45.6231 87.7727 45.8004 87.67L46.1504 88.678C45.9638 88.79 45.7118 88.8973 45.3944 89C45.0771 89.112 44.7458 89.168 44.4004 89.168ZM50.0554 89.168C49.0101 89.168 48.1794 88.8367 47.5634 88.174C46.9568 87.502 46.6534 86.564 46.6534 85.36C46.6534 84.632 46.7888 83.9833 47.0594 83.414C47.3394 82.8353 47.7268 82.3827 48.2214 82.056C48.7161 81.72 49.2901 81.552 49.9434 81.552C50.6434 81.552 51.2221 81.706 51.6794 82.014C52.1461 82.3127 52.4961 82.7187 52.7294 83.232C52.9628 83.7453 53.0794 84.31 53.0794 84.926C53.0794 85.2527 53.0654 85.57 53.0374 85.878H47.9414C48.0254 86.5593 48.2634 87.0913 48.6554 87.474C49.0474 87.8567 49.5654 88.048 50.2094 88.048C50.6294 88.048 51.0074 88.006 51.3434 87.922C51.6794 87.8287 52.0014 87.712 52.3094 87.572L52.6034 88.65C52.2674 88.7993 51.8894 88.9207 51.4694 89.014C51.0494 89.1167 50.5781 89.168 50.0554 89.168ZM47.9274 84.856H51.9174C51.9174 84.1467 51.7401 83.6007 51.3854 83.218C51.0308 82.8353 50.5408 82.644 49.9154 82.644C49.3741 82.644 48.9261 82.8353 48.5714 83.218C48.2168 83.5913 48.0021 84.1373 47.9274 84.856ZM61.8679 89.168C60.8226 89.168 59.9919 88.8367 59.3759 88.174C58.7693 87.502 58.4659 86.564 58.4659 85.36C58.4659 84.632 58.6013 83.9833 58.8719 83.414C59.1519 82.8353 59.5393 82.3827 60.0339 82.056C60.5286 81.72 61.1026 81.552 61.7559 81.552C62.4559 81.552 63.0346 81.706 63.4919 82.014C63.9586 82.3127 64.3086 82.7187 64.5419 83.232C64.7753 83.7453 64.8919 84.31 64.8919 84.926C64.8919 85.2527 64.8779 85.57 64.8499 85.878H59.7539C59.8379 86.5593 60.0759 87.0913 60.4679 87.474C60.8599 87.8567 61.3779 88.048 62.0219 88.048C62.4419 88.048 62.8199 88.006 63.1559 87.922C63.4919 87.8287 63.8139 87.712 64.1219 87.572L64.4159 88.65C64.0799 88.7993 63.7019 88.9207 63.2819 89.014C62.8619 89.1167 62.3906 89.168 61.8679 89.168ZM59.7399 84.856H63.7299C63.7299 84.1467 63.5526 83.6007 63.1979 83.218C62.8433 82.8353 62.3533 82.644 61.7279 82.644C61.1866 82.644 60.7386 82.8353 60.3839 83.218C60.0293 83.5913 59.8146 84.1373 59.7399 84.856ZM68.7832 89.168C68.3538 89.168 67.9665 89.0887 67.6212 88.93C67.2758 88.762 67.0005 88.496 66.7952 88.132C66.5992 87.768 66.5012 87.2967 66.5012 86.718V78.64H67.7612V86.592C67.7612 87.096 67.8638 87.4693 68.0692 87.712C68.2838 87.9547 68.5778 88.076 68.9512 88.076C69.1285 88.076 69.3012 88.0573 69.4692 88.02C69.6465 87.9733 69.7958 87.922 69.9172 87.866L70.2252 88.888C70.0572 88.9627 69.8472 89.028 69.5952 89.084C69.3525 89.14 69.0818 89.168 68.7832 89.168ZM75.6083 89V81.72H76.8263V82.938C77.0876 82.546 77.4189 82.2193 77.8203 81.958C78.2309 81.6873 78.7163 81.552 79.2763 81.552C80.0976 81.552 80.7089 81.7993 81.1103 82.294C81.5209 82.7887 81.7263 83.442 81.7263 84.254V89H80.4663V84.394C80.4663 83.8713 80.3403 83.4513 80.0883 83.134C79.8456 82.8167 79.5049 82.658 79.0663 82.658C78.6369 82.658 78.2309 82.812 77.8483 83.12C77.4656 83.4187 77.1389 83.7733 76.8683 84.184V89H75.6083ZM86.9594 89.168C86.2688 89.168 85.6481 89.0093 85.0974 88.692C84.5468 88.3653 84.1128 87.9173 83.7954 87.348C83.4874 86.7693 83.3334 86.1067 83.3334 85.36C83.3334 84.576 83.4921 83.8993 83.8094 83.33C84.1268 82.7607 84.5608 82.322 85.1114 82.014C85.6621 81.706 86.2781 81.552 86.9594 81.552C87.6408 81.552 88.2521 81.706 88.7934 82.014C89.3441 82.322 89.7781 82.7607 90.0954 83.33C90.4221 83.89 90.5854 84.5573 90.5854 85.332C90.5854 86.1067 90.4268 86.7833 90.1094 87.362C89.7921 87.9313 89.3581 88.3747 88.8074 88.692C88.2661 89.0093 87.6501 89.168 86.9594 89.168ZM86.9594 88.048C87.6968 88.048 88.2708 87.8007 88.6814 87.306C89.0921 86.802 89.2974 86.1533 89.2974 85.36C89.2974 84.8747 89.1948 84.4313 88.9894 84.03C88.7841 83.6193 88.5041 83.2927 88.1494 83.05C87.8041 82.798 87.4074 82.672 86.9594 82.672C86.2221 82.672 85.6481 82.9147 85.2374 83.4C84.8268 83.8853 84.6214 84.5293 84.6214 85.332C84.6214 85.8173 84.7241 86.27 84.9294 86.69C85.1348 87.1007 85.4101 87.432 85.7554 87.684C86.1101 87.9267 86.5114 88.048 86.9594 88.048ZM92.2606 89V81.72H93.4786V82.938C93.74 82.546 94.0713 82.2193 94.4726 81.958C94.874 81.6873 95.3313 81.552 95.8446 81.552C96.4233 81.552 96.8946 81.692 97.2586 81.972C97.632 82.252 97.8933 82.6253 98.0426 83.092C98.332 82.6627 98.6726 82.2987 99.0646 82C99.466 81.7013 99.9606 81.552 100.549 81.552C101.342 81.552 101.93 81.804 102.313 82.308C102.705 82.8027 102.901 83.4513 102.901 84.254V89H101.641V84.352C101.641 83.848 101.524 83.442 101.291 83.134C101.057 82.8167 100.735 82.658 100.325 82.658C99.9046 82.658 99.5126 82.8167 99.1486 83.134C98.794 83.442 98.4813 83.806 98.2106 84.226V89H96.9506V84.352C96.9506 83.848 96.834 83.442 96.6006 83.134C96.3673 82.8167 96.0453 82.658 95.6346 82.658C95.224 82.658 94.8366 82.812 94.4726 83.12C94.1086 83.4187 93.7913 83.7733 93.5206 84.184V89H92.2606ZM108.347 89.168C107.927 89.168 107.531 89.0933 107.157 88.944C106.793 88.7853 106.49 88.6033 106.247 88.398V89H105.071V78.64H106.331V82.476C106.518 82.2613 106.789 82.056 107.143 81.86C107.507 81.6547 107.937 81.552 108.431 81.552C108.991 81.552 109.514 81.7013 109.999 82C110.494 82.2893 110.891 82.714 111.189 83.274C111.488 83.8247 111.637 84.4967 111.637 85.29C111.637 85.8687 111.544 86.396 111.357 86.872C111.171 87.348 110.919 87.7587 110.601 88.104C110.293 88.44 109.943 88.7013 109.551 88.888C109.159 89.0747 108.758 89.168 108.347 89.168ZM108.011 88.048C108.469 88.048 108.87 87.936 109.215 87.712C109.57 87.488 109.845 87.1707 110.041 86.76C110.247 86.3493 110.349 85.8733 110.349 85.332C110.349 84.772 110.247 84.2913 110.041 83.89C109.845 83.4887 109.579 83.1807 109.243 82.966C108.917 82.7513 108.553 82.644 108.151 82.644C107.75 82.644 107.386 82.7467 107.059 82.952C106.742 83.148 106.499 83.3627 106.331 83.596V87.488C106.546 87.656 106.798 87.7913 107.087 87.894C107.377 87.9967 107.685 88.048 108.011 88.048ZM113.384 89V81.72H114.602V83.302C114.723 82.994 114.886 82.7093 115.092 82.448C115.297 82.1773 115.554 81.9627 115.862 81.804C116.17 81.636 116.529 81.552 116.94 81.552C117.08 81.552 117.22 81.5613 117.36 81.58C117.5 81.5893 117.616 81.608 117.71 81.636L117.332 82.938C117.154 82.8633 116.944 82.826 116.702 82.826C116.356 82.826 116.025 82.924 115.708 83.12C115.4 83.316 115.143 83.6193 114.938 84.03C114.742 84.4407 114.644 84.9633 114.644 85.598V89H113.384ZM121.464 89.168C120.418 89.168 119.588 88.8367 118.972 88.174C118.365 87.502 118.062 86.564 118.062 85.36C118.062 84.632 118.197 83.9833 118.468 83.414C118.748 82.8353 119.135 82.3827 119.63 82.056C120.124 81.72 120.698 81.552 121.352 81.552C122.052 81.552 122.63 81.706 123.088 82.014C123.554 82.3127 123.904 82.7187 124.138 83.232C124.371 83.7453 124.488 84.31 124.488 84.926C124.488 85.2527 124.474 85.57 124.446 85.878H119.35C119.434 86.5593 119.672 87.0913 120.064 87.474C120.456 87.8567 120.974 88.048 121.618 88.048C122.038 88.048 122.416 88.006 122.752 87.922C123.088 87.8287 123.41 87.712 123.718 87.572L124.012 88.65C123.676 88.7993 123.298 88.9207 122.878 89.014C122.458 89.1167 121.986 89.168 121.464 89.168ZM119.336 84.856H123.326C123.326 84.1467 123.148 83.6007 122.794 83.218C122.439 82.8353 121.949 82.644 121.324 82.644C120.782 82.644 120.334 82.8353 119.98 83.218C119.625 83.5913 119.41 84.1373 119.336 84.856ZM133.122 89.168C132.525 89.168 131.979 89.014 131.484 88.706C130.989 88.398 130.597 87.964 130.308 87.404C130.019 86.8347 129.874 86.1673 129.874 85.402C129.874 84.6647 130.019 84.0067 130.308 83.428C130.607 82.8493 130.999 82.392 131.484 82.056C131.979 81.72 132.52 81.552 133.108 81.552C133.593 81.552 134.009 81.65 134.354 81.846C134.709 82.042 134.984 82.2427 135.18 82.448V78.64H136.44V87.236C136.44 87.5907 136.524 87.824 136.692 87.936C136.869 88.0387 137.061 88.09 137.266 88.09L137 89.07C136.113 89.07 135.572 88.7153 135.376 88.006C135.171 88.2953 134.881 88.5613 134.508 88.804C134.144 89.0467 133.682 89.168 133.122 89.168ZM133.402 88.048C133.747 88.048 134.074 87.9687 134.382 87.81C134.699 87.642 134.965 87.4273 135.18 87.166V83.554C135.003 83.33 134.755 83.1247 134.438 82.938C134.121 82.742 133.771 82.644 133.388 82.644C132.94 82.644 132.548 82.7653 132.212 83.008C131.876 83.2507 131.615 83.5773 131.428 83.988C131.251 84.3893 131.162 84.8467 131.162 85.36C131.162 85.8733 131.26 86.3353 131.456 86.746C131.652 87.1473 131.918 87.4647 132.254 87.698C132.599 87.9313 132.982 88.048 133.402 88.048ZM141.725 89.168C140.68 89.168 139.849 88.8367 139.233 88.174C138.627 87.502 138.323 86.564 138.323 85.36C138.323 84.632 138.459 83.9833 138.729 83.414C139.009 82.8353 139.397 82.3827 139.891 82.056C140.386 81.72 140.96 81.552 141.613 81.552C142.313 81.552 142.892 81.706 143.349 82.014C143.816 82.3127 144.166 82.7187 144.399 83.232C144.633 83.7453 144.749 84.31 144.749 84.926C144.749 85.2527 144.735 85.57 144.707 85.878H139.611C139.695 86.5593 139.933 87.0913 140.325 87.474C140.717 87.8567 141.235 88.048 141.879 88.048C142.299 88.048 142.677 88.006 143.013 87.922C143.349 87.8287 143.671 87.712 143.979 87.572L144.273 88.65C143.937 88.7993 143.559 88.9207 143.139 89.014C142.719 89.1167 142.248 89.168 141.725 89.168ZM139.597 84.856H143.587C143.587 84.1467 143.41 83.6007 143.055 83.218C142.701 82.8353 142.211 82.644 141.585 82.644C141.044 82.644 140.596 82.8353 140.241 83.218C139.887 83.5913 139.672 84.1373 139.597 84.856ZM152.838 89.168C152.409 89.168 152.021 89.0887 151.676 88.93C151.331 88.762 151.055 88.496 150.85 88.132C150.654 87.768 150.556 87.2967 150.556 86.718V78.64H151.816V86.592C151.816 87.096 151.919 87.4693 152.124 87.712C152.339 87.9547 152.633 88.076 153.006 88.076C153.183 88.076 153.356 88.0573 153.524 88.02C153.701 87.9733 153.851 87.922 153.972 87.866L154.28 88.888C154.112 88.9627 153.902 89.028 153.65 89.084C153.407 89.14 153.137 89.168 152.838 89.168ZM158.047 89.168C157.44 89.168 156.889 89.014 156.395 88.706C155.9 88.398 155.503 87.964 155.205 87.404C154.915 86.8347 154.771 86.1673 154.771 85.402C154.771 84.674 154.915 84.0207 155.205 83.442C155.503 82.8633 155.909 82.406 156.423 82.07C156.945 81.7247 157.543 81.552 158.215 81.552C158.635 81.552 159.013 81.6267 159.349 81.776C159.694 81.916 159.993 82.0933 160.245 82.308V81.72H161.393V87.236C161.393 87.5907 161.477 87.824 161.645 87.936C161.822 88.0387 162.013 88.09 162.219 88.09L161.953 89.07C161.057 89.07 160.515 88.706 160.329 87.978C160.114 88.2767 159.82 88.552 159.447 88.804C159.083 89.0467 158.616 89.168 158.047 89.168ZM158.327 88.048C158.681 88.048 159.017 87.964 159.335 87.796C159.652 87.6187 159.918 87.3993 160.133 87.138V83.232C159.881 83.0547 159.601 82.9147 159.293 82.812C158.994 82.7 158.677 82.644 158.341 82.644C157.893 82.644 157.496 82.7607 157.151 82.994C156.815 83.218 156.549 83.5353 156.353 83.946C156.157 84.3473 156.059 84.8187 156.059 85.36C156.059 85.8827 156.157 86.3493 156.353 86.76C156.549 87.1613 156.819 87.4787 157.165 87.712C157.51 87.936 157.897 88.048 158.327 88.048ZM168.365 92.08V83.582C168.365 83.2647 168.285 83.0407 168.127 82.91C167.977 82.77 167.781 82.7 167.539 82.7L167.805 81.72C168.663 81.72 169.2 82.0607 169.415 82.742C169.508 82.602 169.657 82.4387 169.863 82.252C170.077 82.0653 170.339 81.902 170.647 81.762C170.964 81.622 171.323 81.552 171.725 81.552C172.285 81.552 172.807 81.7013 173.293 82C173.787 82.2893 174.184 82.714 174.483 83.274C174.781 83.8247 174.931 84.4967 174.931 85.29C174.931 86.0647 174.781 86.746 174.483 87.334C174.184 87.9127 173.792 88.3653 173.307 88.692C172.831 89.0093 172.313 89.168 171.753 89.168C171.323 89.168 170.922 89.084 170.549 88.916C170.175 88.7387 169.867 88.538 169.625 88.314V92.08H168.365ZM171.501 88.048C172.135 88.048 172.649 87.8007 173.041 87.306C173.442 86.802 173.643 86.144 173.643 85.332C173.643 84.772 173.54 84.2913 173.335 83.89C173.139 83.4887 172.873 83.1807 172.537 82.966C172.21 82.7513 171.846 82.644 171.445 82.644C171.043 82.644 170.679 82.7467 170.353 82.952C170.035 83.148 169.793 83.3627 169.625 83.596V87.18C169.867 87.432 170.147 87.642 170.465 87.81C170.782 87.9687 171.127 88.048 171.501 88.048ZM179.47 89.168C178.864 89.168 178.313 89.014 177.818 88.706C177.324 88.398 176.927 87.964 176.628 87.404C176.339 86.8347 176.194 86.1673 176.194 85.402C176.194 84.674 176.339 84.0207 176.628 83.442C176.927 82.8633 177.333 82.406 177.846 82.07C178.369 81.7247 178.966 81.552 179.638 81.552C180.058 81.552 180.436 81.6267 180.772 81.776C181.118 81.916 181.416 82.0933 181.668 82.308V81.72H182.816V87.236C182.816 87.5907 182.9 87.824 183.068 87.936C183.246 88.0387 183.437 88.09 183.642 88.09L183.376 89.07C182.48 89.07 181.939 88.706 181.752 87.978C181.538 88.2767 181.244 88.552 180.87 88.804C180.506 89.0467 180.04 89.168 179.47 89.168ZM179.75 88.048C180.105 88.048 180.441 87.964 180.758 87.796C181.076 87.6187 181.342 87.3993 181.556 87.138V83.232C181.304 83.0547 181.024 82.9147 180.716 82.812C180.418 82.7 180.1 82.644 179.764 82.644C179.316 82.644 178.92 82.7607 178.574 82.994C178.238 83.218 177.972 83.5353 177.776 83.946C177.58 84.3473 177.482 84.8187 177.482 85.36C177.482 85.8827 177.58 86.3493 177.776 86.76C177.972 87.1613 178.243 87.4787 178.588 87.712C178.934 87.936 179.321 88.048 179.75 88.048ZM185.325 89V81.72H186.543V83.302C186.664 82.994 186.828 82.7093 187.033 82.448C187.238 82.1773 187.495 81.9627 187.803 81.804C188.111 81.636 188.47 81.552 188.881 81.552C189.021 81.552 189.161 81.5613 189.301 81.58C189.441 81.5893 189.558 81.608 189.651 81.636L189.273 82.938C189.096 82.8633 188.886 82.826 188.643 82.826C188.298 82.826 187.966 82.924 187.649 83.12C187.341 83.316 187.084 83.6193 186.879 84.03C186.683 84.4407 186.585 84.9633 186.585 85.598V89H185.325ZM193.738 89.168C193.038 89.168 192.483 88.9393 192.072 88.482C191.671 88.0153 191.47 87.3527 191.47 86.494V83.078H190.21V81.986H191.498L191.764 79.69H192.73V81.986H194.746V83.078H192.73V86.592C192.73 87.1333 192.842 87.5113 193.066 87.726C193.3 87.9407 193.575 88.048 193.892 88.048C194.126 88.048 194.345 88.0107 194.55 87.936C194.765 87.8613 194.961 87.7727 195.138 87.67L195.488 88.678C195.302 88.79 195.05 88.8973 194.732 89C194.415 89.112 194.084 89.168 193.738 89.168ZM199.393 89.168C198.348 89.168 197.517 88.8367 196.901 88.174C196.295 87.502 195.991 86.564 195.991 85.36C195.991 84.632 196.127 83.9833 196.397 83.414C196.677 82.8353 197.065 82.3827 197.559 82.056C198.054 81.72 198.628 81.552 199.281 81.552C199.981 81.552 200.56 81.706 201.017 82.014C201.484 82.3127 201.834 82.7187 202.067 83.232C202.301 83.7453 202.417 84.31 202.417 84.926C202.417 85.2527 202.403 85.57 202.375 85.878H197.279C197.363 86.5593 197.601 87.0913 197.993 87.474C198.385 87.8567 198.903 88.048 199.547 88.048C199.967 88.048 200.345 88.006 200.681 87.922C201.017 87.8287 201.339 87.712 201.647 87.572L201.941 88.65C201.605 88.7993 201.227 88.9207 200.807 89.014C200.387 89.1167 199.916 89.168 199.393 89.168ZM197.265 84.856H201.255C201.255 84.1467 201.078 83.6007 200.723 83.218C200.369 82.8353 199.879 82.644 199.253 82.644C198.712 82.644 198.264 82.8353 197.909 83.218C197.555 83.5913 197.34 84.1373 197.265 84.856ZM211.052 89.168C210.454 89.168 209.908 89.014 209.414 88.706C208.919 88.398 208.527 87.964 208.238 87.404C207.948 86.8347 207.804 86.1673 207.804 85.402C207.804 84.6647 207.948 84.0067 208.238 83.428C208.536 82.8493 208.928 82.392 209.414 82.056C209.908 81.72 210.45 81.552 211.038 81.552C211.523 81.552 211.938 81.65 212.284 81.846C212.638 82.042 212.914 82.2427 213.11 82.448V78.64H214.37V87.236C214.37 87.5907 214.454 87.824 214.622 87.936C214.799 88.0387 214.99 88.09 215.196 88.09L214.93 89.07C214.043 89.07 213.502 88.7153 213.306 88.006C213.1 88.2953 212.811 88.5613 212.438 88.804C212.074 89.0467 211.612 89.168 211.052 89.168ZM211.332 88.048C211.677 88.048 212.004 87.9687 212.312 87.81C212.629 87.642 212.895 87.4273 213.11 87.166V83.554C212.932 83.33 212.685 83.1247 212.368 82.938C212.05 82.742 211.7 82.644 211.318 82.644C210.87 82.644 210.478 82.7653 210.142 83.008C209.806 83.2507 209.544 83.5773 209.358 83.988C209.18 84.3893 209.092 84.8467 209.092 85.36C209.092 85.8733 209.19 86.3353 209.386 86.746C209.582 87.1473 209.848 87.4647 210.184 87.698C210.529 87.9313 210.912 88.048 211.332 88.048ZM219.655 89.168C218.61 89.168 217.779 88.8367 217.163 88.174C216.556 87.502 216.253 86.564 216.253 85.36C216.253 84.632 216.388 83.9833 216.659 83.414C216.939 82.8353 217.326 82.3827 217.821 82.056C218.316 81.72 218.89 81.552 219.543 81.552C220.243 81.552 220.822 81.706 221.279 82.014C221.746 82.3127 222.096 82.7187 222.329 83.232C222.562 83.7453 222.679 84.31 222.679 84.926C222.679 85.2527 222.665 85.57 222.637 85.878H217.541C217.625 86.5593 217.863 87.0913 218.255 87.474C218.647 87.8567 219.165 88.048 219.809 88.048C220.229 88.048 220.607 88.006 220.943 87.922C221.279 87.8287 221.601 87.712 221.909 87.572L222.203 88.65C221.867 88.7993 221.489 88.9207 221.069 89.014C220.649 89.1167 220.178 89.168 219.655 89.168ZM217.527 84.856H221.517C221.517 84.1467 221.34 83.6007 220.985 83.218C220.63 82.8353 220.14 82.644 219.515 82.644C218.974 82.644 218.526 82.8353 218.171 83.218C217.816 83.5913 217.602 84.1373 217.527 84.856ZM226.57 89.168C226.141 89.168 225.754 89.0887 225.408 88.93C225.063 88.762 224.788 88.496 224.582 88.132C224.386 87.768 224.288 87.2967 224.288 86.718V78.64H225.548V86.592C225.548 87.096 225.651 87.4693 225.856 87.712C226.071 87.9547 226.365 88.076 226.738 88.076C226.916 88.076 227.088 88.0573 227.256 88.02C227.434 87.9733 227.583 87.922 227.704 87.866L228.012 88.888C227.844 88.9627 227.634 89.028 227.382 89.084C227.14 89.14 226.869 89.168 226.57 89.168ZM236.307 89.168C235.262 89.168 234.431 88.8367 233.815 88.174C233.209 87.502 232.905 86.564 232.905 85.36C232.905 84.632 233.041 83.9833 233.311 83.414C233.591 82.8353 233.979 82.3827 234.473 82.056C234.968 81.72 235.542 81.552 236.195 81.552C236.895 81.552 237.474 81.706 237.931 82.014C238.398 82.3127 238.748 82.7187 238.981 83.232C239.215 83.7453 239.331 84.31 239.331 84.926C239.331 85.2527 239.317 85.57 239.289 85.878H234.193C234.277 86.5593 234.515 87.0913 234.907 87.474C235.299 87.8567 235.817 88.048 236.461 88.048C236.881 88.048 237.259 88.006 237.595 87.922C237.931 87.8287 238.253 87.712 238.561 87.572L238.855 88.65C238.519 88.7993 238.141 88.9207 237.721 89.014C237.301 89.1167 236.83 89.168 236.307 89.168ZM234.179 84.856H238.169C238.169 84.1467 237.992 83.6007 237.637 83.218C237.283 82.8353 236.793 82.644 236.167 82.644C235.626 82.644 235.178 82.8353 234.823 83.218C234.469 83.5913 234.254 84.1373 234.179 84.856ZM245.827 92.08V88.258C245.631 88.4633 245.355 88.6687 245.001 88.874C244.655 89.07 244.249 89.168 243.783 89.168C243.223 89.168 242.691 89.0233 242.187 88.734C241.692 88.4447 241.291 88.02 240.983 87.46C240.675 86.8907 240.521 86.2 240.521 85.388C240.521 84.6227 240.675 83.9553 240.983 83.386C241.291 82.8073 241.701 82.3593 242.215 82.042C242.728 81.7153 243.293 81.552 243.909 81.552C244.329 81.552 244.707 81.6267 245.043 81.776C245.388 81.916 245.687 82.0933 245.939 82.308V81.72H247.087V92.08H245.827ZM244.063 88.048C244.436 88.048 244.777 87.9593 245.085 87.782C245.393 87.6047 245.64 87.3993 245.827 87.166V83.232C245.575 83.0547 245.295 82.9147 244.987 82.812C244.688 82.7 244.371 82.644 244.035 82.644C243.633 82.644 243.265 82.7513 242.929 82.966C242.593 83.1807 242.322 83.4887 242.117 83.89C241.911 84.2913 241.809 84.7767 241.809 85.346C241.809 85.906 241.911 86.3913 242.117 86.802C242.331 87.2033 242.611 87.5113 242.957 87.726C243.302 87.9407 243.671 88.048 244.063 88.048ZM251.703 89.168C251.283 89.168 250.886 89.0793 250.513 88.902C250.14 88.7247 249.836 88.44 249.603 88.048C249.37 87.6467 249.253 87.1147 249.253 86.452V81.72H250.513V86.284C250.513 86.8533 250.634 87.292 250.877 87.6C251.12 87.8987 251.474 88.048 251.941 88.048C252.324 88.048 252.692 87.9733 253.047 87.824C253.411 87.6653 253.733 87.4553 254.013 87.194V81.72H255.273V87.11C255.273 87.5113 255.357 87.7773 255.525 87.908C255.702 88.0293 255.894 88.09 256.099 88.09L255.833 89.07C254.965 89.07 254.428 88.7247 254.223 88.034C253.896 88.37 253.518 88.6453 253.089 88.86C252.66 89.0653 252.198 89.168 251.703 89.168ZM257.772 89V81.72H259.032V89H257.772ZM258.402 80.474C258.16 80.474 257.95 80.3853 257.772 80.208C257.604 80.0307 257.52 79.8253 257.52 79.592C257.52 79.3213 257.6 79.1067 257.758 78.948C257.917 78.7893 258.132 78.71 258.402 78.71C258.645 78.71 258.85 78.7987 259.018 78.976C259.196 79.144 259.284 79.3493 259.284 79.592C259.284 79.8533 259.205 80.068 259.046 80.236C258.888 80.3947 258.673 80.474 258.402 80.474ZM261.538 92.08V83.582C261.538 83.2647 261.459 83.0407 261.3 82.91C261.151 82.77 260.955 82.7 260.712 82.7L260.978 81.72C261.837 81.72 262.374 82.0607 262.588 82.742C262.682 82.602 262.831 82.4387 263.036 82.252C263.251 82.0653 263.512 81.902 263.82 81.762C264.138 81.622 264.497 81.552 264.898 81.552C265.458 81.552 265.981 81.7013 266.466 82C266.961 82.2893 267.358 82.714 267.656 83.274C267.955 83.8247 268.104 84.4967 268.104 85.29C268.104 86.0647 267.955 86.746 267.656 87.334C267.358 87.9127 266.966 88.3653 266.48 88.692C266.004 89.0093 265.486 89.168 264.926 89.168C264.497 89.168 264.096 89.084 263.722 88.916C263.349 88.7387 263.041 88.538 262.798 88.314V92.08H261.538ZM264.674 88.048C265.309 88.048 265.822 87.8007 266.214 87.306C266.616 86.802 266.816 86.144 266.816 85.332C266.816 84.772 266.714 84.2913 266.508 83.89C266.312 83.4887 266.046 83.1807 265.71 82.966C265.384 82.7513 265.02 82.644 264.618 82.644C264.217 82.644 263.853 82.7467 263.526 82.952C263.209 83.148 262.966 83.3627 262.798 83.596V87.18C263.041 87.432 263.321 87.642 263.638 87.81C263.956 87.9687 264.301 88.048 264.674 88.048ZM272.924 89.168C272.234 89.168 271.613 89.0093 271.062 88.692C270.512 88.3653 270.078 87.9173 269.76 87.348C269.452 86.7693 269.298 86.1067 269.298 85.36C269.298 84.576 269.457 83.8993 269.774 83.33C270.092 82.7607 270.526 82.322 271.076 82.014C271.627 81.706 272.243 81.552 272.924 81.552C273.606 81.552 274.217 81.706 274.758 82.014C275.309 82.322 275.743 82.7607 276.06 83.33C276.387 83.89 276.55 84.5573 276.55 85.332C276.55 86.1067 276.392 86.7833 276.074 87.362C275.757 87.9313 275.323 88.3747 274.772 88.692C274.231 89.0093 273.615 89.168 272.924 89.168ZM272.924 88.048C273.662 88.048 274.236 87.8007 274.646 87.306C275.057 86.802 275.262 86.1533 275.262 85.36C275.262 84.8747 275.16 84.4313 274.954 84.03C274.749 83.6193 274.469 83.2927 274.114 83.05C273.769 82.798 273.372 82.672 272.924 82.672C272.187 82.672 271.613 82.9147 271.202 83.4C270.792 83.8853 270.586 84.5293 270.586 85.332C270.586 85.8173 270.689 86.27 270.894 86.69C271.1 87.1007 271.375 87.432 271.72 87.684C272.075 87.9267 272.476 88.048 272.924 88.048Z" fill="#5E5E5E"/>
</svg>
