<svg width="359" height="94" viewBox="0 0 359 94" fill="none" xmlns="http://www.w3.org/2000/svg">
<path d="M17.36 14V2.8H24.736V4.336H19.12V7.632H24.576V9.152H19.12V12.464H24.736V14H17.36ZM29.8814 14.176C27.9134 14.176 26.5054 13.056 26.2014 11.376H27.8174C28.0094 12.24 28.7614 12.832 29.8974 12.832C30.7614 12.832 31.3374 12.384 31.3374 11.76C31.3374 11.216 30.9054 10.864 30.2174 10.688L28.6174 10.288C27.1134 9.92 26.3454 9.12 26.3454 7.904C26.3454 6.368 27.5454 5.344 29.3214 5.344C31.1774 5.344 32.6014 6.464 32.8574 8.16H31.2254C31.0334 7.312 30.2654 6.704 29.3214 6.704C28.5054 6.704 28.0094 7.136 28.0094 7.744C28.0094 8.272 28.4254 8.64 29.1774 8.832L30.6814 9.2C32.2014 9.584 33.0014 10.4 33.0014 11.616C33.0014 13.136 31.7374 14.176 29.8814 14.176ZM37.583 14C36.239 14 35.487 13.2 35.487 12.08V7.008H33.775V5.536H35.487V3.04H37.183V5.536H39.439V7.008H37.183V11.84C37.183 12.288 37.503 12.528 38.015 12.528H39.439V14H37.583ZM40.4506 11.616C40.4506 10.096 41.4906 9.248 43.1866 9.136L45.6826 8.976V8.432C45.6826 7.472 45.0906 6.912 44.0666 6.912C43.2666 6.912 42.5626 7.168 41.8426 7.744L41.0746 6.496C41.9706 5.76 43.0426 5.36 44.3066 5.36C46.1466 5.36 47.3466 6.48 47.3466 8.224V12.016C47.3466 12.336 47.5226 12.512 47.8586 12.512H48.2746V14H47.4266C46.5306 14 45.9226 13.52 45.7786 12.768C45.2826 13.616 44.3866 14.16 43.3146 14.16C41.6666 14.16 40.4506 13.088 40.4506 11.616ZM42.0986 11.584C42.0986 12.304 42.7386 12.8 43.6506 12.8C44.7706 12.8 45.6826 12 45.6826 11.024V10.256L43.4106 10.432C42.5786 10.496 42.0986 10.88 42.0986 11.584ZM57.3889 14H55.6929V12.72C55.1489 13.648 54.2209 14.176 53.0849 14.176C51.1169 14.176 49.6609 12.672 49.6609 10.352V9.184C49.6609 6.864 51.1169 5.344 53.0849 5.344C54.2049 5.344 55.1169 5.856 55.6929 6.752V2.208H57.3889V14ZM55.6929 9.312C55.6929 7.808 54.8609 6.832 53.5169 6.832C52.1569 6.832 51.3409 7.808 51.3409 9.312V10.224C51.3409 11.728 52.1569 12.688 53.5169 12.688C54.8609 12.688 55.6929 11.728 55.6929 10.224V9.312ZM67.1046 10.288C67.1046 12.656 65.5206 14.176 63.2966 14.176C61.1046 14.176 59.5046 12.656 59.5046 10.288V9.232C59.5046 6.88 61.0886 5.344 63.2966 5.344C65.5206 5.344 67.1046 6.864 67.1046 9.232V10.288ZM65.4246 9.312C65.4246 7.808 64.6246 6.832 63.2966 6.832C61.9846 6.832 61.1846 7.808 61.1846 9.312V10.224C61.1846 11.728 61.9846 12.688 63.2966 12.688C64.6246 12.688 65.4246 11.728 65.4246 10.224V9.312Z" fill="black"/>
<rect x="16" y="24" width="327" height="42" rx="8" fill="#E8E8E8"/>
<path d="M17.26 89V79.2H23.14V80.348H18.59V83.33H22.51V84.45H18.59V87.852H23.14V89H17.26ZM26.7089 89.168C26.1582 89.168 25.6589 89.098 25.2109 88.958C24.7722 88.818 24.4082 88.636 24.1189 88.412L24.6509 87.362C24.8936 87.5673 25.1969 87.74 25.5609 87.88C25.9342 88.0107 26.3309 88.076 26.7509 88.076C27.2736 88.076 27.6656 87.992 27.9269 87.824C28.1976 87.6467 28.3329 87.4227 28.3329 87.152C28.3329 86.956 28.2816 86.7833 28.1789 86.634C28.0856 86.4847 27.9082 86.34 27.6469 86.2C27.3856 86.0507 27.0076 85.892 26.5129 85.724C25.8316 85.4907 25.3182 85.2153 24.9729 84.898C24.6369 84.5713 24.4689 84.1233 24.4689 83.554C24.4689 82.994 24.7116 82.5227 25.1969 82.14C25.6916 81.748 26.3729 81.552 27.2409 81.552C27.7076 81.552 28.1229 81.6033 28.4869 81.706C28.8509 81.7993 29.1776 81.9207 29.4669 82.07L29.1169 83.106C28.8649 82.9567 28.5756 82.8353 28.2489 82.742C27.9316 82.6487 27.5769 82.602 27.1849 82.602C26.6996 82.602 26.3309 82.7 26.0789 82.896C25.8269 83.092 25.7009 83.3067 25.7009 83.54C25.7009 83.764 25.7989 83.9553 25.9949 84.114C26.1909 84.2727 26.5736 84.4453 27.1429 84.632C28.0669 84.94 28.7109 85.2807 29.0749 85.654C29.4389 86.0273 29.6209 86.494 29.6209 87.054C29.6209 87.7073 29.3549 88.2253 28.8229 88.608C28.3002 88.9813 27.5956 89.168 26.7089 89.168ZM34.2377 89.168C33.5471 89.168 32.9404 89.0093 32.4177 88.692C31.9044 88.3653 31.5077 87.9173 31.2277 87.348C30.9477 86.7693 30.8077 86.1067 30.8077 85.36C30.8077 84.66 30.9477 84.0207 31.2277 83.442C31.5171 82.8633 31.9277 82.406 32.4597 82.07C32.9917 81.7247 33.6171 81.552 34.3357 81.552C34.7464 81.552 35.1057 81.5893 35.4137 81.664C35.7311 81.7387 36.0344 81.846 36.3237 81.986L35.9457 83.05C35.6844 82.9193 35.4324 82.826 35.1897 82.77C34.9564 82.7047 34.6951 82.672 34.4057 82.672C33.7524 82.672 33.2017 82.91 32.7537 83.386C32.3151 83.8527 32.0957 84.5013 32.0957 85.332C32.0957 85.836 32.1891 86.2933 32.3757 86.704C32.5624 87.1147 32.8191 87.4413 33.1457 87.684C33.4817 87.9267 33.8737 88.048 34.3217 88.048C34.6764 88.048 34.9797 88.0107 35.2317 87.936C35.4837 87.852 35.7544 87.7353 36.0437 87.586L36.4357 88.65C36.1464 88.8087 35.8197 88.9347 35.4557 89.028C35.1011 89.1213 34.6951 89.168 34.2377 89.168ZM40.8305 89.168C40.1399 89.168 39.5192 89.0093 38.9685 88.692C38.4179 88.3653 37.9839 87.9173 37.6665 87.348C37.3585 86.7693 37.2045 86.1067 37.2045 85.36C37.2045 84.576 37.3632 83.8993 37.6805 83.33C37.9979 82.7607 38.4319 82.322 38.9825 82.014C39.5332 81.706 40.1492 81.552 40.8305 81.552C41.5119 81.552 42.1232 81.706 42.6645 82.014C43.2152 82.322 43.6492 82.7607 43.9665 83.33C44.2932 83.89 44.4565 84.5573 44.4565 85.332C44.4565 86.1067 44.2979 86.7833 43.9805 87.362C43.6632 87.9313 43.2292 88.3747 42.6785 88.692C42.1372 89.0093 41.5212 89.168 40.8305 89.168ZM40.8305 88.048C41.5679 88.048 42.1419 87.8007 42.5525 87.306C42.9632 86.802 43.1685 86.1533 43.1685 85.36C43.1685 84.8747 43.0659 84.4313 42.8605 84.03C42.6552 83.6193 42.3752 83.2927 42.0205 83.05C41.6752 82.798 41.2785 82.672 40.8305 82.672C40.0932 82.672 39.5192 82.9147 39.1085 83.4C38.6979 83.8853 38.4925 84.5293 38.4925 85.332C38.4925 85.8173 38.5952 86.27 38.8005 86.69C39.0059 87.1007 39.2812 87.432 39.6265 87.684C39.9812 87.9267 40.3825 88.048 40.8305 88.048ZM48.8057 92.248C48.3764 92.248 47.9564 92.1967 47.5457 92.094C47.1444 91.9913 46.7851 91.8373 46.4677 91.632L46.9297 90.54C47.1537 90.7173 47.4151 90.862 47.7137 90.974C48.0124 91.0953 48.3764 91.156 48.8057 91.156C49.4684 91.156 49.9864 90.9787 50.3597 90.624C50.7424 90.2787 50.9337 89.7233 50.9337 88.958V88.062C50.7471 88.286 50.4764 88.5007 50.1217 88.706C49.7764 88.902 49.3611 89 48.8757 89C48.3251 89 47.8024 88.86 47.3077 88.58C46.8131 88.2907 46.4117 87.8707 46.1037 87.32C45.7957 86.7693 45.6417 86.1067 45.6417 85.332C45.6417 84.604 45.7911 83.9553 46.0897 83.386C46.3977 82.8167 46.8084 82.3687 47.3217 82.042C47.8351 81.7153 48.3997 81.552 49.0157 81.552C49.4264 81.552 49.7997 81.622 50.1357 81.762C50.4717 81.902 50.7611 82.0747 51.0037 82.28V81.72H52.1517V88.832C52.1517 89.6347 52.0117 90.288 51.7317 90.792C51.4517 91.296 51.0597 91.6647 50.5557 91.898C50.0611 92.1313 49.4777 92.248 48.8057 92.248ZM49.1557 87.88C49.5291 87.88 49.8651 87.796 50.1637 87.628C50.4624 87.46 50.7051 87.264 50.8917 87.04V83.232C50.6864 83.0827 50.4391 82.9473 50.1497 82.826C49.8604 82.7047 49.5244 82.644 49.1417 82.644C48.7591 82.644 48.3997 82.7467 48.0637 82.952C47.7277 83.1573 47.4524 83.456 47.2377 83.848C47.0324 84.2307 46.9297 84.702 46.9297 85.262C46.9297 85.794 47.0324 86.256 47.2377 86.648C47.4524 87.04 47.7277 87.3433 48.0637 87.558C48.3997 87.7727 48.7637 87.88 49.1557 87.88ZM57.2332 89.168C56.1878 89.168 55.3572 88.8367 54.7412 88.174C54.1345 87.502 53.8312 86.564 53.8312 85.36C53.8312 84.632 53.9665 83.9833 54.2372 83.414C54.5172 82.8353 54.9045 82.3827 55.3992 82.056C55.8938 81.72 56.4678 81.552 57.1212 81.552C57.8212 81.552 58.3998 81.706 58.8572 82.014C59.3238 82.3127 59.6738 82.7187 59.9072 83.232C60.1405 83.7453 60.2572 84.31 60.2572 84.926C60.2572 85.2527 60.2432 85.57 60.2152 85.878H55.1192C55.2032 86.5593 55.4412 87.0913 55.8332 87.474C56.2252 87.8567 56.7432 88.048 57.3872 88.048C57.8072 88.048 58.1852 88.006 58.5212 87.922C58.8572 87.8287 59.1792 87.712 59.4872 87.572L59.7812 88.65C59.4452 88.7993 59.0672 88.9207 58.6472 89.014C58.2272 89.1167 57.7558 89.168 57.2332 89.168ZM55.1052 84.856H59.0952C59.0952 84.1467 58.9178 83.6007 58.5632 83.218C58.2085 82.8353 57.7185 82.644 57.0932 82.644C56.5518 82.644 56.1038 82.8353 55.7492 83.218C55.3945 83.5913 55.1798 84.1373 55.1052 84.856ZM69.0457 89.168C68.0003 89.168 67.1697 88.8367 66.5537 88.174C65.947 87.502 65.6437 86.564 65.6437 85.36C65.6437 84.632 65.779 83.9833 66.0497 83.414C66.3297 82.8353 66.717 82.3827 67.2117 82.056C67.7063 81.72 68.2803 81.552 68.9337 81.552C69.6337 81.552 70.2123 81.706 70.6697 82.014C71.1363 82.3127 71.4863 82.7187 71.7197 83.232C71.953 83.7453 72.0697 84.31 72.0697 84.926C72.0697 85.2527 72.0557 85.57 72.0277 85.878H66.9317C67.0157 86.5593 67.2537 87.0913 67.6457 87.474C68.0377 87.8567 68.5557 88.048 69.1997 88.048C69.6197 88.048 69.9977 88.006 70.3337 87.922C70.6697 87.8287 70.9917 87.712 71.2997 87.572L71.5937 88.65C71.2577 88.7993 70.8797 88.9207 70.4597 89.014C70.0397 89.1167 69.5683 89.168 69.0457 89.168ZM66.9177 84.856H70.9077C70.9077 84.1467 70.7303 83.6007 70.3757 83.218C70.021 82.8353 69.531 82.644 68.9057 82.644C68.3643 82.644 67.9163 82.8353 67.5617 83.218C67.207 83.5913 66.9923 84.1373 66.9177 84.856ZM75.9609 89.168C75.5316 89.168 75.1442 89.0887 74.7989 88.93C74.4536 88.762 74.1782 88.496 73.9729 88.132C73.7769 87.768 73.6789 87.2967 73.6789 86.718V78.64H74.9389V86.592C74.9389 87.096 75.0416 87.4693 75.2469 87.712C75.4616 87.9547 75.7556 88.076 76.1289 88.076C76.3062 88.076 76.4789 88.0573 76.6469 88.02C76.8242 87.9733 76.9736 87.922 77.0949 87.866L77.4029 88.888C77.2349 88.9627 77.0249 89.028 76.7729 89.084C76.5302 89.14 76.2596 89.168 75.9609 89.168ZM85.698 89.168C84.6527 89.168 83.822 88.8367 83.206 88.174C82.5993 87.502 82.296 86.564 82.296 85.36C82.296 84.632 82.4313 83.9833 82.702 83.414C82.982 82.8353 83.3693 82.3827 83.864 82.056C84.3587 81.72 84.9327 81.552 85.586 81.552C86.286 81.552 86.8647 81.706 87.322 82.014C87.7887 82.3127 88.1387 82.7187 88.372 83.232C88.6053 83.7453 88.722 84.31 88.722 84.926C88.722 85.2527 88.708 85.57 88.68 85.878H83.584C83.668 86.5593 83.906 87.0913 84.298 87.474C84.69 87.8567 85.208 88.048 85.852 88.048C86.272 88.048 86.65 88.006 86.986 87.922C87.322 87.8287 87.644 87.712 87.952 87.572L88.246 88.65C87.91 88.7993 87.532 88.9207 87.112 89.014C86.692 89.1167 86.2207 89.168 85.698 89.168ZM83.57 84.856H87.56C87.56 84.1467 87.3827 83.6007 87.028 83.218C86.6733 82.8353 86.1833 82.644 85.558 82.644C85.0167 82.644 84.5687 82.8353 84.214 83.218C83.8593 83.5913 83.6447 84.1373 83.57 84.856ZM92.3613 89.168C91.8106 89.168 91.3113 89.098 90.8633 88.958C90.4246 88.818 90.0606 88.636 89.7713 88.412L90.3033 87.362C90.5459 87.5673 90.8493 87.74 91.2133 87.88C91.5866 88.0107 91.9833 88.076 92.4033 88.076C92.9259 88.076 93.3179 87.992 93.5793 87.824C93.8499 87.6467 93.9853 87.4227 93.9853 87.152C93.9853 86.956 93.9339 86.7833 93.8313 86.634C93.7379 86.4847 93.5606 86.34 93.2993 86.2C93.0379 86.0507 92.6599 85.892 92.1653 85.724C91.4839 85.4907 90.9706 85.2153 90.6253 84.898C90.2893 84.5713 90.1213 84.1233 90.1213 83.554C90.1213 82.994 90.3639 82.5227 90.8493 82.14C91.3439 81.748 92.0253 81.552 92.8933 81.552C93.3599 81.552 93.7753 81.6033 94.1393 81.706C94.5033 81.7993 94.8299 81.9207 95.1193 82.07L94.7693 83.106C94.5173 82.9567 94.2279 82.8353 93.9013 82.742C93.5839 82.6487 93.2293 82.602 92.8373 82.602C92.3519 82.602 91.9833 82.7 91.7313 82.896C91.4793 83.092 91.3533 83.3067 91.3533 83.54C91.3533 83.764 91.4513 83.9553 91.6473 84.114C91.8433 84.2727 92.2259 84.4453 92.7953 84.632C93.7193 84.94 94.3633 85.2807 94.7273 85.654C95.0913 86.0273 95.2733 86.494 95.2733 87.054C95.2733 87.7073 95.0073 88.2253 94.4753 88.608C93.9526 88.9813 93.2479 89.168 92.3613 89.168ZM99.4981 89.168C98.7981 89.168 98.2427 88.9393 97.8321 88.482C97.4307 88.0153 97.2301 87.3527 97.2301 86.494V83.078H95.9701V81.986H97.2581L97.5241 79.69H98.4901V81.986H100.506V83.078H98.4901V86.592C98.4901 87.1333 98.6021 87.5113 98.8261 87.726C99.0594 87.9407 99.3347 88.048 99.6521 88.048C99.8854 88.048 100.105 88.0107 100.31 87.936C100.525 87.8613 100.721 87.7727 100.898 87.67L101.248 88.678C101.061 88.79 100.809 88.8973 100.492 89C100.175 89.112 99.8434 89.168 99.4981 89.168ZM105.027 89.168C104.42 89.168 103.87 89.014 103.375 88.706C102.88 88.398 102.484 87.964 102.185 87.404C101.896 86.8347 101.751 86.1673 101.751 85.402C101.751 84.674 101.896 84.0207 102.185 83.442C102.484 82.8633 102.89 82.406 103.403 82.07C103.926 81.7247 104.523 81.552 105.195 81.552C105.615 81.552 105.993 81.6267 106.329 81.776C106.674 81.916 106.973 82.0933 107.225 82.308V81.72H108.373V87.236C108.373 87.5907 108.457 87.824 108.625 87.936C108.802 88.0387 108.994 88.09 109.199 88.09L108.933 89.07C108.037 89.07 107.496 88.706 107.309 87.978C107.094 88.2767 106.8 88.552 106.427 88.804C106.063 89.0467 105.596 89.168 105.027 89.168ZM105.307 88.048C105.662 88.048 105.998 87.964 106.315 87.796C106.632 87.6187 106.898 87.3993 107.113 87.138V83.232C106.861 83.0547 106.581 82.9147 106.273 82.812C105.974 82.7 105.657 82.644 105.321 82.644C104.873 82.644 104.476 82.7607 104.131 82.994C103.795 83.218 103.529 83.5353 103.333 83.946C103.137 84.3473 103.039 84.8187 103.039 85.36C103.039 85.8827 103.137 86.3493 103.333 86.76C103.529 87.1613 103.8 87.4787 104.145 87.712C104.49 87.936 104.878 88.048 105.307 88.048ZM113.503 89.168C112.906 89.168 112.36 89.014 111.865 88.706C111.37 88.398 110.978 87.964 110.689 87.404C110.4 86.8347 110.255 86.1673 110.255 85.402C110.255 84.6647 110.4 84.0067 110.689 83.428C110.988 82.8493 111.38 82.392 111.865 82.056C112.36 81.72 112.901 81.552 113.489 81.552C113.974 81.552 114.39 81.65 114.735 81.846C115.09 82.042 115.365 82.2427 115.561 82.448V78.64H116.821V87.236C116.821 87.5907 116.905 87.824 117.073 87.936C117.25 88.0387 117.442 88.09 117.647 88.09L117.381 89.07C116.494 89.07 115.953 88.7153 115.757 88.006C115.552 88.2953 115.262 88.5613 114.889 88.804C114.525 89.0467 114.063 89.168 113.503 89.168ZM113.783 88.048C114.128 88.048 114.455 87.9687 114.763 87.81C115.08 87.642 115.346 87.4273 115.561 87.166V83.554C115.384 83.33 115.136 83.1247 114.819 82.938C114.502 82.742 114.152 82.644 113.769 82.644C113.321 82.644 112.929 82.7653 112.593 83.008C112.257 83.2507 111.996 83.5773 111.809 83.988C111.632 84.3893 111.543 84.8467 111.543 85.36C111.543 85.8733 111.641 86.3353 111.837 86.746C112.033 87.1473 112.299 87.4647 112.635 87.698C112.98 87.9313 113.363 88.048 113.783 88.048ZM122.26 89.168C121.57 89.168 120.949 89.0093 120.398 88.692C119.848 88.3653 119.414 87.9173 119.096 87.348C118.788 86.7693 118.634 86.1067 118.634 85.36C118.634 84.576 118.793 83.8993 119.11 83.33C119.428 82.7607 119.862 82.322 120.412 82.014C120.963 81.706 121.579 81.552 122.26 81.552C122.942 81.552 123.553 81.706 124.094 82.014C124.645 82.322 125.079 82.7607 125.396 83.33C125.723 83.89 125.886 84.5573 125.886 85.332C125.886 86.1067 125.728 86.7833 125.41 87.362C125.093 87.9313 124.659 88.3747 124.108 88.692C123.567 89.0093 122.951 89.168 122.26 89.168ZM122.26 88.048C122.998 88.048 123.572 87.8007 123.982 87.306C124.393 86.802 124.598 86.1533 124.598 85.36C124.598 84.8747 124.496 84.4313 124.29 84.03C124.085 83.6193 123.805 83.2927 123.45 83.05C123.105 82.798 122.708 82.672 122.26 82.672C121.523 82.672 120.949 82.9147 120.538 83.4C120.128 83.8853 119.922 84.5293 119.922 85.332C119.922 85.8173 120.025 86.27 120.23 86.69C120.436 87.1007 120.711 87.432 121.056 87.684C121.411 87.9267 121.812 88.048 122.26 88.048ZM134.517 89.168C133.919 89.168 133.373 89.014 132.879 88.706C132.384 88.398 131.992 87.964 131.703 87.404C131.413 86.8347 131.269 86.1673 131.269 85.402C131.269 84.6647 131.413 84.0067 131.703 83.428C132.001 82.8493 132.393 82.392 132.879 82.056C133.373 81.72 133.915 81.552 134.503 81.552C134.988 81.552 135.403 81.65 135.749 81.846C136.103 82.042 136.379 82.2427 136.575 82.448V78.64H137.835V87.236C137.835 87.5907 137.919 87.824 138.087 87.936C138.264 88.0387 138.455 88.09 138.661 88.09L138.395 89.07C137.508 89.07 136.967 88.7153 136.771 88.006C136.565 88.2953 136.276 88.5613 135.903 88.804C135.539 89.0467 135.077 89.168 134.517 89.168ZM134.797 88.048C135.142 88.048 135.469 87.9687 135.777 87.81C136.094 87.642 136.36 87.4273 136.575 87.166V83.554C136.397 83.33 136.15 83.1247 135.833 82.938C135.515 82.742 135.165 82.644 134.783 82.644C134.335 82.644 133.943 82.7653 133.607 83.008C133.271 83.2507 133.009 83.5773 132.823 83.988C132.645 84.3893 132.557 84.8467 132.557 85.36C132.557 85.8733 132.655 86.3353 132.851 86.746C133.047 87.1473 133.313 87.4647 133.649 87.698C133.994 87.9313 134.377 88.048 134.797 88.048ZM143.12 89.168C142.075 89.168 141.244 88.8367 140.628 88.174C140.021 87.502 139.718 86.564 139.718 85.36C139.718 84.632 139.853 83.9833 140.124 83.414C140.404 82.8353 140.791 82.3827 141.286 82.056C141.781 81.72 142.355 81.552 143.008 81.552C143.708 81.552 144.287 81.706 144.744 82.014C145.211 82.3127 145.561 82.7187 145.794 83.232C146.027 83.7453 146.144 84.31 146.144 84.926C146.144 85.2527 146.13 85.57 146.102 85.878H141.006C141.09 86.5593 141.328 87.0913 141.72 87.474C142.112 87.8567 142.63 88.048 143.274 88.048C143.694 88.048 144.072 88.006 144.408 87.922C144.744 87.8287 145.066 87.712 145.374 87.572L145.668 88.65C145.332 88.7993 144.954 88.9207 144.534 89.014C144.114 89.1167 143.643 89.168 143.12 89.168ZM140.992 84.856H144.982C144.982 84.1467 144.805 83.6007 144.45 83.218C144.095 82.8353 143.605 82.644 142.98 82.644C142.439 82.644 141.991 82.8353 141.636 83.218C141.281 83.5913 141.067 84.1373 140.992 84.856ZM154.232 89.168C153.803 89.168 153.416 89.0887 153.07 88.93C152.725 88.762 152.45 88.496 152.244 88.132C152.048 87.768 151.95 87.2967 151.95 86.718V78.64H153.21V86.592C153.21 87.096 153.313 87.4693 153.518 87.712C153.733 87.9547 154.027 88.076 154.4 88.076C154.578 88.076 154.75 88.0573 154.918 88.02C155.096 87.9733 155.245 87.922 155.366 87.866L155.674 88.888C155.506 88.9627 155.296 89.028 155.044 89.084C154.802 89.14 154.531 89.168 154.232 89.168ZM159.441 89.168C158.834 89.168 158.284 89.014 157.789 88.706C157.294 88.398 156.898 87.964 156.599 87.404C156.31 86.8347 156.165 86.1673 156.165 85.402C156.165 84.674 156.31 84.0207 156.599 83.442C156.898 82.8633 157.304 82.406 157.817 82.07C158.34 81.7247 158.937 81.552 159.609 81.552C160.029 81.552 160.407 81.6267 160.743 81.776C161.088 81.916 161.387 82.0933 161.639 82.308V81.72H162.787V87.236C162.787 87.5907 162.871 87.824 163.039 87.936C163.216 88.0387 163.408 88.09 163.613 88.09L163.347 89.07C162.451 89.07 161.91 88.706 161.723 87.978C161.508 88.2767 161.214 88.552 160.841 88.804C160.477 89.0467 160.01 89.168 159.441 89.168ZM159.721 88.048C160.076 88.048 160.412 87.964 160.729 87.796C161.046 87.6187 161.312 87.3993 161.527 87.138V83.232C161.275 83.0547 160.995 82.9147 160.687 82.812C160.388 82.7 160.071 82.644 159.735 82.644C159.287 82.644 158.89 82.7607 158.545 82.994C158.209 83.218 157.943 83.5353 157.747 83.946C157.551 84.3473 157.453 84.8187 157.453 85.36C157.453 85.8827 157.551 86.3493 157.747 86.76C157.943 87.1613 158.214 87.4787 158.559 87.712C158.904 87.936 159.292 88.048 159.721 88.048ZM169.759 92.08V83.582C169.759 83.2647 169.68 83.0407 169.521 82.91C169.372 82.77 169.176 82.7 168.933 82.7L169.199 81.72C170.058 81.72 170.594 82.0607 170.809 82.742C170.902 82.602 171.052 82.4387 171.257 82.252C171.472 82.0653 171.733 81.902 172.041 81.762C172.358 81.622 172.718 81.552 173.119 81.552C173.679 81.552 174.202 81.7013 174.687 82C175.182 82.2893 175.578 82.714 175.877 83.274C176.176 83.8247 176.325 84.4967 176.325 85.29C176.325 86.0647 176.176 86.746 175.877 87.334C175.578 87.9127 175.186 88.3653 174.701 88.692C174.225 89.0093 173.707 89.168 173.147 89.168C172.718 89.168 172.316 89.084 171.943 88.916C171.57 88.7387 171.262 88.538 171.019 88.314V92.08H169.759ZM172.895 88.048C173.53 88.048 174.043 87.8007 174.435 87.306C174.836 86.802 175.037 86.144 175.037 85.332C175.037 84.772 174.934 84.2913 174.729 83.89C174.533 83.4887 174.267 83.1807 173.931 82.966C173.604 82.7513 173.24 82.644 172.839 82.644C172.438 82.644 172.074 82.7467 171.747 82.952C171.43 83.148 171.187 83.3627 171.019 83.596V87.18C171.262 87.432 171.542 87.642 171.859 87.81C172.176 87.9687 172.522 88.048 172.895 88.048ZM180.865 89.168C180.258 89.168 179.708 89.014 179.213 88.706C178.718 88.398 178.322 87.964 178.023 87.404C177.734 86.8347 177.589 86.1673 177.589 85.402C177.589 84.674 177.734 84.0207 178.023 83.442C178.322 82.8633 178.728 82.406 179.241 82.07C179.764 81.7247 180.361 81.552 181.033 81.552C181.453 81.552 181.831 81.6267 182.167 81.776C182.512 81.916 182.811 82.0933 183.063 82.308V81.72H184.211V87.236C184.211 87.5907 184.295 87.824 184.463 87.936C184.64 88.0387 184.832 88.09 185.037 88.09L184.771 89.07C183.875 89.07 183.334 88.706 183.147 87.978C182.932 88.2767 182.638 88.552 182.265 88.804C181.901 89.0467 181.434 89.168 180.865 89.168ZM181.145 88.048C181.5 88.048 181.836 87.964 182.153 87.796C182.47 87.6187 182.736 87.3993 182.951 87.138V83.232C182.699 83.0547 182.419 82.9147 182.111 82.812C181.812 82.7 181.495 82.644 181.159 82.644C180.711 82.644 180.314 82.7607 179.969 82.994C179.633 83.218 179.367 83.5353 179.171 83.946C178.975 84.3473 178.877 84.8187 178.877 85.36C178.877 85.8827 178.975 86.3493 179.171 86.76C179.367 87.1613 179.638 87.4787 179.983 87.712C180.328 87.936 180.716 88.048 181.145 88.048ZM186.72 89V81.72H187.938V83.302C188.059 82.994 188.222 82.7093 188.428 82.448C188.633 82.1773 188.89 81.9627 189.198 81.804C189.506 81.636 189.865 81.552 190.276 81.552C190.416 81.552 190.556 81.5613 190.696 81.58C190.836 81.5893 190.952 81.608 191.046 81.636L190.668 82.938C190.49 82.8633 190.28 82.826 190.038 82.826C189.692 82.826 189.361 82.924 189.044 83.12C188.736 83.316 188.479 83.6193 188.274 84.03C188.078 84.4407 187.98 84.9633 187.98 85.598V89H186.72ZM195.133 89.168C194.433 89.168 193.878 88.9393 193.467 88.482C193.066 88.0153 192.865 87.3527 192.865 86.494V83.078H191.605V81.986H192.893L193.159 79.69H194.125V81.986H196.141V83.078H194.125V86.592C194.125 87.1333 194.237 87.5113 194.461 87.726C194.694 87.9407 194.97 88.048 195.287 88.048C195.52 88.048 195.74 88.0107 195.945 87.936C196.16 87.8613 196.356 87.7727 196.533 87.67L196.883 88.678C196.696 88.79 196.444 88.8973 196.127 89C195.81 89.112 195.478 89.168 195.133 89.168ZM200.788 89.168C199.743 89.168 198.912 88.8367 198.296 88.174C197.689 87.502 197.386 86.564 197.386 85.36C197.386 84.632 197.521 83.9833 197.792 83.414C198.072 82.8353 198.459 82.3827 198.954 82.056C199.449 81.72 200.023 81.552 200.676 81.552C201.376 81.552 201.955 81.706 202.412 82.014C202.879 82.3127 203.229 82.7187 203.462 83.232C203.695 83.7453 203.812 84.31 203.812 84.926C203.812 85.2527 203.798 85.57 203.77 85.878H198.674C198.758 86.5593 198.996 87.0913 199.388 87.474C199.78 87.8567 200.298 88.048 200.942 88.048C201.362 88.048 201.74 88.006 202.076 87.922C202.412 87.8287 202.734 87.712 203.042 87.572L203.336 88.65C203 88.7993 202.622 88.9207 202.202 89.014C201.782 89.1167 201.311 89.168 200.788 89.168ZM198.66 84.856H202.65C202.65 84.1467 202.473 83.6007 202.118 83.218C201.763 82.8353 201.273 82.644 200.648 82.644C200.107 82.644 199.659 82.8353 199.304 83.218C198.949 83.5913 198.735 84.1373 198.66 84.856ZM212.446 89.168C211.849 89.168 211.303 89.014 210.808 88.706C210.314 88.398 209.922 87.964 209.632 87.404C209.343 86.8347 209.198 86.1673 209.198 85.402C209.198 84.6647 209.343 84.0067 209.632 83.428C209.931 82.8493 210.323 82.392 210.808 82.056C211.303 81.72 211.844 81.552 212.432 81.552C212.918 81.552 213.333 81.65 213.678 81.846C214.033 82.042 214.308 82.2427 214.504 82.448V78.64H215.764V87.236C215.764 87.5907 215.848 87.824 216.016 87.936C216.194 88.0387 216.385 88.09 216.59 88.09L216.324 89.07C215.438 89.07 214.896 88.7153 214.7 88.006C214.495 88.2953 214.206 88.5613 213.832 88.804C213.468 89.0467 213.006 89.168 212.446 89.168ZM212.726 88.048C213.072 88.048 213.398 87.9687 213.706 87.81C214.024 87.642 214.29 87.4273 214.504 87.166V83.554C214.327 83.33 214.08 83.1247 213.762 82.938C213.445 82.742 213.095 82.644 212.712 82.644C212.264 82.644 211.872 82.7653 211.536 83.008C211.2 83.2507 210.939 83.5773 210.752 83.988C210.575 84.3893 210.486 84.8467 210.486 85.36C210.486 85.8733 210.584 86.3353 210.78 86.746C210.976 87.1473 211.242 87.4647 211.578 87.698C211.924 87.9313 212.306 88.048 212.726 88.048ZM221.05 89.168C220.004 89.168 219.174 88.8367 218.558 88.174C217.951 87.502 217.648 86.564 217.648 85.36C217.648 84.632 217.783 83.9833 218.054 83.414C218.334 82.8353 218.721 82.3827 219.216 82.056C219.71 81.72 220.284 81.552 220.938 81.552C221.638 81.552 222.216 81.706 222.674 82.014C223.14 82.3127 223.49 82.7187 223.724 83.232C223.957 83.7453 224.074 84.31 224.074 84.926C224.074 85.2527 224.06 85.57 224.032 85.878H218.936C219.02 86.5593 219.258 87.0913 219.65 87.474C220.042 87.8567 220.56 88.048 221.204 88.048C221.624 88.048 222.002 88.006 222.338 87.922C222.674 87.8287 222.996 87.712 223.304 87.572L223.598 88.65C223.262 88.7993 222.884 88.9207 222.464 89.014C222.044 89.1167 221.572 89.168 221.05 89.168ZM218.922 84.856H222.912C222.912 84.1467 222.734 83.6007 222.38 83.218C222.025 82.8353 221.535 82.644 220.91 82.644C220.368 82.644 219.92 82.8353 219.566 83.218C219.211 83.5913 218.996 84.1373 218.922 84.856ZM227.965 89.168C227.535 89.168 227.148 89.0887 226.803 88.93C226.457 88.762 226.182 88.496 225.977 88.132C225.781 87.768 225.683 87.2967 225.683 86.718V78.64H226.943V86.592C226.943 87.096 227.045 87.4693 227.251 87.712C227.465 87.9547 227.759 88.076 228.133 88.076C228.31 88.076 228.483 88.0573 228.651 88.02C228.828 87.9733 228.977 87.922 229.099 87.866L229.407 88.888C229.239 88.9627 229.029 89.028 228.777 89.084C228.534 89.14 228.263 89.168 227.965 89.168ZM237.702 89.168C236.657 89.168 235.826 88.8367 235.21 88.174C234.603 87.502 234.3 86.564 234.3 85.36C234.3 84.632 234.435 83.9833 234.706 83.414C234.986 82.8353 235.373 82.3827 235.868 82.056C236.363 81.72 236.937 81.552 237.59 81.552C238.29 81.552 238.869 81.706 239.326 82.014C239.793 82.3127 240.143 82.7187 240.376 83.232C240.609 83.7453 240.726 84.31 240.726 84.926C240.726 85.2527 240.712 85.57 240.684 85.878H235.588C235.672 86.5593 235.91 87.0913 236.302 87.474C236.694 87.8567 237.212 88.048 237.856 88.048C238.276 88.048 238.654 88.006 238.99 87.922C239.326 87.8287 239.648 87.712 239.956 87.572L240.25 88.65C239.914 88.7993 239.536 88.9207 239.116 89.014C238.696 89.1167 238.225 89.168 237.702 89.168ZM235.574 84.856H239.564C239.564 84.1467 239.387 83.6007 239.032 83.218C238.677 82.8353 238.187 82.644 237.562 82.644C237.021 82.644 236.573 82.8353 236.218 83.218C235.863 83.5913 235.649 84.1373 235.574 84.856ZM247.221 92.08V88.258C247.025 88.4633 246.75 88.6687 246.395 88.874C246.05 89.07 245.644 89.168 245.177 89.168C244.617 89.168 244.085 89.0233 243.581 88.734C243.086 88.4447 242.685 88.02 242.377 87.46C242.069 86.8907 241.915 86.2 241.915 85.388C241.915 84.6227 242.069 83.9553 242.377 83.386C242.685 82.8073 243.096 82.3593 243.609 82.042C244.122 81.7153 244.687 81.552 245.303 81.552C245.723 81.552 246.101 81.6267 246.437 81.776C246.782 81.916 247.081 82.0933 247.333 82.308V81.72H248.481V92.08H247.221ZM245.457 88.048C245.83 88.048 246.171 87.9593 246.479 87.782C246.787 87.6047 247.034 87.3993 247.221 87.166V83.232C246.969 83.0547 246.689 82.9147 246.381 82.812C246.082 82.7 245.765 82.644 245.429 82.644C245.028 82.644 244.659 82.7513 244.323 82.966C243.987 83.1807 243.716 83.4887 243.511 83.89C243.306 84.2913 243.203 84.7767 243.203 85.346C243.203 85.906 243.306 86.3913 243.511 86.802C243.726 87.2033 244.006 87.5113 244.351 87.726C244.696 87.9407 245.065 88.048 245.457 88.048ZM253.098 89.168C252.678 89.168 252.281 89.0793 251.908 88.902C251.534 88.7247 251.231 88.44 250.998 88.048C250.764 87.6467 250.648 87.1147 250.648 86.452V81.72H251.908V86.284C251.908 86.8533 252.029 87.292 252.272 87.6C252.514 87.8987 252.869 88.048 253.336 88.048C253.718 88.048 254.087 87.9733 254.442 87.824C254.806 87.6653 255.128 87.4553 255.408 87.194V81.72H256.668V87.11C256.668 87.5113 256.752 87.7773 256.92 87.908C257.097 88.0293 257.288 88.09 257.494 88.09L257.228 89.07C256.36 89.07 255.823 88.7247 255.618 88.034C255.291 88.37 254.913 88.6453 254.484 88.86C254.054 89.0653 253.592 89.168 253.098 89.168ZM259.167 89V81.72H260.427V89H259.167ZM259.797 80.474C259.554 80.474 259.344 80.3853 259.167 80.208C258.999 80.0307 258.915 79.8253 258.915 79.592C258.915 79.3213 258.994 79.1067 259.153 78.948C259.312 78.7893 259.526 78.71 259.797 78.71C260.04 78.71 260.245 78.7987 260.413 78.976C260.59 79.144 260.679 79.3493 260.679 79.592C260.679 79.8533 260.6 80.068 260.441 80.236C260.282 80.3947 260.068 80.474 259.797 80.474ZM262.933 92.08V83.582C262.933 83.2647 262.854 83.0407 262.695 82.91C262.546 82.77 262.35 82.7 262.107 82.7L262.373 81.72C263.232 81.72 263.768 82.0607 263.983 82.742C264.076 82.602 264.226 82.4387 264.431 82.252C264.646 82.0653 264.907 81.902 265.215 81.762C265.532 81.622 265.892 81.552 266.293 81.552C266.853 81.552 267.376 81.7013 267.861 82C268.356 82.2893 268.752 82.714 269.051 83.274C269.35 83.8247 269.499 84.4967 269.499 85.29C269.499 86.0647 269.35 86.746 269.051 87.334C268.752 87.9127 268.36 88.3653 267.875 88.692C267.399 89.0093 266.881 89.168 266.321 89.168C265.892 89.168 265.49 89.084 265.117 88.916C264.744 88.7387 264.436 88.538 264.193 88.314V92.08H262.933ZM266.069 88.048C266.704 88.048 267.217 87.8007 267.609 87.306C268.01 86.802 268.211 86.144 268.211 85.332C268.211 84.772 268.108 84.2913 267.903 83.89C267.707 83.4887 267.441 83.1807 267.105 82.966C266.778 82.7513 266.414 82.644 266.013 82.644C265.612 82.644 265.248 82.7467 264.921 82.952C264.604 83.148 264.361 83.3627 264.193 83.596V87.18C264.436 87.432 264.716 87.642 265.033 87.81C265.35 87.9687 265.696 88.048 266.069 88.048ZM274.319 89.168C273.628 89.168 273.007 89.0093 272.457 88.692C271.906 88.3653 271.472 87.9173 271.155 87.348C270.847 86.7693 270.693 86.1067 270.693 85.36C270.693 84.576 270.851 83.8993 271.169 83.33C271.486 82.7607 271.92 82.322 272.471 82.014C273.021 81.706 273.637 81.552 274.319 81.552C275 81.552 275.611 81.706 276.153 82.014C276.703 82.322 277.137 82.7607 277.455 83.33C277.781 83.89 277.945 84.5573 277.945 85.332C277.945 86.1067 277.786 86.7833 277.469 87.362C277.151 87.9313 276.717 88.3747 276.167 88.692C275.625 89.0093 275.009 89.168 274.319 89.168ZM274.319 88.048C275.056 88.048 275.63 87.8007 276.041 87.306C276.451 86.802 276.657 86.1533 276.657 85.36C276.657 84.8747 276.554 84.4313 276.349 84.03C276.143 83.6193 275.863 83.2927 275.509 83.05C275.163 82.798 274.767 82.672 274.319 82.672C273.581 82.672 273.007 82.9147 272.597 83.4C272.186 83.8853 271.981 84.5293 271.981 85.332C271.981 85.8173 272.083 86.27 272.289 86.69C272.494 87.1007 272.769 87.432 273.115 87.684C273.469 87.9267 273.871 88.048 274.319 88.048Z" fill="#5E5E5E"/>
</svg>
