<svg width="359" height="94" viewBox="0 0 359 94" fill="none" xmlns="http://www.w3.org/2000/svg">
<path d="M18.992 14H17.36V2.8H19.248L25.056 11.488V2.8H26.704V14H24.8L18.992 5.28V14ZM36.5109 10.288C36.5109 12.656 34.9269 14.176 32.7029 14.176C30.5109 14.176 28.9109 12.656 28.9109 10.288V9.232C28.9109 6.88 30.4949 5.344 32.7029 5.344C34.9269 5.344 36.5109 6.864 36.5109 9.232V10.288ZM34.8309 9.312C34.8309 7.808 34.0309 6.832 32.7029 6.832C31.3909 6.832 30.5909 7.808 30.5909 9.312V10.224C30.5909 11.728 31.3909 12.688 32.7029 12.688C34.0309 12.688 34.8309 11.728 34.8309 10.224V9.312ZM40.335 8.928V14H38.639V5.536H40.335V7.04C40.799 6 41.743 5.36 42.831 5.36C44.159 5.36 45.167 6.16 45.551 7.344C45.951 6.144 46.959 5.36 48.223 5.36C49.983 5.36 51.151 6.736 51.151 8.496V14H49.455V8.88C49.455 7.744 48.719 6.88 47.631 6.88C46.527 6.88 45.743 7.76 45.743 8.928V14H44.047V8.88C44.047 7.744 43.311 6.88 42.239 6.88C41.119 6.88 40.335 7.76 40.335 8.928ZM53.6859 14V2.208H55.3819V6.768C55.9579 5.872 56.8699 5.344 57.9899 5.344C59.9739 5.344 61.4139 6.864 61.4139 9.184V10.352C61.4139 12.672 59.9579 14.176 57.9899 14.176C56.8539 14.176 55.9419 13.632 55.3819 12.704V14H53.6859ZM55.3819 9.312V10.224C55.3819 11.728 56.2139 12.688 57.5579 12.688C58.9179 12.688 59.7339 11.728 59.7339 10.224V9.312C59.7339 7.808 58.9179 6.832 57.5579 6.832C56.2139 6.832 55.3819 7.808 55.3819 9.312ZM68.1216 7.12H67.2416C66.1536 7.12 65.2256 7.984 65.2256 9.312V14H63.5296V5.536H65.2256V7.184C65.5776 6.16 66.3456 5.456 67.4336 5.456H68.1216V7.12ZM69.0984 10.272V9.264C69.0984 6.928 70.6344 5.344 72.8264 5.344C74.8584 5.344 76.2984 6.944 76.2984 9.216V10.304H70.7624C70.7784 11.792 71.6264 12.704 72.9544 12.704C73.7864 12.704 74.4584 12.384 75.0664 11.712L76.1384 12.704C75.3384 13.648 74.2984 14.176 72.9064 14.176C70.6664 14.176 69.0984 12.608 69.0984 10.272ZM72.7624 6.832C71.6264 6.832 70.8584 7.632 70.7784 8.976H74.6824C74.6344 7.648 73.8824 6.832 72.7624 6.832ZM89.2014 14H87.5054V12.72C86.9614 13.648 86.0334 14.176 84.8974 14.176C82.9294 14.176 81.4734 12.672 81.4734 10.352V9.184C81.4734 6.864 82.9294 5.344 84.8974 5.344C86.0174 5.344 86.9294 5.856 87.5054 6.752V2.208H89.2014V14ZM87.5054 9.312C87.5054 7.808 86.6734 6.832 85.3294 6.832C83.9694 6.832 83.1534 7.808 83.1534 9.312V10.224C83.1534 11.728 83.9694 12.688 85.3294 12.688C86.6734 12.688 87.5054 11.728 87.5054 10.224V9.312ZM91.3171 10.272V9.264C91.3171 6.928 92.8531 5.344 95.0451 5.344C97.0771 5.344 98.5171 6.944 98.5171 9.216V10.304H92.9811C92.9971 11.792 93.8451 12.704 95.1731 12.704C96.0051 12.704 96.6771 12.384 97.2851 11.712L98.3571 12.704C97.5571 13.648 96.5171 14.176 95.1251 14.176C92.8851 14.176 91.3171 12.608 91.3171 10.272ZM94.9811 6.832C93.8451 6.832 93.0771 7.632 92.9971 8.976H96.9011C96.8531 7.648 96.1011 6.832 94.9811 6.832ZM104.092 11.04V5.536H105.788V10.672C105.788 11.792 106.556 12.656 107.692 12.656C108.86 12.656 109.692 11.776 109.692 10.624V5.536H111.388V14H109.692V12.512C109.196 13.552 108.22 14.176 107.1 14.176C105.308 14.176 104.092 12.8 104.092 11.04ZM116.928 14.176C114.96 14.176 113.552 13.056 113.248 11.376H114.864C115.056 12.24 115.808 12.832 116.944 12.832C117.808 12.832 118.384 12.384 118.384 11.76C118.384 11.216 117.952 10.864 117.264 10.688L115.664 10.288C114.16 9.92 113.392 9.12 113.392 7.904C113.392 6.368 114.592 5.344 116.368 5.344C118.224 5.344 119.648 6.464 119.904 8.16H118.272C118.08 7.312 117.312 6.704 116.368 6.704C115.552 6.704 115.056 7.136 115.056 7.744C115.056 8.272 115.472 8.64 116.224 8.832L117.728 9.2C119.248 9.584 120.048 10.4 120.048 11.616C120.048 13.136 118.784 14.176 116.928 14.176ZM121.998 11.04V5.536H123.694V10.672C123.694 11.792 124.462 12.656 125.598 12.656C126.766 12.656 127.598 11.776 127.598 10.624V5.536H129.294V14H127.598V12.512C127.102 13.552 126.126 14.176 125.006 14.176C123.214 14.176 121.998 12.8 121.998 11.04ZM131.123 11.616C131.123 10.096 132.163 9.248 133.859 9.136L136.355 8.976V8.432C136.355 7.472 135.763 6.912 134.739 6.912C133.939 6.912 133.235 7.168 132.515 7.744L131.747 6.496C132.643 5.76 133.715 5.36 134.979 5.36C136.819 5.36 138.019 6.48 138.019 8.224V12.016C138.019 12.336 138.195 12.512 138.531 12.512H138.947V14H138.099C137.203 14 136.595 13.52 136.451 12.768C135.955 13.616 135.059 14.16 133.987 14.16C132.339 14.16 131.123 13.088 131.123 11.616ZM132.771 11.584C132.771 12.304 133.411 12.8 134.323 12.8C135.443 12.8 136.355 12 136.355 11.024V10.256L134.083 10.432C133.251 10.496 132.771 10.88 132.771 11.584ZM145.325 7.12H144.445C143.357 7.12 142.429 7.984 142.429 9.312V14H140.733V5.536H142.429V7.184C142.781 6.16 143.549 5.456 144.637 5.456H145.325V7.12ZM147.862 4.144C147.318 4.144 146.838 3.68 146.838 3.12C146.838 2.544 147.318 2.096 147.862 2.096C148.422 2.096 148.886 2.544 148.886 3.12C148.886 3.68 148.422 4.144 147.862 4.144ZM148.71 5.536V14H147.014V5.536H148.71ZM158.433 10.288C158.433 12.656 156.849 14.176 154.625 14.176C152.433 14.176 150.833 12.656 150.833 10.288V9.232C150.833 6.88 152.417 5.344 154.625 5.344C156.849 5.344 158.433 6.864 158.433 9.232V10.288ZM156.753 9.312C156.753 7.808 155.953 6.832 154.625 6.832C153.313 6.832 152.513 7.808 152.513 9.312V10.224C152.513 11.728 153.313 12.688 154.625 12.688C155.953 12.688 156.753 11.728 156.753 10.224V9.312Z" fill="black"/>
<rect x="16" y="24" width="327" height="42" rx="8" fill="#E8E8E8"/>
<path d="M19.836 89.112C19.304 89.112 18.8373 89.098 18.436 89.07C18.044 89.042 17.652 89.0093 17.26 88.972V79.228C17.6987 79.1813 18.128 79.1487 18.548 79.13C18.968 79.102 19.4487 79.088 19.99 79.088C20.83 79.088 21.5533 79.2187 22.16 79.48C22.776 79.7413 23.28 80.1007 23.672 80.558C24.0733 81.0153 24.3673 81.5473 24.554 82.154C24.75 82.7513 24.848 83.3953 24.848 84.086C24.848 84.7673 24.75 85.4113 24.554 86.018C24.358 86.6247 24.0547 87.1613 23.644 87.628C23.2427 88.0853 22.7247 88.4493 22.09 88.72C21.4647 88.9813 20.7133 89.112 19.836 89.112ZM19.878 87.95C20.718 87.95 21.404 87.7867 21.936 87.46C22.468 87.1333 22.86 86.6807 23.112 86.102C23.364 85.514 23.49 84.842 23.49 84.086C23.49 83.414 23.364 82.784 23.112 82.196C22.86 81.608 22.4727 81.1367 21.95 80.782C21.4273 80.418 20.76 80.236 19.948 80.236C19.6773 80.236 19.43 80.2453 19.206 80.264C18.982 80.2733 18.7767 80.2873 18.59 80.306V87.88C18.786 87.908 18.9913 87.9267 19.206 87.936C19.4207 87.9453 19.6447 87.95 19.878 87.95ZM26.663 89V81.72H27.923V89H26.663ZM27.293 80.474C27.0503 80.474 26.8403 80.3853 26.663 80.208C26.495 80.0307 26.411 79.8253 26.411 79.592C26.411 79.3213 26.4903 79.1067 26.649 78.948C26.8076 78.7893 27.0223 78.71 27.293 78.71C27.5356 78.71 27.741 78.7987 27.909 78.976C28.0863 79.144 28.175 79.3493 28.175 79.592C28.175 79.8533 28.0956 80.068 27.937 80.236C27.7783 80.3947 27.5636 80.474 27.293 80.474ZM32.837 92.248C32.4076 92.248 31.9876 92.1967 31.577 92.094C31.1756 91.9913 30.8163 91.8373 30.499 91.632L30.961 90.54C31.185 90.7173 31.4463 90.862 31.745 90.974C32.0436 91.0953 32.4076 91.156 32.837 91.156C33.4996 91.156 34.0176 90.9787 34.391 90.624C34.7736 90.2787 34.965 89.7233 34.965 88.958V88.062C34.7783 88.286 34.5076 88.5007 34.153 88.706C33.8076 88.902 33.3923 89 32.907 89C32.3563 89 31.8336 88.86 31.339 88.58C30.8443 88.2907 30.443 87.8707 30.135 87.32C29.827 86.7693 29.673 86.1067 29.673 85.332C29.673 84.604 29.8223 83.9553 30.121 83.386C30.429 82.8167 30.8396 82.3687 31.353 82.042C31.8663 81.7153 32.431 81.552 33.047 81.552C33.4576 81.552 33.831 81.622 34.167 81.762C34.503 81.902 34.7923 82.0747 35.035 82.28V81.72H36.183V88.832C36.183 89.6347 36.043 90.288 35.763 90.792C35.483 91.296 35.091 91.6647 34.587 91.898C34.0923 92.1313 33.509 92.248 32.837 92.248ZM33.187 87.88C33.5603 87.88 33.8963 87.796 34.195 87.628C34.4936 87.46 34.7363 87.264 34.923 87.04V83.232C34.7176 83.0827 34.4703 82.9473 34.181 82.826C33.8916 82.7047 33.5556 82.644 33.173 82.644C32.7903 82.644 32.431 82.7467 32.095 82.952C31.759 83.1573 31.4836 83.456 31.269 83.848C31.0636 84.2307 30.961 84.702 30.961 85.262C30.961 85.794 31.0636 86.256 31.269 86.648C31.4836 87.04 31.759 87.3433 32.095 87.558C32.431 87.7727 32.795 87.88 33.187 87.88ZM38.3524 89V81.72H39.6124V89H38.3524ZM38.9824 80.474C38.7398 80.474 38.5298 80.3853 38.3524 80.208C38.1844 80.0307 38.1004 79.8253 38.1004 79.592C38.1004 79.3213 38.1798 79.1067 38.3384 78.948C38.4971 78.7893 38.7118 78.71 38.9824 78.71C39.2251 78.71 39.4304 78.7987 39.5984 78.976C39.7758 79.144 39.8644 79.3493 39.8644 79.592C39.8644 79.8533 39.7851 80.068 39.6264 80.236C39.4678 80.3947 39.2531 80.474 38.9824 80.474ZM44.4004 89.168C43.7004 89.168 43.1451 88.9393 42.7344 88.482C42.3331 88.0153 42.1324 87.3527 42.1324 86.494V83.078H40.8724V81.986H42.1604L42.4264 79.69H43.3924V81.986H45.4084V83.078H43.3924V86.592C43.3924 87.1333 43.5044 87.5113 43.7284 87.726C43.9618 87.9407 44.2371 88.048 44.5544 88.048C44.7878 88.048 45.0071 88.0107 45.2124 87.936C45.4271 87.8613 45.6231 87.7727 45.8004 87.67L46.1504 88.678C45.9638 88.79 45.7118 88.8973 45.3944 89C45.0771 89.112 44.7458 89.168 44.4004 89.168ZM49.9294 89.168C49.3228 89.168 48.7721 89.014 48.2774 88.706C47.7828 88.398 47.3861 87.964 47.0874 87.404C46.7981 86.8347 46.6534 86.1673 46.6534 85.402C46.6534 84.674 46.7981 84.0207 47.0874 83.442C47.3861 82.8633 47.7921 82.406 48.3054 82.07C48.8281 81.7247 49.4254 81.552 50.0974 81.552C50.5174 81.552 50.8954 81.6267 51.2314 81.776C51.5768 81.916 51.8754 82.0933 52.1274 82.308V81.72H53.2754V87.236C53.2754 87.5907 53.3594 87.824 53.5274 87.936C53.7048 88.0387 53.8961 88.09 54.1014 88.09L53.8354 89.07C52.9394 89.07 52.3981 88.706 52.2114 87.978C51.9968 88.2767 51.7028 88.552 51.3294 88.804C50.9654 89.0467 50.4988 89.168 49.9294 89.168ZM50.2094 88.048C50.5641 88.048 50.9001 87.964 51.2174 87.796C51.5348 87.6187 51.8008 87.3993 52.0154 87.138V83.232C51.7634 83.0547 51.4834 82.9147 51.1754 82.812C50.8768 82.7 50.5594 82.644 50.2234 82.644C49.7754 82.644 49.3788 82.7607 49.0334 82.994C48.6974 83.218 48.4314 83.5353 48.2354 83.946C48.0394 84.3473 47.9414 84.8187 47.9414 85.36C47.9414 85.8827 48.0394 86.3493 48.2354 86.76C48.4314 87.1613 48.7021 87.4787 49.0474 87.712C49.3928 87.936 49.7801 88.048 50.2094 88.048ZM62.8933 89.168C61.848 89.168 61.0173 88.8367 60.4013 88.174C59.7947 87.502 59.4913 86.564 59.4913 85.36C59.4913 84.632 59.6267 83.9833 59.8973 83.414C60.1773 82.8353 60.5647 82.3827 61.0593 82.056C61.554 81.72 62.128 81.552 62.7813 81.552C63.4813 81.552 64.06 81.706 64.5173 82.014C64.984 82.3127 65.334 82.7187 65.5673 83.232C65.8007 83.7453 65.9173 84.31 65.9173 84.926C65.9173 85.2527 65.9033 85.57 65.8753 85.878H60.7793C60.8633 86.5593 61.1013 87.0913 61.4933 87.474C61.8853 87.8567 62.4033 88.048 63.0473 88.048C63.4673 88.048 63.8453 88.006 64.1813 87.922C64.5173 87.8287 64.8393 87.712 65.1473 87.572L65.4413 88.65C65.1053 88.7993 64.7273 88.9207 64.3073 89.014C63.8873 89.1167 63.416 89.168 62.8933 89.168ZM60.7653 84.856H64.7553C64.7553 84.1467 64.578 83.6007 64.2233 83.218C63.8687 82.8353 63.3787 82.644 62.7533 82.644C62.212 82.644 61.764 82.8353 61.4093 83.218C61.0547 83.5913 60.84 84.1373 60.7653 84.856ZM69.8086 89.168C69.3792 89.168 68.9919 89.0887 68.6466 88.93C68.3012 88.762 68.0259 88.496 67.8206 88.132C67.6246 87.768 67.5266 87.2967 67.5266 86.718V78.64H68.7866V86.592C68.7866 87.096 68.8892 87.4693 69.0946 87.712C69.3092 87.9547 69.6032 88.076 69.9766 88.076C70.1539 88.076 70.3266 88.0573 70.4946 88.02C70.6719 87.9733 70.8212 87.922 70.9426 87.866L71.2506 88.888C71.0826 88.9627 70.8726 89.028 70.6206 89.084C70.3779 89.14 70.1072 89.168 69.8086 89.168ZM76.6337 89V81.72H77.8517V82.938C78.113 82.546 78.4443 82.2193 78.8457 81.958C79.2563 81.6873 79.7417 81.552 80.3017 81.552C81.123 81.552 81.7343 81.7993 82.1357 82.294C82.5463 82.7887 82.7517 83.442 82.7517 84.254V89H81.4917V84.394C81.4917 83.8713 81.3657 83.4513 81.1137 83.134C80.871 82.8167 80.5303 82.658 80.0917 82.658C79.6623 82.658 79.2563 82.812 78.8737 83.12C78.491 83.4187 78.1643 83.7733 77.8937 84.184V89H76.6337ZM87.9848 89.168C87.2942 89.168 86.6735 89.0093 86.1228 88.692C85.5722 88.3653 85.1382 87.9173 84.8208 87.348C84.5128 86.7693 84.3588 86.1067 84.3588 85.36C84.3588 84.576 84.5175 83.8993 84.8348 83.33C85.1522 82.7607 85.5862 82.322 86.1368 82.014C86.6875 81.706 87.3035 81.552 87.9848 81.552C88.6662 81.552 89.2775 81.706 89.8188 82.014C90.3695 82.322 90.8035 82.7607 91.1208 83.33C91.4475 83.89 91.6108 84.5573 91.6108 85.332C91.6108 86.1067 91.4522 86.7833 91.1348 87.362C90.8175 87.9313 90.3835 88.3747 89.8328 88.692C89.2915 89.0093 88.6755 89.168 87.9848 89.168ZM87.9848 88.048C88.7222 88.048 89.2962 87.8007 89.7068 87.306C90.1175 86.802 90.3228 86.1533 90.3228 85.36C90.3228 84.8747 90.2202 84.4313 90.0148 84.03C89.8095 83.6193 89.5295 83.2927 89.1748 83.05C88.8295 82.798 88.4328 82.672 87.9848 82.672C87.2475 82.672 86.6735 82.9147 86.2628 83.4C85.8522 83.8853 85.6468 84.5293 85.6468 85.332C85.6468 85.8173 85.7495 86.27 85.9548 86.69C86.1602 87.1007 86.4355 87.432 86.7808 87.684C87.1355 87.9267 87.5368 88.048 87.9848 88.048ZM93.286 89V81.72H94.504V82.938C94.7653 82.546 95.0967 82.2193 95.498 81.958C95.8993 81.6873 96.3567 81.552 96.87 81.552C97.4487 81.552 97.92 81.692 98.284 81.972C98.6573 82.252 98.9187 82.6253 99.068 83.092C99.3573 82.6627 99.698 82.2987 100.09 82C100.491 81.7013 100.986 81.552 101.574 81.552C102.367 81.552 102.955 81.804 103.338 82.308C103.73 82.8027 103.926 83.4513 103.926 84.254V89H102.666V84.352C102.666 83.848 102.549 83.442 102.316 83.134C102.083 82.8167 101.761 82.658 101.35 82.658C100.93 82.658 100.538 82.8167 100.174 83.134C99.8193 83.442 99.5067 83.806 99.236 84.226V89H97.976V84.352C97.976 83.848 97.8593 83.442 97.626 83.134C97.3927 82.8167 97.0707 82.658 96.66 82.658C96.2493 82.658 95.862 82.812 95.498 83.12C95.134 83.4187 94.8167 83.7733 94.546 84.184V89H93.286ZM109.373 89.168C108.953 89.168 108.556 89.0933 108.183 88.944C107.819 88.7853 107.515 88.6033 107.273 88.398V89H106.097V78.64H107.357V82.476C107.543 82.2613 107.814 82.056 108.169 81.86C108.533 81.6547 108.962 81.552 109.457 81.552C110.017 81.552 110.539 81.7013 111.025 82C111.519 82.2893 111.916 82.714 112.215 83.274C112.513 83.8247 112.663 84.4967 112.663 85.29C112.663 85.8687 112.569 86.396 112.383 86.872C112.196 87.348 111.944 87.7587 111.627 88.104C111.319 88.44 110.969 88.7013 110.577 88.888C110.185 89.0747 109.783 89.168 109.373 89.168ZM109.037 88.048C109.494 88.048 109.895 87.936 110.241 87.712C110.595 87.488 110.871 87.1707 111.067 86.76C111.272 86.3493 111.375 85.8733 111.375 85.332C111.375 84.772 111.272 84.2913 111.067 83.89C110.871 83.4887 110.605 83.1807 110.269 82.966C109.942 82.7513 109.578 82.644 109.177 82.644C108.775 82.644 108.411 82.7467 108.085 82.952C107.767 83.148 107.525 83.3627 107.357 83.596V87.488C107.571 87.656 107.823 87.7913 108.113 87.894C108.402 87.9967 108.71 88.048 109.037 88.048ZM114.409 89V81.72H115.627V83.302C115.748 82.994 115.912 82.7093 116.117 82.448C116.322 82.1773 116.579 81.9627 116.887 81.804C117.195 81.636 117.554 81.552 117.965 81.552C118.105 81.552 118.245 81.5613 118.385 81.58C118.525 81.5893 118.642 81.608 118.735 81.636L118.357 82.938C118.18 82.8633 117.97 82.826 117.727 82.826C117.382 82.826 117.05 82.924 116.733 83.12C116.425 83.316 116.168 83.6193 115.963 84.03C115.767 84.4407 115.669 84.9633 115.669 85.598V89H114.409ZM122.489 89.168C121.444 89.168 120.613 88.8367 119.997 88.174C119.39 87.502 119.087 86.564 119.087 85.36C119.087 84.632 119.222 83.9833 119.493 83.414C119.773 82.8353 120.16 82.3827 120.655 82.056C121.15 81.72 121.724 81.552 122.377 81.552C123.077 81.552 123.656 81.706 124.113 82.014C124.58 82.3127 124.93 82.7187 125.163 83.232C125.396 83.7453 125.513 84.31 125.513 84.926C125.513 85.2527 125.499 85.57 125.471 85.878H120.375C120.459 86.5593 120.697 87.0913 121.089 87.474C121.481 87.8567 121.999 88.048 122.643 88.048C123.063 88.048 123.441 88.006 123.777 87.922C124.113 87.8287 124.435 87.712 124.743 87.572L125.037 88.65C124.701 88.7993 124.323 88.9207 123.903 89.014C123.483 89.1167 123.012 89.168 122.489 89.168ZM120.361 84.856H124.351C124.351 84.1467 124.174 83.6007 123.819 83.218C123.464 82.8353 122.974 82.644 122.349 82.644C121.808 82.644 121.36 82.8353 121.005 83.218C120.65 83.5913 120.436 84.1373 120.361 84.856ZM134.148 89.168C133.55 89.168 133.004 89.014 132.51 88.706C132.015 88.398 131.623 87.964 131.334 87.404C131.044 86.8347 130.9 86.1673 130.9 85.402C130.9 84.6647 131.044 84.0067 131.334 83.428C131.632 82.8493 132.024 82.392 132.51 82.056C133.004 81.72 133.546 81.552 134.134 81.552C134.619 81.552 135.034 81.65 135.38 81.846C135.734 82.042 136.01 82.2427 136.206 82.448V78.64H137.466V87.236C137.466 87.5907 137.55 87.824 137.718 87.936C137.895 88.0387 138.086 88.09 138.292 88.09L138.026 89.07C137.139 89.07 136.598 88.7153 136.402 88.006C136.196 88.2953 135.907 88.5613 135.534 88.804C135.17 89.0467 134.708 89.168 134.148 89.168ZM134.428 88.048C134.773 88.048 135.1 87.9687 135.408 87.81C135.725 87.642 135.991 87.4273 136.206 87.166V83.554C136.028 83.33 135.781 83.1247 135.464 82.938C135.146 82.742 134.796 82.644 134.414 82.644C133.966 82.644 133.574 82.7653 133.238 83.008C132.902 83.2507 132.64 83.5773 132.454 83.988C132.276 84.3893 132.188 84.8467 132.188 85.36C132.188 85.8733 132.286 86.3353 132.482 86.746C132.678 87.1473 132.944 87.4647 133.28 87.698C133.625 87.9313 134.008 88.048 134.428 88.048ZM142.751 89.168C141.705 89.168 140.875 88.8367 140.259 88.174C139.652 87.502 139.349 86.564 139.349 85.36C139.349 84.632 139.484 83.9833 139.755 83.414C140.035 82.8353 140.422 82.3827 140.917 82.056C141.411 81.72 141.985 81.552 142.639 81.552C143.339 81.552 143.917 81.706 144.375 82.014C144.841 82.3127 145.191 82.7187 145.425 83.232C145.658 83.7453 145.775 84.31 145.775 84.926C145.775 85.2527 145.761 85.57 145.733 85.878H140.637C140.721 86.5593 140.959 87.0913 141.351 87.474C141.743 87.8567 142.261 88.048 142.905 88.048C143.325 88.048 143.703 88.006 144.039 87.922C144.375 87.8287 144.697 87.712 145.005 87.572L145.299 88.65C144.963 88.7993 144.585 88.9207 144.165 89.014C143.745 89.1167 143.273 89.168 142.751 89.168ZM140.623 84.856H144.613C144.613 84.1467 144.435 83.6007 144.081 83.218C143.726 82.8353 143.236 82.644 142.611 82.644C142.069 82.644 141.621 82.8353 141.267 83.218C140.912 83.5913 140.697 84.1373 140.623 84.856ZM149.666 89.168C149.237 89.168 148.849 89.0887 148.504 88.93C148.159 88.762 147.883 88.496 147.678 88.132C147.482 87.768 147.384 87.2967 147.384 86.718V78.64H148.644V86.592C148.644 87.096 148.747 87.4693 148.952 87.712C149.167 87.9547 149.461 88.076 149.834 88.076C150.011 88.076 150.184 88.0573 150.352 88.02C150.529 87.9733 150.679 87.922 150.8 87.866L151.108 88.888C150.94 88.9627 150.73 89.028 150.478 89.084C150.235 89.14 149.965 89.168 149.666 89.168ZM158.871 89.168C158.451 89.168 158.054 89.0793 157.681 88.902C157.308 88.7247 157.004 88.44 156.771 88.048C156.538 87.6467 156.421 87.1147 156.421 86.452V81.72H157.681V86.284C157.681 86.8533 157.802 87.292 158.045 87.6C158.288 87.8987 158.642 88.048 159.109 88.048C159.492 88.048 159.86 87.9733 160.215 87.824C160.579 87.6653 160.901 87.4553 161.181 87.194V81.72H162.441V87.11C162.441 87.5113 162.525 87.7773 162.693 87.908C162.87 88.0293 163.062 88.09 163.267 88.09L163.001 89.07C162.133 89.07 161.596 88.7247 161.391 88.034C161.064 88.37 160.686 88.6453 160.257 88.86C159.828 89.0653 159.366 89.168 158.871 89.168ZM166.9 89.168C166.35 89.168 165.85 89.098 165.402 88.958C164.964 88.818 164.6 88.636 164.31 88.412L164.842 87.362C165.085 87.5673 165.388 87.74 165.752 87.88C166.126 88.0107 166.522 88.076 166.942 88.076C167.465 88.076 167.857 87.992 168.118 87.824C168.389 87.6467 168.524 87.4227 168.524 87.152C168.524 86.956 168.473 86.7833 168.37 86.634C168.277 86.4847 168.1 86.34 167.838 86.2C167.577 86.0507 167.199 85.892 166.704 85.724C166.023 85.4907 165.51 85.2153 165.164 84.898C164.828 84.5713 164.66 84.1233 164.66 83.554C164.66 82.994 164.903 82.5227 165.388 82.14C165.883 81.748 166.564 81.552 167.432 81.552C167.899 81.552 168.314 81.6033 168.678 81.706C169.042 81.7993 169.369 81.9207 169.658 82.07L169.308 83.106C169.056 82.9567 168.767 82.8353 168.44 82.742C168.123 82.6487 167.768 82.602 167.376 82.602C166.891 82.602 166.522 82.7 166.27 82.896C166.018 83.092 165.892 83.3067 165.892 83.54C165.892 83.764 165.99 83.9553 166.186 84.114C166.382 84.2727 166.765 84.4453 167.334 84.632C168.258 84.94 168.902 85.2807 169.266 85.654C169.63 86.0273 169.812 86.494 169.812 87.054C169.812 87.7073 169.546 88.2253 169.014 88.608C168.492 88.9813 167.787 89.168 166.9 89.168ZM173.869 89.168C173.449 89.168 173.052 89.0793 172.679 88.902C172.306 88.7247 172.002 88.44 171.769 88.048C171.536 87.6467 171.419 87.1147 171.419 86.452V81.72H172.679V86.284C172.679 86.8533 172.8 87.292 173.043 87.6C173.286 87.8987 173.64 88.048 174.107 88.048C174.49 88.048 174.858 87.9733 175.213 87.824C175.577 87.6653 175.899 87.4553 176.179 87.194V81.72H177.439V87.11C177.439 87.5113 177.523 87.7773 177.691 87.908C177.868 88.0293 178.06 88.09 178.265 88.09L177.999 89.07C177.131 89.07 176.594 88.7247 176.389 88.034C176.062 88.37 175.684 88.6453 175.255 88.86C174.826 89.0653 174.364 89.168 173.869 89.168ZM182.588 89.168C181.981 89.168 181.43 89.014 180.936 88.706C180.441 88.398 180.044 87.964 179.746 87.404C179.456 86.8347 179.312 86.1673 179.312 85.402C179.312 84.674 179.456 84.0207 179.746 83.442C180.044 82.8633 180.45 82.406 180.964 82.07C181.486 81.7247 182.084 81.552 182.756 81.552C183.176 81.552 183.554 81.6267 183.89 81.776C184.235 81.916 184.534 82.0933 184.786 82.308V81.72H185.934V87.236C185.934 87.5907 186.018 87.824 186.186 87.936C186.363 88.0387 186.554 88.09 186.76 88.09L186.494 89.07C185.598 89.07 185.056 88.706 184.87 87.978C184.655 88.2767 184.361 88.552 183.988 88.804C183.624 89.0467 183.157 89.168 182.588 89.168ZM182.868 88.048C183.222 88.048 183.558 87.964 183.876 87.796C184.193 87.6187 184.459 87.3993 184.674 87.138V83.232C184.422 83.0547 184.142 82.9147 183.834 82.812C183.535 82.7 183.218 82.644 182.882 82.644C182.434 82.644 182.037 82.7607 181.692 82.994C181.356 83.218 181.09 83.5353 180.894 83.946C180.698 84.3473 180.6 84.8187 180.6 85.36C180.6 85.8827 180.698 86.3493 180.894 86.76C181.09 87.1613 181.36 87.4787 181.706 87.712C182.051 87.936 182.438 88.048 182.868 88.048ZM188.442 89V81.72H189.66V83.302C189.782 82.994 189.945 82.7093 190.15 82.448C190.356 82.1773 190.612 81.9627 190.92 81.804C191.228 81.636 191.588 81.552 191.998 81.552C192.138 81.552 192.278 81.5613 192.418 81.58C192.558 81.5893 192.675 81.608 192.768 81.636L192.39 82.938C192.213 82.8633 192.003 82.826 191.76 82.826C191.415 82.826 191.084 82.924 190.766 83.12C190.458 83.316 190.202 83.6193 189.996 84.03C189.8 84.4407 189.702 84.9633 189.702 85.598V89H188.442ZM194.034 89V81.72H195.294V89H194.034ZM194.664 80.474C194.421 80.474 194.211 80.3853 194.034 80.208C193.866 80.0307 193.782 79.8253 193.782 79.592C193.782 79.3213 193.861 79.1067 194.02 78.948C194.179 78.7893 194.393 78.71 194.664 78.71C194.907 78.71 195.112 78.7987 195.28 78.976C195.457 79.144 195.546 79.3493 195.546 79.592C195.546 79.8533 195.467 80.068 195.308 80.236C195.149 80.3947 194.935 80.474 194.664 80.474ZM200.6 89.168C199.909 89.168 199.289 89.0093 198.738 88.692C198.187 88.3653 197.753 87.9173 197.436 87.348C197.128 86.7693 196.974 86.1067 196.974 85.36C196.974 84.576 197.133 83.8993 197.45 83.33C197.767 82.7607 198.201 82.322 198.752 82.014C199.303 81.706 199.919 81.552 200.6 81.552C201.281 81.552 201.893 81.706 202.434 82.014C202.985 82.322 203.419 82.7607 203.736 83.33C204.063 83.89 204.226 84.5573 204.226 85.332C204.226 86.1067 204.067 86.7833 203.75 87.362C203.433 87.9313 202.999 88.3747 202.448 88.692C201.907 89.0093 201.291 89.168 200.6 89.168ZM200.6 88.048C201.337 88.048 201.911 87.8007 202.322 87.306C202.733 86.802 202.938 86.1533 202.938 85.36C202.938 84.8747 202.835 84.4313 202.63 84.03C202.425 83.6193 202.145 83.2927 201.79 83.05C201.445 82.798 201.048 82.672 200.6 82.672C199.863 82.672 199.289 82.9147 198.878 83.4C198.467 83.8853 198.262 84.5293 198.262 85.332C198.262 85.8173 198.365 86.27 198.57 86.69C198.775 87.1007 199.051 87.432 199.396 87.684C199.751 87.9267 200.152 88.048 200.6 88.048Z" fill="#5E5E5E"/>
</svg>
