<svg width="359" height="94" viewBox="0 0 359 94" fill="none" xmlns="http://www.w3.org/2000/svg">
<path d="M19.12 14H17.36V2.8H21.936C23.84 2.8 25.312 4.272 25.312 6.144C25.312 7.568 24.4 8.752 23.088 9.2L25.968 14H23.968L21.296 9.392H19.12V14ZM21.68 4.336H19.12V7.936H21.68C22.784 7.936 23.536 7.136 23.536 6.144C23.536 5.136 22.784 4.336 21.68 4.336ZM34.6984 10.288C34.6984 12.656 33.1144 14.176 30.8904 14.176C28.6984 14.176 27.0984 12.656 27.0984 10.288V9.232C27.0984 6.88 28.6824 5.344 30.8904 5.344C33.1144 5.344 34.6984 6.864 34.6984 9.232V10.288ZM33.0184 9.312C33.0184 7.808 32.2184 6.832 30.8904 6.832C29.5784 6.832 28.7784 7.808 28.7784 9.312V10.224C28.7784 11.728 29.5784 12.688 30.8904 12.688C32.2184 12.688 33.0184 11.728 33.0184 10.224V9.312ZM38.5225 14H36.8265V2.208H38.5225V14Z" fill="black"/>
<rect x="16" y="24" width="327" height="42" rx="8" fill="#E8E8E8"/>
<path d="M17.26 89V79.2H23.14V80.348H18.59V83.33H22.51V84.45H18.59V87.852H23.14V89H17.26ZM26.7089 89.168C26.1582 89.168 25.6589 89.098 25.2109 88.958C24.7722 88.818 24.4082 88.636 24.1189 88.412L24.6509 87.362C24.8936 87.5673 25.1969 87.74 25.5609 87.88C25.9342 88.0107 26.3309 88.076 26.7509 88.076C27.2736 88.076 27.6656 87.992 27.9269 87.824C28.1976 87.6467 28.3329 87.4227 28.3329 87.152C28.3329 86.956 28.2816 86.7833 28.1789 86.634C28.0856 86.4847 27.9082 86.34 27.6469 86.2C27.3856 86.0507 27.0076 85.892 26.5129 85.724C25.8316 85.4907 25.3182 85.2153 24.9729 84.898C24.6369 84.5713 24.4689 84.1233 24.4689 83.554C24.4689 82.994 24.7116 82.5227 25.1969 82.14C25.6916 81.748 26.3729 81.552 27.2409 81.552C27.7076 81.552 28.1229 81.6033 28.4869 81.706C28.8509 81.7993 29.1776 81.9207 29.4669 82.07L29.1169 83.106C28.8649 82.9567 28.5756 82.8353 28.2489 82.742C27.9316 82.6487 27.5769 82.602 27.1849 82.602C26.6996 82.602 26.3309 82.7 26.0789 82.896C25.8269 83.092 25.7009 83.3067 25.7009 83.54C25.7009 83.764 25.7989 83.9553 25.9949 84.114C26.1909 84.2727 26.5736 84.4453 27.1429 84.632C28.0669 84.94 28.7109 85.2807 29.0749 85.654C29.4389 86.0273 29.6209 86.494 29.6209 87.054C29.6209 87.7073 29.3549 88.2253 28.8229 88.608C28.3002 88.9813 27.5956 89.168 26.7089 89.168ZM34.2377 89.168C33.5471 89.168 32.9404 89.0093 32.4177 88.692C31.9044 88.3653 31.5077 87.9173 31.2277 87.348C30.9477 86.7693 30.8077 86.1067 30.8077 85.36C30.8077 84.66 30.9477 84.0207 31.2277 83.442C31.5171 82.8633 31.9277 82.406 32.4597 82.07C32.9917 81.7247 33.6171 81.552 34.3357 81.552C34.7464 81.552 35.1057 81.5893 35.4137 81.664C35.7311 81.7387 36.0344 81.846 36.3237 81.986L35.9457 83.05C35.6844 82.9193 35.4324 82.826 35.1897 82.77C34.9564 82.7047 34.6951 82.672 34.4057 82.672C33.7524 82.672 33.2017 82.91 32.7537 83.386C32.3151 83.8527 32.0957 84.5013 32.0957 85.332C32.0957 85.836 32.1891 86.2933 32.3757 86.704C32.5624 87.1147 32.8191 87.4413 33.1457 87.684C33.4817 87.9267 33.8737 88.048 34.3217 88.048C34.6764 88.048 34.9797 88.0107 35.2317 87.936C35.4837 87.852 35.7544 87.7353 36.0437 87.586L36.4357 88.65C36.1464 88.8087 35.8197 88.9347 35.4557 89.028C35.1011 89.1213 34.6951 89.168 34.2377 89.168ZM40.8305 89.168C40.1399 89.168 39.5192 89.0093 38.9685 88.692C38.4179 88.3653 37.9839 87.9173 37.6665 87.348C37.3585 86.7693 37.2045 86.1067 37.2045 85.36C37.2045 84.576 37.3632 83.8993 37.6805 83.33C37.9979 82.7607 38.4319 82.322 38.9825 82.014C39.5332 81.706 40.1492 81.552 40.8305 81.552C41.5119 81.552 42.1232 81.706 42.6645 82.014C43.2152 82.322 43.6492 82.7607 43.9665 83.33C44.2932 83.89 44.4565 84.5573 44.4565 85.332C44.4565 86.1067 44.2979 86.7833 43.9805 87.362C43.6632 87.9313 43.2292 88.3747 42.6785 88.692C42.1372 89.0093 41.5212 89.168 40.8305 89.168ZM40.8305 88.048C41.5679 88.048 42.1419 87.8007 42.5525 87.306C42.9632 86.802 43.1685 86.1533 43.1685 85.36C43.1685 84.8747 43.0659 84.4313 42.8605 84.03C42.6552 83.6193 42.3752 83.2927 42.0205 83.05C41.6752 82.798 41.2785 82.672 40.8305 82.672C40.0932 82.672 39.5192 82.9147 39.1085 83.4C38.6979 83.8853 38.4925 84.5293 38.4925 85.332C38.4925 85.8173 38.5952 86.27 38.8005 86.69C39.0059 87.1007 39.2812 87.432 39.6265 87.684C39.9812 87.9267 40.3825 88.048 40.8305 88.048ZM48.8057 92.248C48.3764 92.248 47.9564 92.1967 47.5457 92.094C47.1444 91.9913 46.7851 91.8373 46.4677 91.632L46.9297 90.54C47.1537 90.7173 47.4151 90.862 47.7137 90.974C48.0124 91.0953 48.3764 91.156 48.8057 91.156C49.4684 91.156 49.9864 90.9787 50.3597 90.624C50.7424 90.2787 50.9337 89.7233 50.9337 88.958V88.062C50.7471 88.286 50.4764 88.5007 50.1217 88.706C49.7764 88.902 49.3611 89 48.8757 89C48.3251 89 47.8024 88.86 47.3077 88.58C46.8131 88.2907 46.4117 87.8707 46.1037 87.32C45.7957 86.7693 45.6417 86.1067 45.6417 85.332C45.6417 84.604 45.7911 83.9553 46.0897 83.386C46.3977 82.8167 46.8084 82.3687 47.3217 82.042C47.8351 81.7153 48.3997 81.552 49.0157 81.552C49.4264 81.552 49.7997 81.622 50.1357 81.762C50.4717 81.902 50.7611 82.0747 51.0037 82.28V81.72H52.1517V88.832C52.1517 89.6347 52.0117 90.288 51.7317 90.792C51.4517 91.296 51.0597 91.6647 50.5557 91.898C50.0611 92.1313 49.4777 92.248 48.8057 92.248ZM49.1557 87.88C49.5291 87.88 49.8651 87.796 50.1637 87.628C50.4624 87.46 50.7051 87.264 50.8917 87.04V83.232C50.6864 83.0827 50.4391 82.9473 50.1497 82.826C49.8604 82.7047 49.5244 82.644 49.1417 82.644C48.7591 82.644 48.3997 82.7467 48.0637 82.952C47.7277 83.1573 47.4524 83.456 47.2377 83.848C47.0324 84.2307 46.9297 84.702 46.9297 85.262C46.9297 85.794 47.0324 86.256 47.2377 86.648C47.4524 87.04 47.7277 87.3433 48.0637 87.558C48.3997 87.7727 48.7637 87.88 49.1557 87.88ZM57.2332 89.168C56.1878 89.168 55.3572 88.8367 54.7412 88.174C54.1345 87.502 53.8312 86.564 53.8312 85.36C53.8312 84.632 53.9665 83.9833 54.2372 83.414C54.5172 82.8353 54.9045 82.3827 55.3992 82.056C55.8938 81.72 56.4678 81.552 57.1212 81.552C57.8212 81.552 58.3998 81.706 58.8572 82.014C59.3238 82.3127 59.6738 82.7187 59.9072 83.232C60.1405 83.7453 60.2572 84.31 60.2572 84.926C60.2572 85.2527 60.2432 85.57 60.2152 85.878H55.1192C55.2032 86.5593 55.4412 87.0913 55.8332 87.474C56.2252 87.8567 56.7432 88.048 57.3872 88.048C57.8072 88.048 58.1852 88.006 58.5212 87.922C58.8572 87.8287 59.1792 87.712 59.4872 87.572L59.7812 88.65C59.4452 88.7993 59.0672 88.9207 58.6472 89.014C58.2272 89.1167 57.7558 89.168 57.2332 89.168ZM55.1052 84.856H59.0952C59.0952 84.1467 58.9178 83.6007 58.5632 83.218C58.2085 82.8353 57.7185 82.644 57.0932 82.644C56.5518 82.644 56.1038 82.8353 55.7492 83.218C55.3945 83.5913 55.1798 84.1373 55.1052 84.856ZM69.0457 89.168C68.0003 89.168 67.1697 88.8367 66.5537 88.174C65.947 87.502 65.6437 86.564 65.6437 85.36C65.6437 84.632 65.779 83.9833 66.0497 83.414C66.3297 82.8353 66.717 82.3827 67.2117 82.056C67.7063 81.72 68.2803 81.552 68.9337 81.552C69.6337 81.552 70.2123 81.706 70.6697 82.014C71.1363 82.3127 71.4863 82.7187 71.7197 83.232C71.953 83.7453 72.0697 84.31 72.0697 84.926C72.0697 85.2527 72.0557 85.57 72.0277 85.878H66.9317C67.0157 86.5593 67.2537 87.0913 67.6457 87.474C68.0377 87.8567 68.5557 88.048 69.1997 88.048C69.6197 88.048 69.9977 88.006 70.3337 87.922C70.6697 87.8287 70.9917 87.712 71.2997 87.572L71.5937 88.65C71.2577 88.7993 70.8797 88.9207 70.4597 89.014C70.0397 89.1167 69.5683 89.168 69.0457 89.168ZM66.9177 84.856H70.9077C70.9077 84.1467 70.7303 83.6007 70.3757 83.218C70.021 82.8353 69.531 82.644 68.9057 82.644C68.3643 82.644 67.9163 82.8353 67.5617 83.218C67.207 83.5913 66.9923 84.1373 66.9177 84.856ZM75.9609 89.168C75.5316 89.168 75.1442 89.0887 74.7989 88.93C74.4536 88.762 74.1782 88.496 73.9729 88.132C73.7769 87.768 73.6789 87.2967 73.6789 86.718V78.64H74.9389V86.592C74.9389 87.096 75.0416 87.4693 75.2469 87.712C75.4616 87.9547 75.7556 88.076 76.1289 88.076C76.3062 88.076 76.4789 88.0573 76.6469 88.02C76.8242 87.9733 76.9736 87.922 77.0949 87.866L77.4029 88.888C77.2349 88.9627 77.0249 89.028 76.7729 89.084C76.5302 89.14 76.2596 89.168 75.9609 89.168ZM82.786 89V81.72H84.004V83.302C84.1253 82.994 84.2887 82.7093 84.494 82.448C84.6993 82.1773 84.956 81.9627 85.264 81.804C85.572 81.636 85.9313 81.552 86.342 81.552C86.482 81.552 86.622 81.5613 86.762 81.58C86.902 81.5893 87.0187 81.608 87.112 81.636L86.734 82.938C86.5567 82.8633 86.3467 82.826 86.104 82.826C85.7587 82.826 85.4273 82.924 85.11 83.12C84.802 83.316 84.5453 83.6193 84.34 84.03C84.144 84.4407 84.046 84.9633 84.046 85.598V89H82.786ZM91.02 89.168C90.3293 89.168 89.7087 89.0093 89.158 88.692C88.6073 88.3653 88.1733 87.9173 87.856 87.348C87.548 86.7693 87.394 86.1067 87.394 85.36C87.394 84.576 87.5527 83.8993 87.87 83.33C88.1873 82.7607 88.6213 82.322 89.172 82.014C89.7227 81.706 90.3387 81.552 91.02 81.552C91.7013 81.552 92.3127 81.706 92.854 82.014C93.4047 82.322 93.8387 82.7607 94.156 83.33C94.4827 83.89 94.646 84.5573 94.646 85.332C94.646 86.1067 94.4873 86.7833 94.17 87.362C93.8527 87.9313 93.4187 88.3747 92.868 88.692C92.3267 89.0093 91.7107 89.168 91.02 89.168ZM91.02 88.048C91.7573 88.048 92.3313 87.8007 92.742 87.306C93.1527 86.802 93.358 86.1533 93.358 85.36C93.358 84.8747 93.2553 84.4313 93.05 84.03C92.8447 83.6193 92.5647 83.2927 92.21 83.05C91.8647 82.798 91.468 82.672 91.02 82.672C90.2827 82.672 89.7087 82.9147 89.298 83.4C88.8873 83.8853 88.682 84.5293 88.682 85.332C88.682 85.8173 88.7847 86.27 88.99 86.69C89.1953 87.1007 89.4707 87.432 89.816 87.684C90.1707 87.9267 90.572 88.048 91.02 88.048ZM98.5332 89.168C98.1038 89.168 97.7165 89.0887 97.3712 88.93C97.0258 88.762 96.7505 88.496 96.5452 88.132C96.3492 87.768 96.2512 87.2967 96.2512 86.718V78.64H97.5112V86.592C97.5112 87.096 97.6138 87.4693 97.8192 87.712C98.0338 87.9547 98.3278 88.076 98.7012 88.076C98.8785 88.076 99.0512 88.0573 99.2192 88.02C99.3965 87.9733 99.5458 87.922 99.6672 87.866L99.9752 88.888C99.8072 88.9627 99.5972 89.028 99.3452 89.084C99.1025 89.14 98.8318 89.168 98.5332 89.168ZM108.116 89.168C107.519 89.168 106.973 89.014 106.478 88.706C105.984 88.398 105.592 87.964 105.302 87.404C105.013 86.8347 104.868 86.1673 104.868 85.402C104.868 84.6647 105.013 84.0067 105.302 83.428C105.601 82.8493 105.993 82.392 106.478 82.056C106.973 81.72 107.514 81.552 108.102 81.552C108.588 81.552 109.003 81.65 109.348 81.846C109.703 82.042 109.978 82.2427 110.174 82.448V78.64H111.434V87.236C111.434 87.5907 111.518 87.824 111.686 87.936C111.864 88.0387 112.055 88.09 112.26 88.09L111.994 89.07C111.108 89.07 110.566 88.7153 110.37 88.006C110.165 88.2953 109.876 88.5613 109.502 88.804C109.138 89.0467 108.676 89.168 108.116 89.168ZM108.396 88.048C108.742 88.048 109.068 87.9687 109.376 87.81C109.694 87.642 109.96 87.4273 110.174 87.166V83.554C109.997 83.33 109.75 83.1247 109.432 82.938C109.115 82.742 108.765 82.644 108.382 82.644C107.934 82.644 107.542 82.7653 107.206 83.008C106.87 83.2507 106.609 83.5773 106.422 83.988C106.245 84.3893 106.156 84.8467 106.156 85.36C106.156 85.8733 106.254 86.3353 106.45 86.746C106.646 87.1473 106.912 87.4647 107.248 87.698C107.594 87.9313 107.976 88.048 108.396 88.048ZM116.72 89.168C115.674 89.168 114.844 88.8367 114.228 88.174C113.621 87.502 113.318 86.564 113.318 85.36C113.318 84.632 113.453 83.9833 113.724 83.414C114.004 82.8353 114.391 82.3827 114.886 82.056C115.38 81.72 115.954 81.552 116.608 81.552C117.308 81.552 117.886 81.706 118.344 82.014C118.81 82.3127 119.16 82.7187 119.394 83.232C119.627 83.7453 119.744 84.31 119.744 84.926C119.744 85.2527 119.73 85.57 119.702 85.878H114.606C114.69 86.5593 114.928 87.0913 115.32 87.474C115.712 87.8567 116.23 88.048 116.874 88.048C117.294 88.048 117.672 88.006 118.008 87.922C118.344 87.8287 118.666 87.712 118.974 87.572L119.268 88.65C118.932 88.7993 118.554 88.9207 118.134 89.014C117.714 89.1167 117.242 89.168 116.72 89.168ZM114.592 84.856H118.582C118.582 84.1467 118.404 83.6007 118.05 83.218C117.695 82.8353 117.205 82.644 116.58 82.644C116.038 82.644 115.59 82.8353 115.236 83.218C114.881 83.5913 114.666 84.1373 114.592 84.856ZM123.635 89.168C123.205 89.168 122.818 89.0887 122.473 88.93C122.127 88.762 121.852 88.496 121.647 88.132C121.451 87.768 121.353 87.2967 121.353 86.718V78.64H122.613V86.592C122.613 87.096 122.715 87.4693 122.921 87.712C123.135 87.9547 123.429 88.076 123.803 88.076C123.98 88.076 124.153 88.0573 124.321 88.02C124.498 87.9733 124.647 87.922 124.769 87.866L125.077 88.888C124.909 88.9627 124.699 89.028 124.447 89.084C124.204 89.14 123.933 89.168 123.635 89.168ZM132.84 89.168C132.42 89.168 132.023 89.0793 131.65 88.902C131.277 88.7247 130.973 88.44 130.74 88.048C130.507 87.6467 130.39 87.1147 130.39 86.452V81.72H131.65V86.284C131.65 86.8533 131.771 87.292 132.014 87.6C132.257 87.8987 132.611 88.048 133.078 88.048C133.461 88.048 133.829 87.9733 134.184 87.824C134.548 87.6653 134.87 87.4553 135.15 87.194V81.72H136.41V87.11C136.41 87.5113 136.494 87.7773 136.662 87.908C136.839 88.0293 137.031 88.09 137.236 88.09L136.97 89.07C136.102 89.07 135.565 88.7247 135.36 88.034C135.033 88.37 134.655 88.6453 134.226 88.86C133.797 89.0653 133.335 89.168 132.84 89.168ZM140.869 89.168C140.318 89.168 139.819 89.098 139.371 88.958C138.932 88.818 138.568 88.636 138.279 88.412L138.811 87.362C139.054 87.5673 139.357 87.74 139.721 87.88C140.094 88.0107 140.491 88.076 140.911 88.076C141.434 88.076 141.826 87.992 142.087 87.824C142.358 87.6467 142.493 87.4227 142.493 87.152C142.493 86.956 142.442 86.7833 142.339 86.634C142.246 86.4847 142.068 86.34 141.807 86.2C141.546 86.0507 141.168 85.892 140.673 85.724C139.992 85.4907 139.478 85.2153 139.133 84.898C138.797 84.5713 138.629 84.1233 138.629 83.554C138.629 82.994 138.872 82.5227 139.357 82.14C139.852 81.748 140.533 81.552 141.401 81.552C141.868 81.552 142.283 81.6033 142.647 81.706C143.011 81.7993 143.338 81.9207 143.627 82.07L143.277 83.106C143.025 82.9567 142.736 82.8353 142.409 82.742C142.092 82.6487 141.737 82.602 141.345 82.602C140.86 82.602 140.491 82.7 140.239 82.896C139.987 83.092 139.861 83.3067 139.861 83.54C139.861 83.764 139.959 83.9553 140.155 84.114C140.351 84.2727 140.734 84.4453 141.303 84.632C142.227 84.94 142.871 85.2807 143.235 85.654C143.599 86.0273 143.781 86.494 143.781 87.054C143.781 87.7073 143.515 88.2253 142.983 88.608C142.46 88.9813 141.756 89.168 140.869 89.168ZM147.838 89.168C147.418 89.168 147.021 89.0793 146.648 88.902C146.275 88.7247 145.971 88.44 145.738 88.048C145.505 87.6467 145.388 87.1147 145.388 86.452V81.72H146.648V86.284C146.648 86.8533 146.769 87.292 147.012 87.6C147.255 87.8987 147.609 88.048 148.076 88.048C148.459 88.048 148.827 87.9733 149.182 87.824C149.546 87.6653 149.868 87.4553 150.148 87.194V81.72H151.408V87.11C151.408 87.5113 151.492 87.7773 151.66 87.908C151.837 88.0293 152.029 88.09 152.234 88.09L151.968 89.07C151.1 89.07 150.563 88.7247 150.358 88.034C150.031 88.37 149.653 88.6453 149.224 88.86C148.795 89.0653 148.333 89.168 147.838 89.168ZM156.556 89.168C155.95 89.168 155.399 89.014 154.904 88.706C154.41 88.398 154.013 87.964 153.714 87.404C153.425 86.8347 153.28 86.1673 153.28 85.402C153.28 84.674 153.425 84.0207 153.714 83.442C154.013 82.8633 154.419 82.406 154.932 82.07C155.455 81.7247 156.052 81.552 156.724 81.552C157.144 81.552 157.522 81.6267 157.858 81.776C158.204 81.916 158.502 82.0933 158.754 82.308V81.72H159.902V87.236C159.902 87.5907 159.986 87.824 160.154 87.936C160.332 88.0387 160.523 88.09 160.728 88.09L160.462 89.07C159.566 89.07 159.025 88.706 158.838 87.978C158.624 88.2767 158.33 88.552 157.956 88.804C157.592 89.0467 157.126 89.168 156.556 89.168ZM156.836 88.048C157.191 88.048 157.527 87.964 157.844 87.796C158.162 87.6187 158.428 87.3993 158.642 87.138V83.232C158.39 83.0547 158.11 82.9147 157.802 82.812C157.504 82.7 157.186 82.644 156.85 82.644C156.402 82.644 156.006 82.7607 155.66 82.994C155.324 83.218 155.058 83.5353 154.862 83.946C154.666 84.3473 154.568 84.8187 154.568 85.36C154.568 85.8827 154.666 86.3493 154.862 86.76C155.058 87.1613 155.329 87.4787 155.674 87.712C156.02 87.936 156.407 88.048 156.836 88.048ZM162.411 89V81.72H163.629V83.302C163.75 82.994 163.914 82.7093 164.119 82.448C164.324 82.1773 164.581 81.9627 164.889 81.804C165.197 81.636 165.556 81.552 165.967 81.552C166.107 81.552 166.247 81.5613 166.387 81.58C166.527 81.5893 166.644 81.608 166.737 81.636L166.359 82.938C166.182 82.8633 165.972 82.826 165.729 82.826C165.384 82.826 165.052 82.924 164.735 83.12C164.427 83.316 164.17 83.6193 163.965 84.03C163.769 84.4407 163.671 84.9633 163.671 85.598V89H162.411ZM168.003 89V81.72H169.263V89H168.003ZM168.633 80.474C168.39 80.474 168.18 80.3853 168.003 80.208C167.835 80.0307 167.751 79.8253 167.751 79.592C167.751 79.3213 167.83 79.1067 167.989 78.948C168.147 78.7893 168.362 78.71 168.633 78.71C168.875 78.71 169.081 78.7987 169.249 78.976C169.426 79.144 169.515 79.3493 169.515 79.592C169.515 79.8533 169.435 80.068 169.277 80.236C169.118 80.3947 168.903 80.474 168.633 80.474ZM174.569 89.168C173.878 89.168 173.257 89.0093 172.707 88.692C172.156 88.3653 171.722 87.9173 171.405 87.348C171.097 86.7693 170.943 86.1067 170.943 85.36C170.943 84.576 171.101 83.8993 171.419 83.33C171.736 82.7607 172.17 82.322 172.721 82.014C173.271 81.706 173.887 81.552 174.569 81.552C175.25 81.552 175.861 81.706 176.403 82.014C176.953 82.322 177.387 82.7607 177.705 83.33C178.031 83.89 178.195 84.5573 178.195 85.332C178.195 86.1067 178.036 86.7833 177.719 87.362C177.401 87.9313 176.967 88.3747 176.417 88.692C175.875 89.0093 175.259 89.168 174.569 89.168ZM174.569 88.048C175.306 88.048 175.88 87.8007 176.291 87.306C176.701 86.802 176.907 86.1533 176.907 85.36C176.907 84.8747 176.804 84.4313 176.599 84.03C176.393 83.6193 176.113 83.2927 175.759 83.05C175.413 82.798 175.017 82.672 174.569 82.672C173.831 82.672 173.257 82.9147 172.847 83.4C172.436 83.8853 172.231 84.5293 172.231 85.332C172.231 85.8173 172.333 86.27 172.539 86.69C172.744 87.1007 173.019 87.432 173.365 87.684C173.719 87.9267 174.121 88.048 174.569 88.048Z" fill="#5E5E5E"/>
</svg>
