<svg width="359" height="94" viewBox="0 0 359 94" fill="none" xmlns="http://www.w3.org/2000/svg">
<path d="M26.512 6.784H24.8C24.48 5.136 23.328 4.208 21.824 4.208C20.016 4.208 18.704 5.52 18.704 7.824V8.96C18.704 11.28 20.016 12.592 21.824 12.592C23.328 12.592 24.48 11.664 24.8 10.016H26.512C26.16 12.608 24.224 14.192 21.824 14.192C18.992 14.192 16.928 12.176 16.928 9.008V7.776C16.928 4.624 18.992 2.608 21.824 2.608C24.288 2.608 26.16 4.208 26.512 6.784ZM35.6359 10.288C35.6359 12.656 34.0519 14.176 31.8279 14.176C29.6359 14.176 28.0359 12.656 28.0359 10.288V9.232C28.0359 6.88 29.6199 5.344 31.8279 5.344C34.0519 5.344 35.6359 6.864 35.6359 9.232V10.288ZM33.9559 9.312C33.9559 7.808 33.1559 6.832 31.8279 6.832C30.5159 6.832 29.7159 7.808 29.7159 9.312V10.224C29.7159 11.728 30.5159 12.688 31.8279 12.688C33.1559 12.688 33.9559 11.728 33.9559 10.224V9.312ZM45.06 8.48V14H43.364V8.848C43.364 7.744 42.612 6.88 41.46 6.88C40.292 6.88 39.46 7.744 39.46 8.912V14H37.764V5.536H39.46V7.04C39.94 6 40.916 5.36 42.068 5.36C43.86 5.36 45.06 6.72 45.06 8.48ZM50.5361 14C49.1921 14 48.4401 13.2 48.4401 12.08V7.008H46.7281V5.536H48.4401V3.04H50.1361V5.536H52.3921V7.008H50.1361V11.84C50.1361 12.288 50.4561 12.528 50.9681 12.528H52.3921V14H50.5361ZM58.6998 7.12H57.8198C56.7318 7.12 55.8038 7.984 55.8038 9.312V14H54.1078V5.536H55.8038V7.184C56.1558 6.16 56.9238 5.456 58.0118 5.456H58.6998V7.12ZM59.3725 11.616C59.3725 10.096 60.4125 9.248 62.1085 9.136L64.6045 8.976V8.432C64.6045 7.472 64.0125 6.912 62.9885 6.912C62.1885 6.912 61.4845 7.168 60.7645 7.744L59.9965 6.496C60.8925 5.76 61.9645 5.36 63.2285 5.36C65.0685 5.36 66.2685 6.48 66.2685 8.224V12.016C66.2685 12.336 66.4445 12.512 66.7805 12.512H67.1965V14H66.3485C65.4525 14 64.8445 13.52 64.7005 12.768C64.2045 13.616 63.3085 14.16 62.2365 14.16C60.5885 14.16 59.3725 13.088 59.3725 11.616ZM61.0205 11.584C61.0205 12.304 61.6605 12.8 62.5725 12.8C63.6925 12.8 64.6045 12 64.6045 11.024V10.256L62.3325 10.432C61.5005 10.496 61.0205 10.88 61.0205 11.584ZM71.9908 14.176C70.0228 14.176 68.6148 13.056 68.3108 11.376H69.9268C70.1188 12.24 70.8708 12.832 72.0068 12.832C72.8708 12.832 73.4468 12.384 73.4468 11.76C73.4468 11.216 73.0148 10.864 72.3268 10.688L70.7268 10.288C69.2228 9.92 68.4548 9.12 68.4548 7.904C68.4548 6.368 69.6548 5.344 71.4308 5.344C73.2868 5.344 74.7108 6.464 74.9668 8.16H73.3348C73.1428 7.312 72.3748 6.704 71.4308 6.704C70.6148 6.704 70.1188 7.136 70.1188 7.744C70.1188 8.272 70.5348 8.64 71.2868 8.832L72.7908 9.2C74.3108 9.584 75.1108 10.4 75.1108 11.616C75.1108 13.136 73.8468 14.176 71.9908 14.176ZM76.6609 10.272V9.264C76.6609 6.928 78.1969 5.344 80.3889 5.344C82.4209 5.344 83.8609 6.944 83.8609 9.216V10.304H78.3249C78.3409 11.792 79.1889 12.704 80.5169 12.704C81.3489 12.704 82.0209 12.384 82.6289 11.712L83.7009 12.704C82.9009 13.648 81.8609 14.176 80.4689 14.176C78.2289 14.176 76.6609 12.608 76.6609 10.272ZM80.3249 6.832C79.1889 6.832 78.4209 7.632 78.3409 8.976H82.2449C82.1969 7.648 81.4449 6.832 80.3249 6.832ZM93.2163 8.48V14H91.5203V8.848C91.5203 7.744 90.7683 6.88 89.6163 6.88C88.4483 6.88 87.6163 7.744 87.6163 8.912V14H85.9203V5.536H87.6163V7.04C88.0963 6 89.0723 5.36 90.2243 5.36C92.0163 5.36 93.2163 6.72 93.2163 8.48ZM88.5123 2.208C89.2003 2.208 90.0163 3.056 90.4643 3.056C90.7363 3.056 90.9283 2.848 91.1363 2.128L92.2243 2.368C91.9203 3.6 91.3603 4.192 90.5763 4.192C89.8883 4.192 89.0723 3.328 88.6243 3.328C88.3523 3.328 88.1763 3.536 87.9683 4.256L86.8803 4.032C87.1843 2.8 87.7283 2.208 88.5123 2.208ZM95.0444 11.616C95.0444 10.096 96.0844 9.248 97.7804 9.136L100.276 8.976V8.432C100.276 7.472 99.6844 6.912 98.6604 6.912C97.8604 6.912 97.1564 7.168 96.4364 7.744L95.6684 6.496C96.5644 5.76 97.6364 5.36 98.9004 5.36C100.74 5.36 101.94 6.48 101.94 8.224V12.016C101.94 12.336 102.116 12.512 102.452 12.512H102.868V14H102.02C101.124 14 100.516 13.52 100.372 12.768C99.8764 13.616 98.9804 14.16 97.9084 14.16C96.2604 14.16 95.0444 13.088 95.0444 11.616ZM96.6924 11.584C96.6924 12.304 97.3324 12.8 98.2444 12.8C99.3644 12.8 100.276 12 100.276 11.024V10.256L98.0044 10.432C97.1724 10.496 96.6924 10.88 96.6924 11.584Z" fill="black"/>
<rect x="16" y="24" width="327" height="42" rx="8" fill="#E8E8E8"/>
<path d="M19.836 89.112C19.304 89.112 18.8373 89.098 18.436 89.07C18.044 89.042 17.652 89.0093 17.26 88.972V79.228C17.6987 79.1813 18.128 79.1487 18.548 79.13C18.968 79.102 19.4487 79.088 19.99 79.088C20.83 79.088 21.5533 79.2187 22.16 79.48C22.776 79.7413 23.28 80.1007 23.672 80.558C24.0733 81.0153 24.3673 81.5473 24.554 82.154C24.75 82.7513 24.848 83.3953 24.848 84.086C24.848 84.7673 24.75 85.4113 24.554 86.018C24.358 86.6247 24.0547 87.1613 23.644 87.628C23.2427 88.0853 22.7247 88.4493 22.09 88.72C21.4647 88.9813 20.7133 89.112 19.836 89.112ZM19.878 87.95C20.718 87.95 21.404 87.7867 21.936 87.46C22.468 87.1333 22.86 86.6807 23.112 86.102C23.364 85.514 23.49 84.842 23.49 84.086C23.49 83.414 23.364 82.784 23.112 82.196C22.86 81.608 22.4727 81.1367 21.95 80.782C21.4273 80.418 20.76 80.236 19.948 80.236C19.6773 80.236 19.43 80.2453 19.206 80.264C18.982 80.2733 18.7767 80.2873 18.59 80.306V87.88C18.786 87.908 18.9913 87.9267 19.206 87.936C19.4207 87.9453 19.6447 87.95 19.878 87.95ZM26.663 89V81.72H27.923V89H26.663ZM27.293 80.474C27.0503 80.474 26.8403 80.3853 26.663 80.208C26.495 80.0307 26.411 79.8253 26.411 79.592C26.411 79.3213 26.4903 79.1067 26.649 78.948C26.8076 78.7893 27.0223 78.71 27.293 78.71C27.5356 78.71 27.741 78.7987 27.909 78.976C28.0863 79.144 28.175 79.3493 28.175 79.592C28.175 79.8533 28.0956 80.068 27.937 80.236C27.7783 80.3947 27.5636 80.474 27.293 80.474ZM32.837 92.248C32.4076 92.248 31.9876 92.1967 31.577 92.094C31.1756 91.9913 30.8163 91.8373 30.499 91.632L30.961 90.54C31.185 90.7173 31.4463 90.862 31.745 90.974C32.0436 91.0953 32.4076 91.156 32.837 91.156C33.4996 91.156 34.0176 90.9787 34.391 90.624C34.7736 90.2787 34.965 89.7233 34.965 88.958V88.062C34.7783 88.286 34.5076 88.5007 34.153 88.706C33.8076 88.902 33.3923 89 32.907 89C32.3563 89 31.8336 88.86 31.339 88.58C30.8443 88.2907 30.443 87.8707 30.135 87.32C29.827 86.7693 29.673 86.1067 29.673 85.332C29.673 84.604 29.8223 83.9553 30.121 83.386C30.429 82.8167 30.8396 82.3687 31.353 82.042C31.8663 81.7153 32.431 81.552 33.047 81.552C33.4576 81.552 33.831 81.622 34.167 81.762C34.503 81.902 34.7923 82.0747 35.035 82.28V81.72H36.183V88.832C36.183 89.6347 36.043 90.288 35.763 90.792C35.483 91.296 35.091 91.6647 34.587 91.898C34.0923 92.1313 33.509 92.248 32.837 92.248ZM33.187 87.88C33.5603 87.88 33.8963 87.796 34.195 87.628C34.4936 87.46 34.7363 87.264 34.923 87.04V83.232C34.7176 83.0827 34.4703 82.9473 34.181 82.826C33.8916 82.7047 33.5556 82.644 33.173 82.644C32.7903 82.644 32.431 82.7467 32.095 82.952C31.759 83.1573 31.4836 83.456 31.269 83.848C31.0636 84.2307 30.961 84.702 30.961 85.262C30.961 85.794 31.0636 86.256 31.269 86.648C31.4836 87.04 31.759 87.3433 32.095 87.558C32.431 87.7727 32.795 87.88 33.187 87.88ZM38.3524 89V81.72H39.6124V89H38.3524ZM38.9824 80.474C38.7398 80.474 38.5298 80.3853 38.3524 80.208C38.1844 80.0307 38.1004 79.8253 38.1004 79.592C38.1004 79.3213 38.1798 79.1067 38.3384 78.948C38.4971 78.7893 38.7118 78.71 38.9824 78.71C39.2251 78.71 39.4304 78.7987 39.5984 78.976C39.7758 79.144 39.8644 79.3493 39.8644 79.592C39.8644 79.8533 39.7851 80.068 39.6264 80.236C39.4678 80.3947 39.2531 80.474 38.9824 80.474ZM44.4004 89.168C43.7004 89.168 43.1451 88.9393 42.7344 88.482C42.3331 88.0153 42.1324 87.3527 42.1324 86.494V83.078H40.8724V81.986H42.1604L42.4264 79.69H43.3924V81.986H45.4084V83.078H43.3924V86.592C43.3924 87.1333 43.5044 87.5113 43.7284 87.726C43.9618 87.9407 44.2371 88.048 44.5544 88.048C44.7878 88.048 45.0071 88.0107 45.2124 87.936C45.4271 87.8613 45.6231 87.7727 45.8004 87.67L46.1504 88.678C45.9638 88.79 45.7118 88.8973 45.3944 89C45.0771 89.112 44.7458 89.168 44.4004 89.168ZM49.9294 89.168C49.3228 89.168 48.7721 89.014 48.2774 88.706C47.7828 88.398 47.3861 87.964 47.0874 87.404C46.7981 86.8347 46.6534 86.1673 46.6534 85.402C46.6534 84.674 46.7981 84.0207 47.0874 83.442C47.3861 82.8633 47.7921 82.406 48.3054 82.07C48.8281 81.7247 49.4254 81.552 50.0974 81.552C50.5174 81.552 50.8954 81.6267 51.2314 81.776C51.5768 81.916 51.8754 82.0933 52.1274 82.308V81.72H53.2754V87.236C53.2754 87.5907 53.3594 87.824 53.5274 87.936C53.7048 88.0387 53.8961 88.09 54.1014 88.09L53.8354 89.07C52.9394 89.07 52.3981 88.706 52.2114 87.978C51.9968 88.2767 51.7028 88.552 51.3294 88.804C50.9654 89.0467 50.4988 89.168 49.9294 89.168ZM50.2094 88.048C50.5641 88.048 50.9001 87.964 51.2174 87.796C51.5348 87.6187 51.8008 87.3993 52.0154 87.138V83.232C51.7634 83.0547 51.4834 82.9147 51.1754 82.812C50.8768 82.7 50.5594 82.644 50.2234 82.644C49.7754 82.644 49.3788 82.7607 49.0334 82.994C48.6974 83.218 48.4314 83.5353 48.2354 83.946C48.0394 84.3473 47.9414 84.8187 47.9414 85.36C47.9414 85.8827 48.0394 86.3493 48.2354 86.76C48.4314 87.1613 48.7021 87.4787 49.0474 87.712C49.3928 87.936 49.7801 88.048 50.2094 88.048ZM62.1933 89.168C61.764 89.168 61.3767 89.0887 61.0313 88.93C60.686 88.762 60.4107 88.496 60.2053 88.132C60.0093 87.768 59.9113 87.2967 59.9113 86.718V78.64H61.1713V86.592C61.1713 87.096 61.274 87.4693 61.4793 87.712C61.694 87.9547 61.988 88.076 62.3613 88.076C62.5387 88.076 62.7113 88.0573 62.8793 88.02C63.0567 87.9733 63.206 87.922 63.3273 87.866L63.6353 88.888C63.4673 88.9627 63.2573 89.028 63.0053 89.084C62.7627 89.14 62.492 89.168 62.1933 89.168ZM67.4021 89.168C66.7954 89.168 66.2448 89.014 65.7501 88.706C65.2554 88.398 64.8588 87.964 64.5601 87.404C64.2708 86.8347 64.1261 86.1673 64.1261 85.402C64.1261 84.674 64.2708 84.0207 64.5601 83.442C64.8588 82.8633 65.2648 82.406 65.7781 82.07C66.3008 81.7247 66.8981 81.552 67.5701 81.552C67.9901 81.552 68.3681 81.6267 68.7041 81.776C69.0494 81.916 69.3481 82.0933 69.6001 82.308V81.72H70.7481V87.236C70.7481 87.5907 70.8321 87.824 71.0001 87.936C71.1774 88.0387 71.3688 88.09 71.5741 88.09L71.3081 89.07C70.4121 89.07 69.8708 88.706 69.6841 87.978C69.4694 88.2767 69.1754 88.552 68.8021 88.804C68.4381 89.0467 67.9714 89.168 67.4021 89.168ZM67.6821 88.048C68.0368 88.048 68.3728 87.964 68.6901 87.796C69.0074 87.6187 69.2734 87.3993 69.4881 87.138V83.232C69.2361 83.0547 68.9561 82.9147 68.6481 82.812C68.3494 82.7 68.0321 82.644 67.6961 82.644C67.2481 82.644 66.8514 82.7607 66.5061 82.994C66.1701 83.218 65.9041 83.5353 65.7081 83.946C65.5121 84.3473 65.4141 84.8187 65.4141 85.36C65.4141 85.8827 65.5121 86.3493 65.7081 86.76C65.9041 87.1613 66.1748 87.4787 66.5201 87.712C66.8654 87.936 67.2528 88.048 67.6821 88.048ZM80.394 89.168C79.7033 89.168 79.0967 89.0093 78.574 88.692C78.0607 88.3653 77.664 87.9173 77.384 87.348C77.104 86.7693 76.964 86.1067 76.964 85.36C76.964 84.66 77.104 84.0207 77.384 83.442C77.6733 82.8633 78.084 82.406 78.616 82.07C79.148 81.7247 79.7733 81.552 80.492 81.552C80.9027 81.552 81.262 81.5893 81.57 81.664C81.8873 81.7387 82.1907 81.846 82.48 81.986L82.102 83.05C81.8407 82.9193 81.5887 82.826 81.346 82.77C81.1127 82.7047 80.8513 82.672 80.562 82.672C79.9087 82.672 79.358 82.91 78.91 83.386C78.4713 83.8527 78.252 84.5013 78.252 85.332C78.252 85.836 78.3453 86.2933 78.532 86.704C78.7187 87.1147 78.9753 87.4413 79.302 87.684C79.638 87.9267 80.03 88.048 80.478 88.048C80.8327 88.048 81.136 88.0107 81.388 87.936C81.64 87.852 81.9107 87.7353 82.2 87.586L82.592 88.65C82.3027 88.8087 81.976 88.9347 81.612 89.028C81.2573 89.1213 80.8513 89.168 80.394 89.168ZM86.9868 89.168C86.2961 89.168 85.6754 89.0093 85.1248 88.692C84.5741 88.3653 84.1401 87.9173 83.8228 87.348C83.5148 86.7693 83.3608 86.1067 83.3608 85.36C83.3608 84.576 83.5194 83.8993 83.8368 83.33C84.1541 82.7607 84.5881 82.322 85.1388 82.014C85.6894 81.706 86.3054 81.552 86.9868 81.552C87.6681 81.552 88.2794 81.706 88.8208 82.014C89.3714 82.322 89.8054 82.7607 90.1228 83.33C90.4494 83.89 90.6128 84.5573 90.6128 85.332C90.6128 86.1067 90.4541 86.7833 90.1368 87.362C89.8194 87.9313 89.3854 88.3747 88.8348 88.692C88.2934 89.0093 87.6774 89.168 86.9868 89.168ZM86.9868 88.048C87.7241 88.048 88.2981 87.8007 88.7088 87.306C89.1194 86.802 89.3248 86.1533 89.3248 85.36C89.3248 84.8747 89.2221 84.4313 89.0168 84.03C88.8114 83.6193 88.5314 83.2927 88.1768 83.05C87.8314 82.798 87.4348 82.672 86.9868 82.672C86.2494 82.672 85.6754 82.9147 85.2648 83.4C84.8541 83.8853 84.6488 84.5293 84.6488 85.332C84.6488 85.8173 84.7514 86.27 84.9568 86.69C85.1621 87.1007 85.4374 87.432 85.7828 87.684C86.1374 87.9267 86.5388 88.048 86.9868 88.048ZM92.288 89V81.72H93.506V82.938C93.7673 82.546 94.0986 82.2193 94.5 81.958C94.9106 81.6873 95.396 81.552 95.956 81.552C96.7773 81.552 97.3886 81.7993 97.79 82.294C98.2006 82.7887 98.406 83.442 98.406 84.254V89H97.146V84.394C97.146 83.8713 97.02 83.4513 96.768 83.134C96.5253 82.8167 96.1846 82.658 95.746 82.658C95.3166 82.658 94.9106 82.812 94.528 83.12C94.1453 83.4187 93.8186 83.7733 93.548 84.184V89H92.288ZM103.121 89.168C102.421 89.168 101.866 88.9393 101.455 88.482C101.054 88.0153 100.853 87.3527 100.853 86.494V83.078H99.5931V81.986H100.881L101.147 79.69H102.113V81.986H104.129V83.078H102.113V86.592C102.113 87.1333 102.225 87.5113 102.449 87.726C102.682 87.9407 102.958 88.048 103.275 88.048C103.508 88.048 103.728 88.0107 103.933 87.936C104.148 87.8613 104.344 87.7727 104.521 87.67L104.871 88.678C104.684 88.79 104.432 88.8973 104.115 89C103.798 89.112 103.466 89.168 103.121 89.168ZM106.138 89V81.72H107.356V83.302C107.477 82.994 107.64 82.7093 107.846 82.448C108.051 82.1773 108.308 81.9627 108.616 81.804C108.924 81.636 109.283 81.552 109.694 81.552C109.834 81.552 109.974 81.5613 110.114 81.58C110.254 81.5893 110.37 81.608 110.464 81.636L110.086 82.938C109.908 82.8633 109.698 82.826 109.456 82.826C109.11 82.826 108.779 82.924 108.462 83.12C108.154 83.316 107.897 83.6193 107.692 84.03C107.496 84.4407 107.398 84.9633 107.398 85.598V89H106.138ZM114.092 89.168C113.485 89.168 112.934 89.014 112.44 88.706C111.945 88.398 111.548 87.964 111.25 87.404C110.96 86.8347 110.816 86.1673 110.816 85.402C110.816 84.674 110.96 84.0207 111.25 83.442C111.548 82.8633 111.954 82.406 112.468 82.07C112.99 81.7247 113.588 81.552 114.26 81.552C114.68 81.552 115.058 81.6267 115.394 81.776C115.739 81.916 116.038 82.0933 116.29 82.308V81.72H117.438V87.236C117.438 87.5907 117.522 87.824 117.69 87.936C117.867 88.0387 118.058 88.09 118.264 88.09L117.998 89.07C117.102 89.07 116.56 88.706 116.374 87.978C116.159 88.2767 115.865 88.552 115.492 88.804C115.128 89.0467 114.661 89.168 114.092 89.168ZM114.372 88.048C114.726 88.048 115.062 87.964 115.38 87.796C115.697 87.6187 115.963 87.3993 116.178 87.138V83.232C115.926 83.0547 115.646 82.9147 115.338 82.812C115.039 82.7 114.722 82.644 114.386 82.644C113.938 82.644 113.541 82.7607 113.196 82.994C112.86 83.218 112.594 83.5353 112.398 83.946C112.202 84.3473 112.104 84.8187 112.104 85.36C112.104 85.8827 112.202 86.3493 112.398 86.76C112.594 87.1613 112.864 87.4787 113.21 87.712C113.555 87.936 113.942 88.048 114.372 88.048ZM121.906 89.168C121.356 89.168 120.856 89.098 120.408 88.958C119.97 88.818 119.606 88.636 119.316 88.412L119.848 87.362C120.091 87.5673 120.394 87.74 120.758 87.88C121.132 88.0107 121.528 88.076 121.948 88.076C122.471 88.076 122.863 87.992 123.124 87.824C123.395 87.6467 123.53 87.4227 123.53 87.152C123.53 86.956 123.479 86.7833 123.376 86.634C123.283 86.4847 123.106 86.34 122.844 86.2C122.583 86.0507 122.205 85.892 121.71 85.724C121.029 85.4907 120.516 85.2153 120.17 84.898C119.834 84.5713 119.666 84.1233 119.666 83.554C119.666 82.994 119.909 82.5227 120.394 82.14C120.889 81.748 121.57 81.552 122.438 81.552C122.905 81.552 123.32 81.6033 123.684 81.706C124.048 81.7993 124.375 81.9207 124.664 82.07L124.314 83.106C124.062 82.9567 123.773 82.8353 123.446 82.742C123.129 82.6487 122.774 82.602 122.382 82.602C121.897 82.602 121.528 82.7 121.276 82.896C121.024 83.092 120.898 83.3067 120.898 83.54C120.898 83.764 120.996 83.9553 121.192 84.114C121.388 84.2727 121.771 84.4453 122.34 84.632C123.264 84.94 123.908 85.2807 124.272 85.654C124.636 86.0273 124.818 86.494 124.818 87.054C124.818 87.7073 124.552 88.2253 124.02 88.608C123.498 88.9813 122.793 89.168 121.906 89.168ZM129.407 89.168C128.362 89.168 127.531 88.8367 126.915 88.174C126.308 87.502 126.005 86.564 126.005 85.36C126.005 84.632 126.14 83.9833 126.411 83.414C126.691 82.8353 127.078 82.3827 127.573 82.056C128.068 81.72 128.642 81.552 129.295 81.552C129.995 81.552 130.574 81.706 131.031 82.014C131.498 82.3127 131.848 82.7187 132.081 83.232C132.314 83.7453 132.431 84.31 132.431 84.926C132.431 85.2527 132.417 85.57 132.389 85.878H127.293C127.377 86.5593 127.615 87.0913 128.007 87.474C128.399 87.8567 128.917 88.048 129.561 88.048C129.981 88.048 130.359 88.006 130.695 87.922C131.031 87.8287 131.353 87.712 131.661 87.572L131.955 88.65C131.619 88.7993 131.241 88.9207 130.821 89.014C130.401 89.1167 129.93 89.168 129.407 89.168ZM127.279 84.856H131.269C131.269 84.1467 131.092 83.6007 130.737 83.218C130.382 82.8353 129.892 82.644 129.267 82.644C128.726 82.644 128.278 82.8353 127.923 83.218C127.568 83.5913 127.354 84.1373 127.279 84.856ZM134.11 89V81.72H135.328V82.938C135.59 82.546 135.921 82.2193 136.322 81.958C136.733 81.6873 137.218 81.552 137.778 81.552C138.6 81.552 139.211 81.7993 139.612 82.294C140.023 82.7887 140.228 83.442 140.228 84.254V89H138.968V84.394C138.968 83.8713 138.842 83.4513 138.59 83.134C138.348 82.8167 138.007 82.658 137.568 82.658C137.139 82.658 136.733 82.812 136.35 83.12C135.968 83.4187 135.641 83.7733 135.37 84.184V89H134.11ZM135.51 80.488L135.02 79.62C135.188 79.4333 135.403 79.2653 135.664 79.116C135.926 78.9667 136.196 78.892 136.476 78.892C136.71 78.892 136.91 78.934 137.078 79.018C137.246 79.0927 137.405 79.172 137.554 79.256C137.713 79.3307 137.89 79.368 138.086 79.368C138.292 79.368 138.474 79.326 138.632 79.242C138.791 79.1487 138.931 79.046 139.052 78.934L139.542 79.816C139.374 79.9747 139.178 80.124 138.954 80.264C138.74 80.3947 138.488 80.46 138.198 80.46C137.956 80.46 137.75 80.4227 137.582 80.348C137.414 80.264 137.251 80.1847 137.092 80.11C136.934 80.026 136.747 79.984 136.532 79.984C136.327 79.984 136.14 80.0353 135.972 80.138C135.804 80.2407 135.65 80.3573 135.51 80.488ZM145.181 89.168C144.575 89.168 144.024 89.014 143.529 88.706C143.035 88.398 142.638 87.964 142.339 87.404C142.05 86.8347 141.905 86.1673 141.905 85.402C141.905 84.674 142.05 84.0207 142.339 83.442C142.638 82.8633 143.044 82.406 143.557 82.07C144.08 81.7247 144.677 81.552 145.349 81.552C145.769 81.552 146.147 81.6267 146.483 81.776C146.829 81.916 147.127 82.0933 147.379 82.308V81.72H148.527V87.236C148.527 87.5907 148.611 87.824 148.779 87.936C148.957 88.0387 149.148 88.09 149.353 88.09L149.087 89.07C148.191 89.07 147.65 88.706 147.463 87.978C147.249 88.2767 146.955 88.552 146.581 88.804C146.217 89.0467 145.751 89.168 145.181 89.168ZM145.461 88.048C145.816 88.048 146.152 87.964 146.469 87.796C146.787 87.6187 147.053 87.3993 147.267 87.138V83.232C147.015 83.0547 146.735 82.9147 146.427 82.812C146.129 82.7 145.811 82.644 145.475 82.644C145.027 82.644 144.631 82.7607 144.285 82.994C143.949 83.218 143.683 83.5353 143.487 83.946C143.291 84.3473 143.193 84.8187 143.193 85.36C143.193 85.8827 143.291 86.3493 143.487 86.76C143.683 87.1613 143.954 87.4787 144.299 87.712C144.645 87.936 145.032 88.048 145.461 88.048ZM157.991 89.168C157.394 89.168 156.848 89.014 156.353 88.706C155.859 88.398 155.467 87.964 155.177 87.404C154.888 86.8347 154.743 86.1673 154.743 85.402C154.743 84.6647 154.888 84.0067 155.177 83.428C155.476 82.8493 155.868 82.392 156.353 82.056C156.848 81.72 157.389 81.552 157.977 81.552C158.463 81.552 158.878 81.65 159.223 81.846C159.578 82.042 159.853 82.2427 160.049 82.448V78.64H161.309V87.236C161.309 87.5907 161.393 87.824 161.561 87.936C161.739 88.0387 161.93 88.09 162.135 88.09L161.869 89.07C160.983 89.07 160.441 88.7153 160.245 88.006C160.04 88.2953 159.751 88.5613 159.377 88.804C159.013 89.0467 158.551 89.168 157.991 89.168ZM158.271 88.048C158.617 88.048 158.943 87.9687 159.251 87.81C159.569 87.642 159.835 87.4273 160.049 87.166V83.554C159.872 83.33 159.625 83.1247 159.307 82.938C158.99 82.742 158.64 82.644 158.257 82.644C157.809 82.644 157.417 82.7653 157.081 83.008C156.745 83.2507 156.484 83.5773 156.297 83.988C156.12 84.3893 156.031 84.8467 156.031 85.36C156.031 85.8733 156.129 86.3353 156.325 86.746C156.521 87.1473 156.787 87.4647 157.123 87.698C157.469 87.9313 157.851 88.048 158.271 88.048ZM166.595 89.168C165.549 89.168 164.719 88.8367 164.103 88.174C163.496 87.502 163.193 86.564 163.193 85.36C163.193 84.632 163.328 83.9833 163.599 83.414C163.879 82.8353 164.266 82.3827 164.761 82.056C165.255 81.72 165.829 81.552 166.483 81.552C167.183 81.552 167.761 81.706 168.219 82.014C168.685 82.3127 169.035 82.7187 169.269 83.232C169.502 83.7453 169.619 84.31 169.619 84.926C169.619 85.2527 169.605 85.57 169.577 85.878H164.481C164.565 86.5593 164.803 87.0913 165.195 87.474C165.587 87.8567 166.105 88.048 166.749 88.048C167.169 88.048 167.547 88.006 167.883 87.922C168.219 87.8287 168.541 87.712 168.849 87.572L169.143 88.65C168.807 88.7993 168.429 88.9207 168.009 89.014C167.589 89.1167 167.117 89.168 166.595 89.168ZM164.467 84.856H168.457C168.457 84.1467 168.279 83.6007 167.925 83.218C167.57 82.8353 167.08 82.644 166.455 82.644C165.913 82.644 165.465 82.8353 165.111 83.218C164.756 83.5913 164.541 84.1373 164.467 84.856ZM173.51 89.168C173.08 89.168 172.693 89.0887 172.348 88.93C172.002 88.762 171.727 88.496 171.522 88.132C171.326 87.768 171.228 87.2967 171.228 86.718V78.64H172.488V86.592C172.488 87.096 172.59 87.4693 172.796 87.712C173.01 87.9547 173.304 88.076 173.678 88.076C173.855 88.076 174.028 88.0573 174.196 88.02C174.373 87.9733 174.522 87.922 174.644 87.866L174.952 88.888C174.784 88.9627 174.574 89.028 174.322 89.084C174.079 89.14 173.808 89.168 173.51 89.168ZM182.715 89.168C182.295 89.168 181.898 89.0793 181.525 88.902C181.152 88.7247 180.848 88.44 180.615 88.048C180.382 87.6467 180.265 87.1147 180.265 86.452V81.72H181.525V86.284C181.525 86.8533 181.646 87.292 181.889 87.6C182.132 87.8987 182.486 88.048 182.953 88.048C183.336 88.048 183.704 87.9733 184.059 87.824C184.423 87.6653 184.745 87.4553 185.025 87.194V81.72H186.285V87.11C186.285 87.5113 186.369 87.7773 186.537 87.908C186.714 88.0293 186.906 88.09 187.111 88.09L186.845 89.07C185.977 89.07 185.44 88.7247 185.235 88.034C184.908 88.37 184.53 88.6453 184.101 88.86C183.672 89.0653 183.21 89.168 182.715 89.168ZM190.744 89.168C190.193 89.168 189.694 89.098 189.246 88.958C188.807 88.818 188.443 88.636 188.154 88.412L188.686 87.362C188.929 87.5673 189.232 87.74 189.596 87.88C189.969 88.0107 190.366 88.076 190.786 88.076C191.309 88.076 191.701 87.992 191.962 87.824C192.233 87.6467 192.368 87.4227 192.368 87.152C192.368 86.956 192.317 86.7833 192.214 86.634C192.121 86.4847 191.943 86.34 191.682 86.2C191.421 86.0507 191.043 85.892 190.548 85.724C189.867 85.4907 189.353 85.2153 189.008 84.898C188.672 84.5713 188.504 84.1233 188.504 83.554C188.504 82.994 188.747 82.5227 189.232 82.14C189.727 81.748 190.408 81.552 191.276 81.552C191.743 81.552 192.158 81.6033 192.522 81.706C192.886 81.7993 193.213 81.9207 193.502 82.07L193.152 83.106C192.9 82.9567 192.611 82.8353 192.284 82.742C191.967 82.6487 191.612 82.602 191.22 82.602C190.735 82.602 190.366 82.7 190.114 82.896C189.862 83.092 189.736 83.3067 189.736 83.54C189.736 83.764 189.834 83.9553 190.03 84.114C190.226 84.2727 190.609 84.4453 191.178 84.632C192.102 84.94 192.746 85.2807 193.11 85.654C193.474 86.0273 193.656 86.494 193.656 87.054C193.656 87.7073 193.39 88.2253 192.858 88.608C192.335 88.9813 191.631 89.168 190.744 89.168ZM197.713 89.168C197.293 89.168 196.896 89.0793 196.523 88.902C196.15 88.7247 195.846 88.44 195.613 88.048C195.38 87.6467 195.263 87.1147 195.263 86.452V81.72H196.523V86.284C196.523 86.8533 196.644 87.292 196.887 87.6C197.13 87.8987 197.484 88.048 197.951 88.048C198.334 88.048 198.702 87.9733 199.057 87.824C199.421 87.6653 199.743 87.4553 200.023 87.194V81.72H201.283V87.11C201.283 87.5113 201.367 87.7773 201.535 87.908C201.712 88.0293 201.904 88.09 202.109 88.09L201.843 89.07C200.975 89.07 200.438 88.7247 200.233 88.034C199.906 88.37 199.528 88.6453 199.099 88.86C198.67 89.0653 198.208 89.168 197.713 89.168ZM206.431 89.168C205.825 89.168 205.274 89.014 204.779 88.706C204.285 88.398 203.888 87.964 203.589 87.404C203.3 86.8347 203.155 86.1673 203.155 85.402C203.155 84.674 203.3 84.0207 203.589 83.442C203.888 82.8633 204.294 82.406 204.807 82.07C205.33 81.7247 205.927 81.552 206.599 81.552C207.019 81.552 207.397 81.6267 207.733 81.776C208.079 81.916 208.377 82.0933 208.629 82.308V81.72H209.777V87.236C209.777 87.5907 209.861 87.824 210.029 87.936C210.207 88.0387 210.398 88.09 210.603 88.09L210.337 89.07C209.441 89.07 208.9 88.706 208.713 87.978C208.499 88.2767 208.205 88.552 207.831 88.804C207.467 89.0467 207.001 89.168 206.431 89.168ZM206.711 88.048C207.066 88.048 207.402 87.964 207.719 87.796C208.037 87.6187 208.303 87.3993 208.517 87.138V83.232C208.265 83.0547 207.985 82.9147 207.677 82.812C207.379 82.7 207.061 82.644 206.725 82.644C206.277 82.644 205.881 82.7607 205.535 82.994C205.199 83.218 204.933 83.5353 204.737 83.946C204.541 84.3473 204.443 84.8187 204.443 85.36C204.443 85.8827 204.541 86.3493 204.737 86.76C204.933 87.1613 205.204 87.4787 205.549 87.712C205.895 87.936 206.282 88.048 206.711 88.048ZM212.286 89V81.72H213.504V83.302C213.625 82.994 213.789 82.7093 213.994 82.448C214.199 82.1773 214.456 81.9627 214.764 81.804C215.072 81.636 215.431 81.552 215.842 81.552C215.982 81.552 216.122 81.5613 216.262 81.58C216.402 81.5893 216.519 81.608 216.612 81.636L216.234 82.938C216.057 82.8633 215.847 82.826 215.604 82.826C215.259 82.826 214.927 82.924 214.61 83.12C214.302 83.316 214.045 83.6193 213.84 84.03C213.644 84.4407 213.546 84.9633 213.546 85.598V89H212.286ZM217.878 89V81.72H219.138V89H217.878ZM218.508 80.474C218.265 80.474 218.055 80.3853 217.878 80.208C217.71 80.0307 217.626 79.8253 217.626 79.592C217.626 79.3213 217.705 79.1067 217.864 78.948C218.022 78.7893 218.237 78.71 218.508 78.71C218.75 78.71 218.956 78.7987 219.124 78.976C219.301 79.144 219.39 79.3493 219.39 79.592C219.39 79.8533 219.31 80.068 219.152 80.236C218.993 80.3947 218.778 80.474 218.508 80.474ZM224.444 89.168C223.753 89.168 223.132 89.0093 222.582 88.692C222.031 88.3653 221.597 87.9173 221.28 87.348C220.972 86.7693 220.818 86.1067 220.818 85.36C220.818 84.576 220.976 83.8993 221.294 83.33C221.611 82.7607 222.045 82.322 222.596 82.014C223.146 81.706 223.762 81.552 224.444 81.552C225.125 81.552 225.736 81.706 226.278 82.014C226.828 82.322 227.262 82.7607 227.58 83.33C227.906 83.89 228.07 84.5573 228.07 85.332C228.07 86.1067 227.911 86.7833 227.594 87.362C227.276 87.9313 226.842 88.3747 226.292 88.692C225.75 89.0093 225.134 89.168 224.444 89.168ZM224.444 88.048C225.181 88.048 225.755 87.8007 226.166 87.306C226.576 86.802 226.782 86.1533 226.782 85.36C226.782 84.8747 226.679 84.4313 226.474 84.03C226.268 83.6193 225.988 83.2927 225.634 83.05C225.288 82.798 224.892 82.672 224.444 82.672C223.706 82.672 223.132 82.9147 222.722 83.4C222.311 83.8853 222.106 84.5293 222.106 85.332C222.106 85.8173 222.208 86.27 222.414 86.69C222.619 87.1007 222.894 87.432 223.24 87.684C223.594 87.9267 223.996 88.048 224.444 88.048Z" fill="#5E5E5E"/>
</svg>
