<svg width="359" height="94" viewBox="0 0 359 94" fill="none" xmlns="http://www.w3.org/2000/svg">
<path d="M19.008 14H17.328V2.8H20.016L23.264 11.76L26.496 2.8H29.168V14H27.472L27.488 4.528L24.048 14H22.432L18.992 4.56L19.008 14ZM31.06 11.616C31.06 10.096 32.1 9.248 33.796 9.136L36.292 8.976V8.432C36.292 7.472 35.7 6.912 34.676 6.912C33.876 6.912 33.172 7.168 32.452 7.744L31.684 6.496C32.58 5.76 33.652 5.36 34.916 5.36C36.756 5.36 37.956 6.48 37.956 8.224V12.016C37.956 12.336 38.132 12.512 38.468 12.512H38.884V14H38.036C37.14 14 36.532 13.52 36.388 12.768C35.892 13.616 34.996 14.16 33.924 14.16C32.276 14.16 31.06 13.088 31.06 11.616ZM32.708 11.584C32.708 12.304 33.348 12.8 34.26 12.8C35.38 12.8 36.292 12 36.292 11.024V10.256L34.02 10.432C33.188 10.496 32.708 10.88 32.708 11.584ZM45.2623 7.12H44.3823C43.2943 7.12 42.3663 7.984 42.3663 9.312V14H40.6703V5.536H42.3663V7.184C42.7183 6.16 43.4863 5.456 44.5743 5.456H45.2623V7.12ZM49.983 14.176C47.807 14.176 46.239 12.656 46.239 10.288V9.232C46.239 6.88 47.791 5.344 49.983 5.344C51.871 5.344 53.247 6.528 53.567 8.416H51.903C51.647 7.44 50.959 6.832 49.983 6.832C48.687 6.832 47.919 7.808 47.919 9.312V10.224C47.919 11.728 48.687 12.688 49.983 12.688C50.975 12.688 51.663 12.096 51.919 11.12H53.567C53.247 12.976 51.823 14.176 49.983 14.176ZM54.685 11.616C54.685 10.096 55.725 9.248 57.421 9.136L59.917 8.976V8.432C59.917 7.472 59.325 6.912 58.301 6.912C57.501 6.912 56.797 7.168 56.077 7.744L55.309 6.496C56.205 5.76 57.277 5.36 58.541 5.36C60.381 5.36 61.581 6.48 61.581 8.224V12.016C61.581 12.336 61.757 12.512 62.093 12.512H62.509V14H61.661C60.765 14 60.157 13.52 60.013 12.768C59.517 13.616 58.621 14.16 57.549 14.16C55.901 14.16 54.685 13.088 54.685 11.616ZM56.333 11.584C56.333 12.304 56.973 12.8 57.885 12.8C59.005 12.8 59.917 12 59.917 11.024V10.256L57.645 10.432C56.813 10.496 56.333 10.88 56.333 11.584Z" fill="black"/>
<rect x="16" y="24" width="327" height="42" rx="8" fill="#E8E8E8"/>
<path d="M19.836 89.112C19.304 89.112 18.8373 89.098 18.436 89.07C18.044 89.042 17.652 89.0093 17.26 88.972V79.228C17.6987 79.1813 18.128 79.1487 18.548 79.13C18.968 79.102 19.4487 79.088 19.99 79.088C20.83 79.088 21.5533 79.2187 22.16 79.48C22.776 79.7413 23.28 80.1007 23.672 80.558C24.0733 81.0153 24.3673 81.5473 24.554 82.154C24.75 82.7513 24.848 83.3953 24.848 84.086C24.848 84.7673 24.75 85.4113 24.554 86.018C24.358 86.6247 24.0547 87.1613 23.644 87.628C23.2427 88.0853 22.7247 88.4493 22.09 88.72C21.4647 88.9813 20.7133 89.112 19.836 89.112ZM19.878 87.95C20.718 87.95 21.404 87.7867 21.936 87.46C22.468 87.1333 22.86 86.6807 23.112 86.102C23.364 85.514 23.49 84.842 23.49 84.086C23.49 83.414 23.364 82.784 23.112 82.196C22.86 81.608 22.4727 81.1367 21.95 80.782C21.4273 80.418 20.76 80.236 19.948 80.236C19.6773 80.236 19.43 80.2453 19.206 80.264C18.982 80.2733 18.7767 80.2873 18.59 80.306V87.88C18.786 87.908 18.9913 87.9267 19.206 87.936C19.4207 87.9453 19.6447 87.95 19.878 87.95ZM26.663 89V81.72H27.923V89H26.663ZM27.293 80.474C27.0503 80.474 26.8403 80.3853 26.663 80.208C26.495 80.0307 26.411 79.8253 26.411 79.592C26.411 79.3213 26.4903 79.1067 26.649 78.948C26.8076 78.7893 27.0223 78.71 27.293 78.71C27.5356 78.71 27.741 78.7987 27.909 78.976C28.0863 79.144 28.175 79.3493 28.175 79.592C28.175 79.8533 28.0956 80.068 27.937 80.236C27.7783 80.3947 27.5636 80.474 27.293 80.474ZM32.837 92.248C32.4076 92.248 31.9876 92.1967 31.577 92.094C31.1756 91.9913 30.8163 91.8373 30.499 91.632L30.961 90.54C31.185 90.7173 31.4463 90.862 31.745 90.974C32.0436 91.0953 32.4076 91.156 32.837 91.156C33.4996 91.156 34.0176 90.9787 34.391 90.624C34.7736 90.2787 34.965 89.7233 34.965 88.958V88.062C34.7783 88.286 34.5076 88.5007 34.153 88.706C33.8076 88.902 33.3923 89 32.907 89C32.3563 89 31.8336 88.86 31.339 88.58C30.8443 88.2907 30.443 87.8707 30.135 87.32C29.827 86.7693 29.673 86.1067 29.673 85.332C29.673 84.604 29.8223 83.9553 30.121 83.386C30.429 82.8167 30.8396 82.3687 31.353 82.042C31.8663 81.7153 32.431 81.552 33.047 81.552C33.4576 81.552 33.831 81.622 34.167 81.762C34.503 81.902 34.7923 82.0747 35.035 82.28V81.72H36.183V88.832C36.183 89.6347 36.043 90.288 35.763 90.792C35.483 91.296 35.091 91.6647 34.587 91.898C34.0923 92.1313 33.509 92.248 32.837 92.248ZM33.187 87.88C33.5603 87.88 33.8963 87.796 34.195 87.628C34.4936 87.46 34.7363 87.264 34.923 87.04V83.232C34.7176 83.0827 34.4703 82.9473 34.181 82.826C33.8916 82.7047 33.5556 82.644 33.173 82.644C32.7903 82.644 32.431 82.7467 32.095 82.952C31.759 83.1573 31.4836 83.456 31.269 83.848C31.0636 84.2307 30.961 84.702 30.961 85.262C30.961 85.794 31.0636 86.256 31.269 86.648C31.4836 87.04 31.759 87.3433 32.095 87.558C32.431 87.7727 32.795 87.88 33.187 87.88ZM38.3524 89V81.72H39.6124V89H38.3524ZM38.9824 80.474C38.7398 80.474 38.5298 80.3853 38.3524 80.208C38.1844 80.0307 38.1004 79.8253 38.1004 79.592C38.1004 79.3213 38.1798 79.1067 38.3384 78.948C38.4971 78.7893 38.7118 78.71 38.9824 78.71C39.2251 78.71 39.4304 78.7987 39.5984 78.976C39.7758 79.144 39.8644 79.3493 39.8644 79.592C39.8644 79.8533 39.7851 80.068 39.6264 80.236C39.4678 80.3947 39.2531 80.474 38.9824 80.474ZM44.4004 89.168C43.7004 89.168 43.1451 88.9393 42.7344 88.482C42.3331 88.0153 42.1324 87.3527 42.1324 86.494V83.078H40.8724V81.986H42.1604L42.4264 79.69H43.3924V81.986H45.4084V83.078H43.3924V86.592C43.3924 87.1333 43.5044 87.5113 43.7284 87.726C43.9618 87.9407 44.2371 88.048 44.5544 88.048C44.7878 88.048 45.0071 88.0107 45.2124 87.936C45.4271 87.8613 45.6231 87.7727 45.8004 87.67L46.1504 88.678C45.9638 88.79 45.7118 88.8973 45.3944 89C45.0771 89.112 44.7458 89.168 44.4004 89.168ZM50.0554 89.168C49.0101 89.168 48.1794 88.8367 47.5634 88.174C46.9568 87.502 46.6534 86.564 46.6534 85.36C46.6534 84.632 46.7888 83.9833 47.0594 83.414C47.3394 82.8353 47.7268 82.3827 48.2214 82.056C48.7161 81.72 49.2901 81.552 49.9434 81.552C50.6434 81.552 51.2221 81.706 51.6794 82.014C52.1461 82.3127 52.4961 82.7187 52.7294 83.232C52.9628 83.7453 53.0794 84.31 53.0794 84.926C53.0794 85.2527 53.0654 85.57 53.0374 85.878H47.9414C48.0254 86.5593 48.2634 87.0913 48.6554 87.474C49.0474 87.8567 49.5654 88.048 50.2094 88.048C50.6294 88.048 51.0074 88.006 51.3434 87.922C51.6794 87.8287 52.0014 87.712 52.3094 87.572L52.6034 88.65C52.2674 88.7993 51.8894 88.9207 51.4694 89.014C51.0494 89.1167 50.5781 89.168 50.0554 89.168ZM47.9274 84.856H51.9174C51.9174 84.1467 51.7401 83.6007 51.3854 83.218C51.0308 82.8353 50.5408 82.644 49.9154 82.644C49.3741 82.644 48.9261 82.8353 48.5714 83.218C48.2168 83.5913 48.0021 84.1373 47.9274 84.856ZM61.1679 89.168C60.7386 89.168 60.3513 89.0887 60.0059 88.93C59.6606 88.762 59.3853 88.496 59.1799 88.132C58.9839 87.768 58.8859 87.2967 58.8859 86.718V78.64H60.1459V86.592C60.1459 87.096 60.2486 87.4693 60.4539 87.712C60.6686 87.9547 60.9626 88.076 61.3359 88.076C61.5133 88.076 61.6859 88.0573 61.8539 88.02C62.0313 87.9733 62.1806 87.922 62.3019 87.866L62.6099 88.888C62.4419 88.9627 62.2319 89.028 61.9799 89.084C61.7373 89.14 61.4666 89.168 61.1679 89.168ZM66.3767 89.168C65.77 89.168 65.2194 89.014 64.7247 88.706C64.23 88.398 63.8334 87.964 63.5347 87.404C63.2454 86.8347 63.1007 86.1673 63.1007 85.402C63.1007 84.674 63.2454 84.0207 63.5347 83.442C63.8334 82.8633 64.2394 82.406 64.7527 82.07C65.2754 81.7247 65.8727 81.552 66.5447 81.552C66.9647 81.552 67.3427 81.6267 67.6787 81.776C68.024 81.916 68.3227 82.0933 68.5747 82.308V81.72H69.7227V87.236C69.7227 87.5907 69.8067 87.824 69.9747 87.936C70.152 88.0387 70.3434 88.09 70.5487 88.09L70.2827 89.07C69.3867 89.07 68.8454 88.706 68.6587 87.978C68.444 88.2767 68.15 88.552 67.7767 88.804C67.4127 89.0467 66.946 89.168 66.3767 89.168ZM66.6567 88.048C67.0114 88.048 67.3474 87.964 67.6647 87.796C67.982 87.6187 68.248 87.3993 68.4627 87.138V83.232C68.2107 83.0547 67.9307 82.9147 67.6227 82.812C67.324 82.7 67.0067 82.644 66.6707 82.644C66.2227 82.644 65.826 82.7607 65.4807 82.994C65.1447 83.218 64.8787 83.5353 64.6827 83.946C64.4867 84.3473 64.3887 84.8187 64.3887 85.36C64.3887 85.8827 64.4867 86.3493 64.6827 86.76C64.8787 87.1613 65.1494 87.4787 65.4947 87.712C65.84 87.936 66.2274 88.048 66.6567 88.048ZM76.4286 89V81.72H77.6466V82.938C77.9079 82.546 78.2393 82.2193 78.6406 81.958C79.0419 81.6873 79.4993 81.552 80.0126 81.552C80.5913 81.552 81.0626 81.692 81.4266 81.972C81.7999 82.252 82.0613 82.6253 82.2106 83.092C82.4999 82.6627 82.8406 82.2987 83.2326 82C83.6339 81.7013 84.1286 81.552 84.7166 81.552C85.5099 81.552 86.0979 81.804 86.4806 82.308C86.8726 82.8027 87.0686 83.4513 87.0686 84.254V89H85.8086V84.352C85.8086 83.848 85.6919 83.442 85.4586 83.134C85.2253 82.8167 84.9033 82.658 84.4926 82.658C84.0726 82.658 83.6806 82.8167 83.3166 83.134C82.9619 83.442 82.6493 83.806 82.3786 84.226V89H81.1186V84.352C81.1186 83.848 81.0019 83.442 80.7686 83.134C80.5353 82.8167 80.2133 82.658 79.8026 82.658C79.3919 82.658 79.0046 82.812 78.6406 83.12C78.2766 83.4187 77.9593 83.7733 77.6886 84.184V89H76.4286ZM92.0251 89.168C91.4185 89.168 90.8678 89.014 90.3731 88.706C89.8785 88.398 89.4818 87.964 89.1831 87.404C88.8938 86.8347 88.7491 86.1673 88.7491 85.402C88.7491 84.674 88.8938 84.0207 89.1831 83.442C89.4818 82.8633 89.8878 82.406 90.4011 82.07C90.9238 81.7247 91.5211 81.552 92.1931 81.552C92.6131 81.552 92.9911 81.6267 93.3271 81.776C93.6725 81.916 93.9711 82.0933 94.2231 82.308V81.72H95.3711V87.236C95.3711 87.5907 95.4551 87.824 95.6231 87.936C95.8005 88.0387 95.9918 88.09 96.1971 88.09L95.9311 89.07C95.0351 89.07 94.4938 88.706 94.3071 87.978C94.0925 88.2767 93.7985 88.552 93.4251 88.804C93.0611 89.0467 92.5945 89.168 92.0251 89.168ZM92.3051 88.048C92.6598 88.048 92.9958 87.964 93.3131 87.796C93.6305 87.6187 93.8965 87.3993 94.1111 87.138V83.232C93.8591 83.0547 93.5791 82.9147 93.2711 82.812C92.9725 82.7 92.6551 82.644 92.3191 82.644C91.8711 82.644 91.4745 82.7607 91.1291 82.994C90.7931 83.218 90.5271 83.5353 90.3311 83.946C90.1351 84.3473 90.0371 84.8187 90.0371 85.36C90.0371 85.8827 90.1351 86.3493 90.3311 86.76C90.5271 87.1613 90.7978 87.4787 91.1431 87.712C91.4885 87.936 91.8758 88.048 92.3051 88.048ZM97.8798 89V81.72H99.0978V83.302C99.2191 82.994 99.3824 82.7093 99.5878 82.448C99.7931 82.1773 100.05 81.9627 100.358 81.804C100.666 81.636 101.025 81.552 101.436 81.552C101.576 81.552 101.716 81.5613 101.856 81.58C101.996 81.5893 102.112 81.608 102.206 81.636L101.828 82.938C101.65 82.8633 101.44 82.826 101.198 82.826C100.852 82.826 100.521 82.924 100.204 83.12C99.8958 83.316 99.6391 83.6193 99.4338 84.03C99.2378 84.4407 99.1398 84.9633 99.1398 85.598V89H97.8798ZM105.988 89.168C105.297 89.168 104.69 89.0093 104.168 88.692C103.654 88.3653 103.258 87.9173 102.978 87.348C102.698 86.7693 102.558 86.1067 102.558 85.36C102.558 84.66 102.698 84.0207 102.978 83.442C103.267 82.8633 103.678 82.406 104.21 82.07C104.742 81.7247 105.367 81.552 106.086 81.552C106.496 81.552 106.856 81.5893 107.164 81.664C107.481 81.7387 107.784 81.846 108.074 81.986L107.696 83.05C107.434 82.9193 107.182 82.826 106.94 82.77C106.706 82.7047 106.445 82.672 106.156 82.672C105.502 82.672 104.952 82.91 104.504 83.386C104.065 83.8527 103.846 84.5013 103.846 85.332C103.846 85.836 103.939 86.2933 104.126 86.704C104.312 87.1147 104.569 87.4413 104.896 87.684C105.232 87.9267 105.624 88.048 106.072 88.048C106.426 88.048 106.73 88.0107 106.982 87.936C107.234 87.852 107.504 87.7353 107.794 87.586L108.186 88.65C107.896 88.8087 107.57 88.9347 107.206 89.028C106.851 89.1213 106.445 89.168 105.988 89.168ZM112.301 89.168C111.694 89.168 111.143 89.014 110.649 88.706C110.154 88.398 109.757 87.964 109.459 87.404C109.169 86.8347 109.025 86.1673 109.025 85.402C109.025 84.674 109.169 84.0207 109.459 83.442C109.757 82.8633 110.163 82.406 110.677 82.07C111.199 81.7247 111.797 81.552 112.469 81.552C112.889 81.552 113.267 81.6267 113.603 81.776C113.948 81.916 114.247 82.0933 114.499 82.308V81.72H115.647V87.236C115.647 87.5907 115.731 87.824 115.899 87.936C116.076 88.0387 116.267 88.09 116.473 88.09L116.207 89.07C115.311 89.07 114.769 88.706 114.583 87.978C114.368 88.2767 114.074 88.552 113.701 88.804C113.337 89.0467 112.87 89.168 112.301 89.168ZM112.581 88.048C112.935 88.048 113.271 87.964 113.589 87.796C113.906 87.6187 114.172 87.3993 114.387 87.138V83.232C114.135 83.0547 113.855 82.9147 113.547 82.812C113.248 82.7 112.931 82.644 112.595 82.644C112.147 82.644 111.75 82.7607 111.405 82.994C111.069 83.218 110.803 83.5353 110.607 83.946C110.411 84.3473 110.313 84.8187 110.313 85.36C110.313 85.8827 110.411 86.3493 110.607 86.76C110.803 87.1613 111.073 87.4787 111.419 87.712C111.764 87.936 112.151 88.048 112.581 88.048ZM125.11 89.168C124.513 89.168 123.967 89.014 123.472 88.706C122.978 88.398 122.586 87.964 122.296 87.404C122.007 86.8347 121.862 86.1673 121.862 85.402C121.862 84.6647 122.007 84.0067 122.296 83.428C122.595 82.8493 122.987 82.392 123.472 82.056C123.967 81.72 124.508 81.552 125.096 81.552C125.582 81.552 125.997 81.65 126.342 81.846C126.697 82.042 126.972 82.2427 127.168 82.448V78.64H128.428V87.236C128.428 87.5907 128.512 87.824 128.68 87.936C128.858 88.0387 129.049 88.09 129.254 88.09L128.988 89.07C128.102 89.07 127.56 88.7153 127.364 88.006C127.159 88.2953 126.87 88.5613 126.496 88.804C126.132 89.0467 125.67 89.168 125.11 89.168ZM125.39 88.048C125.736 88.048 126.062 87.9687 126.37 87.81C126.688 87.642 126.954 87.4273 127.168 87.166V83.554C126.991 83.33 126.744 83.1247 126.426 82.938C126.109 82.742 125.759 82.644 125.376 82.644C124.928 82.644 124.536 82.7653 124.2 83.008C123.864 83.2507 123.603 83.5773 123.416 83.988C123.239 84.3893 123.15 84.8467 123.15 85.36C123.15 85.8733 123.248 86.3353 123.444 86.746C123.64 87.1473 123.906 87.4647 124.242 87.698C124.588 87.9313 124.97 88.048 125.39 88.048ZM133.714 89.168C132.668 89.168 131.838 88.8367 131.222 88.174C130.615 87.502 130.312 86.564 130.312 85.36C130.312 84.632 130.447 83.9833 130.718 83.414C130.998 82.8353 131.385 82.3827 131.88 82.056C132.374 81.72 132.948 81.552 133.602 81.552C134.302 81.552 134.88 81.706 135.338 82.014C135.804 82.3127 136.154 82.7187 136.388 83.232C136.621 83.7453 136.738 84.31 136.738 84.926C136.738 85.2527 136.724 85.57 136.696 85.878H131.6C131.684 86.5593 131.922 87.0913 132.314 87.474C132.706 87.8567 133.224 88.048 133.868 88.048C134.288 88.048 134.666 88.006 135.002 87.922C135.338 87.8287 135.66 87.712 135.968 87.572L136.262 88.65C135.926 88.7993 135.548 88.9207 135.128 89.014C134.708 89.1167 134.236 89.168 133.714 89.168ZM131.586 84.856H135.576C135.576 84.1467 135.398 83.6007 135.044 83.218C134.689 82.8353 134.199 82.644 133.574 82.644C133.032 82.644 132.584 82.8353 132.23 83.218C131.875 83.5913 131.66 84.1373 131.586 84.856ZM140.629 89.168C140.2 89.168 139.812 89.0887 139.467 88.93C139.122 88.762 138.846 88.496 138.641 88.132C138.445 87.768 138.347 87.2967 138.347 86.718V78.64H139.607V86.592C139.607 87.096 139.71 87.4693 139.915 87.712C140.13 87.9547 140.424 88.076 140.797 88.076C140.974 88.076 141.147 88.0573 141.315 88.02C141.492 87.9733 141.642 87.922 141.763 87.866L142.071 88.888C141.903 88.9627 141.693 89.028 141.441 89.084C141.198 89.14 140.928 89.168 140.629 89.168ZM149.4 89L146.474 82.056L147.622 81.58L150.1 87.572L152.578 81.58L153.656 82.056L150.716 89H149.4ZM157.557 89.168C156.512 89.168 155.681 88.8367 155.065 88.174C154.459 87.502 154.155 86.564 154.155 85.36C154.155 84.632 154.291 83.9833 154.561 83.414C154.841 82.8353 155.229 82.3827 155.723 82.056C156.218 81.72 156.792 81.552 157.445 81.552C158.145 81.552 158.724 81.706 159.181 82.014C159.648 82.3127 159.998 82.7187 160.231 83.232C160.465 83.7453 160.581 84.31 160.581 84.926C160.581 85.2527 160.567 85.57 160.539 85.878H155.443C155.527 86.5593 155.765 87.0913 156.157 87.474C156.549 87.8567 157.067 88.048 157.711 88.048C158.131 88.048 158.509 88.006 158.845 87.922C159.181 87.8287 159.503 87.712 159.811 87.572L160.105 88.65C159.769 88.7993 159.391 88.9207 158.971 89.014C158.551 89.1167 158.08 89.168 157.557 89.168ZM155.429 84.856H159.419C159.419 84.1467 159.242 83.6007 158.887 83.218C158.533 82.8353 158.043 82.644 157.417 82.644C156.876 82.644 156.428 82.8353 156.073 83.218C155.719 83.5913 155.504 84.1373 155.429 84.856ZM162.261 89V78.64H163.521V82.882C163.782 82.4993 164.113 82.182 164.515 81.93C164.916 81.678 165.387 81.552 165.929 81.552C166.75 81.552 167.361 81.7993 167.763 82.294C168.173 82.7887 168.379 83.442 168.379 84.254V89H167.119V84.394C167.119 83.8713 166.997 83.4513 166.755 83.134C166.512 82.8167 166.171 82.658 165.733 82.658C165.303 82.658 164.893 82.812 164.501 83.12C164.118 83.4187 163.791 83.7733 163.521 84.184V89H162.261ZM170.546 89V81.72H171.806V89H170.546ZM169.986 80.95L169.552 80.096L172.198 78.346L172.786 79.522L169.986 80.95ZM176.986 89.168C176.295 89.168 175.688 89.0093 175.166 88.692C174.652 88.3653 174.256 87.9173 173.976 87.348C173.696 86.7693 173.556 86.1067 173.556 85.36C173.556 84.66 173.696 84.0207 173.976 83.442C174.265 82.8633 174.676 82.406 175.208 82.07C175.74 81.7247 176.365 81.552 177.084 81.552C177.494 81.552 177.854 81.5893 178.162 81.664C178.479 81.7387 178.782 81.846 179.072 81.986L178.694 83.05C178.432 82.9193 178.18 82.826 177.938 82.77C177.704 82.7047 177.443 82.672 177.154 82.672C176.5 82.672 175.95 82.91 175.502 83.386C175.063 83.8527 174.844 84.5013 174.844 85.332C174.844 85.836 174.937 86.2933 175.124 86.704C175.31 87.1147 175.567 87.4413 175.894 87.684C176.23 87.9267 176.622 88.048 177.07 88.048C177.424 88.048 177.728 88.0107 177.98 87.936C178.232 87.852 178.502 87.7353 178.792 87.586L179.184 88.65C178.894 88.8087 178.568 88.9347 178.204 89.028C177.849 89.1213 177.443 89.168 176.986 89.168ZM183.029 89.168C182.609 89.168 182.213 89.0793 181.839 88.902C181.466 88.7247 181.163 88.44 180.929 88.048C180.696 87.6467 180.579 87.1147 180.579 86.452V81.72H181.839V86.284C181.839 86.8533 181.961 87.292 182.203 87.6C182.446 87.8987 182.801 88.048 183.267 88.048C183.65 88.048 184.019 87.9733 184.373 87.824C184.737 87.6653 185.059 87.4553 185.339 87.194V81.72H186.599V87.11C186.599 87.5113 186.683 87.7773 186.851 87.908C187.029 88.0293 187.22 88.09 187.425 88.09L187.159 89.07C186.291 89.07 185.755 88.7247 185.549 88.034C185.223 88.37 184.845 88.6453 184.415 88.86C183.986 89.0653 183.524 89.168 183.029 89.168ZM191.311 89.168C190.881 89.168 190.494 89.0887 190.149 88.93C189.803 88.762 189.528 88.496 189.323 88.132C189.127 87.768 189.029 87.2967 189.029 86.718V78.64H190.289V86.592C190.289 87.096 190.391 87.4693 190.597 87.712C190.811 87.9547 191.105 88.076 191.479 88.076C191.656 88.076 191.829 88.0573 191.997 88.02C192.174 87.9733 192.323 87.922 192.445 87.866L192.753 88.888C192.585 88.9627 192.375 89.028 192.123 89.084C191.88 89.14 191.609 89.168 191.311 89.168ZM196.799 89.168C196.109 89.168 195.488 89.0093 194.937 88.692C194.387 88.3653 193.953 87.9173 193.635 87.348C193.327 86.7693 193.173 86.1067 193.173 85.36C193.173 84.576 193.332 83.8993 193.649 83.33C193.967 82.7607 194.401 82.322 194.951 82.014C195.502 81.706 196.118 81.552 196.799 81.552C197.481 81.552 198.092 81.706 198.633 82.014C199.184 82.322 199.618 82.7607 199.935 83.33C200.262 83.89 200.425 84.5573 200.425 85.332C200.425 86.1067 200.267 86.7833 199.949 87.362C199.632 87.9313 199.198 88.3747 198.647 88.692C198.106 89.0093 197.49 89.168 196.799 89.168ZM196.799 88.048C197.537 88.048 198.111 87.8007 198.521 87.306C198.932 86.802 199.137 86.1533 199.137 85.36C199.137 84.8747 199.035 84.4313 198.829 84.03C198.624 83.6193 198.344 83.2927 197.989 83.05C197.644 82.798 197.247 82.672 196.799 82.672C196.062 82.672 195.488 82.9147 195.077 83.4C194.667 83.8853 194.461 84.5293 194.461 85.332C194.461 85.8173 194.564 86.27 194.769 86.69C194.975 87.1007 195.25 87.432 195.595 87.684C195.95 87.9267 196.351 88.048 196.799 88.048Z" fill="#5E5E5E"/>
</svg>
