<svg width="170" height="80" viewBox="0 0 170 80" fill="none" xmlns="http://www.w3.org/2000/svg">
<path d="M28.512 6.784H26.8C26.48 5.136 25.328 4.208 23.824 4.208C22.016 4.208 20.704 5.52 20.704 7.824V8.96C20.704 11.28 22.016 12.592 23.824 12.592C25.328 12.592 26.48 11.664 26.8 10.016H28.512C28.16 12.608 26.224 14.192 23.824 14.192C20.992 14.192 18.928 12.176 18.928 9.008V7.776C18.928 4.624 20.992 2.608 23.824 2.608C26.288 2.608 28.16 4.208 28.512 6.784ZM37.6359 10.288C37.6359 12.656 36.0519 14.176 33.8279 14.176C31.6359 14.176 30.0359 12.656 30.0359 10.288V9.232C30.0359 6.88 31.6199 5.344 33.8279 5.344C36.0519 5.344 37.6359 6.864 37.6359 9.232V10.288ZM35.9559 9.312C35.9559 7.808 35.1559 6.832 33.8279 6.832C32.5159 6.832 31.7159 7.808 31.7159 9.312V10.224C31.7159 11.728 32.5159 12.688 33.8279 12.688C35.1559 12.688 35.9559 11.728 35.9559 10.224V9.312ZM41.46 8.928V14H39.764V5.536H41.46V7.04C41.924 6 42.868 5.36 43.956 5.36C45.284 5.36 46.292 6.16 46.676 7.344C47.076 6.144 48.084 5.36 49.348 5.36C51.108 5.36 52.276 6.736 52.276 8.496V14H50.58V8.88C50.58 7.744 49.844 6.88 48.756 6.88C47.652 6.88 46.868 7.76 46.868 8.928V14H45.172V8.88C45.172 7.744 44.436 6.88 43.364 6.88C42.244 6.88 41.46 7.76 41.46 8.928ZM54.8109 14V2.208H56.5069V6.768C57.0829 5.872 57.9949 5.344 59.1149 5.344C61.0989 5.344 62.5389 6.864 62.5389 9.184V10.352C62.5389 12.672 61.0829 14.176 59.1149 14.176C57.9789 14.176 57.0669 13.632 56.5069 12.704V14H54.8109ZM56.5069 9.312V10.224C56.5069 11.728 57.3389 12.688 58.6829 12.688C60.0429 12.688 60.8589 11.728 60.8589 10.224V9.312C60.8589 7.808 60.0429 6.832 58.6829 6.832C57.3389 6.832 56.5069 7.808 56.5069 9.312ZM64.6546 11.04V5.536H66.3506V10.672C66.3506 11.792 67.1186 12.656 68.2546 12.656C69.4226 12.656 70.2546 11.776 70.2546 10.624V5.536H71.9506V14H70.2546V12.512C69.7586 13.552 68.7826 14.176 67.6626 14.176C65.8706 14.176 64.6546 12.8 64.6546 11.04ZM77.4908 14.176C75.5228 14.176 74.1148 13.056 73.8108 11.376H75.4268C75.6188 12.24 76.3708 12.832 77.5068 12.832C78.3708 12.832 78.9468 12.384 78.9468 11.76C78.9468 11.216 78.5148 10.864 77.8268 10.688L76.2268 10.288C74.7228 9.92 73.9548 9.12 73.9548 7.904C73.9548 6.368 75.1548 5.344 76.9308 5.344C78.7868 5.344 80.2108 6.464 80.4668 8.16H78.8348C78.6428 7.312 77.8748 6.704 76.9308 6.704C76.1148 6.704 75.6188 7.136 75.6188 7.744C75.6188 8.272 76.0348 8.64 76.7868 8.832L78.2908 9.2C79.8108 9.584 80.6108 10.4 80.6108 11.616C80.6108 13.136 79.3468 14.176 77.4908 14.176ZM85.1924 14C83.8484 14 83.0964 13.2 83.0964 12.08V7.008H81.3844V5.536H83.0964V3.04H84.7924V5.536H87.0484V7.008H84.7924V11.84C84.7924 12.288 85.1124 12.528 85.6244 12.528H87.0484V14H85.1924ZM89.612 4.144C89.068 4.144 88.588 3.68 88.588 3.12C88.588 2.544 89.068 2.096 89.612 2.096C90.172 2.096 90.636 2.544 90.636 3.12C90.636 3.68 90.172 4.144 89.612 4.144ZM90.46 5.536V14H88.764V5.536H90.46ZM92.9828 14V2.208H94.6788V6.768C95.2548 5.872 96.1668 5.344 97.2868 5.344C99.2708 5.344 100.711 6.864 100.711 9.184V10.352C100.711 12.672 99.2548 14.176 97.2868 14.176C96.1508 14.176 95.2388 13.632 94.6788 12.704V14H92.9828ZM94.6788 9.312V10.224C94.6788 11.728 95.5108 12.688 96.8548 12.688C98.2148 12.688 99.0308 11.728 99.0308 10.224V9.312C99.0308 7.808 98.2148 6.832 96.8548 6.832C95.5108 6.832 94.6788 7.808 94.6788 9.312ZM104.523 14H102.827V2.208H104.523V14ZM106.645 10.272V9.264C106.645 6.928 108.181 5.344 110.373 5.344C112.405 5.344 113.845 6.944 113.845 9.216V10.304H108.309C108.325 11.792 109.173 12.704 110.501 12.704C111.333 12.704 112.005 12.384 112.613 11.712L113.685 12.704C112.885 13.648 111.845 14.176 110.453 14.176C108.213 14.176 106.645 12.608 106.645 10.272ZM110.309 6.832C109.173 6.832 108.405 7.632 108.325 8.976H112.229C112.181 7.648 111.429 6.832 110.309 6.832Z" fill="black"/>
<g clip-path="url(#clip0_22515_199184)">
<rect x="16" y="24" width="118" height="40" rx="8" fill="#E8E8E8"/>
</g>
<defs>
<clipPath id="clip0_22515_199184">
<rect x="16" y="24" width="118" height="40" rx="8" fill="white"/>
</clipPath>
</defs>
</svg>
