<svg width="359" height="94" viewBox="0 0 359 94" fill="none" xmlns="http://www.w3.org/2000/svg">
<path d="M19.008 14H17.328V2.8H20.016L23.264 11.76L26.496 2.8H29.168V14H27.472L27.488 4.528L24.048 14H22.432L18.992 4.56L19.008 14ZM38.964 10.288C38.964 12.656 37.38 14.176 35.156 14.176C32.964 14.176 31.364 12.656 31.364 10.288V9.232C31.364 6.88 32.948 5.344 35.156 5.344C37.38 5.344 38.964 6.864 38.964 9.232V10.288ZM37.284 9.312C37.284 7.808 36.484 6.832 35.156 6.832C33.844 6.832 33.044 7.808 33.044 9.312V10.224C33.044 11.728 33.844 12.688 35.156 12.688C36.484 12.688 37.284 11.728 37.284 10.224V9.312ZM48.4201 14H46.7241V12.72C46.1801 13.648 45.2521 14.176 44.1161 14.176C42.1481 14.176 40.6921 12.672 40.6921 10.352V9.184C40.6921 6.864 42.1481 5.344 44.1161 5.344C45.2361 5.344 46.1481 5.856 46.7241 6.752V2.208H48.4201V14ZM46.7241 9.312C46.7241 7.808 45.8921 6.832 44.5481 6.832C43.1881 6.832 42.3721 7.808 42.3721 9.312V10.224C42.3721 11.728 43.1881 12.688 44.5481 12.688C45.8921 12.688 46.7241 11.728 46.7241 10.224V9.312ZM50.5359 10.272V9.264C50.5359 6.928 52.0719 5.344 54.2639 5.344C56.2959 5.344 57.7359 6.944 57.7359 9.216V10.304H52.1999C52.2159 11.792 53.0639 12.704 54.3919 12.704C55.2239 12.704 55.8959 12.384 56.5039 11.712L57.5759 12.704C56.7759 13.648 55.7359 14.176 54.3439 14.176C52.1039 14.176 50.5359 12.608 50.5359 10.272ZM54.1999 6.832C53.0639 6.832 52.2959 7.632 52.2159 8.976H56.1199C56.0719 7.648 55.3199 6.832 54.1999 6.832ZM61.4913 14H59.7953V2.208H61.4913V14ZM71.214 10.288C71.214 12.656 69.63 14.176 67.406 14.176C65.214 14.176 63.614 12.656 63.614 10.288V9.232C63.614 6.88 65.198 5.344 67.406 5.344C69.63 5.344 71.214 6.864 71.214 9.232V10.288ZM69.534 9.312C69.534 7.808 68.734 6.832 67.406 6.832C66.094 6.832 65.294 7.808 65.294 9.312V10.224C65.294 11.728 66.094 12.688 67.406 12.688C68.734 12.688 69.534 11.728 69.534 10.224V9.312Z" fill="black"/>
<rect x="16" y="24" width="327" height="42" rx="8" fill="#E8E8E8"/>
<path d="M19.836 89.112C19.304 89.112 18.8373 89.098 18.436 89.07C18.044 89.042 17.652 89.0093 17.26 88.972V79.228C17.6987 79.1813 18.128 79.1487 18.548 79.13C18.968 79.102 19.4487 79.088 19.99 79.088C20.83 79.088 21.5533 79.2187 22.16 79.48C22.776 79.7413 23.28 80.1007 23.672 80.558C24.0733 81.0153 24.3673 81.5473 24.554 82.154C24.75 82.7513 24.848 83.3953 24.848 84.086C24.848 84.7673 24.75 85.4113 24.554 86.018C24.358 86.6247 24.0547 87.1613 23.644 87.628C23.2427 88.0853 22.7247 88.4493 22.09 88.72C21.4647 88.9813 20.7133 89.112 19.836 89.112ZM19.878 87.95C20.718 87.95 21.404 87.7867 21.936 87.46C22.468 87.1333 22.86 86.6807 23.112 86.102C23.364 85.514 23.49 84.842 23.49 84.086C23.49 83.414 23.364 82.784 23.112 82.196C22.86 81.608 22.4727 81.1367 21.95 80.782C21.4273 80.418 20.76 80.236 19.948 80.236C19.6773 80.236 19.43 80.2453 19.206 80.264C18.982 80.2733 18.7767 80.2873 18.59 80.306V87.88C18.786 87.908 18.9913 87.9267 19.206 87.936C19.4207 87.9453 19.6447 87.95 19.878 87.95ZM26.663 89V81.72H27.923V89H26.663ZM27.293 80.474C27.0503 80.474 26.8403 80.3853 26.663 80.208C26.495 80.0307 26.411 79.8253 26.411 79.592C26.411 79.3213 26.4903 79.1067 26.649 78.948C26.8076 78.7893 27.0223 78.71 27.293 78.71C27.5356 78.71 27.741 78.7987 27.909 78.976C28.0863 79.144 28.175 79.3493 28.175 79.592C28.175 79.8533 28.0956 80.068 27.937 80.236C27.7783 80.3947 27.5636 80.474 27.293 80.474ZM32.837 92.248C32.4076 92.248 31.9876 92.1967 31.577 92.094C31.1756 91.9913 30.8163 91.8373 30.499 91.632L30.961 90.54C31.185 90.7173 31.4463 90.862 31.745 90.974C32.0436 91.0953 32.4076 91.156 32.837 91.156C33.4996 91.156 34.0176 90.9787 34.391 90.624C34.7736 90.2787 34.965 89.7233 34.965 88.958V88.062C34.7783 88.286 34.5076 88.5007 34.153 88.706C33.8076 88.902 33.3923 89 32.907 89C32.3563 89 31.8336 88.86 31.339 88.58C30.8443 88.2907 30.443 87.8707 30.135 87.32C29.827 86.7693 29.673 86.1067 29.673 85.332C29.673 84.604 29.8223 83.9553 30.121 83.386C30.429 82.8167 30.8396 82.3687 31.353 82.042C31.8663 81.7153 32.431 81.552 33.047 81.552C33.4576 81.552 33.831 81.622 34.167 81.762C34.503 81.902 34.7923 82.0747 35.035 82.28V81.72H36.183V88.832C36.183 89.6347 36.043 90.288 35.763 90.792C35.483 91.296 35.091 91.6647 34.587 91.898C34.0923 92.1313 33.509 92.248 32.837 92.248ZM33.187 87.88C33.5603 87.88 33.8963 87.796 34.195 87.628C34.4936 87.46 34.7363 87.264 34.923 87.04V83.232C34.7176 83.0827 34.4703 82.9473 34.181 82.826C33.8916 82.7047 33.5556 82.644 33.173 82.644C32.7903 82.644 32.431 82.7467 32.095 82.952C31.759 83.1573 31.4836 83.456 31.269 83.848C31.0636 84.2307 30.961 84.702 30.961 85.262C30.961 85.794 31.0636 86.256 31.269 86.648C31.4836 87.04 31.759 87.3433 32.095 87.558C32.431 87.7727 32.795 87.88 33.187 87.88ZM38.3524 89V81.72H39.6124V89H38.3524ZM38.9824 80.474C38.7398 80.474 38.5298 80.3853 38.3524 80.208C38.1844 80.0307 38.1004 79.8253 38.1004 79.592C38.1004 79.3213 38.1798 79.1067 38.3384 78.948C38.4971 78.7893 38.7118 78.71 38.9824 78.71C39.2251 78.71 39.4304 78.7987 39.5984 78.976C39.7758 79.144 39.8644 79.3493 39.8644 79.592C39.8644 79.8533 39.7851 80.068 39.6264 80.236C39.4678 80.3947 39.2531 80.474 38.9824 80.474ZM44.4004 89.168C43.7004 89.168 43.1451 88.9393 42.7344 88.482C42.3331 88.0153 42.1324 87.3527 42.1324 86.494V83.078H40.8724V81.986H42.1604L42.4264 79.69H43.3924V81.986H45.4084V83.078H43.3924V86.592C43.3924 87.1333 43.5044 87.5113 43.7284 87.726C43.9618 87.9407 44.2371 88.048 44.5544 88.048C44.7878 88.048 45.0071 88.0107 45.2124 87.936C45.4271 87.8613 45.6231 87.7727 45.8004 87.67L46.1504 88.678C45.9638 88.79 45.7118 88.8973 45.3944 89C45.0771 89.112 44.7458 89.168 44.4004 89.168ZM50.0554 89.168C49.0101 89.168 48.1794 88.8367 47.5634 88.174C46.9568 87.502 46.6534 86.564 46.6534 85.36C46.6534 84.632 46.7888 83.9833 47.0594 83.414C47.3394 82.8353 47.7268 82.3827 48.2214 82.056C48.7161 81.72 49.2901 81.552 49.9434 81.552C50.6434 81.552 51.2221 81.706 51.6794 82.014C52.1461 82.3127 52.4961 82.7187 52.7294 83.232C52.9628 83.7453 53.0794 84.31 53.0794 84.926C53.0794 85.2527 53.0654 85.57 53.0374 85.878H47.9414C48.0254 86.5593 48.2634 87.0913 48.6554 87.474C49.0474 87.8567 49.5654 88.048 50.2094 88.048C50.6294 88.048 51.0074 88.006 51.3434 87.922C51.6794 87.8287 52.0014 87.712 52.3094 87.572L52.6034 88.65C52.2674 88.7993 51.8894 88.9207 51.4694 89.014C51.0494 89.1167 50.5781 89.168 50.0554 89.168ZM47.9274 84.856H51.9174C51.9174 84.1467 51.7401 83.6007 51.3854 83.218C51.0308 82.8353 50.5408 82.644 49.9154 82.644C49.3741 82.644 48.9261 82.8353 48.5714 83.218C48.2168 83.5913 48.0021 84.1373 47.9274 84.856ZM61.8679 89.168C60.8226 89.168 59.9919 88.8367 59.3759 88.174C58.7693 87.502 58.4659 86.564 58.4659 85.36C58.4659 84.632 58.6013 83.9833 58.8719 83.414C59.1519 82.8353 59.5393 82.3827 60.0339 82.056C60.5286 81.72 61.1026 81.552 61.7559 81.552C62.4559 81.552 63.0346 81.706 63.4919 82.014C63.9586 82.3127 64.3086 82.7187 64.5419 83.232C64.7753 83.7453 64.8919 84.31 64.8919 84.926C64.8919 85.2527 64.8779 85.57 64.8499 85.878H59.7539C59.8379 86.5593 60.0759 87.0913 60.4679 87.474C60.8599 87.8567 61.3779 88.048 62.0219 88.048C62.4419 88.048 62.8199 88.006 63.1559 87.922C63.4919 87.8287 63.8139 87.712 64.1219 87.572L64.4159 88.65C64.0799 88.7993 63.7019 88.9207 63.2819 89.014C62.8619 89.1167 62.3906 89.168 61.8679 89.168ZM59.7399 84.856H63.7299C63.7299 84.1467 63.5526 83.6007 63.1979 83.218C62.8433 82.8353 62.3533 82.644 61.7279 82.644C61.1866 82.644 60.7386 82.8353 60.3839 83.218C60.0293 83.5913 59.8146 84.1373 59.7399 84.856ZM68.7832 89.168C68.3538 89.168 67.9665 89.0887 67.6212 88.93C67.2758 88.762 67.0005 88.496 66.7952 88.132C66.5992 87.768 66.5012 87.2967 66.5012 86.718V78.64H67.7612V86.592C67.7612 87.096 67.8638 87.4693 68.0692 87.712C68.2838 87.9547 68.5778 88.076 68.9512 88.076C69.1285 88.076 69.3012 88.0573 69.4692 88.02C69.6465 87.9733 69.7958 87.922 69.9172 87.866L70.2252 88.888C70.0572 88.9627 69.8472 89.028 69.5952 89.084C69.3525 89.14 69.0818 89.168 68.7832 89.168ZM75.6083 89V81.72H76.8263V82.938C77.0876 82.546 77.4189 82.2193 77.8203 81.958C78.2216 81.6873 78.6789 81.552 79.1923 81.552C79.7709 81.552 80.2423 81.692 80.6063 81.972C80.9796 82.252 81.2409 82.6253 81.3903 83.092C81.6796 82.6627 82.0203 82.2987 82.4123 82C82.8136 81.7013 83.3083 81.552 83.8963 81.552C84.6896 81.552 85.2776 81.804 85.6603 82.308C86.0523 82.8027 86.2483 83.4513 86.2483 84.254V89H84.9883V84.352C84.9883 83.848 84.8716 83.442 84.6383 83.134C84.4049 82.8167 84.0829 82.658 83.6723 82.658C83.2523 82.658 82.8603 82.8167 82.4963 83.134C82.1416 83.442 81.8289 83.806 81.5583 84.226V89H80.2983V84.352C80.2983 83.848 80.1816 83.442 79.9483 83.134C79.7149 82.8167 79.3929 82.658 78.9823 82.658C78.5716 82.658 78.1843 82.812 77.8203 83.12C77.4563 83.4187 77.1389 83.7733 76.8683 84.184V89H75.6083ZM91.4848 89.168C90.7942 89.168 90.1735 89.0093 89.6228 88.692C89.0722 88.3653 88.6382 87.9173 88.3208 87.348C88.0128 86.7693 87.8588 86.1067 87.8588 85.36C87.8588 84.576 88.0175 83.8993 88.3348 83.33C88.6522 82.7607 89.0862 82.322 89.6368 82.014C90.1875 81.706 90.8035 81.552 91.4848 81.552C92.1662 81.552 92.7775 81.706 93.3188 82.014C93.8695 82.322 94.3035 82.7607 94.6208 83.33C94.9475 83.89 95.1108 84.5573 95.1108 85.332C95.1108 86.1067 94.9522 86.7833 94.6348 87.362C94.3175 87.9313 93.8835 88.3747 93.3328 88.692C92.7915 89.0093 92.1755 89.168 91.4848 89.168ZM91.4848 88.048C92.2222 88.048 92.7962 87.8007 93.2068 87.306C93.6175 86.802 93.8228 86.1533 93.8228 85.36C93.8228 84.8747 93.7202 84.4313 93.5148 84.03C93.3095 83.6193 93.0295 83.2927 92.6748 83.05C92.3295 82.798 91.9328 82.672 91.4848 82.672C90.7475 82.672 90.1735 82.9147 89.7628 83.4C89.3522 83.8853 89.1468 84.5293 89.1468 85.332C89.1468 85.8173 89.2495 86.27 89.4548 86.69C89.6602 87.1007 89.9355 87.432 90.2808 87.684C90.6355 87.9267 91.0368 88.048 91.4848 88.048ZM99.544 89.168C98.9467 89.168 98.4007 89.014 97.906 88.706C97.4113 88.398 97.0193 87.964 96.73 87.404C96.4407 86.8347 96.296 86.1673 96.296 85.402C96.296 84.6647 96.4407 84.0067 96.73 83.428C97.0287 82.8493 97.4207 82.392 97.906 82.056C98.4007 81.72 98.942 81.552 99.53 81.552C100.015 81.552 100.431 81.65 100.776 81.846C101.131 82.042 101.406 82.2427 101.602 82.448V78.64H102.862V87.236C102.862 87.5907 102.946 87.824 103.114 87.936C103.291 88.0387 103.483 88.09 103.688 88.09L103.422 89.07C102.535 89.07 101.994 88.7153 101.798 88.006C101.593 88.2953 101.303 88.5613 100.93 88.804C100.566 89.0467 100.104 89.168 99.544 89.168ZM99.824 88.048C100.169 88.048 100.496 87.9687 100.804 87.81C101.121 87.642 101.387 87.4273 101.602 87.166V83.554C101.425 83.33 101.177 83.1247 100.86 82.938C100.543 82.742 100.193 82.644 99.81 82.644C99.362 82.644 98.97 82.7653 98.634 83.008C98.298 83.2507 98.0367 83.5773 97.85 83.988C97.6727 84.3893 97.584 84.8467 97.584 85.36C97.584 85.8733 97.682 86.3353 97.878 86.746C98.074 87.1473 98.34 87.4647 98.676 87.698C99.0213 87.9313 99.404 88.048 99.824 88.048ZM108.147 89.168C107.102 89.168 106.271 88.8367 105.655 88.174C105.049 87.502 104.745 86.564 104.745 85.36C104.745 84.632 104.881 83.9833 105.151 83.414C105.431 82.8353 105.819 82.3827 106.313 82.056C106.808 81.72 107.382 81.552 108.035 81.552C108.735 81.552 109.314 81.706 109.771 82.014C110.238 82.3127 110.588 82.7187 110.821 83.232C111.055 83.7453 111.171 84.31 111.171 84.926C111.171 85.2527 111.157 85.57 111.129 85.878H106.033C106.117 86.5593 106.355 87.0913 106.747 87.474C107.139 87.8567 107.657 88.048 108.301 88.048C108.721 88.048 109.099 88.006 109.435 87.922C109.771 87.8287 110.093 87.712 110.401 87.572L110.695 88.65C110.359 88.7993 109.981 88.9207 109.561 89.014C109.141 89.1167 108.67 89.168 108.147 89.168ZM106.019 84.856H110.009C110.009 84.1467 109.832 83.6007 109.477 83.218C109.123 82.8353 108.633 82.644 108.007 82.644C107.466 82.644 107.018 82.8353 106.663 83.218C106.309 83.5913 106.094 84.1373 106.019 84.856ZM115.062 89.168C114.633 89.168 114.246 89.0887 113.9 88.93C113.555 88.762 113.28 88.496 113.074 88.132C112.878 87.768 112.78 87.2967 112.78 86.718V78.64H114.04V86.592C114.04 87.096 114.143 87.4693 114.348 87.712C114.563 87.9547 114.857 88.076 115.23 88.076C115.408 88.076 115.58 88.0573 115.748 88.02C115.926 87.9733 116.075 87.922 116.196 87.866L116.504 88.888C116.336 88.9627 116.126 89.028 115.874 89.084C115.632 89.14 115.361 89.168 115.062 89.168ZM120.551 89.168C119.861 89.168 119.24 89.0093 118.689 88.692C118.139 88.3653 117.705 87.9173 117.387 87.348C117.079 86.7693 116.925 86.1067 116.925 85.36C116.925 84.576 117.084 83.8993 117.401 83.33C117.719 82.7607 118.153 82.322 118.703 82.014C119.254 81.706 119.87 81.552 120.551 81.552C121.233 81.552 121.844 81.706 122.385 82.014C122.936 82.322 123.37 82.7607 123.687 83.33C124.014 83.89 124.177 84.5573 124.177 85.332C124.177 86.1067 124.019 86.7833 123.701 87.362C123.384 87.9313 122.95 88.3747 122.399 88.692C121.858 89.0093 121.242 89.168 120.551 89.168ZM120.551 88.048C121.289 88.048 121.863 87.8007 122.273 87.306C122.684 86.802 122.889 86.1533 122.889 85.36C122.889 84.8747 122.787 84.4313 122.581 84.03C122.376 83.6193 122.096 83.2927 121.741 83.05C121.396 82.798 120.999 82.672 120.551 82.672C119.814 82.672 119.24 82.9147 118.829 83.4C118.419 83.8853 118.213 84.5293 118.213 85.332C118.213 85.8173 118.316 86.27 118.521 86.69C118.727 87.1007 119.002 87.432 119.347 87.684C119.702 87.9267 120.103 88.048 120.551 88.048ZM132.808 89.168C132.21 89.168 131.664 89.014 131.17 88.706C130.675 88.398 130.283 87.964 129.994 87.404C129.704 86.8347 129.56 86.1673 129.56 85.402C129.56 84.6647 129.704 84.0067 129.994 83.428C130.292 82.8493 130.684 82.392 131.17 82.056C131.664 81.72 132.206 81.552 132.794 81.552C133.279 81.552 133.694 81.65 134.04 81.846C134.394 82.042 134.67 82.2427 134.866 82.448V78.64H136.126V87.236C136.126 87.5907 136.21 87.824 136.378 87.936C136.555 88.0387 136.746 88.09 136.952 88.09L136.686 89.07C135.799 89.07 135.258 88.7153 135.062 88.006C134.856 88.2953 134.567 88.5613 134.194 88.804C133.83 89.0467 133.368 89.168 132.808 89.168ZM133.088 88.048C133.433 88.048 133.76 87.9687 134.068 87.81C134.385 87.642 134.651 87.4273 134.866 87.166V83.554C134.688 83.33 134.441 83.1247 134.124 82.938C133.806 82.742 133.456 82.644 133.074 82.644C132.626 82.644 132.234 82.7653 131.898 83.008C131.562 83.2507 131.3 83.5773 131.114 83.988C130.936 84.3893 130.848 84.8467 130.848 85.36C130.848 85.8733 130.946 86.3353 131.142 86.746C131.338 87.1473 131.604 87.4647 131.94 87.698C132.285 87.9313 132.668 88.048 133.088 88.048ZM141.411 89.168C140.366 89.168 139.535 88.8367 138.919 88.174C138.312 87.502 138.009 86.564 138.009 85.36C138.009 84.632 138.144 83.9833 138.415 83.414C138.695 82.8353 139.082 82.3827 139.577 82.056C140.072 81.72 140.646 81.552 141.299 81.552C141.999 81.552 142.578 81.706 143.035 82.014C143.502 82.3127 143.852 82.7187 144.085 83.232C144.318 83.7453 144.435 84.31 144.435 84.926C144.435 85.2527 144.421 85.57 144.393 85.878H139.297C139.381 86.5593 139.619 87.0913 140.011 87.474C140.403 87.8567 140.921 88.048 141.565 88.048C141.985 88.048 142.363 88.006 142.699 87.922C143.035 87.8287 143.357 87.712 143.665 87.572L143.959 88.65C143.623 88.7993 143.245 88.9207 142.825 89.014C142.405 89.1167 141.934 89.168 141.411 89.168ZM139.283 84.856H143.273C143.273 84.1467 143.096 83.6007 142.741 83.218C142.386 82.8353 141.896 82.644 141.271 82.644C140.73 82.644 140.282 82.8353 139.927 83.218C139.572 83.5913 139.358 84.1373 139.283 84.856ZM148.326 89.168C147.897 89.168 147.509 89.0887 147.164 88.93C146.819 88.762 146.543 88.496 146.338 88.132C146.142 87.768 146.044 87.2967 146.044 86.718V78.64H147.304V86.592C147.304 87.096 147.407 87.4693 147.612 87.712C147.827 87.9547 148.121 88.076 148.494 88.076C148.671 88.076 148.844 88.0573 149.012 88.02C149.189 87.9733 149.339 87.922 149.46 87.866L149.768 88.888C149.6 88.9627 149.39 89.028 149.138 89.084C148.895 89.14 148.625 89.168 148.326 89.168ZM157.097 89L154.171 82.056L155.319 81.58L157.797 87.572L160.275 81.58L161.353 82.056L158.413 89H157.097ZM165.255 89.168C164.209 89.168 163.379 88.8367 162.763 88.174C162.156 87.502 161.853 86.564 161.853 85.36C161.853 84.632 161.988 83.9833 162.259 83.414C162.539 82.8353 162.926 82.3827 163.421 82.056C163.915 81.72 164.489 81.552 165.143 81.552C165.843 81.552 166.421 81.706 166.879 82.014C167.345 82.3127 167.695 82.7187 167.929 83.232C168.162 83.7453 168.279 84.31 168.279 84.926C168.279 85.2527 168.265 85.57 168.237 85.878H163.141C163.225 86.5593 163.463 87.0913 163.855 87.474C164.247 87.8567 164.765 88.048 165.409 88.048C165.829 88.048 166.207 88.006 166.543 87.922C166.879 87.8287 167.201 87.712 167.509 87.572L167.803 88.65C167.467 88.7993 167.089 88.9207 166.669 89.014C166.249 89.1167 165.777 89.168 165.255 89.168ZM163.127 84.856H167.117C167.117 84.1467 166.939 83.6007 166.585 83.218C166.23 82.8353 165.74 82.644 165.115 82.644C164.573 82.644 164.125 82.8353 163.771 83.218C163.416 83.5913 163.201 84.1373 163.127 84.856ZM169.958 89V78.64H171.218V82.882C171.479 82.4993 171.811 82.182 172.212 81.93C172.613 81.678 173.085 81.552 173.626 81.552C174.447 81.552 175.059 81.7993 175.46 82.294C175.871 82.7887 176.076 83.442 176.076 84.254V89H174.816V84.394C174.816 83.8713 174.695 83.4513 174.452 83.134C174.209 82.8167 173.869 82.658 173.43 82.658C173.001 82.658 172.59 82.812 172.198 83.12C171.815 83.4187 171.489 83.7733 171.218 84.184V89H169.958ZM178.243 89V81.72H179.503V89H178.243ZM177.683 80.95L177.249 80.096L179.895 78.346L180.483 79.522L177.683 80.95ZM184.683 89.168C183.992 89.168 183.386 89.0093 182.863 88.692C182.35 88.3653 181.953 87.9173 181.673 87.348C181.393 86.7693 181.253 86.1067 181.253 85.36C181.253 84.66 181.393 84.0207 181.673 83.442C181.962 82.8633 182.373 82.406 182.905 82.07C183.437 81.7247 184.062 81.552 184.781 81.552C185.192 81.552 185.551 81.5893 185.859 81.664C186.176 81.7387 186.48 81.846 186.769 81.986L186.391 83.05C186.13 82.9193 185.878 82.826 185.635 82.77C185.402 82.7047 185.14 82.672 184.851 82.672C184.198 82.672 183.647 82.91 183.199 83.386C182.76 83.8527 182.541 84.5013 182.541 85.332C182.541 85.836 182.634 86.2933 182.821 86.704C183.008 87.1147 183.264 87.4413 183.591 87.684C183.927 87.9267 184.319 88.048 184.767 88.048C185.122 88.048 185.425 88.0107 185.677 87.936C185.929 87.852 186.2 87.7353 186.489 87.586L186.881 88.65C186.592 88.8087 186.265 88.9347 185.901 89.028C185.546 89.1213 185.14 89.168 184.683 89.168ZM190.727 89.168C190.307 89.168 189.91 89.0793 189.537 88.902C189.163 88.7247 188.86 88.44 188.627 88.048C188.393 87.6467 188.277 87.1147 188.277 86.452V81.72H189.537V86.284C189.537 86.8533 189.658 87.292 189.901 87.6C190.143 87.8987 190.498 88.048 190.965 88.048C191.347 88.048 191.716 87.9733 192.071 87.824C192.435 87.6653 192.757 87.4553 193.037 87.194V81.72H194.297V87.11C194.297 87.5113 194.381 87.7773 194.549 87.908C194.726 88.0293 194.917 88.09 195.123 88.09L194.857 89.07C193.989 89.07 193.452 88.7247 193.247 88.034C192.92 88.37 192.542 88.6453 192.113 88.86C191.683 89.0653 191.221 89.168 190.727 89.168ZM199.008 89.168C198.578 89.168 198.191 89.0887 197.846 88.93C197.5 88.762 197.225 88.496 197.02 88.132C196.824 87.768 196.726 87.2967 196.726 86.718V78.64H197.986V86.592C197.986 87.096 198.088 87.4693 198.294 87.712C198.508 87.9547 198.802 88.076 199.176 88.076C199.353 88.076 199.526 88.0573 199.694 88.02C199.871 87.9733 200.02 87.922 200.142 87.866L200.45 88.888C200.282 88.9627 200.072 89.028 199.82 89.084C199.577 89.14 199.306 89.168 199.008 89.168ZM204.497 89.168C203.806 89.168 203.185 89.0093 202.635 88.692C202.084 88.3653 201.65 87.9173 201.333 87.348C201.025 86.7693 200.871 86.1067 200.871 85.36C200.871 84.576 201.029 83.8993 201.347 83.33C201.664 82.7607 202.098 82.322 202.649 82.014C203.199 81.706 203.815 81.552 204.497 81.552C205.178 81.552 205.789 81.706 206.331 82.014C206.881 82.322 207.315 82.7607 207.633 83.33C207.959 83.89 208.123 84.5573 208.123 85.332C208.123 86.1067 207.964 86.7833 207.647 87.362C207.329 87.9313 206.895 88.3747 206.345 88.692C205.803 89.0093 205.187 89.168 204.497 89.168ZM204.497 88.048C205.234 88.048 205.808 87.8007 206.219 87.306C206.629 86.802 206.835 86.1533 206.835 85.36C206.835 84.8747 206.732 84.4313 206.527 84.03C206.321 83.6193 206.041 83.2927 205.687 83.05C205.341 82.798 204.945 82.672 204.497 82.672C203.759 82.672 203.185 82.9147 202.775 83.4C202.364 83.8853 202.159 84.5293 202.159 85.332C202.159 85.8173 202.261 86.27 202.467 86.69C202.672 87.1007 202.947 87.432 203.293 87.684C203.647 87.9267 204.049 88.048 204.497 88.048Z" fill="#5E5E5E"/>
</svg>
