<svg width="359" height="94" viewBox="0 0 359 94" fill="none" xmlns="http://www.w3.org/2000/svg">
<path d="M17.36 14V2.8H24.736V4.336H19.12V7.632H24.576V9.152H19.12V12.464H24.736V14H17.36ZM29.8814 14.176C27.9134 14.176 26.5054 13.056 26.2014 11.376H27.8174C28.0094 12.24 28.7614 12.832 29.8974 12.832C30.7614 12.832 31.3374 12.384 31.3374 11.76C31.3374 11.216 30.9054 10.864 30.2174 10.688L28.6174 10.288C27.1134 9.92 26.3454 9.12 26.3454 7.904C26.3454 6.368 27.5454 5.344 29.3214 5.344C31.1774 5.344 32.6014 6.464 32.8574 8.16H31.2254C31.0334 7.312 30.2654 6.704 29.3214 6.704C28.5054 6.704 28.0094 7.136 28.0094 7.744C28.0094 8.272 28.4254 8.64 29.1774 8.832L30.6814 9.2C32.2014 9.584 33.0014 10.4 33.0014 11.616C33.0014 13.136 31.7374 14.176 29.8814 14.176ZM37.583 14C36.239 14 35.487 13.2 35.487 12.08V7.008H33.775V5.536H35.487V3.04H37.183V5.536H39.439V7.008H37.183V11.84C37.183 12.288 37.503 12.528 38.015 12.528H39.439V14H37.583ZM40.4506 11.616C40.4506 10.096 41.4906 9.248 43.1866 9.136L45.6826 8.976V8.432C45.6826 7.472 45.0906 6.912 44.0666 6.912C43.2666 6.912 42.5626 7.168 41.8426 7.744L41.0746 6.496C41.9706 5.76 43.0426 5.36 44.3066 5.36C46.1466 5.36 47.3466 6.48 47.3466 8.224V12.016C47.3466 12.336 47.5226 12.512 47.8586 12.512H48.2746V14H47.4266C46.5306 14 45.9226 13.52 45.7786 12.768C45.2826 13.616 44.3866 14.16 43.3146 14.16C41.6666 14.16 40.4506 13.088 40.4506 11.616ZM42.0986 11.584C42.0986 12.304 42.7386 12.8 43.6506 12.8C44.7706 12.8 45.6826 12 45.6826 11.024V10.256L43.4106 10.432C42.5786 10.496 42.0986 10.88 42.0986 11.584ZM57.3889 14H55.6929V12.72C55.1489 13.648 54.2209 14.176 53.0849 14.176C51.1169 14.176 49.6609 12.672 49.6609 10.352V9.184C49.6609 6.864 51.1169 5.344 53.0849 5.344C54.2049 5.344 55.1169 5.856 55.6929 6.752V2.208H57.3889V14ZM55.6929 9.312C55.6929 7.808 54.8609 6.832 53.5169 6.832C52.1569 6.832 51.3409 7.808 51.3409 9.312V10.224C51.3409 11.728 52.1569 12.688 53.5169 12.688C54.8609 12.688 55.6929 11.728 55.6929 10.224V9.312ZM67.1046 10.288C67.1046 12.656 65.5206 14.176 63.2966 14.176C61.1046 14.176 59.5046 12.656 59.5046 10.288V9.232C59.5046 6.88 61.0886 5.344 63.2966 5.344C65.5206 5.344 67.1046 6.864 67.1046 9.232V10.288ZM65.4246 9.312C65.4246 7.808 64.6246 6.832 63.2966 6.832C61.9846 6.832 61.1846 7.808 61.1846 9.312V10.224C61.1846 11.728 61.9846 12.688 63.2966 12.688C64.6246 12.688 65.4246 11.728 65.4246 10.224V9.312Z" fill="black"/>
<rect x="16" y="24" width="327" height="42" rx="8" fill="#E8E8E8"/>
<path d="M19.836 89.112C19.304 89.112 18.8373 89.098 18.436 89.07C18.044 89.042 17.652 89.0093 17.26 88.972V79.228C17.6987 79.1813 18.128 79.1487 18.548 79.13C18.968 79.102 19.4487 79.088 19.99 79.088C20.83 79.088 21.5533 79.2187 22.16 79.48C22.776 79.7413 23.28 80.1007 23.672 80.558C24.0733 81.0153 24.3673 81.5473 24.554 82.154C24.75 82.7513 24.848 83.3953 24.848 84.086C24.848 84.7673 24.75 85.4113 24.554 86.018C24.358 86.6247 24.0547 87.1613 23.644 87.628C23.2427 88.0853 22.7247 88.4493 22.09 88.72C21.4647 88.9813 20.7133 89.112 19.836 89.112ZM19.878 87.95C20.718 87.95 21.404 87.7867 21.936 87.46C22.468 87.1333 22.86 86.6807 23.112 86.102C23.364 85.514 23.49 84.842 23.49 84.086C23.49 83.414 23.364 82.784 23.112 82.196C22.86 81.608 22.4727 81.1367 21.95 80.782C21.4273 80.418 20.76 80.236 19.948 80.236C19.6773 80.236 19.43 80.2453 19.206 80.264C18.982 80.2733 18.7767 80.2873 18.59 80.306V87.88C18.786 87.908 18.9913 87.9267 19.206 87.936C19.4207 87.9453 19.6447 87.95 19.878 87.95ZM26.663 89V81.72H27.923V89H26.663ZM27.293 80.474C27.0503 80.474 26.8403 80.3853 26.663 80.208C26.495 80.0307 26.411 79.8253 26.411 79.592C26.411 79.3213 26.4903 79.1067 26.649 78.948C26.8076 78.7893 27.0223 78.71 27.293 78.71C27.5356 78.71 27.741 78.7987 27.909 78.976C28.0863 79.144 28.175 79.3493 28.175 79.592C28.175 79.8533 28.0956 80.068 27.937 80.236C27.7783 80.3947 27.5636 80.474 27.293 80.474ZM32.837 92.248C32.4076 92.248 31.9876 92.1967 31.577 92.094C31.1756 91.9913 30.8163 91.8373 30.499 91.632L30.961 90.54C31.185 90.7173 31.4463 90.862 31.745 90.974C32.0436 91.0953 32.4076 91.156 32.837 91.156C33.4996 91.156 34.0176 90.9787 34.391 90.624C34.7736 90.2787 34.965 89.7233 34.965 88.958V88.062C34.7783 88.286 34.5076 88.5007 34.153 88.706C33.8076 88.902 33.3923 89 32.907 89C32.3563 89 31.8336 88.86 31.339 88.58C30.8443 88.2907 30.443 87.8707 30.135 87.32C29.827 86.7693 29.673 86.1067 29.673 85.332C29.673 84.604 29.8223 83.9553 30.121 83.386C30.429 82.8167 30.8396 82.3687 31.353 82.042C31.8663 81.7153 32.431 81.552 33.047 81.552C33.4576 81.552 33.831 81.622 34.167 81.762C34.503 81.902 34.7923 82.0747 35.035 82.28V81.72H36.183V88.832C36.183 89.6347 36.043 90.288 35.763 90.792C35.483 91.296 35.091 91.6647 34.587 91.898C34.0923 92.1313 33.509 92.248 32.837 92.248ZM33.187 87.88C33.5603 87.88 33.8963 87.796 34.195 87.628C34.4936 87.46 34.7363 87.264 34.923 87.04V83.232C34.7176 83.0827 34.4703 82.9473 34.181 82.826C33.8916 82.7047 33.5556 82.644 33.173 82.644C32.7903 82.644 32.431 82.7467 32.095 82.952C31.759 83.1573 31.4836 83.456 31.269 83.848C31.0636 84.2307 30.961 84.702 30.961 85.262C30.961 85.794 31.0636 86.256 31.269 86.648C31.4836 87.04 31.759 87.3433 32.095 87.558C32.431 87.7727 32.795 87.88 33.187 87.88ZM38.3524 89V81.72H39.6124V89H38.3524ZM38.9824 80.474C38.7398 80.474 38.5298 80.3853 38.3524 80.208C38.1844 80.0307 38.1004 79.8253 38.1004 79.592C38.1004 79.3213 38.1798 79.1067 38.3384 78.948C38.4971 78.7893 38.7118 78.71 38.9824 78.71C39.2251 78.71 39.4304 78.7987 39.5984 78.976C39.7758 79.144 39.8644 79.3493 39.8644 79.592C39.8644 79.8533 39.7851 80.068 39.6264 80.236C39.4678 80.3947 39.2531 80.474 38.9824 80.474ZM44.4004 89.168C43.7004 89.168 43.1451 88.9393 42.7344 88.482C42.3331 88.0153 42.1324 87.3527 42.1324 86.494V83.078H40.8724V81.986H42.1604L42.4264 79.69H43.3924V81.986H45.4084V83.078H43.3924V86.592C43.3924 87.1333 43.5044 87.5113 43.7284 87.726C43.9618 87.9407 44.2371 88.048 44.5544 88.048C44.7878 88.048 45.0071 88.0107 45.2124 87.936C45.4271 87.8613 45.6231 87.7727 45.8004 87.67L46.1504 88.678C45.9638 88.79 45.7118 88.8973 45.3944 89C45.0771 89.112 44.7458 89.168 44.4004 89.168ZM50.0554 89.168C49.0101 89.168 48.1794 88.8367 47.5634 88.174C46.9568 87.502 46.6534 86.564 46.6534 85.36C46.6534 84.632 46.7888 83.9833 47.0594 83.414C47.3394 82.8353 47.7268 82.3827 48.2214 82.056C48.7161 81.72 49.2901 81.552 49.9434 81.552C50.6434 81.552 51.2221 81.706 51.6794 82.014C52.1461 82.3127 52.4961 82.7187 52.7294 83.232C52.9628 83.7453 53.0794 84.31 53.0794 84.926C53.0794 85.2527 53.0654 85.57 53.0374 85.878H47.9414C48.0254 86.5593 48.2634 87.0913 48.6554 87.474C49.0474 87.8567 49.5654 88.048 50.2094 88.048C50.6294 88.048 51.0074 88.006 51.3434 87.922C51.6794 87.8287 52.0014 87.712 52.3094 87.572L52.6034 88.65C52.2674 88.7993 51.8894 88.9207 51.4694 89.014C51.0494 89.1167 50.5781 89.168 50.0554 89.168ZM47.9274 84.856H51.9174C51.9174 84.1467 51.7401 83.6007 51.3854 83.218C51.0308 82.8353 50.5408 82.644 49.9154 82.644C49.3741 82.644 48.9261 82.8353 48.5714 83.218C48.2168 83.5913 48.0021 84.1373 47.9274 84.856ZM61.8679 89.168C60.8226 89.168 59.9919 88.8367 59.3759 88.174C58.7693 87.502 58.4659 86.564 58.4659 85.36C58.4659 84.632 58.6013 83.9833 58.8719 83.414C59.1519 82.8353 59.5393 82.3827 60.0339 82.056C60.5286 81.72 61.1026 81.552 61.7559 81.552C62.4559 81.552 63.0346 81.706 63.4919 82.014C63.9586 82.3127 64.3086 82.7187 64.5419 83.232C64.7753 83.7453 64.8919 84.31 64.8919 84.926C64.8919 85.2527 64.8779 85.57 64.8499 85.878H59.7539C59.8379 86.5593 60.0759 87.0913 60.4679 87.474C60.8599 87.8567 61.3779 88.048 62.0219 88.048C62.4419 88.048 62.8199 88.006 63.1559 87.922C63.4919 87.8287 63.8139 87.712 64.1219 87.572L64.4159 88.65C64.0799 88.7993 63.7019 88.9207 63.2819 89.014C62.8619 89.1167 62.3906 89.168 61.8679 89.168ZM59.7399 84.856H63.7299C63.7299 84.1467 63.5526 83.6007 63.1979 83.218C62.8433 82.8353 62.3533 82.644 61.7279 82.644C61.1866 82.644 60.7386 82.8353 60.3839 83.218C60.0293 83.5913 59.8146 84.1373 59.7399 84.856ZM68.7832 89.168C68.3538 89.168 67.9665 89.0887 67.6212 88.93C67.2758 88.762 67.0005 88.496 66.7952 88.132C66.5992 87.768 66.5012 87.2967 66.5012 86.718V78.64H67.7612V86.592C67.7612 87.096 67.8638 87.4693 68.0692 87.712C68.2838 87.9547 68.5778 88.076 68.9512 88.076C69.1285 88.076 69.3012 88.0573 69.4692 88.02C69.6465 87.9733 69.7958 87.922 69.9172 87.866L70.2252 88.888C70.0572 88.9627 69.8472 89.028 69.5952 89.084C69.3525 89.14 69.0818 89.168 68.7832 89.168ZM78.5203 89.168C77.4749 89.168 76.6443 88.8367 76.0283 88.174C75.4216 87.502 75.1183 86.564 75.1183 85.36C75.1183 84.632 75.2536 83.9833 75.5243 83.414C75.8043 82.8353 76.1916 82.3827 76.6863 82.056C77.1809 81.72 77.7549 81.552 78.4083 81.552C79.1083 81.552 79.6869 81.706 80.1443 82.014C80.6109 82.3127 80.9609 82.7187 81.1943 83.232C81.4276 83.7453 81.5443 84.31 81.5443 84.926C81.5443 85.2527 81.5303 85.57 81.5023 85.878H76.4063C76.4903 86.5593 76.7283 87.0913 77.1203 87.474C77.5123 87.8567 78.0303 88.048 78.6743 88.048C79.0943 88.048 79.4723 88.006 79.8083 87.922C80.1443 87.8287 80.4663 87.712 80.7743 87.572L81.0683 88.65C80.7323 88.7993 80.3543 88.9207 79.9343 89.014C79.5143 89.1167 79.0429 89.168 78.5203 89.168ZM76.3923 84.856H80.3823C80.3823 84.1467 80.2049 83.6007 79.8503 83.218C79.4956 82.8353 79.0056 82.644 78.3803 82.644C77.8389 82.644 77.3909 82.8353 77.0363 83.218C76.6816 83.5913 76.4669 84.1373 76.3923 84.856ZM85.1835 89.168C84.6328 89.168 84.1335 89.098 83.6855 88.958C83.2468 88.818 82.8828 88.636 82.5935 88.412L83.1255 87.362C83.3682 87.5673 83.6715 87.74 84.0355 87.88C84.4088 88.0107 84.8055 88.076 85.2255 88.076C85.7482 88.076 86.1402 87.992 86.4015 87.824C86.6722 87.6467 86.8075 87.4227 86.8075 87.152C86.8075 86.956 86.7562 86.7833 86.6535 86.634C86.5602 86.4847 86.3828 86.34 86.1215 86.2C85.8602 86.0507 85.4822 85.892 84.9875 85.724C84.3062 85.4907 83.7928 85.2153 83.4475 84.898C83.1115 84.5713 82.9435 84.1233 82.9435 83.554C82.9435 82.994 83.1862 82.5227 83.6715 82.14C84.1662 81.748 84.8475 81.552 85.7155 81.552C86.1822 81.552 86.5975 81.6033 86.9615 81.706C87.3255 81.7993 87.6522 81.9207 87.9415 82.07L87.5915 83.106C87.3395 82.9567 87.0502 82.8353 86.7235 82.742C86.4062 82.6487 86.0515 82.602 85.6595 82.602C85.1742 82.602 84.8055 82.7 84.5535 82.896C84.3015 83.092 84.1755 83.3067 84.1755 83.54C84.1755 83.764 84.2735 83.9553 84.4695 84.114C84.6655 84.2727 85.0482 84.4453 85.6175 84.632C86.5415 84.94 87.1855 85.2807 87.5495 85.654C87.9135 86.0273 88.0955 86.494 88.0955 87.054C88.0955 87.7073 87.8295 88.2253 87.2975 88.608C86.7748 88.9813 86.0702 89.168 85.1835 89.168ZM92.3203 89.168C91.6203 89.168 91.065 88.9393 90.6543 88.482C90.253 88.0153 90.0523 87.3527 90.0523 86.494V83.078H88.7923V81.986H90.0803L90.3463 79.69H91.3123V81.986H93.3283V83.078H91.3123V86.592C91.3123 87.1333 91.4243 87.5113 91.6483 87.726C91.8817 87.9407 92.157 88.048 92.4743 88.048C92.7077 88.048 92.927 88.0107 93.1323 87.936C93.347 87.8613 93.543 87.7727 93.7203 87.67L94.0703 88.678C93.8837 88.79 93.6317 88.8973 93.3143 89C92.997 89.112 92.6657 89.168 92.3203 89.168ZM97.8494 89.168C97.2427 89.168 96.692 89.014 96.1974 88.706C95.7027 88.398 95.306 87.964 95.0074 87.404C94.718 86.8347 94.5734 86.1673 94.5734 85.402C94.5734 84.674 94.718 84.0207 95.0074 83.442C95.306 82.8633 95.712 82.406 96.2254 82.07C96.748 81.7247 97.3454 81.552 98.0174 81.552C98.4374 81.552 98.8154 81.6267 99.1514 81.776C99.4967 81.916 99.7954 82.0933 100.047 82.308V81.72H101.195V87.236C101.195 87.5907 101.279 87.824 101.447 87.936C101.625 88.0387 101.816 88.09 102.021 88.09L101.755 89.07C100.859 89.07 100.318 88.706 100.131 87.978C99.9167 88.2767 99.6227 88.552 99.2494 88.804C98.8854 89.0467 98.4187 89.168 97.8494 89.168ZM98.1294 88.048C98.484 88.048 98.82 87.964 99.1374 87.796C99.4547 87.6187 99.7207 87.3993 99.9354 87.138V83.232C99.6834 83.0547 99.4034 82.9147 99.0954 82.812C98.7967 82.7 98.4794 82.644 98.1434 82.644C97.6954 82.644 97.2987 82.7607 96.9534 82.994C96.6174 83.218 96.3514 83.5353 96.1554 83.946C95.9594 84.3473 95.8614 84.8187 95.8614 85.36C95.8614 85.8827 95.9594 86.3493 96.1554 86.76C96.3514 87.1613 96.622 87.4787 96.9674 87.712C97.3127 87.936 97.7 88.048 98.1294 88.048ZM106.325 89.168C105.728 89.168 105.182 89.014 104.687 88.706C104.193 88.398 103.801 87.964 103.511 87.404C103.222 86.8347 103.077 86.1673 103.077 85.402C103.077 84.6647 103.222 84.0067 103.511 83.428C103.81 82.8493 104.202 82.392 104.687 82.056C105.182 81.72 105.723 81.552 106.311 81.552C106.797 81.552 107.212 81.65 107.557 81.846C107.912 82.042 108.187 82.2427 108.383 82.448V78.64H109.643V87.236C109.643 87.5907 109.727 87.824 109.895 87.936C110.073 88.0387 110.264 88.09 110.469 88.09L110.203 89.07C109.317 89.07 108.775 88.7153 108.579 88.006C108.374 88.2953 108.085 88.5613 107.711 88.804C107.347 89.0467 106.885 89.168 106.325 89.168ZM106.605 88.048C106.951 88.048 107.277 87.9687 107.585 87.81C107.903 87.642 108.169 87.4273 108.383 87.166V83.554C108.206 83.33 107.959 83.1247 107.641 82.938C107.324 82.742 106.974 82.644 106.591 82.644C106.143 82.644 105.751 82.7653 105.415 83.008C105.079 83.2507 104.818 83.5773 104.631 83.988C104.454 84.3893 104.365 84.8467 104.365 85.36C104.365 85.8733 104.463 86.3353 104.659 86.746C104.855 87.1473 105.121 87.4647 105.457 87.698C105.803 87.9313 106.185 88.048 106.605 88.048ZM115.082 89.168C114.392 89.168 113.771 89.0093 113.22 88.692C112.67 88.3653 112.236 87.9173 111.918 87.348C111.61 86.7693 111.456 86.1067 111.456 85.36C111.456 84.576 111.615 83.8993 111.932 83.33C112.25 82.7607 112.684 82.322 113.234 82.014C113.785 81.706 114.401 81.552 115.082 81.552C115.764 81.552 116.375 81.706 116.916 82.014C117.467 82.322 117.901 82.7607 118.218 83.33C118.545 83.89 118.708 84.5573 118.708 85.332C118.708 86.1067 118.55 86.7833 118.232 87.362C117.915 87.9313 117.481 88.3747 116.93 88.692C116.389 89.0093 115.773 89.168 115.082 89.168ZM115.082 88.048C115.82 88.048 116.394 87.8007 116.804 87.306C117.215 86.802 117.42 86.1533 117.42 85.36C117.42 84.8747 117.318 84.4313 117.112 84.03C116.907 83.6193 116.627 83.2927 116.272 83.05C115.927 82.798 115.53 82.672 115.082 82.672C114.345 82.672 113.771 82.9147 113.36 83.4C112.95 83.8853 112.744 84.5293 112.744 85.332C112.744 85.8173 112.847 86.27 113.052 86.69C113.258 87.1007 113.533 87.432 113.878 87.684C114.233 87.9267 114.634 88.048 115.082 88.048ZM127.339 89.168C126.742 89.168 126.196 89.014 125.701 88.706C125.206 88.398 124.814 87.964 124.525 87.404C124.236 86.8347 124.091 86.1673 124.091 85.402C124.091 84.6647 124.236 84.0067 124.525 83.428C124.824 82.8493 125.216 82.392 125.701 82.056C126.196 81.72 126.737 81.552 127.325 81.552C127.81 81.552 128.226 81.65 128.571 81.846C128.926 82.042 129.201 82.2427 129.397 82.448V78.64H130.657V87.236C130.657 87.5907 130.741 87.824 130.909 87.936C131.086 88.0387 131.278 88.09 131.483 88.09L131.217 89.07C130.33 89.07 129.789 88.7153 129.593 88.006C129.388 88.2953 129.098 88.5613 128.725 88.804C128.361 89.0467 127.899 89.168 127.339 89.168ZM127.619 88.048C127.964 88.048 128.291 87.9687 128.599 87.81C128.916 87.642 129.182 87.4273 129.397 87.166V83.554C129.22 83.33 128.972 83.1247 128.655 82.938C128.338 82.742 127.988 82.644 127.605 82.644C127.157 82.644 126.765 82.7653 126.429 83.008C126.093 83.2507 125.832 83.5773 125.645 83.988C125.468 84.3893 125.379 84.8467 125.379 85.36C125.379 85.8733 125.477 86.3353 125.673 86.746C125.869 87.1473 126.135 87.4647 126.471 87.698C126.816 87.9313 127.199 88.048 127.619 88.048ZM135.942 89.168C134.897 89.168 134.066 88.8367 133.45 88.174C132.843 87.502 132.54 86.564 132.54 85.36C132.54 84.632 132.675 83.9833 132.946 83.414C133.226 82.8353 133.613 82.3827 134.108 82.056C134.603 81.72 135.177 81.552 135.83 81.552C136.53 81.552 137.109 81.706 137.566 82.014C138.033 82.3127 138.383 82.7187 138.616 83.232C138.849 83.7453 138.966 84.31 138.966 84.926C138.966 85.2527 138.952 85.57 138.924 85.878H133.828C133.912 86.5593 134.15 87.0913 134.542 87.474C134.934 87.8567 135.452 88.048 136.096 88.048C136.516 88.048 136.894 88.006 137.23 87.922C137.566 87.8287 137.888 87.712 138.196 87.572L138.49 88.65C138.154 88.7993 137.776 88.9207 137.356 89.014C136.936 89.1167 136.465 89.168 135.942 89.168ZM133.814 84.856H137.804C137.804 84.1467 137.627 83.6007 137.272 83.218C136.917 82.8353 136.427 82.644 135.802 82.644C135.261 82.644 134.813 82.8353 134.458 83.218C134.103 83.5913 133.889 84.1373 133.814 84.856ZM142.857 89.168C142.428 89.168 142.041 89.0887 141.695 88.93C141.35 88.762 141.075 88.496 140.869 88.132C140.673 87.768 140.575 87.2967 140.575 86.718V78.64H141.835V86.592C141.835 87.096 141.938 87.4693 142.143 87.712C142.358 87.9547 142.652 88.076 143.025 88.076C143.203 88.076 143.375 88.0573 143.543 88.02C143.721 87.9733 143.87 87.922 143.991 87.866L144.299 88.888C144.131 88.9627 143.921 89.028 143.669 89.084C143.427 89.14 143.156 89.168 142.857 89.168ZM151.629 89L148.703 82.056L149.851 81.58L152.329 87.572L154.807 81.58L155.885 82.056L152.945 89H151.629ZM159.786 89.168C158.741 89.168 157.91 88.8367 157.294 88.174C156.687 87.502 156.384 86.564 156.384 85.36C156.384 84.632 156.519 83.9833 156.79 83.414C157.07 82.8353 157.457 82.3827 157.952 82.056C158.447 81.72 159.021 81.552 159.674 81.552C160.374 81.552 160.953 81.706 161.41 82.014C161.877 82.3127 162.227 82.7187 162.46 83.232C162.693 83.7453 162.81 84.31 162.81 84.926C162.81 85.2527 162.796 85.57 162.768 85.878H157.672C157.756 86.5593 157.994 87.0913 158.386 87.474C158.778 87.8567 159.296 88.048 159.94 88.048C160.36 88.048 160.738 88.006 161.074 87.922C161.41 87.8287 161.732 87.712 162.04 87.572L162.334 88.65C161.998 88.7993 161.62 88.9207 161.2 89.014C160.78 89.1167 160.309 89.168 159.786 89.168ZM157.658 84.856H161.648C161.648 84.1467 161.471 83.6007 161.116 83.218C160.761 82.8353 160.271 82.644 159.646 82.644C159.105 82.644 158.657 82.8353 158.302 83.218C157.947 83.5913 157.733 84.1373 157.658 84.856ZM164.489 89V78.64H165.749V82.882C166.01 82.4993 166.342 82.182 166.743 81.93C167.144 81.678 167.616 81.552 168.157 81.552C168.978 81.552 169.59 81.7993 169.991 82.294C170.402 82.7887 170.607 83.442 170.607 84.254V89H169.347V84.394C169.347 83.8713 169.226 83.4513 168.983 83.134C168.74 82.8167 168.4 82.658 167.961 82.658C167.532 82.658 167.121 82.812 166.729 83.12C166.346 83.4187 166.02 83.7733 165.749 84.184V89H164.489ZM172.774 89V81.72H174.034V89H172.774ZM172.214 80.95L171.78 80.096L174.426 78.346L175.014 79.522L172.214 80.95ZM179.214 89.168C178.524 89.168 177.917 89.0093 177.394 88.692C176.881 88.3653 176.484 87.9173 176.204 87.348C175.924 86.7693 175.784 86.1067 175.784 85.36C175.784 84.66 175.924 84.0207 176.204 83.442C176.494 82.8633 176.904 82.406 177.436 82.07C177.968 81.7247 178.594 81.552 179.312 81.552C179.723 81.552 180.082 81.5893 180.39 81.664C180.708 81.7387 181.011 81.846 181.3 81.986L180.922 83.05C180.661 82.9193 180.409 82.826 180.166 82.77C179.933 82.7047 179.672 82.672 179.382 82.672C178.729 82.672 178.178 82.91 177.73 83.386C177.292 83.8527 177.072 84.5013 177.072 85.332C177.072 85.836 177.166 86.2933 177.352 86.704C177.539 87.1147 177.796 87.4413 178.122 87.684C178.458 87.9267 178.85 88.048 179.298 88.048C179.653 88.048 179.956 88.0107 180.208 87.936C180.46 87.852 180.731 87.7353 181.02 87.586L181.412 88.65C181.123 88.8087 180.796 88.9347 180.432 89.028C180.078 89.1213 179.672 89.168 179.214 89.168ZM185.258 89.168C184.838 89.168 184.441 89.0793 184.068 88.902C183.694 88.7247 183.391 88.44 183.158 88.048C182.924 87.6467 182.808 87.1147 182.808 86.452V81.72H184.068V86.284C184.068 86.8533 184.189 87.292 184.432 87.6C184.674 87.8987 185.029 88.048 185.496 88.048C185.878 88.048 186.247 87.9733 186.602 87.824C186.966 87.6653 187.288 87.4553 187.568 87.194V81.72H188.828V87.11C188.828 87.5113 188.912 87.7773 189.08 87.908C189.257 88.0293 189.448 88.09 189.654 88.09L189.388 89.07C188.52 89.07 187.983 88.7247 187.778 88.034C187.451 88.37 187.073 88.6453 186.644 88.86C186.214 89.0653 185.752 89.168 185.258 89.168ZM193.539 89.168C193.11 89.168 192.722 89.0887 192.377 88.93C192.032 88.762 191.756 88.496 191.551 88.132C191.355 87.768 191.257 87.2967 191.257 86.718V78.64H192.517V86.592C192.517 87.096 192.62 87.4693 192.825 87.712C193.04 87.9547 193.334 88.076 193.707 88.076C193.884 88.076 194.057 88.0573 194.225 88.02C194.402 87.9733 194.552 87.922 194.673 87.866L194.981 88.888C194.813 88.9627 194.603 89.028 194.351 89.084C194.108 89.14 193.838 89.168 193.539 89.168ZM199.028 89.168C198.337 89.168 197.716 89.0093 197.166 88.692C196.615 88.3653 196.181 87.9173 195.864 87.348C195.556 86.7693 195.402 86.1067 195.402 85.36C195.402 84.576 195.56 83.8993 195.878 83.33C196.195 82.7607 196.629 82.322 197.18 82.014C197.73 81.706 198.346 81.552 199.028 81.552C199.709 81.552 200.32 81.706 200.862 82.014C201.412 82.322 201.846 82.7607 202.164 83.33C202.49 83.89 202.654 84.5573 202.654 85.332C202.654 86.1067 202.495 86.7833 202.178 87.362C201.86 87.9313 201.426 88.3747 200.876 88.692C200.334 89.0093 199.718 89.168 199.028 89.168ZM199.028 88.048C199.765 88.048 200.339 87.8007 200.75 87.306C201.16 86.802 201.366 86.1533 201.366 85.36C201.366 84.8747 201.263 84.4313 201.058 84.03C200.852 83.6193 200.572 83.2927 200.218 83.05C199.872 82.798 199.476 82.672 199.028 82.672C198.29 82.672 197.716 82.9147 197.306 83.4C196.895 83.8853 196.69 84.5293 196.69 85.332C196.69 85.8173 196.792 86.27 196.998 86.69C197.203 87.1007 197.478 87.432 197.824 87.684C198.178 87.9267 198.58 88.048 199.028 88.048Z" fill="#5E5E5E"/>
</svg>
