<svg width="359" height="94" viewBox="0 0 359 94" fill="none" xmlns="http://www.w3.org/2000/svg">
<path d="M18.992 14H17.36V2.8H19.248L25.056 11.488V2.8H26.704V14H24.8L18.992 5.28V14ZM36.5109 10.288C36.5109 12.656 34.9269 14.176 32.7029 14.176C30.5109 14.176 28.9109 12.656 28.9109 10.288V9.232C28.9109 6.88 30.4949 5.344 32.7029 5.344C34.9269 5.344 36.5109 6.864 36.5109 9.232V10.288ZM34.8309 9.312C34.8309 7.808 34.0309 6.832 32.7029 6.832C31.3909 6.832 30.5909 7.808 30.5909 9.312V10.224C30.5909 11.728 31.3909 12.688 32.7029 12.688C34.0309 12.688 34.8309 11.728 34.8309 10.224V9.312ZM40.335 8.928V14H38.639V5.536H40.335V7.04C40.799 6 41.743 5.36 42.831 5.36C44.159 5.36 45.167 6.16 45.551 7.344C45.951 6.144 46.959 5.36 48.223 5.36C49.983 5.36 51.151 6.736 51.151 8.496V14H49.455V8.88C49.455 7.744 48.719 6.88 47.631 6.88C46.527 6.88 45.743 7.76 45.743 8.928V14H44.047V8.88C44.047 7.744 43.311 6.88 42.239 6.88C41.119 6.88 40.335 7.76 40.335 8.928ZM53.6859 14V2.208H55.3819V6.768C55.9579 5.872 56.8699 5.344 57.9899 5.344C59.9739 5.344 61.4139 6.864 61.4139 9.184V10.352C61.4139 12.672 59.9579 14.176 57.9899 14.176C56.8539 14.176 55.9419 13.632 55.3819 12.704V14H53.6859ZM55.3819 9.312V10.224C55.3819 11.728 56.2139 12.688 57.5579 12.688C58.9179 12.688 59.7339 11.728 59.7339 10.224V9.312C59.7339 7.808 58.9179 6.832 57.5579 6.832C56.2139 6.832 55.3819 7.808 55.3819 9.312ZM68.1216 7.12H67.2416C66.1536 7.12 65.2256 7.984 65.2256 9.312V14H63.5296V5.536H65.2256V7.184C65.5776 6.16 66.3456 5.456 67.4336 5.456H68.1216V7.12ZM69.0984 10.272V9.264C69.0984 6.928 70.6344 5.344 72.8264 5.344C74.8584 5.344 76.2984 6.944 76.2984 9.216V10.304H70.7624C70.7784 11.792 71.6264 12.704 72.9544 12.704C73.7864 12.704 74.4584 12.384 75.0664 11.712L76.1384 12.704C75.3384 13.648 74.2984 14.176 72.9064 14.176C70.6664 14.176 69.0984 12.608 69.0984 10.272ZM72.7624 6.832C71.6264 6.832 70.8584 7.632 70.7784 8.976H74.6824C74.6344 7.648 73.8824 6.832 72.7624 6.832Z" fill="black"/>
<rect x="16" y="24" width="327" height="42" rx="8" fill="#E8E8E8"/>
<path d="M19.836 89.112C19.304 89.112 18.8373 89.098 18.436 89.07C18.044 89.042 17.652 89.0093 17.26 88.972V79.228C17.6987 79.1813 18.128 79.1487 18.548 79.13C18.968 79.102 19.4487 79.088 19.99 79.088C20.83 79.088 21.5533 79.2187 22.16 79.48C22.776 79.7413 23.28 80.1007 23.672 80.558C24.0733 81.0153 24.3673 81.5473 24.554 82.154C24.75 82.7513 24.848 83.3953 24.848 84.086C24.848 84.7673 24.75 85.4113 24.554 86.018C24.358 86.6247 24.0547 87.1613 23.644 87.628C23.2427 88.0853 22.7247 88.4493 22.09 88.72C21.4647 88.9813 20.7133 89.112 19.836 89.112ZM19.878 87.95C20.718 87.95 21.404 87.7867 21.936 87.46C22.468 87.1333 22.86 86.6807 23.112 86.102C23.364 85.514 23.49 84.842 23.49 84.086C23.49 83.414 23.364 82.784 23.112 82.196C22.86 81.608 22.4727 81.1367 21.95 80.782C21.4273 80.418 20.76 80.236 19.948 80.236C19.6773 80.236 19.43 80.2453 19.206 80.264C18.982 80.2733 18.7767 80.2873 18.59 80.306V87.88C18.786 87.908 18.9913 87.9267 19.206 87.936C19.4207 87.9453 19.6447 87.95 19.878 87.95ZM26.663 89V81.72H27.923V89H26.663ZM27.293 80.474C27.0503 80.474 26.8403 80.3853 26.663 80.208C26.495 80.0307 26.411 79.8253 26.411 79.592C26.411 79.3213 26.4903 79.1067 26.649 78.948C26.8076 78.7893 27.0223 78.71 27.293 78.71C27.5356 78.71 27.741 78.7987 27.909 78.976C28.0863 79.144 28.175 79.3493 28.175 79.592C28.175 79.8533 28.0956 80.068 27.937 80.236C27.7783 80.3947 27.5636 80.474 27.293 80.474ZM32.837 92.248C32.4076 92.248 31.9876 92.1967 31.577 92.094C31.1756 91.9913 30.8163 91.8373 30.499 91.632L30.961 90.54C31.185 90.7173 31.4463 90.862 31.745 90.974C32.0436 91.0953 32.4076 91.156 32.837 91.156C33.4996 91.156 34.0176 90.9787 34.391 90.624C34.7736 90.2787 34.965 89.7233 34.965 88.958V88.062C34.7783 88.286 34.5076 88.5007 34.153 88.706C33.8076 88.902 33.3923 89 32.907 89C32.3563 89 31.8336 88.86 31.339 88.58C30.8443 88.2907 30.443 87.8707 30.135 87.32C29.827 86.7693 29.673 86.1067 29.673 85.332C29.673 84.604 29.8223 83.9553 30.121 83.386C30.429 82.8167 30.8396 82.3687 31.353 82.042C31.8663 81.7153 32.431 81.552 33.047 81.552C33.4576 81.552 33.831 81.622 34.167 81.762C34.503 81.902 34.7923 82.0747 35.035 82.28V81.72H36.183V88.832C36.183 89.6347 36.043 90.288 35.763 90.792C35.483 91.296 35.091 91.6647 34.587 91.898C34.0923 92.1313 33.509 92.248 32.837 92.248ZM33.187 87.88C33.5603 87.88 33.8963 87.796 34.195 87.628C34.4936 87.46 34.7363 87.264 34.923 87.04V83.232C34.7176 83.0827 34.4703 82.9473 34.181 82.826C33.8916 82.7047 33.5556 82.644 33.173 82.644C32.7903 82.644 32.431 82.7467 32.095 82.952C31.759 83.1573 31.4836 83.456 31.269 83.848C31.0636 84.2307 30.961 84.702 30.961 85.262C30.961 85.794 31.0636 86.256 31.269 86.648C31.4836 87.04 31.759 87.3433 32.095 87.558C32.431 87.7727 32.795 87.88 33.187 87.88ZM38.3524 89V81.72H39.6124V89H38.3524ZM38.9824 80.474C38.7398 80.474 38.5298 80.3853 38.3524 80.208C38.1844 80.0307 38.1004 79.8253 38.1004 79.592C38.1004 79.3213 38.1798 79.1067 38.3384 78.948C38.4971 78.7893 38.7118 78.71 38.9824 78.71C39.2251 78.71 39.4304 78.7987 39.5984 78.976C39.7758 79.144 39.8644 79.3493 39.8644 79.592C39.8644 79.8533 39.7851 80.068 39.6264 80.236C39.4678 80.3947 39.2531 80.474 38.9824 80.474ZM44.4004 89.168C43.7004 89.168 43.1451 88.9393 42.7344 88.482C42.3331 88.0153 42.1324 87.3527 42.1324 86.494V83.078H40.8724V81.986H42.1604L42.4264 79.69H43.3924V81.986H45.4084V83.078H43.3924V86.592C43.3924 87.1333 43.5044 87.5113 43.7284 87.726C43.9618 87.9407 44.2371 88.048 44.5544 88.048C44.7878 88.048 45.0071 88.0107 45.2124 87.936C45.4271 87.8613 45.6231 87.7727 45.8004 87.67L46.1504 88.678C45.9638 88.79 45.7118 88.8973 45.3944 89C45.0771 89.112 44.7458 89.168 44.4004 89.168ZM50.0554 89.168C49.0101 89.168 48.1794 88.8367 47.5634 88.174C46.9568 87.502 46.6534 86.564 46.6534 85.36C46.6534 84.632 46.7888 83.9833 47.0594 83.414C47.3394 82.8353 47.7268 82.3827 48.2214 82.056C48.7161 81.72 49.2901 81.552 49.9434 81.552C50.6434 81.552 51.2221 81.706 51.6794 82.014C52.1461 82.3127 52.4961 82.7187 52.7294 83.232C52.9628 83.7453 53.0794 84.31 53.0794 84.926C53.0794 85.2527 53.0654 85.57 53.0374 85.878H47.9414C48.0254 86.5593 48.2634 87.0913 48.6554 87.474C49.0474 87.8567 49.5654 88.048 50.2094 88.048C50.6294 88.048 51.0074 88.006 51.3434 87.922C51.6794 87.8287 52.0014 87.712 52.3094 87.572L52.6034 88.65C52.2674 88.7993 51.8894 88.9207 51.4694 89.014C51.0494 89.1167 50.5781 89.168 50.0554 89.168ZM47.9274 84.856H51.9174C51.9174 84.1467 51.7401 83.6007 51.3854 83.218C51.0308 82.8353 50.5408 82.644 49.9154 82.644C49.3741 82.644 48.9261 82.8353 48.5714 83.218C48.2168 83.5913 48.0021 84.1373 47.9274 84.856ZM61.8679 89.168C60.8226 89.168 59.9919 88.8367 59.3759 88.174C58.7693 87.502 58.4659 86.564 58.4659 85.36C58.4659 84.632 58.6013 83.9833 58.8719 83.414C59.1519 82.8353 59.5393 82.3827 60.0339 82.056C60.5286 81.72 61.1026 81.552 61.7559 81.552C62.4559 81.552 63.0346 81.706 63.4919 82.014C63.9586 82.3127 64.3086 82.7187 64.5419 83.232C64.7753 83.7453 64.8919 84.31 64.8919 84.926C64.8919 85.2527 64.8779 85.57 64.8499 85.878H59.7539C59.8379 86.5593 60.0759 87.0913 60.4679 87.474C60.8599 87.8567 61.3779 88.048 62.0219 88.048C62.4419 88.048 62.8199 88.006 63.1559 87.922C63.4919 87.8287 63.8139 87.712 64.1219 87.572L64.4159 88.65C64.0799 88.7993 63.7019 88.9207 63.2819 89.014C62.8619 89.1167 62.3906 89.168 61.8679 89.168ZM59.7399 84.856H63.7299C63.7299 84.1467 63.5526 83.6007 63.1979 83.218C62.8433 82.8353 62.3533 82.644 61.7279 82.644C61.1866 82.644 60.7386 82.8353 60.3839 83.218C60.0293 83.5913 59.8146 84.1373 59.7399 84.856ZM68.7832 89.168C68.3538 89.168 67.9665 89.0887 67.6212 88.93C67.2758 88.762 67.0005 88.496 66.7952 88.132C66.5992 87.768 66.5012 87.2967 66.5012 86.718V78.64H67.7612V86.592C67.7612 87.096 67.8638 87.4693 68.0692 87.712C68.2838 87.9547 68.5778 88.076 68.9512 88.076C69.1285 88.076 69.3012 88.0573 69.4692 88.02C69.6465 87.9733 69.7958 87.922 69.9172 87.866L70.2252 88.888C70.0572 88.9627 69.8472 89.028 69.5952 89.084C69.3525 89.14 69.0818 89.168 68.7832 89.168ZM75.6083 89V81.72H76.8263V82.938C77.0876 82.546 77.4189 82.2193 77.8203 81.958C78.2309 81.6873 78.7163 81.552 79.2763 81.552C80.0976 81.552 80.7089 81.7993 81.1103 82.294C81.5209 82.7887 81.7263 83.442 81.7263 84.254V89H80.4663V84.394C80.4663 83.8713 80.3403 83.4513 80.0883 83.134C79.8456 82.8167 79.5049 82.658 79.0663 82.658C78.6369 82.658 78.2309 82.812 77.8483 83.12C77.4656 83.4187 77.1389 83.7733 76.8683 84.184V89H75.6083ZM86.9594 89.168C86.2688 89.168 85.6481 89.0093 85.0974 88.692C84.5468 88.3653 84.1128 87.9173 83.7954 87.348C83.4874 86.7693 83.3334 86.1067 83.3334 85.36C83.3334 84.576 83.4921 83.8993 83.8094 83.33C84.1268 82.7607 84.5608 82.322 85.1114 82.014C85.6621 81.706 86.2781 81.552 86.9594 81.552C87.6408 81.552 88.2521 81.706 88.7934 82.014C89.3441 82.322 89.7781 82.7607 90.0954 83.33C90.4221 83.89 90.5854 84.5573 90.5854 85.332C90.5854 86.1067 90.4268 86.7833 90.1094 87.362C89.7921 87.9313 89.3581 88.3747 88.8074 88.692C88.2661 89.0093 87.6501 89.168 86.9594 89.168ZM86.9594 88.048C87.6968 88.048 88.2708 87.8007 88.6814 87.306C89.0921 86.802 89.2974 86.1533 89.2974 85.36C89.2974 84.8747 89.1948 84.4313 88.9894 84.03C88.7841 83.6193 88.5041 83.2927 88.1494 83.05C87.8041 82.798 87.4074 82.672 86.9594 82.672C86.2221 82.672 85.6481 82.9147 85.2374 83.4C84.8268 83.8853 84.6214 84.5293 84.6214 85.332C84.6214 85.8173 84.7241 86.27 84.9294 86.69C85.1348 87.1007 85.4101 87.432 85.7554 87.684C86.1101 87.9267 86.5114 88.048 86.9594 88.048ZM92.2606 89V81.72H93.4786V82.938C93.74 82.546 94.0713 82.2193 94.4726 81.958C94.874 81.6873 95.3313 81.552 95.8446 81.552C96.4233 81.552 96.8946 81.692 97.2586 81.972C97.632 82.252 97.8933 82.6253 98.0426 83.092C98.332 82.6627 98.6726 82.2987 99.0646 82C99.466 81.7013 99.9606 81.552 100.549 81.552C101.342 81.552 101.93 81.804 102.313 82.308C102.705 82.8027 102.901 83.4513 102.901 84.254V89H101.641V84.352C101.641 83.848 101.524 83.442 101.291 83.134C101.057 82.8167 100.735 82.658 100.325 82.658C99.9046 82.658 99.5126 82.8167 99.1486 83.134C98.794 83.442 98.4813 83.806 98.2106 84.226V89H96.9506V84.352C96.9506 83.848 96.834 83.442 96.6006 83.134C96.3673 82.8167 96.0453 82.658 95.6346 82.658C95.224 82.658 94.8366 82.812 94.4726 83.12C94.1086 83.4187 93.7913 83.7733 93.5206 84.184V89H92.2606ZM108.347 89.168C107.927 89.168 107.531 89.0933 107.157 88.944C106.793 88.7853 106.49 88.6033 106.247 88.398V89H105.071V78.64H106.331V82.476C106.518 82.2613 106.789 82.056 107.143 81.86C107.507 81.6547 107.937 81.552 108.431 81.552C108.991 81.552 109.514 81.7013 109.999 82C110.494 82.2893 110.891 82.714 111.189 83.274C111.488 83.8247 111.637 84.4967 111.637 85.29C111.637 85.8687 111.544 86.396 111.357 86.872C111.171 87.348 110.919 87.7587 110.601 88.104C110.293 88.44 109.943 88.7013 109.551 88.888C109.159 89.0747 108.758 89.168 108.347 89.168ZM108.011 88.048C108.469 88.048 108.87 87.936 109.215 87.712C109.57 87.488 109.845 87.1707 110.041 86.76C110.247 86.3493 110.349 85.8733 110.349 85.332C110.349 84.772 110.247 84.2913 110.041 83.89C109.845 83.4887 109.579 83.1807 109.243 82.966C108.917 82.7513 108.553 82.644 108.151 82.644C107.75 82.644 107.386 82.7467 107.059 82.952C106.742 83.148 106.499 83.3627 106.331 83.596V87.488C106.546 87.656 106.798 87.7913 107.087 87.894C107.377 87.9967 107.685 88.048 108.011 88.048ZM113.384 89V81.72H114.602V83.302C114.723 82.994 114.886 82.7093 115.092 82.448C115.297 82.1773 115.554 81.9627 115.862 81.804C116.17 81.636 116.529 81.552 116.94 81.552C117.08 81.552 117.22 81.5613 117.36 81.58C117.5 81.5893 117.616 81.608 117.71 81.636L117.332 82.938C117.154 82.8633 116.944 82.826 116.702 82.826C116.356 82.826 116.025 82.924 115.708 83.12C115.4 83.316 115.143 83.6193 114.938 84.03C114.742 84.4407 114.644 84.9633 114.644 85.598V89H113.384ZM121.464 89.168C120.418 89.168 119.588 88.8367 118.972 88.174C118.365 87.502 118.062 86.564 118.062 85.36C118.062 84.632 118.197 83.9833 118.468 83.414C118.748 82.8353 119.135 82.3827 119.63 82.056C120.124 81.72 120.698 81.552 121.352 81.552C122.052 81.552 122.63 81.706 123.088 82.014C123.554 82.3127 123.904 82.7187 124.138 83.232C124.371 83.7453 124.488 84.31 124.488 84.926C124.488 85.2527 124.474 85.57 124.446 85.878H119.35C119.434 86.5593 119.672 87.0913 120.064 87.474C120.456 87.8567 120.974 88.048 121.618 88.048C122.038 88.048 122.416 88.006 122.752 87.922C123.088 87.8287 123.41 87.712 123.718 87.572L124.012 88.65C123.676 88.7993 123.298 88.9207 122.878 89.014C122.458 89.1167 121.986 89.168 121.464 89.168ZM119.336 84.856H123.326C123.326 84.1467 123.148 83.6007 122.794 83.218C122.439 82.8353 121.949 82.644 121.324 82.644C120.782 82.644 120.334 82.8353 119.98 83.218C119.625 83.5913 119.41 84.1373 119.336 84.856ZM133.122 89.168C132.525 89.168 131.979 89.014 131.484 88.706C130.989 88.398 130.597 87.964 130.308 87.404C130.019 86.8347 129.874 86.1673 129.874 85.402C129.874 84.6647 130.019 84.0067 130.308 83.428C130.607 82.8493 130.999 82.392 131.484 82.056C131.979 81.72 132.52 81.552 133.108 81.552C133.593 81.552 134.009 81.65 134.354 81.846C134.709 82.042 134.984 82.2427 135.18 82.448V78.64H136.44V87.236C136.44 87.5907 136.524 87.824 136.692 87.936C136.869 88.0387 137.061 88.09 137.266 88.09L137 89.07C136.113 89.07 135.572 88.7153 135.376 88.006C135.171 88.2953 134.881 88.5613 134.508 88.804C134.144 89.0467 133.682 89.168 133.122 89.168ZM133.402 88.048C133.747 88.048 134.074 87.9687 134.382 87.81C134.699 87.642 134.965 87.4273 135.18 87.166V83.554C135.003 83.33 134.755 83.1247 134.438 82.938C134.121 82.742 133.771 82.644 133.388 82.644C132.94 82.644 132.548 82.7653 132.212 83.008C131.876 83.2507 131.615 83.5773 131.428 83.988C131.251 84.3893 131.162 84.8467 131.162 85.36C131.162 85.8733 131.26 86.3353 131.456 86.746C131.652 87.1473 131.918 87.4647 132.254 87.698C132.599 87.9313 132.982 88.048 133.402 88.048ZM141.725 89.168C140.68 89.168 139.849 88.8367 139.233 88.174C138.627 87.502 138.323 86.564 138.323 85.36C138.323 84.632 138.459 83.9833 138.729 83.414C139.009 82.8353 139.397 82.3827 139.891 82.056C140.386 81.72 140.96 81.552 141.613 81.552C142.313 81.552 142.892 81.706 143.349 82.014C143.816 82.3127 144.166 82.7187 144.399 83.232C144.633 83.7453 144.749 84.31 144.749 84.926C144.749 85.2527 144.735 85.57 144.707 85.878H139.611C139.695 86.5593 139.933 87.0913 140.325 87.474C140.717 87.8567 141.235 88.048 141.879 88.048C142.299 88.048 142.677 88.006 143.013 87.922C143.349 87.8287 143.671 87.712 143.979 87.572L144.273 88.65C143.937 88.7993 143.559 88.9207 143.139 89.014C142.719 89.1167 142.248 89.168 141.725 89.168ZM139.597 84.856H143.587C143.587 84.1467 143.41 83.6007 143.055 83.218C142.701 82.8353 142.211 82.644 141.585 82.644C141.044 82.644 140.596 82.8353 140.241 83.218C139.887 83.5913 139.672 84.1373 139.597 84.856ZM148.641 89.168C148.211 89.168 147.824 89.0887 147.479 88.93C147.133 88.762 146.858 88.496 146.653 88.132C146.457 87.768 146.359 87.2967 146.359 86.718V78.64H147.619V86.592C147.619 87.096 147.721 87.4693 147.927 87.712C148.141 87.9547 148.435 88.076 148.809 88.076C148.986 88.076 149.159 88.0573 149.327 88.02C149.504 87.9733 149.653 87.922 149.775 87.866L150.083 88.888C149.915 88.9627 149.705 89.028 149.453 89.084C149.21 89.14 148.939 89.168 148.641 89.168ZM157.412 89L154.486 82.056L155.634 81.58L158.112 87.572L160.59 81.58L161.668 82.056L158.728 89H157.412ZM165.569 89.168C164.524 89.168 163.693 88.8367 163.077 88.174C162.47 87.502 162.167 86.564 162.167 85.36C162.167 84.632 162.302 83.9833 162.573 83.414C162.853 82.8353 163.24 82.3827 163.735 82.056C164.23 81.72 164.804 81.552 165.457 81.552C166.157 81.552 166.736 81.706 167.193 82.014C167.66 82.3127 168.01 82.7187 168.243 83.232C168.476 83.7453 168.593 84.31 168.593 84.926C168.593 85.2527 168.579 85.57 168.551 85.878H163.455C163.539 86.5593 163.777 87.0913 164.169 87.474C164.561 87.8567 165.079 88.048 165.723 88.048C166.143 88.048 166.521 88.006 166.857 87.922C167.193 87.8287 167.515 87.712 167.823 87.572L168.117 88.65C167.781 88.7993 167.403 88.9207 166.983 89.014C166.563 89.1167 166.092 89.168 165.569 89.168ZM163.441 84.856H167.431C167.431 84.1467 167.254 83.6007 166.899 83.218C166.544 82.8353 166.054 82.644 165.429 82.644C164.888 82.644 164.44 82.8353 164.085 83.218C163.73 83.5913 163.516 84.1373 163.441 84.856ZM170.272 89V78.64H171.532V82.882C171.794 82.4993 172.125 82.182 172.526 81.93C172.928 81.678 173.399 81.552 173.94 81.552C174.762 81.552 175.373 81.7993 175.774 82.294C176.185 82.7887 176.39 83.442 176.39 84.254V89H175.13V84.394C175.13 83.8713 175.009 83.4513 174.766 83.134C174.524 82.8167 174.183 82.658 173.744 82.658C173.315 82.658 172.904 82.812 172.512 83.12C172.13 83.4187 171.803 83.7733 171.532 84.184V89H170.272ZM178.558 89V81.72H179.818V89H178.558ZM177.998 80.95L177.564 80.096L180.21 78.346L180.798 79.522L177.998 80.95ZM184.998 89.168C184.307 89.168 183.7 89.0093 183.178 88.692C182.664 88.3653 182.268 87.9173 181.988 87.348C181.708 86.7693 181.568 86.1067 181.568 85.36C181.568 84.66 181.708 84.0207 181.988 83.442C182.277 82.8633 182.688 82.406 183.22 82.07C183.752 81.7247 184.377 81.552 185.096 81.552C185.506 81.552 185.866 81.5893 186.174 81.664C186.491 81.7387 186.794 81.846 187.084 81.986L186.706 83.05C186.444 82.9193 186.192 82.826 185.95 82.77C185.716 82.7047 185.455 82.672 185.166 82.672C184.512 82.672 183.962 82.91 183.514 83.386C183.075 83.8527 182.856 84.5013 182.856 85.332C182.856 85.836 182.949 86.2933 183.136 86.704C183.322 87.1147 183.579 87.4413 183.906 87.684C184.242 87.9267 184.634 88.048 185.082 88.048C185.436 88.048 185.74 88.0107 185.992 87.936C186.244 87.852 186.514 87.7353 186.804 87.586L187.196 88.65C186.906 88.8087 186.58 88.9347 186.216 89.028C185.861 89.1213 185.455 89.168 184.998 89.168ZM191.041 89.168C190.621 89.168 190.224 89.0793 189.851 88.902C189.478 88.7247 189.174 88.44 188.941 88.048C188.708 87.6467 188.591 87.1147 188.591 86.452V81.72H189.851V86.284C189.851 86.8533 189.972 87.292 190.215 87.6C190.458 87.8987 190.812 88.048 191.279 88.048C191.662 88.048 192.03 87.9733 192.385 87.824C192.749 87.6653 193.071 87.4553 193.351 87.194V81.72H194.611V87.11C194.611 87.5113 194.695 87.7773 194.863 87.908C195.04 88.0293 195.232 88.09 195.437 88.09L195.171 89.07C194.303 89.07 193.766 88.7247 193.561 88.034C193.234 88.37 192.856 88.6453 192.427 88.86C191.998 89.0653 191.536 89.168 191.041 89.168ZM199.322 89.168C198.893 89.168 198.506 89.0887 198.16 88.93C197.815 88.762 197.54 88.496 197.334 88.132C197.138 87.768 197.04 87.2967 197.04 86.718V78.64H198.3V86.592C198.3 87.096 198.403 87.4693 198.608 87.712C198.823 87.9547 199.117 88.076 199.49 88.076C199.668 88.076 199.84 88.0573 200.008 88.02C200.186 87.9733 200.335 87.922 200.456 87.866L200.764 88.888C200.596 88.9627 200.386 89.028 200.134 89.084C199.892 89.14 199.621 89.168 199.322 89.168ZM204.811 89.168C204.12 89.168 203.5 89.0093 202.949 88.692C202.398 88.3653 201.964 87.9173 201.647 87.348C201.339 86.7693 201.185 86.1067 201.185 85.36C201.185 84.576 201.344 83.8993 201.661 83.33C201.978 82.7607 202.412 82.322 202.963 82.014C203.514 81.706 204.13 81.552 204.811 81.552C205.492 81.552 206.104 81.706 206.645 82.014C207.196 82.322 207.63 82.7607 207.947 83.33C208.274 83.89 208.437 84.5573 208.437 85.332C208.437 86.1067 208.278 86.7833 207.961 87.362C207.644 87.9313 207.21 88.3747 206.659 88.692C206.118 89.0093 205.502 89.168 204.811 89.168ZM204.811 88.048C205.548 88.048 206.122 87.8007 206.533 87.306C206.944 86.802 207.149 86.1533 207.149 85.36C207.149 84.8747 207.046 84.4313 206.841 84.03C206.636 83.6193 206.356 83.2927 206.001 83.05C205.656 82.798 205.259 82.672 204.811 82.672C204.074 82.672 203.5 82.9147 203.089 83.4C202.678 83.8853 202.473 84.5293 202.473 85.332C202.473 85.8173 202.576 86.27 202.781 86.69C202.986 87.1007 203.262 87.432 203.607 87.684C203.962 87.9267 204.363 88.048 204.811 88.048Z" fill="#5E5E5E"/>
</svg>
